G04 #@! TF.GenerationSoftware,KiCad,Pcbnew,7.0.7*
G04 #@! TF.CreationDate,2023-10-01T11:51:17+11:00*
G04 #@! TF.ProjectId,AnalogDiscovery_rs232_5_wire_sniffer,416e616c-6f67-4446-9973-636f76657279,rev?*
G04 #@! TF.SameCoordinates,PX69618a0PY7bfa480*
G04 #@! TF.FileFunction,Copper,L1,Top*
G04 #@! TF.FilePolarity,Positive*
%FSLAX46Y46*%
G04 Gerber Fmt 4.6, Leading zero omitted, Abs format (unit mm)*
G04 Created by KiCad (PCBNEW 7.0.7) date 2023-10-01 11:51:17*
%MOMM*%
%LPD*%
G01*
G04 APERTURE LIST*
G04 Aperture macros list*
%AMRoundRect*
0 Rectangle with rounded corners*
0 $1 Rounding radius*
0 $2 $3 $4 $5 $6 $7 $8 $9 X,Y pos of 4 corners*
0 Add a 4 corners polygon primitive as box body*
4,1,4,$2,$3,$4,$5,$6,$7,$8,$9,$2,$3,0*
0 Add four circle primitives for the rounded corners*
1,1,$1+$1,$2,$3*
1,1,$1+$1,$4,$5*
1,1,$1+$1,$6,$7*
1,1,$1+$1,$8,$9*
0 Add four rect primitives between the rounded corners*
20,1,$1+$1,$2,$3,$4,$5,0*
20,1,$1+$1,$4,$5,$6,$7,0*
20,1,$1+$1,$6,$7,$8,$9,0*
20,1,$1+$1,$8,$9,$2,$3,0*%
%AMFreePoly0*
4,1,19,0.500000,-0.750000,0.000000,-0.750000,0.000000,-0.744911,-0.071157,-0.744911,-0.207708,-0.704816,-0.327430,-0.627875,-0.420627,-0.520320,-0.479746,-0.390866,-0.500000,-0.250000,-0.500000,0.250000,-0.479746,0.390866,-0.420627,0.520320,-0.327430,0.627875,-0.207708,0.704816,-0.071157,0.744911,0.000000,0.744911,0.000000,0.750000,0.500000,0.750000,0.500000,-0.750000,0.500000,-0.750000,
$1*%
%AMFreePoly1*
4,1,19,0.000000,0.744911,0.071157,0.744911,0.207708,0.704816,0.327430,0.627875,0.420627,0.520320,0.479746,0.390866,0.500000,0.250000,0.500000,-0.250000,0.479746,-0.390866,0.420627,-0.520320,0.327430,-0.627875,0.207708,-0.704816,0.071157,-0.744911,0.000000,-0.744911,0.000000,-0.750000,-0.500000,-0.750000,-0.500000,0.750000,0.000000,0.750000,0.000000,0.744911,0.000000,0.744911,
$1*%
G04 Aperture macros list end*
G04 #@! TA.AperFunction,ComponentPad*
%ADD10R,1.700000X1.700000*%
G04 #@! TD*
G04 #@! TA.AperFunction,ComponentPad*
%ADD11O,1.700000X1.700000*%
G04 #@! TD*
G04 #@! TA.AperFunction,SMDPad,CuDef*
%ADD12RoundRect,0.155000X0.155000X-0.212500X0.155000X0.212500X-0.155000X0.212500X-0.155000X-0.212500X0*%
G04 #@! TD*
G04 #@! TA.AperFunction,SMDPad,CuDef*
%ADD13R,3.150000X1.000000*%
G04 #@! TD*
G04 #@! TA.AperFunction,SMDPad,CuDef*
%ADD14FreePoly0,0.000000*%
G04 #@! TD*
G04 #@! TA.AperFunction,SMDPad,CuDef*
%ADD15FreePoly1,0.000000*%
G04 #@! TD*
G04 #@! TA.AperFunction,SMDPad,CuDef*
%ADD16RoundRect,0.155000X-0.212500X-0.155000X0.212500X-0.155000X0.212500X0.155000X-0.212500X0.155000X0*%
G04 #@! TD*
G04 #@! TA.AperFunction,SMDPad,CuDef*
%ADD17RoundRect,0.155000X0.212500X0.155000X-0.212500X0.155000X-0.212500X-0.155000X0.212500X-0.155000X0*%
G04 #@! TD*
G04 #@! TA.AperFunction,SMDPad,CuDef*
%ADD18RoundRect,0.155000X-0.155000X0.212500X-0.155000X-0.212500X0.155000X-0.212500X0.155000X0.212500X0*%
G04 #@! TD*
G04 #@! TA.AperFunction,SMDPad,CuDef*
%ADD19R,1.475000X0.450000*%
G04 #@! TD*
G04 #@! TA.AperFunction,SMDPad,CuDef*
%ADD20R,3.480000X1.846667*%
G04 #@! TD*
G04 #@! TA.AperFunction,SMDPad,CuDef*
%ADD21R,1.560000X0.650000*%
G04 #@! TD*
G04 #@! TA.AperFunction,ViaPad*
%ADD22C,0.800000*%
G04 #@! TD*
G04 #@! TA.AperFunction,Conductor*
%ADD23C,0.250000*%
G04 #@! TD*
G04 #@! TA.AperFunction,Conductor*
%ADD24C,0.500000*%
G04 #@! TD*
G04 #@! TA.AperFunction,Conductor*
%ADD25C,0.800000*%
G04 #@! TD*
G04 APERTURE END LIST*
G04 #@! TA.AperFunction,EtchedComponent*
G36*
X8205200Y14180800D02*
G01*
X7705200Y14180800D01*
X7705200Y14780800D01*
X8205200Y14780800D01*
X8205200Y14180800D01*
G37*
G04 #@! TD.AperFunction*
G04 #@! TA.AperFunction,EtchedComponent*
G36*
X8205200Y16720800D02*
G01*
X7705200Y16720800D01*
X7705200Y17320800D01*
X8205200Y17320800D01*
X8205200Y16720800D01*
G37*
G04 #@! TD.AperFunction*
D10*
X4300000Y50020000D03*
D11*
X1760000Y50020000D03*
X4300000Y47480000D03*
X1760000Y47480000D03*
X4300000Y44940000D03*
X1760000Y44940000D03*
X4300000Y42400000D03*
X1760000Y42400000D03*
X4300000Y39860000D03*
X1760000Y39860000D03*
X4300000Y37320000D03*
X1760000Y37320000D03*
X4300000Y34780000D03*
X1760000Y34780000D03*
X4300000Y32240000D03*
X1760000Y32240000D03*
X4300000Y29700000D03*
X1760000Y29700000D03*
X4300000Y27160000D03*
X1760000Y27160000D03*
X4300000Y24620000D03*
X1760000Y24620000D03*
X4300000Y22080000D03*
X1760000Y22080000D03*
X4300000Y19540000D03*
X1760000Y19540000D03*
X4300000Y17000000D03*
X1760000Y17000000D03*
X4300000Y14460000D03*
X1760000Y14460000D03*
D12*
X34407000Y21736500D03*
X34407000Y22871500D03*
D13*
X40966000Y59830000D03*
X46016000Y59830000D03*
X40966000Y57290000D03*
X46016000Y57290000D03*
X40966000Y54750000D03*
X46016000Y54750000D03*
X40966000Y52210000D03*
X46016000Y52210000D03*
X40966000Y49670000D03*
X46016000Y49670000D03*
X40966000Y47130000D03*
X46016000Y47130000D03*
D14*
X7305200Y14480800D03*
D15*
X8605200Y14480800D03*
D16*
X31359000Y16910500D03*
X32494000Y16910500D03*
D13*
X25719000Y41542000D03*
X30769000Y41542000D03*
X25719000Y39002000D03*
X30769000Y39002000D03*
X25719000Y36462000D03*
X30769000Y36462000D03*
X25719000Y33922000D03*
X30769000Y33922000D03*
X25719000Y31382000D03*
X30769000Y31382000D03*
X25719000Y28842000D03*
X30769000Y28842000D03*
D17*
X44059000Y18180500D03*
X42924000Y18180500D03*
D18*
X41011000Y22871500D03*
X41011000Y21736500D03*
D17*
X44059000Y16910500D03*
X42924000Y16910500D03*
D13*
X10456000Y41542000D03*
X15506000Y41542000D03*
X10456000Y39002000D03*
X15506000Y39002000D03*
X10456000Y36462000D03*
X15506000Y36462000D03*
X10456000Y33922000D03*
X15506000Y33922000D03*
X10456000Y31382000D03*
X15506000Y31382000D03*
X10456000Y28842000D03*
X15506000Y28842000D03*
D19*
X34635000Y16981500D03*
X34635000Y16331500D03*
X34635000Y15681500D03*
X34635000Y15031500D03*
X34635000Y14381500D03*
X34635000Y13731500D03*
X34635000Y13081500D03*
X34635000Y12431500D03*
X34635000Y11781500D03*
X34635000Y11131500D03*
X34635000Y10481500D03*
X34635000Y9831500D03*
X34635000Y9181500D03*
X34635000Y8531500D03*
X40511000Y8531500D03*
X40511000Y9181500D03*
X40511000Y9831500D03*
X40511000Y10481500D03*
X40511000Y11131500D03*
X40511000Y11781500D03*
X40511000Y12431500D03*
X40511000Y13081500D03*
X40511000Y13731500D03*
X40511000Y14381500D03*
X40511000Y15031500D03*
X40511000Y15681500D03*
X40511000Y16331500D03*
X40511000Y16981500D03*
D20*
X62066000Y55276000D03*
X62066000Y52506000D03*
X62066000Y49736000D03*
X62066000Y46966000D03*
X62066000Y44196000D03*
D17*
X44059000Y15640500D03*
X42924000Y15640500D03*
D13*
X46883000Y6429000D03*
X51933000Y6429000D03*
X46883000Y3889000D03*
X51933000Y3889000D03*
D14*
X7305200Y17020800D03*
D15*
X8605200Y17020800D03*
D13*
X40936000Y41542000D03*
X45986000Y41542000D03*
X40936000Y39002000D03*
X45986000Y39002000D03*
X40936000Y36462000D03*
X45986000Y36462000D03*
X40936000Y33922000D03*
X45986000Y33922000D03*
X40936000Y31382000D03*
X45986000Y31382000D03*
X40936000Y28842000D03*
X45986000Y28842000D03*
D21*
X36320000Y22496500D03*
X36320000Y21546500D03*
X36320000Y20596500D03*
X39020000Y20596500D03*
X39020000Y22496500D03*
D20*
X61988500Y9271000D03*
X61988500Y12041000D03*
X61988500Y14811000D03*
X61988500Y17581000D03*
X61988500Y20351000D03*
D16*
X31299500Y15640500D03*
X32434500Y15640500D03*
D22*
X6086000Y14480800D03*
X33010000Y20399000D03*
X42027000Y12529500D03*
X43932000Y8461000D03*
X43043000Y9306000D03*
X42127500Y9956000D03*
X38598000Y10357000D03*
X37582000Y11128000D03*
X57054500Y13372500D03*
X57140000Y51133000D03*
X53154000Y36528000D03*
X52222017Y54409679D03*
X47955000Y36528000D03*
X54600000Y16716000D03*
X27930000Y15446000D03*
X37002181Y15240871D03*
X15839600Y14480800D03*
X20919600Y14480800D03*
X47284800Y14091000D03*
X55743000Y33988000D03*
X57140000Y48297500D03*
X51074169Y53261831D03*
X57054500Y16208000D03*
X47935000Y33922000D03*
X26710800Y17020800D03*
X36566000Y16462000D03*
X48199200Y14938000D03*
X18280391Y17023191D03*
X51806000Y15319000D03*
X13248800Y17020800D03*
X58664000Y28781000D03*
X47955000Y47196000D03*
X47955000Y28781000D03*
X58537000Y44228000D03*
X53140904Y55328566D03*
X47955000Y39068000D03*
X57054500Y10620000D03*
X57140000Y53800000D03*
X50554000Y39068000D03*
X47955000Y31448000D03*
X57054500Y18875000D03*
X57140000Y45545000D03*
X48873293Y51060955D03*
X57140000Y31448000D03*
X12563000Y22812000D03*
X21707000Y22812000D03*
X33010000Y22812000D03*
X20767200Y27485600D03*
X49520000Y62639200D03*
X30343000Y24082000D03*
X62728000Y31956000D03*
X1615600Y54257200D03*
X45075000Y16910500D03*
X32883000Y26749000D03*
X46726000Y24971000D03*
X46726000Y20272000D03*
X23916800Y26469600D03*
X11775600Y18138400D03*
X30724000Y44452800D03*
X19294000Y62740800D03*
X45760800Y12093200D03*
X13045600Y58626000D03*
X45964000Y44452800D03*
X5476400Y54308000D03*
X12944000Y40287200D03*
X52822000Y60200800D03*
X12994800Y32718000D03*
X51145600Y9654800D03*
X39487000Y24971000D03*
X18633600Y7927600D03*
X26609200Y18036800D03*
X13045600Y48466000D03*
X55260400Y2288800D03*
X62728000Y41989000D03*
X60569000Y41989000D03*
X45760800Y9502400D03*
X30089000Y18113000D03*
X16754000Y12956800D03*
X60569000Y22431000D03*
X20564000Y44300400D03*
X45075000Y15640500D03*
X34381600Y62740800D03*
X55260400Y57813200D03*
X60569000Y31956000D03*
X33010000Y21669000D03*
X23815200Y6200400D03*
X12994800Y37747200D03*
X62728000Y22431000D03*
X34635600Y18595600D03*
X35931000Y26368000D03*
X33010000Y24082000D03*
X55260400Y60150000D03*
X40934800Y2898400D03*
X30774800Y6149600D03*
X37683600Y6149600D03*
X37888000Y28842000D03*
X37888000Y33922000D03*
X37888000Y39002000D03*
X37888000Y31382000D03*
X37888000Y41542000D03*
X37888000Y36462000D03*
X22648000Y41542000D03*
X22648000Y36462000D03*
X22648000Y31382000D03*
X22648000Y39002000D03*
X22648000Y28842000D03*
X22648000Y33922000D03*
X37918000Y54750000D03*
X37918000Y47130000D03*
X37918000Y52210000D03*
X37918000Y57290000D03*
X37918000Y49670000D03*
X37918000Y59830000D03*
D23*
X6860800Y17020800D02*
X4300000Y14460000D01*
X7305200Y17020800D02*
X6860800Y17020800D01*
X7284400Y17000000D02*
X7305200Y17020800D01*
X7305200Y14480800D02*
X6086000Y14480800D01*
X7284400Y14460000D02*
X7305200Y14480800D01*
X36320000Y20596500D02*
X33207500Y20596500D01*
X33207500Y20596500D02*
X33010000Y20399000D01*
X41993500Y12431500D02*
X42027000Y12398000D01*
X40511000Y12431500D02*
X41993500Y12431500D01*
X42027000Y12398000D02*
X42027000Y12529500D01*
X43861500Y8531500D02*
X43932000Y8461000D01*
X40511000Y8531500D02*
X43861500Y8531500D01*
X40511000Y9181500D02*
X43001500Y9181500D01*
X43043000Y9223000D02*
X43043000Y9306000D01*
X43001500Y9181500D02*
X43043000Y9223000D01*
X40511000Y9831500D02*
X42127500Y9831500D01*
X42127500Y9884500D02*
X42127500Y9956000D01*
X42154000Y9858000D02*
X42127500Y9884500D01*
X42127500Y9831500D02*
X42154000Y9858000D01*
X7737000Y25127772D02*
X7737000Y35893000D01*
X34635000Y9831500D02*
X23033272Y9831500D01*
X23033272Y9831500D02*
X7737000Y25127772D01*
X3075000Y36005000D02*
X1760000Y37320000D01*
X7625000Y36005000D02*
X3075000Y36005000D01*
X7737000Y35893000D02*
X7625000Y36005000D01*
X40511000Y10481500D02*
X38609500Y10481500D01*
X38598000Y10493000D02*
X38598000Y10357000D01*
X38609500Y10481500D02*
X38598000Y10493000D01*
X7229000Y24928666D02*
X22976166Y9181500D01*
X1760000Y34780000D02*
X2985000Y33555000D01*
X2985000Y33555000D02*
X6392000Y33555000D01*
X22976166Y9181500D02*
X34635000Y9181500D01*
X7229000Y32718000D02*
X7229000Y24928666D01*
X6392000Y33555000D02*
X7229000Y32718000D01*
X40511000Y11131500D02*
X37585500Y11131500D01*
X37585500Y11131500D02*
X37582000Y11128000D01*
X3075000Y30925000D02*
X1760000Y32240000D01*
X6482000Y30925000D02*
X3075000Y30925000D01*
X6721000Y30686000D02*
X6482000Y30925000D01*
X34635000Y8531500D02*
X22919060Y8531500D01*
X6721000Y24729560D02*
X6721000Y30686000D01*
X22919060Y8531500D02*
X6721000Y24729560D01*
D24*
X44736000Y37712000D02*
X45986000Y36462000D01*
X46016000Y54750000D02*
X52093124Y54750000D01*
X15506000Y36462000D02*
X16756000Y37712000D01*
D25*
X56298544Y51133000D02*
X53154500Y47988956D01*
D24*
X44766000Y56000000D02*
X46016000Y54750000D01*
X16756000Y37712000D02*
X29519000Y37712000D01*
D25*
X53154500Y47988956D02*
X53154500Y16431044D01*
X56213044Y13372500D02*
X57054500Y13372500D01*
D24*
X46052000Y36528000D02*
X47955000Y36528000D01*
X52433443Y54409679D02*
X52222017Y54409679D01*
X32019000Y37712000D02*
X44736000Y37712000D01*
X45986000Y36462000D02*
X46052000Y36528000D01*
X30769000Y36462000D02*
X32019000Y37712000D01*
D25*
X57140000Y51133000D02*
X56298544Y51133000D01*
X53154500Y16431044D02*
X56213044Y13372500D01*
D24*
X29519000Y37712000D02*
X30769000Y36462000D01*
X52093124Y54750000D02*
X52433443Y54409679D01*
D25*
X56686522Y49682500D02*
X54454500Y47450478D01*
D23*
X49621600Y8029200D02*
X49621600Y4219200D01*
X50002600Y3889000D02*
X51933000Y3889000D01*
D25*
X54454500Y16969522D02*
X56666522Y14757500D01*
D23*
X36947000Y15319000D02*
X37002181Y15263819D01*
X47284800Y14091000D02*
X47284800Y10366000D01*
X36009500Y14381500D02*
X36947000Y15319000D01*
D25*
X56666522Y14757500D02*
X62142500Y14757500D01*
D23*
X49621600Y4219200D02*
X49977200Y3863600D01*
X49977200Y3863600D02*
X50002600Y3889000D01*
D25*
X62220000Y49682500D02*
X56686522Y49682500D01*
D23*
X27930000Y15446000D02*
X21884800Y15446000D01*
X21884800Y15446000D02*
X20919600Y14480800D01*
X8605200Y14480800D02*
X15839600Y14480800D01*
X34635000Y14381500D02*
X36009500Y14381500D01*
X37002181Y15263819D02*
X37002181Y15240871D01*
D25*
X54454500Y47450478D02*
X54454500Y16969522D01*
D23*
X47284800Y10366000D02*
X49621600Y8029200D01*
D24*
X46016000Y52210000D02*
X50233764Y52210000D01*
X29519000Y35172000D02*
X30769000Y33922000D01*
X45986000Y33922000D02*
X47935000Y33922000D01*
X44766000Y53460000D02*
X46016000Y52210000D01*
D25*
X57140000Y48297500D02*
X55754500Y46912000D01*
D24*
X51179882Y53156118D02*
X51074169Y53261831D01*
X15506000Y33922000D02*
X16756000Y35172000D01*
D25*
X55754500Y46912000D02*
X55754500Y17508000D01*
D24*
X30769000Y33922000D02*
X32019000Y35172000D01*
X44736000Y35172000D02*
X45986000Y33922000D01*
X47996000Y33861000D02*
X47935000Y33922000D01*
X50233764Y52210000D02*
X51179882Y53156118D01*
X16756000Y35172000D02*
X29519000Y35172000D01*
D25*
X55754500Y17508000D02*
X57054500Y16208000D01*
D24*
X32019000Y35172000D02*
X44736000Y35172000D01*
D23*
X35697500Y15031500D02*
X36566000Y15900000D01*
X48199200Y14938000D02*
X48199200Y10162800D01*
X34635000Y15031500D02*
X35697500Y15031500D01*
X36566000Y15900000D02*
X36566000Y16335000D01*
D25*
X51854500Y48527434D02*
X51854500Y15397500D01*
D23*
X8605200Y17020800D02*
X13248800Y17020800D01*
X26710800Y17020800D02*
X26708409Y17023191D01*
X26708409Y17023191D02*
X18280391Y17023191D01*
D25*
X62200500Y52433000D02*
X55760066Y52433000D01*
X51854500Y15397500D02*
X55264500Y11987500D01*
X55264500Y11987500D02*
X62142500Y11987500D01*
X62220000Y52452500D02*
X62200500Y52433000D01*
X55760066Y52433000D02*
X51854500Y48527434D01*
D23*
X48199200Y10162800D02*
X51933000Y6429000D01*
X36566000Y16335000D02*
X36566000Y16462000D01*
D24*
X44736000Y42792000D02*
X45986000Y41542000D01*
X15506000Y41542000D02*
X16756000Y42792000D01*
X50265110Y59830000D02*
X54872610Y55222500D01*
D25*
X54357544Y9217500D02*
X62142500Y9217500D01*
D24*
X49193500Y41542000D02*
X49254500Y41481000D01*
X46016000Y59830000D02*
X50265110Y59830000D01*
D25*
X62220000Y55222500D02*
X54872610Y55222500D01*
D24*
X16756000Y42792000D02*
X29519000Y42792000D01*
X44766000Y61080000D02*
X46016000Y59830000D01*
X30769000Y41542000D02*
X32019000Y42792000D01*
D25*
X49254500Y41481000D02*
X49254500Y14320544D01*
D24*
X45986000Y41542000D02*
X49193500Y41542000D01*
D25*
X49254500Y14320544D02*
X54357544Y9217500D01*
X54872610Y55222500D02*
X49254500Y49604390D01*
X49254500Y49604390D02*
X49254500Y41481000D01*
D24*
X32019000Y42792000D02*
X44736000Y42792000D01*
X29519000Y42792000D02*
X30769000Y41542000D01*
X30769000Y28842000D02*
X29519000Y30092000D01*
D25*
X62220000Y46912500D02*
X60526667Y46912500D01*
X60526667Y46912500D02*
X58664000Y45049833D01*
D24*
X45986000Y28842000D02*
X44716000Y30112000D01*
D25*
X60011500Y17527500D02*
X62142500Y17527500D01*
D24*
X46016000Y47130000D02*
X44746000Y48400000D01*
X16756000Y30092000D02*
X15506000Y28842000D01*
X44716000Y30112000D02*
X32039000Y30112000D01*
X46047000Y28781000D02*
X47955000Y28781000D01*
X46016000Y47130000D02*
X46082000Y47196000D01*
X29519000Y30092000D02*
X16756000Y30092000D01*
X32039000Y30112000D02*
X30769000Y28842000D01*
D25*
X58664000Y45049833D02*
X58664000Y18875000D01*
D24*
X46082000Y47196000D02*
X47955000Y47196000D01*
D25*
X58664000Y18875000D02*
X60011500Y17527500D01*
D24*
X45986000Y28842000D02*
X46047000Y28781000D01*
X53325434Y55328566D02*
X53140904Y55328566D01*
X32019000Y40252000D02*
X44736000Y40252000D01*
X29519000Y40252000D02*
X30769000Y39002000D01*
X44736000Y40252000D02*
X45986000Y39002000D01*
D25*
X57140000Y53800000D02*
X55288588Y53800000D01*
D24*
X48104500Y38959500D02*
X48104500Y39068000D01*
X45986000Y39002000D02*
X48062000Y39002000D01*
X15506000Y39002000D02*
X16756000Y40252000D01*
X48062000Y39002000D02*
X48104500Y38959500D01*
X30769000Y39002000D02*
X32019000Y40252000D01*
D25*
X55288588Y53800000D02*
X50554500Y49065912D01*
X50554500Y14859022D02*
X54793522Y10620000D01*
D24*
X16756000Y40252000D02*
X29519000Y40252000D01*
X44766000Y58540000D02*
X46016000Y57290000D01*
X51364000Y57290000D02*
X53325434Y55328566D01*
X46016000Y57290000D02*
X51364000Y57290000D01*
X48104500Y39068000D02*
X47955000Y39068000D01*
D25*
X54793522Y10620000D02*
X57054500Y10620000D01*
X50554500Y49065912D02*
X50554500Y14859022D01*
D24*
X15506000Y31382000D02*
X16756000Y32632000D01*
X16756000Y32632000D02*
X29519000Y32632000D01*
X47693764Y49670000D02*
X49084719Y51060955D01*
X45986000Y31382000D02*
X47911500Y31382000D01*
X46016000Y49670000D02*
X47693764Y49670000D01*
X32019000Y32632000D02*
X44736000Y32632000D01*
X44766000Y50920000D02*
X46016000Y49670000D01*
X47911500Y31382000D02*
X47977500Y31448000D01*
D25*
X57140000Y45545000D02*
X57140000Y18960500D01*
D24*
X44736000Y32632000D02*
X45986000Y31382000D01*
X49084719Y51060955D02*
X48873293Y51060955D01*
X30769000Y31382000D02*
X32019000Y32632000D01*
D25*
X57140000Y18960500D02*
X57054500Y18875000D01*
D24*
X47977500Y31448000D02*
X47955000Y31448000D01*
X29519000Y32632000D02*
X30769000Y31382000D01*
D23*
X34407000Y22871500D02*
X33069500Y22871500D01*
X35945000Y22871500D02*
X36320000Y22496500D01*
X33069500Y22871500D02*
X33010000Y22812000D01*
X34407000Y22871500D02*
X35945000Y22871500D01*
X34407000Y22871500D02*
X34554305Y22871500D01*
X21707000Y22812000D02*
X12563000Y22812000D01*
X40511000Y15031500D02*
X40537000Y15005500D01*
D24*
X60645200Y42319200D02*
X60645200Y43462200D01*
D23*
X44059000Y15640500D02*
X45075000Y15640500D01*
D24*
X60569000Y21097500D02*
X60569000Y22240500D01*
D23*
X40537000Y15005500D02*
X43424000Y15005500D01*
X34597000Y21546500D02*
X34407000Y21736500D01*
X36320000Y21546500D02*
X34597000Y21546500D01*
X31299500Y15640500D02*
X30089000Y16851000D01*
X44059000Y16910500D02*
X45075000Y16910500D01*
X44059000Y16910500D02*
X44059000Y15640500D01*
X40059000Y21546500D02*
X36320000Y21546500D01*
X30089000Y16851000D02*
X30089000Y18113000D01*
X43424000Y15005500D02*
X44059000Y15640500D01*
X41011000Y21736500D02*
X40249000Y21736500D01*
X40249000Y21736500D02*
X40059000Y21546500D01*
X39448500Y15606500D02*
X39448500Y17531500D01*
X39448500Y17531500D02*
X41646000Y19729000D01*
X40511000Y13731500D02*
X39523500Y13731500D01*
X39448500Y13806500D02*
X39448500Y15606500D01*
X39523500Y13731500D02*
X39448500Y13806500D01*
X40511000Y13081500D02*
X40511000Y13731500D01*
X40511000Y15681500D02*
X42883000Y15681500D01*
X42883000Y15681500D02*
X42924000Y15640500D01*
X41646000Y22236500D02*
X41011000Y22871500D01*
X41646000Y19729000D02*
X41646000Y22236500D01*
X39020000Y22496500D02*
X40636000Y22496500D01*
X39448500Y15606500D02*
X39523500Y15681500D01*
X39523500Y15681500D02*
X40511000Y15681500D01*
X40636000Y22496500D02*
X41011000Y22871500D01*
X42345000Y16331500D02*
X42924000Y16910500D01*
X40511000Y16331500D02*
X42345000Y16331500D01*
X46054000Y15340195D02*
X46054000Y17455500D01*
X40511000Y14381500D02*
X45095305Y14381500D01*
X46054000Y17455500D02*
X45329000Y18180500D01*
X45329000Y18180500D02*
X44059000Y18180500D01*
X45095305Y14381500D02*
X46054000Y15340195D01*
X41725000Y16981500D02*
X42924000Y18180500D01*
X40511000Y16981500D02*
X41725000Y16981500D01*
X32475500Y15681500D02*
X32434500Y15640500D01*
X34635000Y15681500D02*
X32475500Y15681500D01*
X34579000Y16275500D02*
X31994000Y16275500D01*
X34635000Y16331500D02*
X34579000Y16275500D01*
X31994000Y16275500D02*
X31359000Y16910500D01*
X34564000Y16910500D02*
X34635000Y16981500D01*
X32494000Y16910500D02*
X34564000Y16910500D01*
D24*
X40959000Y36462000D02*
X37888000Y36462000D01*
D23*
X29089983Y21257999D02*
X36673984Y28842000D01*
X36673984Y28842000D02*
X37888000Y28842000D01*
D24*
X40959000Y39002000D02*
X37888000Y39002000D01*
D23*
X29089983Y16732984D02*
X29089983Y21257999D01*
X32091467Y13731500D02*
X29089983Y16732984D01*
D24*
X40959000Y31382000D02*
X37888000Y31382000D01*
X40959000Y28842000D02*
X37888000Y28842000D01*
X40959000Y41542000D02*
X37888000Y41542000D01*
X40959000Y33922000D02*
X37888000Y33922000D01*
D23*
X34635000Y13731500D02*
X32091467Y13731500D01*
X26542000Y28019000D02*
X25719000Y28842000D01*
X28184000Y16931861D02*
X28184000Y28019000D01*
D24*
X25719000Y28842000D02*
X22648000Y28842000D01*
D23*
X32034361Y13081500D02*
X28184000Y16931861D01*
X34635000Y13081500D02*
X32034361Y13081500D01*
D24*
X25719000Y36462000D02*
X22648000Y36462000D01*
X25719000Y31382000D02*
X22648000Y31382000D01*
X25719000Y39002000D02*
X22648000Y39002000D01*
X25719000Y41542000D02*
X22648000Y41542000D01*
D23*
X28184000Y28019000D02*
X26542000Y28019000D01*
D24*
X25719000Y33922000D02*
X22648000Y33922000D01*
D23*
X34635000Y12431500D02*
X21847484Y12431500D01*
X10456000Y23822984D02*
X10456000Y28842000D01*
X21847484Y12431500D02*
X10456000Y23822984D01*
D24*
X10456000Y41542000D02*
X10456000Y28842000D01*
D23*
X34635000Y11781500D02*
X35760100Y11781500D01*
X35760100Y11781500D02*
X41112600Y6429000D01*
X41112600Y6429000D02*
X46883000Y6429000D01*
X42882894Y3889000D02*
X46883000Y3889000D01*
X35640394Y11131500D02*
X42882894Y3889000D01*
X34635000Y11131500D02*
X35640394Y11131500D01*
D24*
X40989000Y52210000D02*
X37918000Y52210000D01*
D23*
X8506000Y42417000D02*
X12344000Y46255000D01*
X8506000Y25065878D02*
X8506000Y42417000D01*
D24*
X40989000Y47130000D02*
X37918000Y47130000D01*
D23*
X23090378Y10481500D02*
X8506000Y25065878D01*
X37043000Y46255000D02*
X37918000Y47130000D01*
D24*
X40989000Y49670000D02*
X37918000Y49670000D01*
D23*
X12344000Y46255000D02*
X37043000Y46255000D01*
D24*
X40989000Y59830000D02*
X37918000Y59830000D01*
X40989000Y54750000D02*
X37918000Y54750000D01*
X40989000Y57290000D02*
X37918000Y57290000D01*
D23*
X34635000Y10481500D02*
X23090378Y10481500D01*
G04 #@! TA.AperFunction,Conductor*
G36*
X3238616Y14180722D02*
G01*
X3293981Y14136278D01*
X3311192Y14100800D01*
X3314165Y14091001D01*
X3324768Y14056045D01*
X3422313Y13873553D01*
X3422315Y13873550D01*
X3553590Y13713590D01*
X3713550Y13582315D01*
X3896046Y13484768D01*
X4094066Y13424700D01*
X4094070Y13424700D01*
X4094072Y13424699D01*
X4299997Y13404417D01*
X4300000Y13404417D01*
X4300003Y13404417D01*
X4505927Y13424699D01*
X4505928Y13424700D01*
X4505934Y13424700D01*
X4703954Y13484768D01*
X4886450Y13582315D01*
X5046410Y13713590D01*
X5177685Y13873550D01*
X5179688Y13877299D01*
X5229434Y13927948D01*
X5298669Y13943664D01*
X5365410Y13919453D01*
X5384449Y13902219D01*
X5474744Y13801936D01*
X5523312Y13766649D01*
X5629248Y13689682D01*
X5803712Y13612006D01*
X5990513Y13572300D01*
X6181487Y13572300D01*
X6368288Y13612006D01*
X6378036Y13616347D01*
X6448400Y13625784D01*
X6512698Y13595681D01*
X6524513Y13583753D01*
X6584693Y13514301D01*
X6585405Y13513418D01*
X6586152Y13512617D01*
X6696660Y13416862D01*
X6765689Y13372500D01*
X6817610Y13339132D01*
X6817614Y13339130D01*
X6950623Y13278387D01*
X7088578Y13237880D01*
X7233311Y13217071D01*
X7233314Y13217071D01*
X7805194Y13217071D01*
X7805200Y13217071D01*
X7878311Y13222300D01*
X7914634Y13232967D01*
X7968067Y13236788D01*
X8105193Y13217072D01*
X8105198Y13217071D01*
X8105200Y13217071D01*
X8677086Y13217071D01*
X8677089Y13217071D01*
X8821822Y13237880D01*
X8959777Y13278387D01*
X9092786Y13339130D01*
X9144713Y13372501D01*
X9213732Y13416856D01*
X9213739Y13416861D01*
X9221305Y13423417D01*
X9324251Y13512621D01*
X9418405Y13621282D01*
X9497456Y13744288D01*
X9510862Y13773644D01*
X9557354Y13827298D01*
X9625474Y13847300D01*
X15131400Y13847300D01*
X15199521Y13827298D01*
X15225037Y13805610D01*
X15228347Y13801934D01*
X15382848Y13689682D01*
X15557312Y13612006D01*
X15744113Y13572300D01*
X15935087Y13572300D01*
X16121888Y13612006D01*
X16296352Y13689682D01*
X16450853Y13801934D01*
X16505034Y13862109D01*
X16565478Y13899347D01*
X16636461Y13897996D01*
X16687764Y13866892D01*
X22411813Y8142843D01*
X22421780Y8130403D01*
X22422007Y8130590D01*
X22427059Y8124483D01*
X22478155Y8076501D01*
X22499285Y8055370D01*
X22504828Y8051070D01*
X22509341Y8047215D01*
X22543739Y8014914D01*
X22543740Y8014914D01*
X22543742Y8014912D01*
X22561489Y8005156D01*
X22578019Y7994298D01*
X22594019Y7981887D01*
X22625196Y7968396D01*
X22637311Y7963153D01*
X22642645Y7960541D01*
X22684000Y7937805D01*
X22703622Y7932767D01*
X22722323Y7926365D01*
X22727674Y7924049D01*
X22740912Y7918320D01*
X22740913Y7918320D01*
X22740915Y7918319D01*
X22787537Y7910936D01*
X22793322Y7909737D01*
X22839030Y7898000D01*
X22859284Y7898000D01*
X22878994Y7896449D01*
X22881201Y7896100D01*
X22899003Y7893280D01*
X22932930Y7896488D01*
X22945977Y7897720D01*
X22951910Y7898000D01*
X33552734Y7898000D01*
X33620855Y7877998D01*
X33628235Y7872874D01*
X33650362Y7856310D01*
X33651296Y7855611D01*
X33788295Y7804512D01*
X33788303Y7804510D01*
X33848850Y7798001D01*
X33848855Y7798001D01*
X33848862Y7798000D01*
X33848868Y7798000D01*
X35421132Y7798000D01*
X35421138Y7798000D01*
X35421145Y7798001D01*
X35421149Y7798001D01*
X35481696Y7804510D01*
X35481699Y7804511D01*
X35481701Y7804511D01*
X35618704Y7855611D01*
X35648610Y7877998D01*
X35735761Y7943239D01*
X35823387Y8060293D01*
X35823387Y8060294D01*
X35823389Y8060296D01*
X35874489Y8197299D01*
X35881000Y8257862D01*
X35881000Y8805138D01*
X35876926Y8843032D01*
X35876926Y8869971D01*
X35880999Y8907855D01*
X35881000Y8907867D01*
X35881000Y9455134D01*
X35880999Y9455146D01*
X35876926Y9493031D01*
X35876926Y9519971D01*
X35880999Y9557855D01*
X35881000Y9557867D01*
X35881000Y9690800D01*
X35901002Y9758921D01*
X35954658Y9805414D01*
X36024932Y9815518D01*
X36089512Y9786024D01*
X36096095Y9779895D01*
X42375649Y3500340D01*
X42385614Y3487903D01*
X42385841Y3488090D01*
X42390893Y3481983D01*
X42441972Y3434017D01*
X42463117Y3412871D01*
X42463121Y3412868D01*
X42463124Y3412865D01*
X42468676Y3408558D01*
X42473163Y3404727D01*
X42491544Y3387466D01*
X42507571Y3372415D01*
X42507573Y3372414D01*
X42525322Y3362657D01*
X42541848Y3351801D01*
X42556594Y3340362D01*
X42557853Y3339386D01*
X42599580Y3321330D01*
X42601156Y3320648D01*
X42606477Y3318042D01*
X42647834Y3295305D01*
X42647842Y3295303D01*
X42667452Y3290268D01*
X42686161Y3283863D01*
X42704749Y3275819D01*
X42751371Y3268436D01*
X42757156Y3267237D01*
X42802864Y3255500D01*
X42823118Y3255500D01*
X42842828Y3253949D01*
X42844464Y3253690D01*
X42862837Y3250780D01*
X42896764Y3253988D01*
X42909811Y3255220D01*
X42915744Y3255500D01*
X44727591Y3255500D01*
X44795712Y3235498D01*
X44842205Y3181842D01*
X44845646Y3173534D01*
X44857111Y3142796D01*
X44857112Y3142793D01*
X44944738Y3025739D01*
X45061792Y2938113D01*
X45061794Y2938112D01*
X45061796Y2938111D01*
X45120875Y2916076D01*
X45198795Y2887012D01*
X45198803Y2887010D01*
X45259350Y2880501D01*
X45259355Y2880501D01*
X45259362Y2880500D01*
X45259368Y2880500D01*
X48506632Y2880500D01*
X48506638Y2880500D01*
X48506645Y2880501D01*
X48506649Y2880501D01*
X48567196Y2887010D01*
X48567199Y2887011D01*
X48567201Y2887011D01*
X48704204Y2938111D01*
X48821261Y3025739D01*
X48908889Y3142796D01*
X48955302Y3267234D01*
X48959988Y3279796D01*
X48959990Y3279804D01*
X48966499Y3340351D01*
X48966500Y3340368D01*
X48966500Y3671204D01*
X48986502Y3739325D01*
X49040158Y3785818D01*
X49110432Y3795922D01*
X49172816Y3768288D01*
X49192494Y3752009D01*
X49196867Y3748029D01*
X49369127Y3575769D01*
X49478478Y3466418D01*
X49493593Y3448149D01*
X49498228Y3441329D01*
X49541869Y3402854D01*
X49544717Y3400179D01*
X49557430Y3387466D01*
X49557433Y3387463D01*
X49571620Y3376459D01*
X49574670Y3373935D01*
X49618286Y3335483D01*
X49618287Y3335483D01*
X49618290Y3335480D01*
X49625631Y3331740D01*
X49645655Y3319032D01*
X49652159Y3313987D01*
X49705538Y3290888D01*
X49709079Y3289221D01*
X49760904Y3262815D01*
X49768943Y3261019D01*
X49791490Y3253693D01*
X49799055Y3250419D01*
X49799061Y3250418D01*
X49806672Y3248206D01*
X49806277Y3246848D01*
X49862740Y3220084D01*
X49896935Y3170077D01*
X49907109Y3142799D01*
X49994738Y3025739D01*
X50111792Y2938113D01*
X50111794Y2938112D01*
X50111796Y2938111D01*
X50170875Y2916076D01*
X50248795Y2887012D01*
X50248803Y2887010D01*
X50309350Y2880501D01*
X50309355Y2880501D01*
X50309362Y2880500D01*
X50309368Y2880500D01*
X53556632Y2880500D01*
X53556638Y2880500D01*
X53556645Y2880501D01*
X53556649Y2880501D01*
X53617196Y2887010D01*
X53617199Y2887011D01*
X53617201Y2887011D01*
X53754204Y2938111D01*
X53871261Y3025739D01*
X53958889Y3142796D01*
X54005302Y3267234D01*
X54009988Y3279796D01*
X54009990Y3279804D01*
X54016499Y3340351D01*
X54016500Y3340368D01*
X54016500Y3948235D01*
X58714788Y3948235D01*
X58744412Y3678986D01*
X58812928Y3416910D01*
X58918869Y3167611D01*
X58963922Y3093789D01*
X59059982Y2936390D01*
X59233255Y2728180D01*
X59434998Y2547418D01*
X59660910Y2397956D01*
X59906176Y2282980D01*
X60165569Y2204940D01*
X60165572Y2204940D01*
X60165574Y2204939D01*
X60433557Y2165500D01*
X60433561Y2165500D01*
X60636633Y2165500D01*
X60671363Y2168043D01*
X60839156Y2180323D01*
X60839160Y2180324D01*
X60839161Y2180324D01*
X60949665Y2204940D01*
X61103553Y2239220D01*
X61356558Y2335986D01*
X61592777Y2468559D01*
X61807177Y2634112D01*
X61995186Y2829119D01*
X62152799Y3049421D01*
X62276656Y3290325D01*
X62364118Y3546695D01*
X62408286Y3785818D01*
X62413318Y3813059D01*
X62413319Y3813070D01*
X62413859Y3827838D01*
X62423212Y4083765D01*
X62406717Y4233676D01*
X62393587Y4353015D01*
X62344048Y4542502D01*
X62325072Y4615088D01*
X62261591Y4764470D01*
X62219130Y4864390D01*
X62202897Y4890989D01*
X62078018Y5095610D01*
X61904745Y5303820D01*
X61904741Y5303823D01*
X61904740Y5303825D01*
X61703012Y5484573D01*
X61703002Y5484582D01*
X61477090Y5634044D01*
X61231824Y5749020D01*
X61074392Y5796385D01*
X60972425Y5827062D01*
X60704442Y5866500D01*
X60704439Y5866500D01*
X60501369Y5866500D01*
X60501367Y5866500D01*
X60298839Y5851677D01*
X60298838Y5851677D01*
X60034456Y5792783D01*
X60034441Y5792778D01*
X59781441Y5696014D01*
X59545229Y5563445D01*
X59545225Y5563443D01*
X59330818Y5397884D01*
X59142815Y5202883D01*
X59142810Y5202877D01*
X58985203Y4982583D01*
X58985196Y4982573D01*
X58861343Y4741676D01*
X58861342Y4741673D01*
X58773883Y4485311D01*
X58773880Y4485298D01*
X58724681Y4218942D01*
X58724680Y4218931D01*
X58714788Y3948235D01*
X54016500Y3948235D01*
X54016500Y4437633D01*
X54016499Y4437650D01*
X54009990Y4498197D01*
X54009988Y4498205D01*
X53980924Y4576125D01*
X53958889Y4635204D01*
X53958888Y4635206D01*
X53958887Y4635208D01*
X53871261Y4752262D01*
X53754207Y4839888D01*
X53754202Y4839890D01*
X53617204Y4890989D01*
X53617196Y4890991D01*
X53556649Y4897500D01*
X53556638Y4897500D01*
X50381100Y4897500D01*
X50312979Y4917502D01*
X50266486Y4971158D01*
X50255100Y5023500D01*
X50255100Y5294500D01*
X50275102Y5362621D01*
X50328758Y5409114D01*
X50381100Y5420500D01*
X53556632Y5420500D01*
X53556638Y5420500D01*
X53556645Y5420501D01*
X53556649Y5420501D01*
X53617196Y5427010D01*
X53617199Y5427011D01*
X53617201Y5427011D01*
X53754204Y5478111D01*
X53762837Y5484573D01*
X53871261Y5565739D01*
X53958887Y5682793D01*
X53958887Y5682794D01*
X53958889Y5682796D01*
X54009989Y5819799D01*
X54016500Y5880362D01*
X54016500Y6977638D01*
X54016499Y6977650D01*
X54009990Y7038197D01*
X54009988Y7038205D01*
X53958889Y7175203D01*
X53958887Y7175208D01*
X53871261Y7292262D01*
X53754207Y7379888D01*
X53754202Y7379890D01*
X53617204Y7430989D01*
X53617196Y7430991D01*
X53556649Y7437500D01*
X53556638Y7437500D01*
X51872594Y7437500D01*
X51804473Y7457502D01*
X51783499Y7474405D01*
X48869605Y10388300D01*
X48835579Y10450612D01*
X48832700Y10477395D01*
X48832700Y13153342D01*
X48852702Y13221463D01*
X48906358Y13267956D01*
X48976632Y13278060D01*
X49041212Y13248566D01*
X49047780Y13242451D01*
X51381239Y10908992D01*
X53657564Y8632667D01*
X53670403Y8617636D01*
X53678678Y8606247D01*
X53730747Y8559364D01*
X53733102Y8557129D01*
X53748803Y8541428D01*
X53748806Y8541425D01*
X53766036Y8527472D01*
X53768542Y8525331D01*
X53820600Y8478460D01*
X53832786Y8471424D01*
X53849070Y8460233D01*
X53860014Y8451371D01*
X53891850Y8435150D01*
X53922424Y8419572D01*
X53925324Y8417998D01*
X53985988Y8382973D01*
X53999367Y8378626D01*
X54017635Y8371060D01*
X54030174Y8364671D01*
X54065987Y8355075D01*
X54097831Y8346542D01*
X54100981Y8345610D01*
X54167616Y8323958D01*
X54181619Y8322487D01*
X54201043Y8318887D01*
X54214641Y8315243D01*
X54284612Y8311576D01*
X54287845Y8311322D01*
X54302659Y8309765D01*
X54309922Y8309001D01*
X54309928Y8309001D01*
X54309934Y8309000D01*
X54332120Y8309000D01*
X54335390Y8308915D01*
X54396640Y8305705D01*
X54405352Y8305248D01*
X54405352Y8305249D01*
X54405354Y8305248D01*
X54419250Y8307450D01*
X54438961Y8309000D01*
X59632719Y8309000D01*
X59700840Y8288998D01*
X59747333Y8235342D01*
X59750774Y8227034D01*
X59797611Y8101462D01*
X59797612Y8101459D01*
X59885238Y7984405D01*
X60002292Y7896779D01*
X60002294Y7896778D01*
X60002296Y7896777D01*
X60052644Y7877998D01*
X60139295Y7845678D01*
X60139303Y7845676D01*
X60199850Y7839167D01*
X60199855Y7839167D01*
X60199862Y7839166D01*
X60199868Y7839166D01*
X63449000Y7839166D01*
X63517121Y7819164D01*
X63563614Y7765508D01*
X63575000Y7713166D01*
X63575000Y626000D01*
X63554998Y557879D01*
X63501342Y511386D01*
X63449000Y500000D01*
X451000Y500000D01*
X382879Y520002D01*
X336386Y573658D01*
X325000Y626000D01*
X325000Y3440235D01*
X1691788Y3440235D01*
X1721412Y3170986D01*
X1789928Y2908910D01*
X1895869Y2659611D01*
X1895870Y2659610D01*
X2036982Y2428390D01*
X2210255Y2220180D01*
X2210257Y2220178D01*
X2210259Y2220176D01*
X2315236Y2126117D01*
X2411998Y2039418D01*
X2637910Y1889956D01*
X2883176Y1774980D01*
X3142569Y1696940D01*
X3142572Y1696940D01*
X3142574Y1696939D01*
X3410557Y1657500D01*
X3410561Y1657500D01*
X3613633Y1657500D01*
X3648363Y1660043D01*
X3816156Y1672323D01*
X3816160Y1672324D01*
X3816161Y1672324D01*
X3926665Y1696940D01*
X4080553Y1731220D01*
X4333558Y1827986D01*
X4569777Y1960559D01*
X4784177Y2126112D01*
X4972186Y2321119D01*
X5129799Y2541421D01*
X5132883Y2547418D01*
X5253656Y2782325D01*
X5253657Y2782328D01*
X5289370Y2887011D01*
X5341118Y3038695D01*
X5377469Y3235498D01*
X5390318Y3305059D01*
X5390319Y3305070D01*
X5391430Y3335480D01*
X5400212Y3575765D01*
X5385338Y3710942D01*
X5370587Y3845015D01*
X5302071Y4107091D01*
X5196130Y4356390D01*
X5146548Y4437633D01*
X5055018Y4587610D01*
X4881745Y4795820D01*
X4881741Y4795823D01*
X4881740Y4795825D01*
X4680012Y4976573D01*
X4680002Y4976582D01*
X4454090Y5126044D01*
X4208824Y5241020D01*
X4031065Y5294500D01*
X3949425Y5319062D01*
X3681442Y5358500D01*
X3681439Y5358500D01*
X3478369Y5358500D01*
X3478367Y5358500D01*
X3275839Y5343677D01*
X3275838Y5343677D01*
X3011456Y5284783D01*
X3011441Y5284778D01*
X2758441Y5188014D01*
X2522229Y5055445D01*
X2522225Y5055443D01*
X2413072Y4971158D01*
X2309252Y4890991D01*
X2307818Y4889884D01*
X2119815Y4694883D01*
X2119810Y4694877D01*
X1962203Y4474583D01*
X1962196Y4474573D01*
X1838343Y4233676D01*
X1838342Y4233673D01*
X1750883Y3977311D01*
X1750880Y3977298D01*
X1701681Y3710942D01*
X1701680Y3710931D01*
X1691788Y3440235D01*
X325000Y3440235D01*
X325000Y13751051D01*
X345002Y13819172D01*
X398658Y13865665D01*
X468932Y13875769D01*
X533512Y13846275D01*
X558230Y13815484D01*
X558732Y13815811D01*
X684674Y13623042D01*
X837097Y13457466D01*
X1014698Y13319233D01*
X1014699Y13319232D01*
X1212628Y13212118D01*
X1212630Y13212117D01*
X1425483Y13139045D01*
X1425492Y13139043D01*
X1506000Y13125609D01*
X1506000Y13845967D01*
X1526002Y13914088D01*
X1579658Y13960581D01*
X1649926Y13970685D01*
X1724237Y13960000D01*
X1795763Y13960000D01*
X1870069Y13970684D01*
X1940341Y13960581D01*
X1993997Y13914089D01*
X2014000Y13845969D01*
X2014000Y13125610D01*
X2094507Y13139043D01*
X2094516Y13139045D01*
X2307369Y13212117D01*
X2307371Y13212118D01*
X2505300Y13319232D01*
X2505301Y13319233D01*
X2682902Y13457466D01*
X2835325Y13623042D01*
X2958419Y13811452D01*
X3048820Y14017543D01*
X3068473Y14095152D01*
X3104585Y14156278D01*
X3168012Y14188178D01*
X3238616Y14180722D01*
G37*
G04 #@! TD.AperFunction*
G04 #@! TA.AperFunction,Conductor*
G36*
X46423025Y14709152D02*
G01*
X46479861Y14666605D01*
X46504672Y14600085D01*
X46489581Y14530711D01*
X46488112Y14528096D01*
X46470001Y14496726D01*
X46450273Y14462556D01*
X46446113Y14449753D01*
X46391257Y14280928D01*
X46371296Y14091001D01*
X46391257Y13901073D01*
X46411417Y13839028D01*
X46450273Y13719444D01*
X46462350Y13698526D01*
X46544346Y13556504D01*
X46545760Y13554056D01*
X46618937Y13472785D01*
X46649653Y13408780D01*
X46651300Y13388476D01*
X46651300Y10449854D01*
X46649551Y10434012D01*
X46649844Y10433984D01*
X46649098Y10426093D01*
X46651300Y10356043D01*
X46651300Y10326149D01*
X46651301Y10326128D01*
X46652178Y10319180D01*
X46652644Y10313268D01*
X46654126Y10266112D01*
X46654127Y10266107D01*
X46659777Y10246661D01*
X46663786Y10227303D01*
X46666325Y10207207D01*
X46666326Y10207201D01*
X46683693Y10163338D01*
X46685616Y10157721D01*
X46698782Y10112407D01*
X46709094Y10094969D01*
X46717788Y10077221D01*
X46725244Y10058391D01*
X46725250Y10058380D01*
X46752977Y10020217D01*
X46756237Y10015254D01*
X46780260Y9974635D01*
X46794579Y9960316D01*
X46807417Y9945286D01*
X46816956Y9932157D01*
X46819328Y9928893D01*
X46847594Y9905509D01*
X46855686Y9898815D01*
X46860067Y9894829D01*
X47911865Y8843031D01*
X48951195Y7803701D01*
X48985221Y7741389D01*
X48988100Y7714606D01*
X48988100Y7419084D01*
X48968098Y7350963D01*
X48914442Y7304470D01*
X48844168Y7294366D01*
X48786591Y7318216D01*
X48704207Y7379887D01*
X48704202Y7379890D01*
X48567204Y7430989D01*
X48567196Y7430991D01*
X48506649Y7437500D01*
X48506638Y7437500D01*
X45259362Y7437500D01*
X45259350Y7437500D01*
X45198803Y7430991D01*
X45198795Y7430989D01*
X45061797Y7379890D01*
X45061792Y7379888D01*
X44944738Y7292262D01*
X44857112Y7175208D01*
X44857111Y7175205D01*
X44845646Y7144466D01*
X44803099Y7087631D01*
X44736578Y7062821D01*
X44727591Y7062500D01*
X41427194Y7062500D01*
X41359073Y7082502D01*
X41338099Y7099405D01*
X40854599Y7582905D01*
X40820573Y7645217D01*
X40825638Y7716032D01*
X40868185Y7772868D01*
X40934705Y7797679D01*
X40943694Y7798000D01*
X41297132Y7798000D01*
X41297138Y7798000D01*
X41297145Y7798001D01*
X41297149Y7798001D01*
X41357696Y7804510D01*
X41357699Y7804511D01*
X41357701Y7804511D01*
X41494704Y7855611D01*
X41517757Y7872869D01*
X41584276Y7897679D01*
X41593266Y7898000D01*
X43160322Y7898000D01*
X43228443Y7877998D01*
X43253958Y7856311D01*
X43320747Y7782134D01*
X43475248Y7669882D01*
X43649712Y7592206D01*
X43836513Y7552500D01*
X44027487Y7552500D01*
X44214288Y7592206D01*
X44388752Y7669882D01*
X44543253Y7782134D01*
X44562672Y7803701D01*
X44671034Y7924049D01*
X44671035Y7924051D01*
X44671040Y7924056D01*
X44766527Y8089444D01*
X44825542Y8271072D01*
X44845504Y8461000D01*
X44825542Y8650928D01*
X44766527Y8832556D01*
X44671040Y8997944D01*
X44671038Y8997946D01*
X44671034Y8997952D01*
X44543255Y9139865D01*
X44388752Y9252118D01*
X44214288Y9329794D01*
X44037599Y9367351D01*
X43975125Y9401080D01*
X43940804Y9463229D01*
X43938486Y9477431D01*
X43936542Y9495927D01*
X43936542Y9495928D01*
X43877527Y9677556D01*
X43782040Y9842944D01*
X43782038Y9842946D01*
X43782034Y9842952D01*
X43654255Y9984865D01*
X43499752Y10097118D01*
X43325288Y10174794D01*
X43138487Y10214500D01*
X43090306Y10214500D01*
X43022185Y10234502D01*
X42975692Y10288158D01*
X42970473Y10301563D01*
X42962028Y10327554D01*
X42962026Y10327558D01*
X42905138Y10426091D01*
X42866540Y10492944D01*
X42866538Y10492946D01*
X42866534Y10492952D01*
X42738755Y10634865D01*
X42584252Y10747118D01*
X42409788Y10824794D01*
X42222987Y10864500D01*
X42032013Y10864500D01*
X42032012Y10864500D01*
X41909197Y10838395D01*
X41838406Y10843797D01*
X41781773Y10886614D01*
X41757280Y10953252D01*
X41757000Y10961642D01*
X41757000Y11405134D01*
X41756999Y11405146D01*
X41752926Y11443031D01*
X41752926Y11469971D01*
X41756999Y11507849D01*
X41757000Y11507862D01*
X41757000Y11507870D01*
X41757074Y11509243D01*
X41757181Y11509548D01*
X41757361Y11511218D01*
X41757755Y11511176D01*
X41780682Y11576200D01*
X41836742Y11619763D01*
X41907455Y11626103D01*
X41909073Y11625770D01*
X41931513Y11621000D01*
X41931514Y11621000D01*
X42122487Y11621000D01*
X42309288Y11660706D01*
X42483752Y11738382D01*
X42638253Y11850634D01*
X42766040Y11992556D01*
X42861527Y12157944D01*
X42920542Y12339572D01*
X42940504Y12529500D01*
X42920542Y12719428D01*
X42861527Y12901056D01*
X42766040Y13066444D01*
X42766038Y13066446D01*
X42766034Y13066452D01*
X42638255Y13208365D01*
X42483752Y13320618D01*
X42309288Y13398294D01*
X42122487Y13438000D01*
X41931513Y13438000D01*
X41931511Y13438000D01*
X41909196Y13433257D01*
X41838405Y13438660D01*
X41781773Y13481477D01*
X41757280Y13548115D01*
X41757000Y13556504D01*
X41757000Y13622000D01*
X41777002Y13690121D01*
X41830658Y13736614D01*
X41883000Y13748000D01*
X45011452Y13748000D01*
X45027293Y13746251D01*
X45027321Y13746544D01*
X45035207Y13745800D01*
X45035214Y13745798D01*
X45105263Y13748000D01*
X45135161Y13748000D01*
X45142123Y13748881D01*
X45148024Y13749346D01*
X45195194Y13750827D01*
X45214652Y13756481D01*
X45233999Y13760487D01*
X45254102Y13763026D01*
X45297984Y13780401D01*
X45303579Y13782317D01*
X45332121Y13790609D01*
X45348896Y13795481D01*
X45348900Y13795483D01*
X45366331Y13805792D01*
X45384085Y13814491D01*
X45402922Y13821948D01*
X45441091Y13849682D01*
X45446049Y13852938D01*
X45486667Y13876958D01*
X45500990Y13891282D01*
X45516029Y13904126D01*
X45532412Y13916028D01*
X45562498Y13952397D01*
X45566466Y13956759D01*
X46289900Y14680193D01*
X46352210Y14714217D01*
X46423025Y14709152D01*
G37*
G04 #@! TD.AperFunction*
G04 #@! TA.AperFunction,Conductor*
G36*
X32064569Y23232516D02*
G01*
X32121405Y23189969D01*
X32146216Y23123449D01*
X32140370Y23075524D01*
X32116457Y23001930D01*
X32096496Y22812001D01*
X32116457Y22622073D01*
X32127771Y22587253D01*
X32175473Y22440444D01*
X32175476Y22440439D01*
X32270958Y22275059D01*
X32270965Y22275049D01*
X32398744Y22133136D01*
X32398747Y22133134D01*
X32553248Y22020882D01*
X32727712Y21943206D01*
X32914513Y21903500D01*
X33105487Y21903500D01*
X33292288Y21943206D01*
X33451207Y22013962D01*
X33521573Y22023395D01*
X33585870Y21993289D01*
X33588837Y21990500D01*
X34978748Y21990500D01*
X35046869Y21970498D01*
X35082840Y21931859D01*
X35083710Y21932510D01*
X35176738Y21808239D01*
X35293792Y21720613D01*
X35293794Y21720612D01*
X35293796Y21720611D01*
X35344896Y21701552D01*
X35430800Y21669510D01*
X35432446Y21669121D01*
X35433589Y21668470D01*
X35438184Y21666756D01*
X35437906Y21666012D01*
X35494139Y21633986D01*
X35527043Y21571075D01*
X35520711Y21500361D01*
X35477154Y21444296D01*
X35438102Y21426463D01*
X35438184Y21426244D01*
X35435132Y21425106D01*
X35432446Y21423879D01*
X35430800Y21423491D01*
X35293797Y21372390D01*
X35293792Y21372388D01*
X35220649Y21317632D01*
X35154129Y21292821D01*
X35145140Y21292500D01*
X35118000Y21292500D01*
X35049879Y21312502D01*
X35003386Y21366158D01*
X34992000Y21418500D01*
X34992000Y21482500D01*
X33589001Y21482500D01*
X33589001Y21470413D01*
X33595069Y21403618D01*
X33598227Y21393483D01*
X33599395Y21322496D01*
X33561999Y21262146D01*
X33497912Y21231594D01*
X33477931Y21230000D01*
X33403958Y21230000D01*
X33352710Y21240893D01*
X33292290Y21267794D01*
X33105487Y21307500D01*
X32914513Y21307500D01*
X32727711Y21267794D01*
X32553247Y21190118D01*
X32398744Y21077865D01*
X32270965Y20935952D01*
X32270958Y20935942D01*
X32175476Y20770562D01*
X32175473Y20770555D01*
X32116457Y20588928D01*
X32096496Y20399000D01*
X32116457Y20209073D01*
X32136365Y20147805D01*
X32175473Y20027444D01*
X32177069Y20024680D01*
X32270958Y19862059D01*
X32270965Y19862049D01*
X32398744Y19720136D01*
X32441686Y19688937D01*
X32553248Y19607882D01*
X32727712Y19530206D01*
X32914513Y19490500D01*
X33105487Y19490500D01*
X33292288Y19530206D01*
X33466752Y19607882D01*
X33621253Y19720134D01*
X33749040Y19862056D01*
X33770945Y19899998D01*
X33822328Y19948992D01*
X33880066Y19963000D01*
X35072674Y19963000D01*
X35140795Y19942998D01*
X35173540Y19912511D01*
X35176737Y19908240D01*
X35293792Y19820613D01*
X35293794Y19820612D01*
X35293796Y19820611D01*
X35352875Y19798576D01*
X35430795Y19769512D01*
X35430803Y19769510D01*
X35491350Y19763001D01*
X35491355Y19763001D01*
X35491362Y19763000D01*
X35491368Y19763000D01*
X37148632Y19763000D01*
X37148638Y19763000D01*
X37148645Y19763001D01*
X37148649Y19763001D01*
X37209196Y19769510D01*
X37209199Y19769511D01*
X37209201Y19769511D01*
X37346204Y19820611D01*
X37463261Y19908239D01*
X37550889Y20025296D01*
X37551945Y20028130D01*
X37553756Y20030549D01*
X37555205Y20033201D01*
X37555586Y20032993D01*
X37594491Y20084962D01*
X37661011Y20109773D01*
X37730386Y20094681D01*
X37780588Y20044479D01*
X37788050Y20028138D01*
X37789111Y20025296D01*
X37789112Y20025295D01*
X37789113Y20025292D01*
X37876738Y19908239D01*
X37993792Y19820613D01*
X37993794Y19820612D01*
X37993796Y19820611D01*
X38052875Y19798576D01*
X38130795Y19769512D01*
X38130803Y19769510D01*
X38191350Y19763001D01*
X38191355Y19763001D01*
X38191362Y19763000D01*
X38191368Y19763000D01*
X39848632Y19763000D01*
X39848638Y19763000D01*
X39848645Y19763001D01*
X39848649Y19763001D01*
X39909196Y19769510D01*
X39909199Y19769511D01*
X39909201Y19769511D01*
X40046204Y19820611D01*
X40163261Y19908239D01*
X40205716Y19964952D01*
X40250887Y20025293D01*
X40250887Y20025294D01*
X40250889Y20025296D01*
X40296583Y20147805D01*
X40301988Y20162296D01*
X40301990Y20162304D01*
X40308499Y20222851D01*
X40308500Y20222868D01*
X40308500Y20856842D01*
X40328502Y20924963D01*
X40382158Y20971456D01*
X40452432Y20981560D01*
X40499686Y20964670D01*
X40581899Y20914969D01*
X40735616Y20867070D01*
X40802412Y20861001D01*
X40886499Y20861001D01*
X40954620Y20841000D01*
X41001113Y20787345D01*
X41012500Y20735001D01*
X41012500Y20043596D01*
X40992498Y19975475D01*
X40975595Y19954501D01*
X39059836Y18038743D01*
X39047401Y18028779D01*
X39047589Y18028552D01*
X39041480Y18023499D01*
X38993516Y17972422D01*
X38972366Y17951273D01*
X38968060Y17945723D01*
X38964214Y17941221D01*
X38931917Y17906826D01*
X38931911Y17906817D01*
X38922151Y17889065D01*
X38911303Y17872550D01*
X38898886Y17856542D01*
X38880145Y17813236D01*
X38877534Y17807906D01*
X38854805Y17766561D01*
X38854803Y17766556D01*
X38849767Y17746941D01*
X38843364Y17728238D01*
X38835319Y17709648D01*
X38827937Y17663044D01*
X38826733Y17657232D01*
X38815000Y17611532D01*
X38815000Y17591277D01*
X38813449Y17571567D01*
X38810280Y17551558D01*
X38810280Y17551557D01*
X38814720Y17504583D01*
X38815000Y17498650D01*
X38815000Y15666277D01*
X38813449Y15646567D01*
X38810280Y15626558D01*
X38810280Y15626557D01*
X38814720Y15579583D01*
X38815000Y15573650D01*
X38815000Y13890354D01*
X38813251Y13874512D01*
X38813544Y13874484D01*
X38812798Y13866593D01*
X38815000Y13796543D01*
X38815000Y13766649D01*
X38815001Y13766628D01*
X38815878Y13759680D01*
X38816344Y13753768D01*
X38817826Y13706612D01*
X38817827Y13706607D01*
X38823477Y13687161D01*
X38827486Y13667803D01*
X38830025Y13647707D01*
X38830026Y13647701D01*
X38847393Y13603838D01*
X38849316Y13598221D01*
X38862482Y13552907D01*
X38872794Y13535469D01*
X38881488Y13517721D01*
X38888944Y13498891D01*
X38888950Y13498880D01*
X38916677Y13460717D01*
X38919937Y13455754D01*
X38937027Y13426857D01*
X38943958Y13415138D01*
X38958282Y13400814D01*
X38971120Y13385783D01*
X38980770Y13372500D01*
X38983028Y13369393D01*
X39009709Y13347321D01*
X39026477Y13330554D01*
X39031500Y13324482D01*
X39082581Y13276515D01*
X39103724Y13255370D01*
X39103728Y13255367D01*
X39103730Y13255365D01*
X39109282Y13251058D01*
X39113769Y13247227D01*
X39131917Y13230185D01*
X39148177Y13214915D01*
X39148179Y13214914D01*
X39165928Y13205157D01*
X39182454Y13194301D01*
X39198459Y13181886D01*
X39203136Y13179120D01*
X39251590Y13127229D01*
X39265000Y13070665D01*
X39265000Y12807870D01*
X39265001Y12807849D01*
X39269073Y12769968D01*
X39269073Y12743035D01*
X39265001Y12705155D01*
X39265000Y12705131D01*
X39265000Y12157870D01*
X39265001Y12157846D01*
X39269073Y12119966D01*
X39269073Y12093034D01*
X39265001Y12055155D01*
X39265000Y12055131D01*
X39265000Y11891000D01*
X39244998Y11822879D01*
X39191342Y11776386D01*
X39139000Y11765000D01*
X38287048Y11765000D01*
X38218927Y11785002D01*
X38198262Y11802566D01*
X38198158Y11802449D01*
X38194082Y11806119D01*
X38193414Y11806687D01*
X38193253Y11806866D01*
X38193250Y11806869D01*
X38038752Y11919118D01*
X37864288Y11996794D01*
X37677487Y12036500D01*
X37486513Y12036500D01*
X37299711Y11996794D01*
X37125247Y11919118D01*
X36970744Y11806865D01*
X36898449Y11726572D01*
X36838003Y11689332D01*
X36767020Y11690684D01*
X36715718Y11721787D01*
X36267344Y12170161D01*
X36257379Y12182599D01*
X36257152Y12182410D01*
X36252101Y12188516D01*
X36252100Y12188518D01*
X36201021Y12236484D01*
X36179877Y12257629D01*
X36179872Y12257634D01*
X36174325Y12261937D01*
X36169817Y12265788D01*
X36135425Y12298083D01*
X36135419Y12298087D01*
X36117663Y12307849D01*
X36101147Y12318698D01*
X36085141Y12331114D01*
X36054389Y12344422D01*
X36041840Y12349852D01*
X36036508Y12352464D01*
X35995162Y12375195D01*
X35995159Y12375196D01*
X35975664Y12380201D01*
X35914658Y12416516D01*
X35882970Y12480048D01*
X35881000Y12502242D01*
X35881000Y12705134D01*
X35880999Y12705146D01*
X35876926Y12743031D01*
X35876926Y12769971D01*
X35881000Y12807862D01*
X35881000Y13355138D01*
X35876926Y13393032D01*
X35876926Y13419971D01*
X35877297Y13423417D01*
X35881000Y13457862D01*
X35881000Y13621547D01*
X35901002Y13689668D01*
X35954658Y13736161D01*
X36003044Y13747485D01*
X36017277Y13747932D01*
X36019462Y13748000D01*
X36049351Y13748000D01*
X36049356Y13748000D01*
X36056318Y13748881D01*
X36062219Y13749346D01*
X36109389Y13750827D01*
X36128847Y13756481D01*
X36148194Y13760487D01*
X36168297Y13763026D01*
X36212179Y13780401D01*
X36217774Y13782317D01*
X36246316Y13790609D01*
X36263091Y13795481D01*
X36263095Y13795483D01*
X36280526Y13805792D01*
X36298280Y13814491D01*
X36317117Y13821948D01*
X36355286Y13849682D01*
X36360244Y13852938D01*
X36400862Y13876958D01*
X36415185Y13891282D01*
X36430224Y13904126D01*
X36446607Y13916028D01*
X36476693Y13952397D01*
X36480661Y13956759D01*
X36819371Y14295469D01*
X36881681Y14329492D01*
X36908464Y14332371D01*
X37097668Y14332371D01*
X37284469Y14372077D01*
X37458933Y14449753D01*
X37613434Y14562005D01*
X37627122Y14577207D01*
X37741215Y14703920D01*
X37741216Y14703922D01*
X37741221Y14703927D01*
X37836708Y14869315D01*
X37895723Y15050943D01*
X37915685Y15240871D01*
X37895723Y15430799D01*
X37836708Y15612427D01*
X37741221Y15777815D01*
X37741219Y15777817D01*
X37741215Y15777823D01*
X37613436Y15919736D01*
X37478088Y16018072D01*
X37470375Y16023676D01*
X37427022Y16079897D01*
X37420947Y16150633D01*
X37424598Y16164527D01*
X37459542Y16272072D01*
X37479504Y16462000D01*
X37459542Y16651928D01*
X37400527Y16833556D01*
X37305040Y16998944D01*
X37305038Y16998946D01*
X37305034Y16998952D01*
X37177255Y17140865D01*
X37022752Y17253118D01*
X36848288Y17330794D01*
X36661487Y17370500D01*
X36470513Y17370500D01*
X36283711Y17330794D01*
X36109248Y17253118D01*
X36073811Y17227372D01*
X36006943Y17203515D01*
X35937791Y17219597D01*
X35888312Y17270512D01*
X35876823Y17308149D01*
X35876303Y17308026D01*
X35874488Y17315705D01*
X35833740Y17424952D01*
X35823389Y17452704D01*
X35823388Y17452706D01*
X35823387Y17452708D01*
X35735761Y17569762D01*
X35618707Y17657388D01*
X35618702Y17657390D01*
X35481704Y17708489D01*
X35481696Y17708491D01*
X35421149Y17715000D01*
X35421138Y17715000D01*
X33848862Y17715000D01*
X33848850Y17715000D01*
X33788303Y17708491D01*
X33788295Y17708489D01*
X33651297Y17657390D01*
X33651296Y17657390D01*
X33593733Y17614298D01*
X33534239Y17569761D01*
X33534237Y17569759D01*
X33533400Y17569132D01*
X33466879Y17544321D01*
X33457890Y17544000D01*
X33218521Y17544000D01*
X33150400Y17564002D01*
X33129426Y17580905D01*
X33118703Y17591628D01*
X33118698Y17591632D01*
X33085779Y17611532D01*
X32980809Y17674989D01*
X32826978Y17722925D01*
X32826975Y17722926D01*
X32826973Y17722926D01*
X32786849Y17726572D01*
X32760125Y17729000D01*
X32760121Y17729000D01*
X32227878Y17729000D01*
X32161026Y17722926D01*
X32161023Y17722926D01*
X32161022Y17722925D01*
X32094058Y17702058D01*
X32007187Y17674988D01*
X31991681Y17665614D01*
X31923036Y17647493D01*
X31861319Y17665614D01*
X31845812Y17674988D01*
X31845809Y17674989D01*
X31691978Y17722925D01*
X31691975Y17722926D01*
X31691973Y17722926D01*
X31651849Y17726572D01*
X31625125Y17729000D01*
X31625121Y17729000D01*
X31092878Y17729000D01*
X31026026Y17722926D01*
X31026023Y17722926D01*
X31026022Y17722925D01*
X30872191Y17674989D01*
X30872189Y17674989D01*
X30872189Y17674988D01*
X30734301Y17591632D01*
X30734296Y17591628D01*
X30620372Y17477704D01*
X30620368Y17477699D01*
X30550426Y17362000D01*
X30537011Y17339809D01*
X30509997Y17253118D01*
X30489074Y17185974D01*
X30483000Y17119122D01*
X30483000Y16701879D01*
X30489074Y16635026D01*
X30489074Y16635024D01*
X30489075Y16635022D01*
X30513219Y16557543D01*
X30520425Y16534417D01*
X30521595Y16463430D01*
X30484200Y16403080D01*
X30420114Y16372527D01*
X30349683Y16381472D01*
X30311035Y16407837D01*
X29760388Y16958484D01*
X29726362Y17020796D01*
X29723483Y17047579D01*
X29723483Y20943405D01*
X29743485Y21011526D01*
X29760388Y21032500D01*
X30837991Y22110103D01*
X31931444Y23203557D01*
X31993754Y23237580D01*
X32064569Y23232516D01*
G37*
G04 #@! TD.AperFunction*
G04 #@! TA.AperFunction,Conductor*
G36*
X43844621Y29333498D02*
G01*
X43891114Y29279842D01*
X43902500Y29227500D01*
X43902500Y28293351D01*
X43909009Y28232804D01*
X43909011Y28232796D01*
X43960110Y28095798D01*
X43960112Y28095793D01*
X44047738Y27978739D01*
X44164792Y27891113D01*
X44164794Y27891112D01*
X44164796Y27891111D01*
X44211948Y27873524D01*
X44301795Y27840012D01*
X44301803Y27840010D01*
X44362350Y27833501D01*
X44362355Y27833501D01*
X44362362Y27833500D01*
X44362368Y27833500D01*
X47609632Y27833500D01*
X47609638Y27833500D01*
X47609645Y27833501D01*
X47609649Y27833501D01*
X47670196Y27840010D01*
X47670196Y27840011D01*
X47670201Y27840011D01*
X47760051Y27873525D01*
X47830276Y27878715D01*
X47859513Y27872500D01*
X47859516Y27872500D01*
X48050487Y27872500D01*
X48193803Y27902963D01*
X48264594Y27897561D01*
X48321226Y27854744D01*
X48345720Y27788107D01*
X48346000Y27779716D01*
X48346000Y15972500D01*
X48325998Y15904379D01*
X48272342Y15857886D01*
X48220000Y15846500D01*
X48103713Y15846500D01*
X47916911Y15806794D01*
X47742447Y15729118D01*
X47587944Y15616865D01*
X47460165Y15474952D01*
X47460158Y15474942D01*
X47364676Y15309562D01*
X47364673Y15309556D01*
X47350470Y15265845D01*
X47305656Y15127925D01*
X47305656Y15127924D01*
X47303972Y15111901D01*
X47276958Y15046245D01*
X47218735Y15005617D01*
X47191831Y14999765D01*
X47189315Y14999501D01*
X47002511Y14959794D01*
X46828047Y14882118D01*
X46788804Y14853606D01*
X46721936Y14829748D01*
X46652784Y14845830D01*
X46603305Y14896744D01*
X46589206Y14966327D01*
X46602265Y15007097D01*
X46600464Y15007876D01*
X46622347Y15058447D01*
X46624961Y15063783D01*
X46644493Y15099311D01*
X46647695Y15105135D01*
X46652733Y15124760D01*
X46659138Y15143465D01*
X46664560Y15155994D01*
X46667181Y15162050D01*
X46674563Y15208670D01*
X46675761Y15214451D01*
X46687500Y15260165D01*
X46687500Y15280427D01*
X46689051Y15300136D01*
X46692219Y15320138D01*
X46689309Y15350920D01*
X46687779Y15367108D01*
X46687499Y15373040D01*
X46687499Y16374070D01*
X46687499Y17371656D01*
X46689249Y17387489D01*
X46688956Y17387516D01*
X46689702Y17395409D01*
X46687500Y17465472D01*
X46687500Y17495350D01*
X46687500Y17495356D01*
X46686620Y17502318D01*
X46686156Y17508207D01*
X46684674Y17555389D01*
X46679017Y17574858D01*
X46675012Y17594202D01*
X46672474Y17614297D01*
X46655100Y17658178D01*
X46653181Y17663784D01*
X46652649Y17665614D01*
X46640018Y17709093D01*
X46629706Y17726530D01*
X46621010Y17744279D01*
X46613552Y17763117D01*
X46585812Y17801297D01*
X46582564Y17806242D01*
X46558542Y17846862D01*
X46544214Y17861190D01*
X46531384Y17876211D01*
X46519472Y17892607D01*
X46519469Y17892609D01*
X46519469Y17892610D01*
X46483107Y17922692D01*
X46478726Y17926678D01*
X45836247Y18569157D01*
X45826280Y18581598D01*
X45826053Y18581409D01*
X45820999Y18587519D01*
X45769920Y18635485D01*
X45748777Y18656629D01*
X45748772Y18656634D01*
X45743225Y18660937D01*
X45738717Y18664788D01*
X45704325Y18697083D01*
X45704319Y18697087D01*
X45686563Y18706849D01*
X45670047Y18717698D01*
X45654041Y18730114D01*
X45623289Y18743422D01*
X45610740Y18748852D01*
X45605408Y18751464D01*
X45564061Y18774195D01*
X45544436Y18779234D01*
X45525736Y18785636D01*
X45507145Y18793681D01*
X45507143Y18793682D01*
X45507142Y18793682D01*
X45460542Y18801063D01*
X45454729Y18802267D01*
X45409030Y18814000D01*
X45388776Y18814000D01*
X45369066Y18815551D01*
X45349057Y18818720D01*
X45349056Y18818720D01*
X45302083Y18814280D01*
X45296150Y18814000D01*
X44783521Y18814000D01*
X44715400Y18834002D01*
X44694426Y18850905D01*
X44683703Y18861628D01*
X44683698Y18861632D01*
X44621599Y18899172D01*
X44545809Y18944989D01*
X44391978Y18992925D01*
X44391975Y18992926D01*
X44391973Y18992926D01*
X44351849Y18996572D01*
X44325125Y18999000D01*
X44325121Y18999000D01*
X43792878Y18999000D01*
X43726026Y18992926D01*
X43726023Y18992926D01*
X43726022Y18992925D01*
X43649106Y18968958D01*
X43572187Y18944988D01*
X43556681Y18935614D01*
X43488036Y18917493D01*
X43426319Y18935614D01*
X43410812Y18944988D01*
X43410809Y18944989D01*
X43256978Y18992925D01*
X43256975Y18992926D01*
X43256973Y18992926D01*
X43216849Y18996572D01*
X43190125Y18999000D01*
X43190121Y18999000D01*
X42657878Y18999000D01*
X42591026Y18992926D01*
X42591023Y18992926D01*
X42591022Y18992925D01*
X42437191Y18944989D01*
X42437189Y18944989D01*
X42437189Y18944988D01*
X42299301Y18861632D01*
X42299296Y18861628D01*
X42185372Y18747704D01*
X42185368Y18747699D01*
X42104263Y18613535D01*
X42102011Y18609809D01*
X42084300Y18552972D01*
X42054074Y18455974D01*
X42050829Y18420258D01*
X42048919Y18399232D01*
X42048000Y18389122D01*
X42048000Y18252596D01*
X42027998Y18184475D01*
X42011095Y18163501D01*
X41559449Y17711855D01*
X41497137Y17677829D01*
X41426323Y17682894D01*
X41426321Y17682895D01*
X41357704Y17708489D01*
X41357696Y17708491D01*
X41297149Y17715000D01*
X41297138Y17715000D01*
X40832094Y17715000D01*
X40763973Y17735002D01*
X40717480Y17788658D01*
X40707376Y17858932D01*
X40736870Y17923512D01*
X40742986Y17930083D01*
X42034661Y19221759D01*
X42047092Y19231716D01*
X42046905Y19231943D01*
X42053009Y19236995D01*
X42053018Y19237000D01*
X42100999Y19288096D01*
X42122134Y19309230D01*
X42126429Y19314768D01*
X42130271Y19319269D01*
X42162586Y19353679D01*
X42172345Y19371433D01*
X42183197Y19387954D01*
X42195613Y19403959D01*
X42214347Y19447252D01*
X42216961Y19452588D01*
X42227374Y19471530D01*
X42239695Y19493940D01*
X42244733Y19513565D01*
X42251138Y19532270D01*
X42259181Y19550855D01*
X42266561Y19597453D01*
X42267762Y19603260D01*
X42279500Y19648970D01*
X42279500Y19669226D01*
X42281051Y19688937D01*
X42284220Y19708943D01*
X42280354Y19749844D01*
X42279780Y19755920D01*
X42279500Y19761852D01*
X42279500Y22152646D01*
X42281249Y22168488D01*
X42280956Y22168515D01*
X42281700Y22176401D01*
X42281702Y22176408D01*
X42279500Y22246472D01*
X42279500Y22276356D01*
X42278620Y22283318D01*
X42278156Y22289207D01*
X42276674Y22336389D01*
X42271020Y22355848D01*
X42267012Y22375203D01*
X42264474Y22395297D01*
X42247103Y22439171D01*
X42245189Y22444760D01*
X42232019Y22490093D01*
X42221703Y22507536D01*
X42213005Y22525291D01*
X42205552Y22544117D01*
X42177818Y22582290D01*
X42174558Y22587253D01*
X42150542Y22627862D01*
X42136214Y22642190D01*
X42123384Y22657211D01*
X42111472Y22673607D01*
X42111469Y22673609D01*
X42111469Y22673610D01*
X42075113Y22703687D01*
X42070721Y22707683D01*
X41866403Y22912002D01*
X41832378Y22974314D01*
X41829499Y23001097D01*
X41829499Y23137622D01*
X41824743Y23189969D01*
X41823425Y23204478D01*
X41775489Y23358309D01*
X41692132Y23496198D01*
X41692131Y23496199D01*
X41692127Y23496204D01*
X41578203Y23610128D01*
X41578198Y23610132D01*
X41566681Y23617094D01*
X41440309Y23693489D01*
X41286478Y23741425D01*
X41286475Y23741426D01*
X41286473Y23741426D01*
X41246349Y23745072D01*
X41219625Y23747500D01*
X41219621Y23747500D01*
X40802378Y23747500D01*
X40735526Y23741426D01*
X40735523Y23741426D01*
X40735522Y23741425D01*
X40581691Y23693489D01*
X40581689Y23693489D01*
X40581689Y23693488D01*
X40443801Y23610132D01*
X40443796Y23610128D01*
X40329872Y23496204D01*
X40329868Y23496199D01*
X40246511Y23358310D01*
X40246509Y23358306D01*
X40239964Y23337300D01*
X40200601Y23278215D01*
X40135543Y23249791D01*
X40065445Y23261052D01*
X40051241Y23269639D01*
X40046202Y23272390D01*
X39909204Y23323489D01*
X39909196Y23323491D01*
X39848649Y23330000D01*
X39848638Y23330000D01*
X38191362Y23330000D01*
X38191350Y23330000D01*
X38130803Y23323491D01*
X38130795Y23323489D01*
X37993797Y23272390D01*
X37993792Y23272388D01*
X37876738Y23184762D01*
X37789112Y23067708D01*
X37789110Y23067703D01*
X37788054Y23064871D01*
X37786244Y23062455D01*
X37784795Y23059799D01*
X37784413Y23060008D01*
X37745506Y23008037D01*
X37678985Y22983228D01*
X37609611Y22998321D01*
X37559411Y23048525D01*
X37551946Y23064871D01*
X37550889Y23067703D01*
X37550887Y23067708D01*
X37463261Y23184762D01*
X37346207Y23272388D01*
X37346202Y23272390D01*
X37209204Y23323489D01*
X37209196Y23323491D01*
X37148649Y23330000D01*
X37148638Y23330000D01*
X36432064Y23330000D01*
X36363943Y23350002D01*
X36345812Y23364149D01*
X36337815Y23371658D01*
X36320321Y23388086D01*
X36316995Y23389914D01*
X36302563Y23397849D01*
X36286047Y23408698D01*
X36270041Y23421114D01*
X36239289Y23434422D01*
X36226740Y23439852D01*
X36221408Y23442464D01*
X36180061Y23465195D01*
X36160436Y23470234D01*
X36141736Y23476636D01*
X36136710Y23478811D01*
X36123145Y23484681D01*
X36123143Y23484682D01*
X36123142Y23484682D01*
X36076542Y23492063D01*
X36070729Y23493267D01*
X36025030Y23505000D01*
X36004776Y23505000D01*
X35985066Y23506551D01*
X35965057Y23509720D01*
X35965056Y23509720D01*
X35918083Y23505280D01*
X35912150Y23505000D01*
X35131520Y23505000D01*
X35063399Y23525002D01*
X35042429Y23541901D01*
X34974198Y23610132D01*
X34836309Y23693489D01*
X34682478Y23741425D01*
X34682475Y23741426D01*
X34682473Y23741426D01*
X34642349Y23745072D01*
X34615625Y23747500D01*
X34615621Y23747500D01*
X34198378Y23747500D01*
X34131526Y23741426D01*
X34131523Y23741426D01*
X34131522Y23741425D01*
X33977691Y23693489D01*
X33977689Y23693489D01*
X33977689Y23693488D01*
X33839801Y23610132D01*
X33805688Y23576019D01*
X33771573Y23541904D01*
X33709264Y23507880D01*
X33682480Y23505000D01*
X33642739Y23505000D01*
X33574618Y23525002D01*
X33568678Y23529064D01*
X33466752Y23603118D01*
X33292288Y23680794D01*
X33105487Y23720500D01*
X32914513Y23720500D01*
X32914512Y23720500D01*
X32738638Y23683117D01*
X32667847Y23688519D01*
X32611214Y23731336D01*
X32586721Y23797974D01*
X32602142Y23867275D01*
X32623341Y23895454D01*
X36899483Y28171595D01*
X36961796Y28205621D01*
X36988579Y28208500D01*
X37179800Y28208500D01*
X37247921Y28188498D01*
X37273437Y28166810D01*
X37276747Y28163134D01*
X37431248Y28050882D01*
X37605712Y27973206D01*
X37792513Y27933500D01*
X37983487Y27933500D01*
X38170288Y27973206D01*
X38344752Y28050882D01*
X38356524Y28059436D01*
X38423391Y28083294D01*
X38430587Y28083500D01*
X38856245Y28083500D01*
X38924366Y28063498D01*
X38957113Y28033009D01*
X38997738Y27978739D01*
X39114792Y27891113D01*
X39114794Y27891112D01*
X39114796Y27891111D01*
X39161948Y27873524D01*
X39251795Y27840012D01*
X39251803Y27840010D01*
X39312350Y27833501D01*
X39312355Y27833501D01*
X39312362Y27833500D01*
X39312368Y27833500D01*
X42559632Y27833500D01*
X42559638Y27833500D01*
X42559645Y27833501D01*
X42559649Y27833501D01*
X42620196Y27840010D01*
X42620199Y27840011D01*
X42620201Y27840011D01*
X42757204Y27891111D01*
X42773037Y27902963D01*
X42874261Y27978739D01*
X42961887Y28095793D01*
X42961887Y28095794D01*
X42961889Y28095796D01*
X43012989Y28232799D01*
X43019500Y28293362D01*
X43019500Y29227501D01*
X43039502Y29295621D01*
X43093158Y29342114D01*
X43145500Y29353500D01*
X43776500Y29353500D01*
X43844621Y29333498D01*
G37*
G04 #@! TD.AperFunction*
G04 #@! TA.AperFunction,Conductor*
G36*
X1724237Y16500000D02*
G01*
X1795763Y16500000D01*
X1870069Y16510684D01*
X1940341Y16500581D01*
X1993997Y16454089D01*
X2014000Y16385969D01*
X2014000Y15074034D01*
X1993998Y15005913D01*
X1940342Y14959420D01*
X1870069Y14949317D01*
X1870068Y14949317D01*
X1795768Y14960000D01*
X1795763Y14960000D01*
X1724237Y14960000D01*
X1724231Y14960000D01*
X1649932Y14949317D01*
X1579658Y14959420D01*
X1526002Y15005913D01*
X1506000Y15074034D01*
X1506000Y16385967D01*
X1526002Y16454088D01*
X1579658Y16500581D01*
X1649926Y16510685D01*
X1724237Y16500000D01*
G37*
G04 #@! TD.AperFunction*
G04 #@! TA.AperFunction,Conductor*
G36*
X45082527Y17526998D02*
G01*
X45103501Y17510095D01*
X45383595Y17230001D01*
X45417621Y17167689D01*
X45420500Y17140906D01*
X45420500Y15654792D01*
X45400498Y15586671D01*
X45383595Y15565696D01*
X45149056Y15331158D01*
X45086744Y15297133D01*
X45015928Y15302198D01*
X44959093Y15344745D01*
X44952594Y15362168D01*
X44930374Y15386500D01*
X43931000Y15386500D01*
X43862879Y15406502D01*
X43816386Y15460158D01*
X43805000Y15512500D01*
X43805000Y16656500D01*
X44313000Y16656500D01*
X44313000Y15894500D01*
X44930373Y15894500D01*
X44930373Y15894501D01*
X44928430Y15915887D01*
X44928430Y15915888D01*
X44880530Y16069602D01*
X44880530Y16069603D01*
X44795466Y16210315D01*
X44777341Y16278959D01*
X44795466Y16340685D01*
X44880530Y16481398D01*
X44880530Y16481399D01*
X44928429Y16635112D01*
X44930374Y16656500D01*
X44313000Y16656500D01*
X43805000Y16656500D01*
X43805000Y17038500D01*
X43825002Y17106621D01*
X43878658Y17153114D01*
X43931000Y17164500D01*
X44930373Y17164500D01*
X44930373Y17164501D01*
X44928430Y17185887D01*
X44928430Y17185888D01*
X44880530Y17339602D01*
X44880529Y17339606D01*
X44870729Y17355817D01*
X44852606Y17424461D01*
X44874471Y17492007D01*
X44929384Y17537008D01*
X44978558Y17547000D01*
X45014406Y17547000D01*
X45082527Y17526998D01*
G37*
G04 #@! TD.AperFunction*
G04 #@! TA.AperFunction,Conductor*
G36*
X6029621Y30271498D02*
G01*
X6076114Y30217842D01*
X6087500Y30165500D01*
X6087499Y24813414D01*
X6085751Y24797572D01*
X6086044Y24797544D01*
X6085298Y24789653D01*
X6087500Y24719603D01*
X6087500Y24689709D01*
X6087501Y24689688D01*
X6088378Y24682740D01*
X6088844Y24676828D01*
X6090326Y24629672D01*
X6090327Y24629667D01*
X6095977Y24610221D01*
X6099986Y24590863D01*
X6102525Y24570767D01*
X6102526Y24570761D01*
X6119893Y24526898D01*
X6121816Y24521281D01*
X6134982Y24475967D01*
X6145294Y24458529D01*
X6153988Y24440781D01*
X6161444Y24421951D01*
X6161450Y24421940D01*
X6189177Y24383777D01*
X6192437Y24378814D01*
X6216460Y24338195D01*
X6230779Y24323876D01*
X6243617Y24308846D01*
X6253156Y24295717D01*
X6255528Y24292453D01*
X6283794Y24269069D01*
X6291886Y24262375D01*
X6296267Y24258389D01*
X9522156Y21032500D01*
X12659170Y17895486D01*
X12693196Y17833174D01*
X12688131Y17762359D01*
X12645584Y17705523D01*
X12644145Y17704461D01*
X12637547Y17699667D01*
X12634237Y17695990D01*
X12573791Y17658750D01*
X12540600Y17654300D01*
X9625475Y17654300D01*
X9557354Y17674302D01*
X9510862Y17727957D01*
X9497456Y17757312D01*
X9494212Y17762359D01*
X9460826Y17814309D01*
X9418405Y17880318D01*
X9325705Y17987301D01*
X9324991Y17988186D01*
X9324247Y17988984D01*
X9251351Y18052148D01*
X9213740Y18084738D01*
X9158110Y18120489D01*
X9092787Y18162470D01*
X8959776Y18223214D01*
X8821830Y18263718D01*
X8821825Y18263720D01*
X8821822Y18263720D01*
X8677089Y18284529D01*
X8105200Y18284529D01*
X8079373Y18282682D01*
X8032092Y18279301D01*
X8032086Y18279300D01*
X7995760Y18268633D01*
X7942331Y18264813D01*
X7805206Y18284529D01*
X7805200Y18284529D01*
X7233311Y18284529D01*
X7106238Y18266259D01*
X7088578Y18263720D01*
X7088569Y18263718D01*
X6950623Y18223214D01*
X6817611Y18162469D01*
X6817606Y18162466D01*
X6696668Y18084744D01*
X6696661Y18084739D01*
X6586149Y17988980D01*
X6491997Y17880321D01*
X6412944Y17757313D01*
X6412941Y17757308D01*
X6353027Y17626114D01*
X6352580Y17624363D01*
X6312020Y17486230D01*
X6312019Y17486226D01*
X6298122Y17389569D01*
X6268629Y17324988D01*
X6262500Y17318406D01*
X5515569Y16571475D01*
X5453257Y16537449D01*
X5382442Y16542514D01*
X5325606Y16585061D01*
X5300795Y16651581D01*
X5305898Y16697142D01*
X5335300Y16794066D01*
X5335710Y16798222D01*
X5355583Y16999997D01*
X5355583Y17000004D01*
X5335301Y17205928D01*
X5335300Y17205930D01*
X5335300Y17205934D01*
X5275232Y17403954D01*
X5177685Y17586450D01*
X5046410Y17746410D01*
X4886450Y17877685D01*
X4886448Y17877686D01*
X4886447Y17877687D01*
X4703955Y17975232D01*
X4664167Y17987301D01*
X4663104Y17987624D01*
X4603724Y18026538D01*
X4574808Y18091380D01*
X4585539Y18161561D01*
X4632509Y18214800D01*
X4658769Y18227371D01*
X4847369Y18292117D01*
X4847371Y18292118D01*
X5045300Y18399232D01*
X5045301Y18399233D01*
X5222902Y18537466D01*
X5375325Y18703042D01*
X5498419Y18891452D01*
X5588820Y19097544D01*
X5588823Y19097551D01*
X5636544Y19286000D01*
X4914844Y19286000D01*
X4846723Y19306002D01*
X4800230Y19359658D01*
X4790126Y19429932D01*
X4793947Y19447496D01*
X4800000Y19468112D01*
X4800000Y19611889D01*
X4793947Y19632504D01*
X4793948Y19703500D01*
X4832333Y19763226D01*
X4896914Y19792718D01*
X4914844Y19794000D01*
X5636544Y19794000D01*
X5636544Y19794001D01*
X5588823Y19982450D01*
X5588820Y19982457D01*
X5498419Y20188549D01*
X5375325Y20376959D01*
X5222902Y20542535D01*
X5045301Y20680768D01*
X5045300Y20680769D01*
X5011791Y20698903D01*
X4961401Y20748917D01*
X4946050Y20818234D01*
X4970612Y20884847D01*
X5011790Y20920528D01*
X5045576Y20938811D01*
X5223240Y21077094D01*
X5375722Y21242732D01*
X5498860Y21431209D01*
X5589296Y21637384D01*
X5644564Y21855632D01*
X5663156Y22080000D01*
X5644564Y22304368D01*
X5589296Y22522616D01*
X5498860Y22728791D01*
X5444497Y22812000D01*
X5375724Y22917266D01*
X5375720Y22917271D01*
X5242067Y23062455D01*
X5223240Y23082906D01*
X5223239Y23082907D01*
X5223237Y23082909D01*
X5141382Y23146619D01*
X5045576Y23221189D01*
X5012319Y23239187D01*
X4961929Y23289198D01*
X4946576Y23358515D01*
X4971136Y23425128D01*
X5012320Y23460814D01*
X5045576Y23478811D01*
X5223240Y23617094D01*
X5375722Y23782732D01*
X5498860Y23971209D01*
X5589296Y24177384D01*
X5644564Y24395632D01*
X5663156Y24620000D01*
X5644564Y24844368D01*
X5589296Y25062616D01*
X5498860Y25268791D01*
X5484103Y25291378D01*
X5375724Y25457266D01*
X5375720Y25457271D01*
X5223237Y25622909D01*
X5141382Y25686619D01*
X5045576Y25761189D01*
X5011792Y25779472D01*
X4961402Y25829484D01*
X4946050Y25898801D01*
X4970610Y25965414D01*
X5011793Y26001099D01*
X5045300Y26019233D01*
X5045301Y26019233D01*
X5222902Y26157466D01*
X5375325Y26323042D01*
X5498419Y26511452D01*
X5588820Y26717544D01*
X5588823Y26717551D01*
X5636544Y26906000D01*
X4914844Y26906000D01*
X4846723Y26926002D01*
X4800230Y26979658D01*
X4790126Y27049932D01*
X4793947Y27067496D01*
X4800000Y27088112D01*
X4800000Y27231889D01*
X4793947Y27252504D01*
X4793948Y27323500D01*
X4832333Y27383226D01*
X4896914Y27412718D01*
X4914844Y27414000D01*
X5636544Y27414000D01*
X5636544Y27414001D01*
X5588823Y27602450D01*
X5588820Y27602457D01*
X5498419Y27808549D01*
X5375325Y27996959D01*
X5222902Y28162535D01*
X5045301Y28300768D01*
X5045300Y28300769D01*
X5011791Y28318903D01*
X4961401Y28368917D01*
X4946050Y28438234D01*
X4970612Y28504847D01*
X5011790Y28540528D01*
X5045576Y28558811D01*
X5223240Y28697094D01*
X5375722Y28862732D01*
X5498860Y29051209D01*
X5589296Y29257384D01*
X5644564Y29475632D01*
X5663156Y29700000D01*
X5644564Y29924368D01*
X5591333Y30134569D01*
X5594001Y30205515D01*
X5634601Y30263757D01*
X5700244Y30290803D01*
X5713478Y30291500D01*
X5961500Y30291500D01*
X6029621Y30271498D01*
G37*
G04 #@! TD.AperFunction*
G04 #@! TA.AperFunction,Conductor*
G36*
X1724237Y19040000D02*
G01*
X1795763Y19040000D01*
X1870069Y19050684D01*
X1940341Y19040581D01*
X1993997Y18994089D01*
X2014000Y18925969D01*
X2014000Y17614034D01*
X1993998Y17545913D01*
X1940342Y17499420D01*
X1870069Y17489317D01*
X1870068Y17489317D01*
X1795768Y17500000D01*
X1795763Y17500000D01*
X1724237Y17500000D01*
X1724231Y17500000D01*
X1649932Y17489317D01*
X1579658Y17499420D01*
X1526002Y17545913D01*
X1506000Y17614034D01*
X1506000Y18925967D01*
X1526002Y18994088D01*
X1579658Y19040581D01*
X1649926Y19050685D01*
X1724237Y19040000D01*
G37*
G04 #@! TD.AperFunction*
G04 #@! TA.AperFunction,Conductor*
G36*
X63517121Y63629998D02*
G01*
X63563614Y63576342D01*
X63575000Y63524000D01*
X63575000Y56833834D01*
X63554998Y56765713D01*
X63501342Y56719220D01*
X63449000Y56707834D01*
X60277350Y56707834D01*
X60216803Y56701325D01*
X60216795Y56701323D01*
X60079797Y56650224D01*
X60079792Y56650222D01*
X59962738Y56562596D01*
X59875112Y56445542D01*
X59875110Y56445537D01*
X59824011Y56308539D01*
X59824009Y56308531D01*
X59817139Y56244617D01*
X59815683Y56244774D01*
X59794014Y56183318D01*
X59737953Y56139756D01*
X59691803Y56131000D01*
X55088981Y56131000D01*
X55020860Y56151002D01*
X54999886Y56167905D01*
X50847018Y60320773D01*
X50835046Y60334625D01*
X50820579Y60354058D01*
X50820577Y60354060D01*
X50780134Y60387997D01*
X50776080Y60391711D01*
X50770217Y60397575D01*
X50744214Y60418136D01*
X50719114Y60439197D01*
X50690467Y60463235D01*
X58714788Y60463235D01*
X58744412Y60193986D01*
X58812928Y59931910D01*
X58918869Y59682611D01*
X58963922Y59608789D01*
X59059982Y59451390D01*
X59233255Y59243180D01*
X59233257Y59243178D01*
X59233259Y59243176D01*
X59335985Y59151134D01*
X59434998Y59062418D01*
X59660910Y58912956D01*
X59906176Y58797980D01*
X60165569Y58719940D01*
X60165572Y58719940D01*
X60165574Y58719939D01*
X60433557Y58680500D01*
X60433561Y58680500D01*
X60636633Y58680500D01*
X60671363Y58683043D01*
X60839156Y58695323D01*
X60839160Y58695324D01*
X60839161Y58695324D01*
X60949665Y58719940D01*
X61103553Y58754220D01*
X61356558Y58850986D01*
X61592777Y58983559D01*
X61807177Y59149112D01*
X61995186Y59344119D01*
X62152799Y59564421D01*
X62191695Y59640073D01*
X62276656Y59805325D01*
X62276657Y59805328D01*
X62364116Y60061690D01*
X62364118Y60061695D01*
X62411972Y60320773D01*
X62413318Y60328059D01*
X62413319Y60328070D01*
X62414269Y60354060D01*
X62423212Y60598765D01*
X62405773Y60757262D01*
X62393587Y60868015D01*
X62325071Y61130091D01*
X62219130Y61379390D01*
X62180653Y61442436D01*
X62078018Y61610610D01*
X61904745Y61818820D01*
X61904741Y61818823D01*
X61904740Y61818825D01*
X61703012Y61999573D01*
X61703002Y61999582D01*
X61477090Y62149044D01*
X61231824Y62264020D01*
X61074392Y62311385D01*
X60972425Y62342062D01*
X60704442Y62381500D01*
X60704439Y62381500D01*
X60501369Y62381500D01*
X60501367Y62381500D01*
X60298839Y62366677D01*
X60298838Y62366677D01*
X60034456Y62307783D01*
X60034441Y62307778D01*
X59781441Y62211014D01*
X59545229Y62078445D01*
X59545225Y62078443D01*
X59330818Y61912884D01*
X59142815Y61717883D01*
X59142810Y61717877D01*
X58985203Y61497583D01*
X58985196Y61497573D01*
X58861343Y61256676D01*
X58861342Y61256673D01*
X58773883Y61000311D01*
X58773880Y61000298D01*
X58724681Y60733942D01*
X58724680Y60733931D01*
X58714788Y60463235D01*
X50690467Y60463235D01*
X50684750Y60468032D01*
X50684748Y60468033D01*
X50684746Y60468035D01*
X50678616Y60472067D01*
X50678651Y60472122D01*
X50672297Y60476171D01*
X50672263Y60476114D01*
X50666016Y60479967D01*
X50595650Y60512780D01*
X50595649Y60512780D01*
X50526298Y60547609D01*
X50526296Y60547610D01*
X50526293Y60547611D01*
X50519399Y60550120D01*
X50519421Y60550183D01*
X50512299Y60552659D01*
X50512279Y60552596D01*
X50505319Y60554903D01*
X50429260Y60570608D01*
X50353762Y60588501D01*
X50346477Y60589352D01*
X50346484Y60589420D01*
X50338987Y60590186D01*
X50338982Y60590119D01*
X50331669Y60590759D01*
X50331668Y60590759D01*
X50254030Y60588500D01*
X48095755Y60588500D01*
X48027634Y60608502D01*
X47994887Y60638991D01*
X47954261Y60693262D01*
X47837207Y60780888D01*
X47837202Y60780890D01*
X47700204Y60831989D01*
X47700196Y60831991D01*
X47639649Y60838500D01*
X47639638Y60838500D01*
X46132371Y60838500D01*
X46064250Y60858502D01*
X46043280Y60875401D01*
X45271101Y61647580D01*
X45166906Y61729967D01*
X45006206Y61804903D01*
X45006204Y61804904D01*
X44832559Y61840759D01*
X44832558Y61840759D01*
X44773478Y61839040D01*
X44655319Y61835602D01*
X44540755Y61804904D01*
X44484050Y61789710D01*
X44484049Y61789710D01*
X44484047Y61789709D01*
X44327982Y61705559D01*
X44327978Y61705556D01*
X44195525Y61587683D01*
X44093822Y61442436D01*
X44093819Y61442432D01*
X44028358Y61277652D01*
X44002659Y61102212D01*
X44018113Y60925574D01*
X44069070Y60771795D01*
X44071510Y60700840D01*
X44050334Y60656654D01*
X43990112Y60576207D01*
X43990110Y60576203D01*
X43939011Y60439205D01*
X43939009Y60439197D01*
X43932500Y60378650D01*
X43932500Y59281351D01*
X43939009Y59220804D01*
X43939011Y59220796D01*
X43990110Y59083798D01*
X43990110Y59083797D01*
X43990111Y59083796D01*
X44062661Y58986880D01*
X44087472Y58920362D01*
X44078891Y58864853D01*
X44028358Y58737652D01*
X44002659Y58562212D01*
X44018113Y58385574D01*
X44069070Y58231795D01*
X44071510Y58160840D01*
X44050334Y58116654D01*
X43990112Y58036207D01*
X43990110Y58036203D01*
X43939011Y57899205D01*
X43939009Y57899197D01*
X43932500Y57838650D01*
X43932500Y56741351D01*
X43939009Y56680804D01*
X43939011Y56680796D01*
X43990110Y56543798D01*
X43990110Y56543797D01*
X43990111Y56543796D01*
X44062661Y56446880D01*
X44087472Y56380362D01*
X44078891Y56324853D01*
X44028358Y56197652D01*
X44002659Y56022212D01*
X44018113Y55845574D01*
X44069070Y55691795D01*
X44071510Y55620840D01*
X44050334Y55576654D01*
X43990112Y55496207D01*
X43990110Y55496203D01*
X43939011Y55359205D01*
X43939009Y55359197D01*
X43932500Y55298650D01*
X43932500Y54201351D01*
X43939009Y54140804D01*
X43939011Y54140796D01*
X43990110Y54003798D01*
X43990110Y54003797D01*
X43990111Y54003796D01*
X44062661Y53906880D01*
X44087472Y53840362D01*
X44078891Y53784853D01*
X44028358Y53657652D01*
X44010909Y53538531D01*
X44002659Y53482211D01*
X44009906Y53399379D01*
X44018113Y53305574D01*
X44069070Y53151795D01*
X44071510Y53080840D01*
X44050334Y53036654D01*
X43990112Y52956207D01*
X43990110Y52956203D01*
X43939011Y52819205D01*
X43939009Y52819197D01*
X43932500Y52758650D01*
X43932500Y51661351D01*
X43939009Y51600804D01*
X43939011Y51600796D01*
X43990110Y51463798D01*
X43990110Y51463797D01*
X43990111Y51463796D01*
X44062661Y51366880D01*
X44087472Y51300362D01*
X44078891Y51244853D01*
X44028358Y51117652D01*
X44002659Y50942212D01*
X44018113Y50765574D01*
X44069070Y50611795D01*
X44071510Y50540840D01*
X44050334Y50496654D01*
X43990112Y50416207D01*
X43990110Y50416203D01*
X43939011Y50279205D01*
X43939009Y50279197D01*
X43932500Y50218650D01*
X43932500Y49121351D01*
X43939009Y49060804D01*
X43939011Y49060796D01*
X43990110Y48923798D01*
X43990110Y48923797D01*
X43990111Y48923796D01*
X44044404Y48851269D01*
X44069215Y48784749D01*
X44060634Y48729241D01*
X44008358Y48597652D01*
X43982659Y48422212D01*
X43998113Y48245570D01*
X44053885Y48077263D01*
X44055298Y48074233D01*
X44055643Y48071958D01*
X44056194Y48070296D01*
X44055910Y48070202D01*
X44065956Y48004041D01*
X44041969Y47945479D01*
X43990112Y47876208D01*
X43990110Y47876203D01*
X43939011Y47739205D01*
X43939009Y47739197D01*
X43932500Y47678650D01*
X43932500Y46581351D01*
X43939009Y46520804D01*
X43939011Y46520796D01*
X43990110Y46383798D01*
X43990112Y46383793D01*
X44077738Y46266739D01*
X44194792Y46179113D01*
X44194794Y46179112D01*
X44194796Y46179111D01*
X44253875Y46157076D01*
X44331795Y46128012D01*
X44331803Y46128010D01*
X44392350Y46121501D01*
X44392355Y46121501D01*
X44392362Y46121500D01*
X44392368Y46121500D01*
X47639632Y46121500D01*
X47639638Y46121500D01*
X47639645Y46121501D01*
X47639649Y46121501D01*
X47700196Y46128010D01*
X47700199Y46128011D01*
X47700201Y46128011D01*
X47837204Y46179111D01*
X47844531Y46184596D01*
X47948423Y46262368D01*
X48014943Y46287179D01*
X48023932Y46287500D01*
X48050487Y46287500D01*
X48193803Y46317963D01*
X48264594Y46312561D01*
X48321226Y46269744D01*
X48345720Y46203107D01*
X48346000Y46194716D01*
X48346000Y42426500D01*
X48325998Y42358379D01*
X48272342Y42311886D01*
X48220000Y42300500D01*
X48065755Y42300500D01*
X47997634Y42320502D01*
X47964887Y42350991D01*
X47924261Y42405262D01*
X47807207Y42492888D01*
X47807202Y42492890D01*
X47670204Y42543989D01*
X47670196Y42543991D01*
X47609649Y42550500D01*
X47609638Y42550500D01*
X46102371Y42550500D01*
X46034250Y42570502D01*
X46013276Y42587405D01*
X45317908Y43282773D01*
X45305936Y43296625D01*
X45291469Y43316058D01*
X45286154Y43320518D01*
X45251024Y43349997D01*
X45246970Y43353711D01*
X45241107Y43359575D01*
X45215104Y43380136D01*
X45211525Y43383139D01*
X45155640Y43430032D01*
X45155638Y43430033D01*
X45155636Y43430035D01*
X45149506Y43434067D01*
X45149541Y43434122D01*
X45143187Y43438171D01*
X45143153Y43438114D01*
X45136906Y43441967D01*
X45066540Y43474780D01*
X45060554Y43477786D01*
X44997188Y43509609D01*
X44997186Y43509610D01*
X44997183Y43509611D01*
X44990289Y43512120D01*
X44990311Y43512183D01*
X44983189Y43514659D01*
X44983169Y43514596D01*
X44976209Y43516903D01*
X44900150Y43532608D01*
X44824652Y43550501D01*
X44817367Y43551352D01*
X44817374Y43551420D01*
X44809877Y43552186D01*
X44809872Y43552119D01*
X44802559Y43552759D01*
X44802558Y43552759D01*
X44724920Y43550500D01*
X32083441Y43550500D01*
X32065182Y43551830D01*
X32041212Y43555341D01*
X32041211Y43555341D01*
X32034773Y43554778D01*
X31988615Y43550740D01*
X31983122Y43550500D01*
X31974817Y43550500D01*
X31941904Y43546653D01*
X31864574Y43539888D01*
X31857389Y43538404D01*
X31857376Y43538467D01*
X31850003Y43536832D01*
X31850018Y43536769D01*
X31842881Y43535078D01*
X31792947Y43516903D01*
X31769934Y43508527D01*
X31733098Y43496321D01*
X31696261Y43484114D01*
X31689612Y43481013D01*
X31689583Y43481074D01*
X31682792Y43477786D01*
X31682822Y43477727D01*
X31676269Y43474437D01*
X31611394Y43431768D01*
X31545351Y43391032D01*
X31539588Y43386475D01*
X31539547Y43386527D01*
X31533704Y43381767D01*
X31533746Y43381717D01*
X31528128Y43377004D01*
X31474836Y43320518D01*
X30858094Y42703777D01*
X30795782Y42669751D01*
X30724967Y42674816D01*
X30679904Y42703777D01*
X30100908Y43282773D01*
X30088936Y43296625D01*
X30074469Y43316058D01*
X30069154Y43320518D01*
X30034024Y43349997D01*
X30029970Y43353711D01*
X30024107Y43359575D01*
X29998104Y43380136D01*
X29994525Y43383139D01*
X29938640Y43430032D01*
X29938638Y43430033D01*
X29938636Y43430035D01*
X29932506Y43434067D01*
X29932541Y43434122D01*
X29926187Y43438171D01*
X29926153Y43438114D01*
X29919906Y43441967D01*
X29849540Y43474780D01*
X29843554Y43477786D01*
X29780188Y43509609D01*
X29780186Y43509610D01*
X29780183Y43509611D01*
X29773289Y43512120D01*
X29773311Y43512183D01*
X29766189Y43514659D01*
X29766169Y43514596D01*
X29759209Y43516903D01*
X29683150Y43532608D01*
X29607652Y43550501D01*
X29600367Y43551352D01*
X29600374Y43551420D01*
X29592877Y43552186D01*
X29592872Y43552119D01*
X29585559Y43552759D01*
X29585558Y43552759D01*
X29507920Y43550500D01*
X16820441Y43550500D01*
X16802182Y43551830D01*
X16778212Y43555341D01*
X16778211Y43555341D01*
X16771773Y43554778D01*
X16725615Y43550740D01*
X16720122Y43550500D01*
X16711817Y43550500D01*
X16678904Y43546653D01*
X16601574Y43539888D01*
X16594389Y43538404D01*
X16594376Y43538467D01*
X16587003Y43536832D01*
X16587018Y43536769D01*
X16579881Y43535078D01*
X16529947Y43516903D01*
X16506934Y43508527D01*
X16470097Y43496321D01*
X16433261Y43484114D01*
X16426612Y43481013D01*
X16426583Y43481074D01*
X16419792Y43477786D01*
X16419822Y43477727D01*
X16413269Y43474437D01*
X16348394Y43431768D01*
X16282351Y43391032D01*
X16276588Y43386475D01*
X16276547Y43386527D01*
X16270704Y43381767D01*
X16270746Y43381717D01*
X16265128Y43377004D01*
X16211836Y43320518D01*
X15478724Y42587405D01*
X15416411Y42553380D01*
X15389628Y42550500D01*
X13882350Y42550500D01*
X13821803Y42543991D01*
X13821795Y42543989D01*
X13684797Y42492890D01*
X13684792Y42492888D01*
X13567738Y42405262D01*
X13480112Y42288208D01*
X13480110Y42288203D01*
X13429011Y42151205D01*
X13429009Y42151197D01*
X13422500Y42090650D01*
X13422500Y40993351D01*
X13429009Y40932804D01*
X13429011Y40932796D01*
X13480110Y40795798D01*
X13480112Y40795793D01*
X13567738Y40678739D01*
X13684792Y40591113D01*
X13684794Y40591112D01*
X13684796Y40591111D01*
X13741380Y40570006D01*
X13821795Y40540012D01*
X13821803Y40540010D01*
X13882350Y40533501D01*
X13882355Y40533501D01*
X13882362Y40533500D01*
X15660629Y40533500D01*
X15728750Y40513498D01*
X15775243Y40459842D01*
X15785347Y40389568D01*
X15755853Y40324988D01*
X15749724Y40318405D01*
X15478724Y40047405D01*
X15416412Y40013379D01*
X15389629Y40010500D01*
X13882350Y40010500D01*
X13821803Y40003991D01*
X13821795Y40003989D01*
X13684797Y39952890D01*
X13684792Y39952888D01*
X13567738Y39865262D01*
X13480112Y39748208D01*
X13480110Y39748203D01*
X13429011Y39611205D01*
X13429009Y39611197D01*
X13422500Y39550650D01*
X13422500Y38453351D01*
X13429009Y38392804D01*
X13429011Y38392796D01*
X13480110Y38255798D01*
X13480112Y38255793D01*
X13567738Y38138739D01*
X13684792Y38051113D01*
X13684794Y38051112D01*
X13684796Y38051111D01*
X13741380Y38030006D01*
X13821795Y38000012D01*
X13821803Y38000010D01*
X13882350Y37993501D01*
X13882355Y37993501D01*
X13882362Y37993500D01*
X15660629Y37993500D01*
X15728750Y37973498D01*
X15775243Y37919842D01*
X15785347Y37849568D01*
X15755853Y37784988D01*
X15749724Y37778405D01*
X15478724Y37507405D01*
X15416412Y37473379D01*
X15389629Y37470500D01*
X13882350Y37470500D01*
X13821803Y37463991D01*
X13821795Y37463989D01*
X13684797Y37412890D01*
X13684792Y37412888D01*
X13567738Y37325262D01*
X13480112Y37208208D01*
X13480110Y37208203D01*
X13429011Y37071205D01*
X13429009Y37071197D01*
X13422500Y37010650D01*
X13422500Y35913351D01*
X13429009Y35852804D01*
X13429011Y35852796D01*
X13480110Y35715798D01*
X13480112Y35715793D01*
X13567738Y35598739D01*
X13684792Y35511113D01*
X13684794Y35511112D01*
X13684796Y35511111D01*
X13741380Y35490006D01*
X13821795Y35460012D01*
X13821803Y35460010D01*
X13882350Y35453501D01*
X13882355Y35453501D01*
X13882362Y35453500D01*
X15660629Y35453500D01*
X15728750Y35433498D01*
X15775243Y35379842D01*
X15785347Y35309568D01*
X15755853Y35244988D01*
X15749724Y35238405D01*
X15478724Y34967405D01*
X15416412Y34933379D01*
X15389629Y34930500D01*
X13882350Y34930500D01*
X13821803Y34923991D01*
X13821795Y34923989D01*
X13684797Y34872890D01*
X13684792Y34872888D01*
X13567738Y34785262D01*
X13480112Y34668208D01*
X13480110Y34668203D01*
X13429011Y34531205D01*
X13429009Y34531197D01*
X13422500Y34470650D01*
X13422500Y33373351D01*
X13429009Y33312804D01*
X13429011Y33312796D01*
X13480110Y33175798D01*
X13480112Y33175793D01*
X13567738Y33058739D01*
X13684792Y32971113D01*
X13684794Y32971112D01*
X13684796Y32971111D01*
X13741380Y32950006D01*
X13821795Y32920012D01*
X13821803Y32920010D01*
X13882350Y32913501D01*
X13882355Y32913501D01*
X13882362Y32913500D01*
X15660629Y32913500D01*
X15728750Y32893498D01*
X15775243Y32839842D01*
X15785347Y32769568D01*
X15755853Y32704988D01*
X15749724Y32698405D01*
X15478724Y32427405D01*
X15416412Y32393379D01*
X15389629Y32390500D01*
X13882350Y32390500D01*
X13821803Y32383991D01*
X13821795Y32383989D01*
X13684797Y32332890D01*
X13684792Y32332888D01*
X13567738Y32245262D01*
X13480112Y32128208D01*
X13480110Y32128203D01*
X13429011Y31991205D01*
X13429009Y31991197D01*
X13422500Y31930650D01*
X13422500Y30833351D01*
X13429009Y30772804D01*
X13429011Y30772796D01*
X13480110Y30635798D01*
X13480112Y30635793D01*
X13567738Y30518739D01*
X13684792Y30431113D01*
X13684794Y30431112D01*
X13684796Y30431111D01*
X13741380Y30410006D01*
X13821795Y30380012D01*
X13821803Y30380010D01*
X13882350Y30373501D01*
X13882355Y30373501D01*
X13882362Y30373500D01*
X15660629Y30373500D01*
X15728750Y30353498D01*
X15775243Y30299842D01*
X15785347Y30229568D01*
X15755853Y30164988D01*
X15749724Y30158405D01*
X15478724Y29887405D01*
X15416412Y29853379D01*
X15389629Y29850500D01*
X13882350Y29850500D01*
X13821803Y29843991D01*
X13821795Y29843989D01*
X13684797Y29792890D01*
X13684792Y29792888D01*
X13567738Y29705262D01*
X13480112Y29588208D01*
X13480110Y29588203D01*
X13429011Y29451205D01*
X13429009Y29451197D01*
X13422500Y29390650D01*
X13422500Y28293351D01*
X13429009Y28232804D01*
X13429011Y28232796D01*
X13480110Y28095798D01*
X13480112Y28095793D01*
X13567738Y27978739D01*
X13684792Y27891113D01*
X13684794Y27891112D01*
X13684796Y27891111D01*
X13731948Y27873524D01*
X13821795Y27840012D01*
X13821803Y27840010D01*
X13882350Y27833501D01*
X13882355Y27833501D01*
X13882362Y27833500D01*
X13882368Y27833500D01*
X17129632Y27833500D01*
X17129638Y27833500D01*
X17129645Y27833501D01*
X17129649Y27833501D01*
X17190196Y27840010D01*
X17190199Y27840011D01*
X17190201Y27840011D01*
X17327204Y27891111D01*
X17343037Y27902963D01*
X17444261Y27978739D01*
X17531887Y28095793D01*
X17531887Y28095794D01*
X17531889Y28095796D01*
X17582989Y28232799D01*
X17589500Y28293362D01*
X17589500Y29207500D01*
X17609502Y29275621D01*
X17663158Y29322114D01*
X17715500Y29333500D01*
X21679021Y29333500D01*
X21747142Y29313498D01*
X21793635Y29259842D01*
X21803739Y29189568D01*
X21798854Y29168563D01*
X21754457Y29031928D01*
X21734496Y28842000D01*
X21754457Y28652073D01*
X21776663Y28583732D01*
X21813473Y28470444D01*
X21839122Y28426018D01*
X21908958Y28305059D01*
X21908965Y28305049D01*
X22036744Y28163136D01*
X22036747Y28163134D01*
X22191248Y28050882D01*
X22365712Y27973206D01*
X22552513Y27933500D01*
X22743487Y27933500D01*
X22930288Y27973206D01*
X23104752Y28050882D01*
X23116524Y28059436D01*
X23183391Y28083294D01*
X23190587Y28083500D01*
X23639245Y28083500D01*
X23707366Y28063498D01*
X23740113Y28033009D01*
X23780738Y27978739D01*
X23897792Y27891113D01*
X23897794Y27891112D01*
X23897796Y27891111D01*
X23944948Y27873524D01*
X24034795Y27840012D01*
X24034803Y27840010D01*
X24095350Y27833501D01*
X24095355Y27833501D01*
X24095362Y27833500D01*
X25779404Y27833500D01*
X25847525Y27813498D01*
X25868499Y27796596D01*
X26034754Y27630342D01*
X26044722Y27617899D01*
X26044950Y27618087D01*
X26050001Y27611981D01*
X26101078Y27564017D01*
X26122223Y27542871D01*
X26122227Y27542868D01*
X26122230Y27542865D01*
X26127782Y27538558D01*
X26132269Y27534727D01*
X26154959Y27513419D01*
X26166677Y27502415D01*
X26166679Y27502414D01*
X26184428Y27492657D01*
X26200953Y27481802D01*
X26216959Y27469386D01*
X26258686Y27451330D01*
X26260262Y27450648D01*
X26265583Y27448042D01*
X26306940Y27425305D01*
X26306948Y27425303D01*
X26326558Y27420268D01*
X26345267Y27413863D01*
X26363855Y27405819D01*
X26410477Y27398436D01*
X26416262Y27397237D01*
X26461970Y27385500D01*
X26482224Y27385500D01*
X26501934Y27383949D01*
X26504141Y27383600D01*
X26521943Y27380780D01*
X26555870Y27383988D01*
X26568917Y27385220D01*
X26574850Y27385500D01*
X27424500Y27385500D01*
X27492621Y27365498D01*
X27539114Y27311842D01*
X27550500Y27259500D01*
X27550500Y17774192D01*
X27530498Y17706071D01*
X27476842Y17659578D01*
X27406568Y17649474D01*
X27341988Y17678968D01*
X27330865Y17689881D01*
X27322056Y17699664D01*
X27167552Y17811918D01*
X26993088Y17889594D01*
X26806287Y17929300D01*
X26615313Y17929300D01*
X26428511Y17889594D01*
X26254047Y17811918D01*
X26099547Y17699667D01*
X26098391Y17698382D01*
X26097532Y17697854D01*
X26094637Y17695246D01*
X26094160Y17695776D01*
X26037945Y17661142D01*
X26004753Y17656691D01*
X18988591Y17656691D01*
X18920470Y17676693D01*
X18894954Y17698381D01*
X18891643Y17702058D01*
X18737143Y17814309D01*
X18562679Y17891985D01*
X18375878Y17931691D01*
X18184904Y17931691D01*
X17998102Y17891985D01*
X17823638Y17814309D01*
X17669136Y17702057D01*
X17664966Y17697425D01*
X17604517Y17660190D01*
X17533533Y17661548D01*
X17482241Y17692648D01*
X13211484Y21963405D01*
X13177458Y22025717D01*
X13182523Y22096532D01*
X13225070Y22153368D01*
X13291590Y22178179D01*
X13300579Y22178500D01*
X20998800Y22178500D01*
X21066921Y22158498D01*
X21092437Y22136810D01*
X21095747Y22133134D01*
X21250248Y22020882D01*
X21424712Y21943206D01*
X21611513Y21903500D01*
X21802487Y21903500D01*
X21989288Y21943206D01*
X22163752Y22020882D01*
X22318253Y22133134D01*
X22359101Y22178500D01*
X22446034Y22275049D01*
X22446035Y22275051D01*
X22446040Y22275056D01*
X22541527Y22440444D01*
X22600542Y22622072D01*
X22620504Y22812000D01*
X22600542Y23001928D01*
X22541527Y23183556D01*
X22446040Y23348944D01*
X22446038Y23348946D01*
X22446034Y23348952D01*
X22318255Y23490865D01*
X22163752Y23603118D01*
X21989288Y23680794D01*
X21802487Y23720500D01*
X21611513Y23720500D01*
X21424711Y23680794D01*
X21250247Y23603118D01*
X21095747Y23490867D01*
X21092437Y23487190D01*
X21031991Y23449950D01*
X20998800Y23445500D01*
X13271200Y23445500D01*
X13203079Y23465502D01*
X13177563Y23487190D01*
X13174252Y23490867D01*
X13019752Y23603118D01*
X12845288Y23680794D01*
X12658487Y23720500D01*
X12467513Y23720500D01*
X12280711Y23680794D01*
X12106247Y23603118D01*
X11951746Y23490866D01*
X11913744Y23448660D01*
X11853298Y23411421D01*
X11782314Y23412773D01*
X11731013Y23443876D01*
X11126405Y24048484D01*
X11092379Y24110796D01*
X11089500Y24137579D01*
X11089500Y27707500D01*
X11109502Y27775621D01*
X11163158Y27822114D01*
X11215500Y27833500D01*
X12079632Y27833500D01*
X12079638Y27833500D01*
X12079645Y27833501D01*
X12079649Y27833501D01*
X12140196Y27840010D01*
X12140199Y27840011D01*
X12140201Y27840011D01*
X12277204Y27891111D01*
X12293037Y27902963D01*
X12394261Y27978739D01*
X12481887Y28095793D01*
X12481887Y28095794D01*
X12481889Y28095796D01*
X12532989Y28232799D01*
X12539500Y28293362D01*
X12539500Y29390638D01*
X12539499Y29390650D01*
X12532990Y29451197D01*
X12532988Y29451205D01*
X12481889Y29588203D01*
X12481887Y29588208D01*
X12394261Y29705262D01*
X12277207Y29792888D01*
X12277202Y29792890D01*
X12140204Y29843989D01*
X12140196Y29843991D01*
X12079649Y29850500D01*
X12079638Y29850500D01*
X11340500Y29850500D01*
X11272379Y29870502D01*
X11225886Y29924158D01*
X11214500Y29976500D01*
X11214500Y30247500D01*
X11234502Y30315621D01*
X11288158Y30362114D01*
X11340500Y30373500D01*
X12079632Y30373500D01*
X12079638Y30373500D01*
X12079645Y30373501D01*
X12079649Y30373501D01*
X12140196Y30380010D01*
X12140199Y30380011D01*
X12140201Y30380011D01*
X12277204Y30431111D01*
X12394261Y30518739D01*
X12481889Y30635796D01*
X12532989Y30772799D01*
X12539500Y30833362D01*
X12539500Y31930638D01*
X12539499Y31930650D01*
X12532990Y31991197D01*
X12532988Y31991205D01*
X12481889Y32128203D01*
X12481887Y32128208D01*
X12394261Y32245262D01*
X12277207Y32332888D01*
X12277202Y32332890D01*
X12140204Y32383989D01*
X12140196Y32383991D01*
X12079649Y32390500D01*
X12079638Y32390500D01*
X11340500Y32390500D01*
X11272379Y32410502D01*
X11225886Y32464158D01*
X11214500Y32516500D01*
X11214500Y32787500D01*
X11234502Y32855621D01*
X11288158Y32902114D01*
X11340500Y32913500D01*
X12079632Y32913500D01*
X12079638Y32913500D01*
X12079645Y32913501D01*
X12079649Y32913501D01*
X12140196Y32920010D01*
X12140199Y32920011D01*
X12140201Y32920011D01*
X12277204Y32971111D01*
X12394261Y33058739D01*
X12481889Y33175796D01*
X12532989Y33312799D01*
X12539500Y33373362D01*
X12539500Y34470638D01*
X12539499Y34470650D01*
X12532990Y34531197D01*
X12532988Y34531205D01*
X12481889Y34668203D01*
X12481887Y34668208D01*
X12394261Y34785262D01*
X12277207Y34872888D01*
X12277202Y34872890D01*
X12140204Y34923989D01*
X12140196Y34923991D01*
X12079649Y34930500D01*
X12079638Y34930500D01*
X11340500Y34930500D01*
X11272379Y34950502D01*
X11225886Y35004158D01*
X11214500Y35056500D01*
X11214500Y35327500D01*
X11234502Y35395621D01*
X11288158Y35442114D01*
X11340500Y35453500D01*
X12079632Y35453500D01*
X12079638Y35453500D01*
X12079645Y35453501D01*
X12079649Y35453501D01*
X12140196Y35460010D01*
X12140199Y35460011D01*
X12140201Y35460011D01*
X12277204Y35511111D01*
X12394261Y35598739D01*
X12481889Y35715796D01*
X12532989Y35852799D01*
X12539500Y35913362D01*
X12539500Y37010638D01*
X12539499Y37010650D01*
X12532990Y37071197D01*
X12532988Y37071205D01*
X12481889Y37208203D01*
X12481887Y37208208D01*
X12394261Y37325262D01*
X12277207Y37412888D01*
X12277202Y37412890D01*
X12140204Y37463989D01*
X12140196Y37463991D01*
X12079649Y37470500D01*
X12079638Y37470500D01*
X11340500Y37470500D01*
X11272379Y37490502D01*
X11225886Y37544158D01*
X11214500Y37596500D01*
X11214500Y37867500D01*
X11234502Y37935621D01*
X11288158Y37982114D01*
X11340500Y37993500D01*
X12079632Y37993500D01*
X12079638Y37993500D01*
X12079645Y37993501D01*
X12079649Y37993501D01*
X12140196Y38000010D01*
X12140199Y38000011D01*
X12140201Y38000011D01*
X12277204Y38051111D01*
X12394261Y38138739D01*
X12481889Y38255796D01*
X12532989Y38392799D01*
X12539500Y38453362D01*
X12539500Y39550638D01*
X12539499Y39550650D01*
X12532990Y39611197D01*
X12532988Y39611205D01*
X12481889Y39748203D01*
X12481887Y39748208D01*
X12394261Y39865262D01*
X12277207Y39952888D01*
X12277202Y39952890D01*
X12140204Y40003989D01*
X12140196Y40003991D01*
X12079649Y40010500D01*
X12079638Y40010500D01*
X11340500Y40010500D01*
X11272379Y40030502D01*
X11225886Y40084158D01*
X11214500Y40136500D01*
X11214500Y40407500D01*
X11234502Y40475621D01*
X11288158Y40522114D01*
X11340500Y40533500D01*
X12079632Y40533500D01*
X12079638Y40533500D01*
X12079645Y40533501D01*
X12079649Y40533501D01*
X12140196Y40540010D01*
X12140199Y40540011D01*
X12140201Y40540011D01*
X12277204Y40591111D01*
X12394261Y40678739D01*
X12408134Y40697271D01*
X12481887Y40795793D01*
X12481887Y40795794D01*
X12481889Y40795796D01*
X12532989Y40932799D01*
X12539500Y40993362D01*
X12539500Y42090638D01*
X12539499Y42090650D01*
X12532990Y42151197D01*
X12532988Y42151205D01*
X12481889Y42288203D01*
X12481887Y42288208D01*
X12394261Y42405262D01*
X12277207Y42492888D01*
X12277202Y42492890D01*
X12140204Y42543989D01*
X12140196Y42543991D01*
X12079649Y42550500D01*
X12079638Y42550500D01*
X9839594Y42550500D01*
X9771473Y42570502D01*
X9724980Y42624158D01*
X9714876Y42694432D01*
X9744370Y42759012D01*
X9750499Y42765595D01*
X12569499Y45584595D01*
X12631811Y45618621D01*
X12658594Y45621500D01*
X36959147Y45621500D01*
X36974988Y45619751D01*
X36975016Y45620044D01*
X36982902Y45619300D01*
X36982909Y45619298D01*
X37052958Y45621500D01*
X37082856Y45621500D01*
X37089818Y45622381D01*
X37095719Y45622846D01*
X37142889Y45624327D01*
X37162347Y45629981D01*
X37181694Y45633987D01*
X37201797Y45636526D01*
X37245679Y45653901D01*
X37251274Y45655817D01*
X37279816Y45664109D01*
X37296591Y45668981D01*
X37296595Y45668983D01*
X37314026Y45679292D01*
X37331780Y45687991D01*
X37350617Y45695448D01*
X37388786Y45723182D01*
X37393744Y45726438D01*
X37434362Y45750458D01*
X37448685Y45764782D01*
X37463724Y45777626D01*
X37480107Y45789528D01*
X37510188Y45825892D01*
X37514178Y45830275D01*
X37868500Y46184596D01*
X37930812Y46218621D01*
X37957595Y46221500D01*
X38013487Y46221500D01*
X38200288Y46261206D01*
X38374752Y46338882D01*
X38386524Y46347436D01*
X38453391Y46371294D01*
X38460587Y46371500D01*
X38886245Y46371500D01*
X38954366Y46351498D01*
X38987113Y46321009D01*
X39027738Y46266739D01*
X39144792Y46179113D01*
X39144794Y46179112D01*
X39144796Y46179111D01*
X39203875Y46157076D01*
X39281795Y46128012D01*
X39281803Y46128010D01*
X39342350Y46121501D01*
X39342355Y46121501D01*
X39342362Y46121500D01*
X39342368Y46121500D01*
X42589632Y46121500D01*
X42589638Y46121500D01*
X42589645Y46121501D01*
X42589649Y46121501D01*
X42650196Y46128010D01*
X42650199Y46128011D01*
X42650201Y46128011D01*
X42787204Y46179111D01*
X42839842Y46218515D01*
X42904261Y46266739D01*
X42991887Y46383793D01*
X42991887Y46383794D01*
X42991889Y46383796D01*
X43042989Y46520799D01*
X43044154Y46531627D01*
X43049499Y46581351D01*
X43049500Y46581368D01*
X43049500Y47678633D01*
X43049499Y47678650D01*
X43042990Y47739197D01*
X43042988Y47739205D01*
X42991889Y47876203D01*
X42991887Y47876208D01*
X42904261Y47993262D01*
X42787207Y48080888D01*
X42787202Y48080890D01*
X42650204Y48131989D01*
X42650196Y48131991D01*
X42589649Y48138500D01*
X42589638Y48138500D01*
X39342362Y48138500D01*
X39342350Y48138500D01*
X39281803Y48131991D01*
X39281795Y48131989D01*
X39144797Y48080890D01*
X39144792Y48080888D01*
X39027738Y47993262D01*
X38987113Y47938991D01*
X38930278Y47896444D01*
X38886245Y47888500D01*
X38460587Y47888500D01*
X38392466Y47908502D01*
X38386524Y47912565D01*
X38374754Y47921117D01*
X38363912Y47925944D01*
X38200288Y47998794D01*
X38013487Y48038500D01*
X37822513Y48038500D01*
X37635711Y47998794D01*
X37461247Y47921118D01*
X37306744Y47808865D01*
X37178965Y47666952D01*
X37178958Y47666942D01*
X37083476Y47501562D01*
X37083473Y47501555D01*
X37024457Y47319928D01*
X37007093Y47154710D01*
X36980080Y47089053D01*
X36970879Y47078785D01*
X36817500Y46925405D01*
X36755188Y46891380D01*
X36728404Y46888500D01*
X12427854Y46888500D01*
X12412012Y46890250D01*
X12411985Y46889956D01*
X12404092Y46890703D01*
X12334029Y46888500D01*
X12304144Y46888500D01*
X12304140Y46888500D01*
X12304129Y46888499D01*
X12297190Y46887623D01*
X12291277Y46887157D01*
X12244111Y46885675D01*
X12224650Y46880021D01*
X12205304Y46876015D01*
X12185204Y46873475D01*
X12185203Y46873475D01*
X12141335Y46856107D01*
X12135720Y46854185D01*
X12090413Y46841022D01*
X12090404Y46841018D01*
X12072962Y46830703D01*
X12055215Y46822009D01*
X12036383Y46814553D01*
X12036381Y46814552D01*
X11998214Y46786822D01*
X11993254Y46783564D01*
X11952636Y46759541D01*
X11952633Y46759539D01*
X11938312Y46745217D01*
X11923283Y46732381D01*
X11906893Y46720473D01*
X11876808Y46684108D01*
X11872812Y46679717D01*
X8117336Y42924243D01*
X8104901Y42914279D01*
X8105089Y42914052D01*
X8098980Y42908999D01*
X8051016Y42857922D01*
X8029866Y42836773D01*
X8025560Y42831223D01*
X8021714Y42826721D01*
X7989417Y42792326D01*
X7989411Y42792317D01*
X7979651Y42774565D01*
X7968803Y42758050D01*
X7956386Y42742042D01*
X7937645Y42698736D01*
X7935034Y42693406D01*
X7912305Y42652061D01*
X7912303Y42652056D01*
X7907267Y42632441D01*
X7900864Y42613738D01*
X7892819Y42595148D01*
X7885437Y42548544D01*
X7884233Y42542732D01*
X7872500Y42497032D01*
X7872500Y42476777D01*
X7870949Y42457067D01*
X7867780Y42437058D01*
X7867780Y42437057D01*
X7872220Y42390083D01*
X7872500Y42384150D01*
X7872500Y36757940D01*
X7852498Y36689819D01*
X7798842Y36643326D01*
X7728568Y36633222D01*
X7715171Y36635897D01*
X7705031Y36638500D01*
X7705030Y36638500D01*
X7684776Y36638500D01*
X7665066Y36640051D01*
X7645057Y36643220D01*
X7645056Y36643220D01*
X7598083Y36638780D01*
X7592150Y36638500D01*
X5677369Y36638500D01*
X5609248Y36658502D01*
X5562755Y36712158D01*
X5552651Y36782432D01*
X5561982Y36815114D01*
X5570071Y36833556D01*
X5589296Y36877384D01*
X5644564Y37095632D01*
X5663156Y37320000D01*
X5644564Y37544368D01*
X5644562Y37544376D01*
X5589297Y37762613D01*
X5589296Y37762614D01*
X5589296Y37762616D01*
X5498860Y37968791D01*
X5445078Y38051111D01*
X5375724Y38157266D01*
X5375720Y38157271D01*
X5223237Y38322909D01*
X5133436Y38392804D01*
X5045576Y38461189D01*
X5012319Y38479187D01*
X4961929Y38529198D01*
X4946576Y38598515D01*
X4971136Y38665128D01*
X5012320Y38700814D01*
X5045576Y38718811D01*
X5223240Y38857094D01*
X5375722Y39022732D01*
X5498860Y39211209D01*
X5589296Y39417384D01*
X5644564Y39635632D01*
X5663156Y39860000D01*
X5644564Y40084368D01*
X5644562Y40084376D01*
X5589297Y40302613D01*
X5589296Y40302614D01*
X5589296Y40302616D01*
X5498860Y40508791D01*
X5445078Y40591111D01*
X5375724Y40697266D01*
X5375720Y40697271D01*
X5223237Y40862909D01*
X5133436Y40932804D01*
X5045576Y41001189D01*
X5012319Y41019187D01*
X4961929Y41069198D01*
X4946576Y41138515D01*
X4971136Y41205128D01*
X5012320Y41240814D01*
X5045576Y41258811D01*
X5223240Y41397094D01*
X5375722Y41562732D01*
X5498860Y41751209D01*
X5589296Y41957384D01*
X5644564Y42175632D01*
X5663156Y42400000D01*
X5644564Y42624368D01*
X5637551Y42652061D01*
X5589297Y42842613D01*
X5589296Y42842614D01*
X5589296Y42842616D01*
X5498860Y43048791D01*
X5423870Y43163572D01*
X5375724Y43237266D01*
X5375720Y43237271D01*
X5244201Y43380136D01*
X5223240Y43402906D01*
X5223239Y43402907D01*
X5223237Y43402909D01*
X5141382Y43466619D01*
X5045576Y43541189D01*
X5035479Y43546653D01*
X5012320Y43559186D01*
X4961929Y43609198D01*
X4946576Y43678515D01*
X4971136Y43745128D01*
X5012320Y43780814D01*
X5045576Y43798811D01*
X5223240Y43937094D01*
X5375722Y44102732D01*
X5498860Y44291209D01*
X5589296Y44497384D01*
X5644564Y44715632D01*
X5663156Y44940000D01*
X5644564Y45164368D01*
X5589296Y45382616D01*
X5498860Y45588791D01*
X5478633Y45619751D01*
X5375724Y45777266D01*
X5375720Y45777271D01*
X5223237Y45942909D01*
X5141382Y46006619D01*
X5045576Y46081189D01*
X5012319Y46099187D01*
X4961929Y46149198D01*
X4946576Y46218515D01*
X4971136Y46285128D01*
X5012320Y46320814D01*
X5045576Y46338811D01*
X5223240Y46477094D01*
X5375722Y46642732D01*
X5498860Y46831209D01*
X5589296Y47037384D01*
X5644564Y47255632D01*
X5663156Y47480000D01*
X5644564Y47704368D01*
X5618102Y47808865D01*
X5589297Y47922613D01*
X5589296Y47922614D01*
X5589296Y47922616D01*
X5498860Y48128791D01*
X5435226Y48226190D01*
X5375724Y48317266D01*
X5375719Y48317271D01*
X5286215Y48414497D01*
X5232524Y48472821D01*
X5201103Y48536486D01*
X5209090Y48607032D01*
X5253948Y48662061D01*
X5281183Y48676211D01*
X5396204Y48719111D01*
X5425223Y48740834D01*
X5513261Y48806739D01*
X5600887Y48923793D01*
X5600887Y48923794D01*
X5600889Y48923796D01*
X5651989Y49060799D01*
X5652184Y49062607D01*
X5658499Y49121351D01*
X5658500Y49121368D01*
X5658500Y49670000D01*
X37004496Y49670000D01*
X37024457Y49480073D01*
X37039196Y49434713D01*
X37083473Y49298444D01*
X37083476Y49298439D01*
X37178958Y49133059D01*
X37178965Y49133049D01*
X37306744Y48991136D01*
X37355979Y48955365D01*
X37461248Y48878882D01*
X37635712Y48801206D01*
X37822513Y48761500D01*
X38013487Y48761500D01*
X38200288Y48801206D01*
X38374752Y48878882D01*
X38386524Y48887436D01*
X38453391Y48911294D01*
X38460587Y48911500D01*
X38886245Y48911500D01*
X38954366Y48891498D01*
X38987113Y48861009D01*
X39027738Y48806739D01*
X39144792Y48719113D01*
X39144794Y48719112D01*
X39144796Y48719111D01*
X39186744Y48703465D01*
X39281795Y48668012D01*
X39281803Y48668010D01*
X39342350Y48661501D01*
X39342355Y48661501D01*
X39342362Y48661500D01*
X39342368Y48661500D01*
X42589632Y48661500D01*
X42589638Y48661500D01*
X42589645Y48661501D01*
X42589649Y48661501D01*
X42650196Y48668010D01*
X42650199Y48668011D01*
X42650201Y48668011D01*
X42787204Y48719111D01*
X42816223Y48740834D01*
X42904261Y48806739D01*
X42991887Y48923793D01*
X42991887Y48923794D01*
X42991889Y48923796D01*
X43042989Y49060799D01*
X43043184Y49062607D01*
X43049499Y49121351D01*
X43049500Y49121368D01*
X43049500Y50218633D01*
X43049499Y50218650D01*
X43042990Y50279197D01*
X43042988Y50279205D01*
X42991889Y50416203D01*
X42991887Y50416208D01*
X42904261Y50533262D01*
X42787207Y50620888D01*
X42787202Y50620890D01*
X42650204Y50671989D01*
X42650196Y50671991D01*
X42589649Y50678500D01*
X42589638Y50678500D01*
X39342362Y50678500D01*
X39342350Y50678500D01*
X39281803Y50671991D01*
X39281795Y50671989D01*
X39144797Y50620890D01*
X39144792Y50620888D01*
X39027738Y50533262D01*
X38987113Y50478991D01*
X38930278Y50436444D01*
X38886245Y50428500D01*
X38460587Y50428500D01*
X38392466Y50448502D01*
X38386524Y50452565D01*
X38374754Y50461117D01*
X38200288Y50538794D01*
X38013487Y50578500D01*
X37822513Y50578500D01*
X37635711Y50538794D01*
X37461247Y50461118D01*
X37306744Y50348865D01*
X37178965Y50206952D01*
X37178958Y50206942D01*
X37083476Y50041562D01*
X37083473Y50041555D01*
X37024457Y49859928D01*
X37004496Y49670000D01*
X5658500Y49670000D01*
X5658500Y50918633D01*
X5658499Y50918650D01*
X5651990Y50979197D01*
X5651988Y50979205D01*
X5609092Y51094211D01*
X5600889Y51116204D01*
X5600888Y51116206D01*
X5600887Y51116208D01*
X5513261Y51233262D01*
X5396207Y51320888D01*
X5396202Y51320890D01*
X5259204Y51371989D01*
X5259196Y51371991D01*
X5198649Y51378500D01*
X5198638Y51378500D01*
X3401362Y51378500D01*
X3401350Y51378500D01*
X3340803Y51371991D01*
X3340795Y51371989D01*
X3203797Y51320890D01*
X3203792Y51320888D01*
X3086738Y51233262D01*
X2999112Y51116208D01*
X2999111Y51116205D01*
X2955000Y50997942D01*
X2912453Y50941107D01*
X2845932Y50916297D01*
X2776558Y50931389D01*
X2744246Y50956637D01*
X2683240Y51022906D01*
X2683239Y51022907D01*
X2683237Y51022909D01*
X2563372Y51116204D01*
X2505576Y51161189D01*
X2307574Y51268342D01*
X2307572Y51268343D01*
X2307571Y51268344D01*
X2094639Y51341443D01*
X2094630Y51341445D01*
X2050476Y51348813D01*
X1872569Y51378500D01*
X1647431Y51378500D01*
X1499210Y51353767D01*
X1425369Y51341445D01*
X1425360Y51341443D01*
X1212428Y51268344D01*
X1212426Y51268342D01*
X1042473Y51176368D01*
X1014426Y51161190D01*
X1014424Y51161189D01*
X836762Y51022909D01*
X684279Y50857271D01*
X684275Y50857266D01*
X558290Y50664429D01*
X557054Y50665237D01*
X511786Y50619638D01*
X442467Y50604295D01*
X375857Y50628865D01*
X333105Y50685546D01*
X325000Y50730006D01*
X325000Y52210000D01*
X37004496Y52210000D01*
X37024457Y52020073D01*
X37054526Y51927530D01*
X37083473Y51838444D01*
X37083476Y51838439D01*
X37178958Y51673059D01*
X37178965Y51673049D01*
X37306744Y51531136D01*
X37306747Y51531134D01*
X37461248Y51418882D01*
X37635712Y51341206D01*
X37822513Y51301500D01*
X38013487Y51301500D01*
X38200288Y51341206D01*
X38374752Y51418882D01*
X38386524Y51427436D01*
X38453391Y51451294D01*
X38460587Y51451500D01*
X38886245Y51451500D01*
X38954366Y51431498D01*
X38987113Y51401009D01*
X39027738Y51346739D01*
X39144792Y51259113D01*
X39144794Y51259112D01*
X39144796Y51259111D01*
X39172556Y51248757D01*
X39281795Y51208012D01*
X39281803Y51208010D01*
X39342350Y51201501D01*
X39342355Y51201501D01*
X39342362Y51201500D01*
X39342368Y51201500D01*
X42589632Y51201500D01*
X42589638Y51201500D01*
X42589645Y51201501D01*
X42589649Y51201501D01*
X42650196Y51208010D01*
X42650199Y51208011D01*
X42650201Y51208011D01*
X42787204Y51259111D01*
X42808852Y51275316D01*
X42904261Y51346739D01*
X42991887Y51463793D01*
X42991887Y51463794D01*
X42991889Y51463796D01*
X43042989Y51600799D01*
X43049500Y51661362D01*
X43049500Y52758638D01*
X43049499Y52758650D01*
X43042990Y52819197D01*
X43042988Y52819205D01*
X42991889Y52956203D01*
X42991887Y52956208D01*
X42904261Y53073262D01*
X42787207Y53160888D01*
X42787202Y53160890D01*
X42650204Y53211989D01*
X42650196Y53211991D01*
X42589649Y53218500D01*
X42589638Y53218500D01*
X39342362Y53218500D01*
X39342350Y53218500D01*
X39281803Y53211991D01*
X39281795Y53211989D01*
X39144797Y53160890D01*
X39144792Y53160888D01*
X39027738Y53073262D01*
X38987113Y53018991D01*
X38930278Y52976444D01*
X38886245Y52968500D01*
X38460587Y52968500D01*
X38392466Y52988502D01*
X38386524Y52992565D01*
X38374754Y53001117D01*
X38200288Y53078794D01*
X38013487Y53118500D01*
X37822513Y53118500D01*
X37635711Y53078794D01*
X37461247Y53001118D01*
X37306744Y52888865D01*
X37178965Y52746952D01*
X37178958Y52746942D01*
X37083476Y52581562D01*
X37083473Y52581555D01*
X37024457Y52399928D01*
X37004496Y52210000D01*
X325000Y52210000D01*
X325000Y54750000D01*
X37004496Y54750000D01*
X37024457Y54560073D01*
X37054526Y54467530D01*
X37083473Y54378444D01*
X37083476Y54378439D01*
X37178958Y54213059D01*
X37178965Y54213049D01*
X37306744Y54071136D01*
X37355848Y54035460D01*
X37461248Y53958882D01*
X37635712Y53881206D01*
X37822513Y53841500D01*
X38013487Y53841500D01*
X38200288Y53881206D01*
X38374752Y53958882D01*
X38386524Y53967436D01*
X38453391Y53991294D01*
X38460587Y53991500D01*
X38886245Y53991500D01*
X38954366Y53971498D01*
X38987113Y53941009D01*
X39027738Y53886739D01*
X39144792Y53799113D01*
X39144794Y53799112D01*
X39144796Y53799111D01*
X39183023Y53784853D01*
X39281795Y53748012D01*
X39281803Y53748010D01*
X39342350Y53741501D01*
X39342355Y53741501D01*
X39342362Y53741500D01*
X39342368Y53741500D01*
X42589632Y53741500D01*
X42589638Y53741500D01*
X42589645Y53741501D01*
X42589649Y53741501D01*
X42650196Y53748010D01*
X42650199Y53748011D01*
X42650201Y53748011D01*
X42661942Y53752390D01*
X42670746Y53755674D01*
X42787204Y53799111D01*
X42847606Y53844327D01*
X42904261Y53886739D01*
X42991887Y54003793D01*
X42991887Y54003794D01*
X42991889Y54003796D01*
X43042989Y54140799D01*
X43043878Y54149061D01*
X43049499Y54201351D01*
X43049500Y54201368D01*
X43049500Y55298633D01*
X43049499Y55298650D01*
X43042990Y55359197D01*
X43042988Y55359205D01*
X42991889Y55496203D01*
X42991887Y55496208D01*
X42904261Y55613262D01*
X42787207Y55700888D01*
X42787202Y55700890D01*
X42650204Y55751989D01*
X42650196Y55751991D01*
X42589649Y55758500D01*
X42589638Y55758500D01*
X39342362Y55758500D01*
X39342350Y55758500D01*
X39281803Y55751991D01*
X39281795Y55751989D01*
X39144797Y55700890D01*
X39144792Y55700888D01*
X39027738Y55613262D01*
X38987113Y55558991D01*
X38930278Y55516444D01*
X38886245Y55508500D01*
X38460587Y55508500D01*
X38392466Y55528502D01*
X38386524Y55532565D01*
X38374754Y55541117D01*
X38263909Y55590468D01*
X38200288Y55618794D01*
X38013487Y55658500D01*
X37822513Y55658500D01*
X37635711Y55618794D01*
X37461247Y55541118D01*
X37306744Y55428865D01*
X37178965Y55286952D01*
X37178958Y55286942D01*
X37083476Y55121562D01*
X37083473Y55121555D01*
X37024457Y54939928D01*
X37004496Y54750000D01*
X325000Y54750000D01*
X325000Y57290000D01*
X37004496Y57290000D01*
X37024457Y57100073D01*
X37054526Y57007530D01*
X37083473Y56918444D01*
X37083476Y56918439D01*
X37178958Y56753059D01*
X37178965Y56753049D01*
X37306744Y56611136D01*
X37306747Y56611134D01*
X37461248Y56498882D01*
X37635712Y56421206D01*
X37822513Y56381500D01*
X38013487Y56381500D01*
X38200288Y56421206D01*
X38374752Y56498882D01*
X38386524Y56507436D01*
X38453391Y56531294D01*
X38460587Y56531500D01*
X38886245Y56531500D01*
X38954366Y56511498D01*
X38987113Y56481009D01*
X39027738Y56426739D01*
X39144792Y56339113D01*
X39144794Y56339112D01*
X39144796Y56339111D01*
X39183023Y56324853D01*
X39281795Y56288012D01*
X39281803Y56288010D01*
X39342350Y56281501D01*
X39342355Y56281501D01*
X39342362Y56281500D01*
X39342368Y56281500D01*
X42589632Y56281500D01*
X42589638Y56281500D01*
X42589645Y56281501D01*
X42589649Y56281501D01*
X42650196Y56288010D01*
X42650199Y56288011D01*
X42650201Y56288011D01*
X42787204Y56339111D01*
X42864169Y56396726D01*
X42904261Y56426739D01*
X42991887Y56543793D01*
X42991887Y56543794D01*
X42991889Y56543796D01*
X43042989Y56680799D01*
X43045196Y56701323D01*
X43049499Y56741351D01*
X43049500Y56741368D01*
X43049500Y57838633D01*
X43049499Y57838650D01*
X43042990Y57899197D01*
X43042988Y57899205D01*
X42991889Y58036203D01*
X42991887Y58036208D01*
X42904261Y58153262D01*
X42787207Y58240888D01*
X42787202Y58240890D01*
X42650204Y58291989D01*
X42650196Y58291991D01*
X42589649Y58298500D01*
X42589638Y58298500D01*
X39342362Y58298500D01*
X39342350Y58298500D01*
X39281803Y58291991D01*
X39281795Y58291989D01*
X39144797Y58240890D01*
X39144792Y58240888D01*
X39027738Y58153262D01*
X38987113Y58098991D01*
X38930278Y58056444D01*
X38886245Y58048500D01*
X38460587Y58048500D01*
X38392466Y58068502D01*
X38386524Y58072565D01*
X38374754Y58081117D01*
X38263909Y58130468D01*
X38200288Y58158794D01*
X38013487Y58198500D01*
X37822513Y58198500D01*
X37635711Y58158794D01*
X37461247Y58081118D01*
X37306744Y57968865D01*
X37178965Y57826952D01*
X37178958Y57826942D01*
X37083476Y57661562D01*
X37083473Y57661555D01*
X37024457Y57479928D01*
X37004496Y57290000D01*
X325000Y57290000D01*
X325000Y60463235D01*
X1691788Y60463235D01*
X1721412Y60193986D01*
X1789928Y59931910D01*
X1895869Y59682611D01*
X1940923Y59608789D01*
X2036982Y59451390D01*
X2210255Y59243180D01*
X2210257Y59243178D01*
X2210259Y59243176D01*
X2312985Y59151134D01*
X2411998Y59062418D01*
X2637910Y58912956D01*
X2883176Y58797980D01*
X3142569Y58719940D01*
X3142572Y58719940D01*
X3142574Y58719939D01*
X3410557Y58680500D01*
X3410561Y58680500D01*
X3613633Y58680500D01*
X3648363Y58683043D01*
X3816156Y58695323D01*
X3816160Y58695324D01*
X3816161Y58695324D01*
X3926665Y58719940D01*
X4080553Y58754220D01*
X4333558Y58850986D01*
X4569777Y58983559D01*
X4784177Y59149112D01*
X4972186Y59344119D01*
X5129799Y59564421D01*
X5168695Y59640073D01*
X5253656Y59805325D01*
X5253657Y59805328D01*
X5262074Y59830000D01*
X37004496Y59830000D01*
X37024457Y59640073D01*
X37049036Y59564428D01*
X37083473Y59458444D01*
X37083476Y59458439D01*
X37178958Y59293059D01*
X37178965Y59293049D01*
X37306744Y59151136D01*
X37306747Y59151134D01*
X37461248Y59038882D01*
X37635712Y58961206D01*
X37822513Y58921500D01*
X38013487Y58921500D01*
X38200288Y58961206D01*
X38374752Y59038882D01*
X38386524Y59047436D01*
X38453391Y59071294D01*
X38460587Y59071500D01*
X38886245Y59071500D01*
X38954366Y59051498D01*
X38987113Y59021009D01*
X39027738Y58966739D01*
X39144792Y58879113D01*
X39144794Y58879112D01*
X39144796Y58879111D01*
X39183023Y58864853D01*
X39281795Y58828012D01*
X39281803Y58828010D01*
X39342350Y58821501D01*
X39342355Y58821501D01*
X39342362Y58821500D01*
X39342368Y58821500D01*
X42589632Y58821500D01*
X42589638Y58821500D01*
X42589645Y58821501D01*
X42589649Y58821501D01*
X42650196Y58828010D01*
X42650199Y58828011D01*
X42650201Y58828011D01*
X42787204Y58879111D01*
X42864169Y58936726D01*
X42904261Y58966739D01*
X42991887Y59083793D01*
X42991887Y59083794D01*
X42991889Y59083796D01*
X43042989Y59220799D01*
X43049500Y59281362D01*
X43049500Y60378638D01*
X43048494Y60387997D01*
X43042990Y60439197D01*
X43042988Y60439205D01*
X42991889Y60576203D01*
X42991887Y60576208D01*
X42904261Y60693262D01*
X42787207Y60780888D01*
X42787202Y60780890D01*
X42650204Y60831989D01*
X42650196Y60831991D01*
X42589649Y60838500D01*
X42589638Y60838500D01*
X39342362Y60838500D01*
X39342350Y60838500D01*
X39281803Y60831991D01*
X39281795Y60831989D01*
X39144797Y60780890D01*
X39144792Y60780888D01*
X39027738Y60693262D01*
X38987113Y60638991D01*
X38930278Y60596444D01*
X38886245Y60588500D01*
X38460587Y60588500D01*
X38392466Y60608502D01*
X38386524Y60612565D01*
X38374754Y60621117D01*
X38200288Y60698794D01*
X38013487Y60738500D01*
X37822513Y60738500D01*
X37635711Y60698794D01*
X37461247Y60621118D01*
X37306744Y60508865D01*
X37178965Y60366952D01*
X37178958Y60366942D01*
X37083476Y60201562D01*
X37083473Y60201556D01*
X37081012Y60193982D01*
X37024457Y60019928D01*
X37004496Y59830000D01*
X5262074Y59830000D01*
X5341116Y60061690D01*
X5341118Y60061695D01*
X5388972Y60320773D01*
X5390318Y60328059D01*
X5390319Y60328070D01*
X5391269Y60354060D01*
X5400212Y60598765D01*
X5382773Y60757262D01*
X5370587Y60868015D01*
X5302071Y61130091D01*
X5196130Y61379390D01*
X5157653Y61442436D01*
X5055018Y61610610D01*
X4881745Y61818820D01*
X4881741Y61818823D01*
X4881740Y61818825D01*
X4680012Y61999573D01*
X4680002Y61999582D01*
X4454090Y62149044D01*
X4208824Y62264020D01*
X4051392Y62311385D01*
X3949425Y62342062D01*
X3681442Y62381500D01*
X3681439Y62381500D01*
X3478369Y62381500D01*
X3478367Y62381500D01*
X3275839Y62366677D01*
X3275838Y62366677D01*
X3011456Y62307783D01*
X3011441Y62307778D01*
X2758441Y62211014D01*
X2522229Y62078445D01*
X2522225Y62078443D01*
X2307818Y61912884D01*
X2119815Y61717883D01*
X2119810Y61717877D01*
X1962203Y61497583D01*
X1962196Y61497573D01*
X1838343Y61256676D01*
X1838342Y61256673D01*
X1750883Y61000311D01*
X1750880Y61000298D01*
X1701681Y60733942D01*
X1701680Y60733931D01*
X1691788Y60463235D01*
X325000Y60463235D01*
X325000Y63524000D01*
X345002Y63592121D01*
X398658Y63638614D01*
X451000Y63650000D01*
X63449000Y63650000D01*
X63517121Y63629998D01*
G37*
G04 #@! TD.AperFunction*
G04 #@! TA.AperFunction,Conductor*
G36*
X3753277Y19773998D02*
G01*
X3799770Y19720342D01*
X3809874Y19650068D01*
X3806053Y19632504D01*
X3800000Y19611889D01*
X3800000Y19468112D01*
X3806053Y19447496D01*
X3806052Y19376500D01*
X3767667Y19316774D01*
X3703086Y19287282D01*
X3685156Y19286000D01*
X2374844Y19286000D01*
X2306723Y19306002D01*
X2260230Y19359658D01*
X2250126Y19429932D01*
X2253947Y19447496D01*
X2260000Y19468112D01*
X2260000Y19611889D01*
X2253947Y19632504D01*
X2253948Y19703500D01*
X2292333Y19763226D01*
X2356914Y19792718D01*
X2374844Y19794000D01*
X3685156Y19794000D01*
X3753277Y19773998D01*
G37*
G04 #@! TD.AperFunction*
G04 #@! TA.AperFunction,Conductor*
G36*
X62262121Y44429998D02*
G01*
X62308614Y44376342D01*
X62320000Y44324000D01*
X62320000Y42764666D01*
X63449000Y42764666D01*
X63517121Y42744664D01*
X63563614Y42691008D01*
X63575000Y42638666D01*
X63575000Y21908334D01*
X63554998Y21840213D01*
X63501342Y21793720D01*
X63449000Y21782334D01*
X62242500Y21782334D01*
X62242500Y20223000D01*
X62222498Y20154879D01*
X62168842Y20108386D01*
X62116500Y20097000D01*
X61860500Y20097000D01*
X61792379Y20117002D01*
X61745886Y20170658D01*
X61734500Y20223000D01*
X61734500Y21782334D01*
X60199902Y21782334D01*
X60139406Y21775829D01*
X60002535Y21724779D01*
X60002534Y21724779D01*
X59885597Y21637240D01*
X59799368Y21522052D01*
X59742532Y21479506D01*
X59671716Y21474442D01*
X59609404Y21508467D01*
X59575379Y21570780D01*
X59572500Y21597562D01*
X59572500Y28730084D01*
X59572845Y28736674D01*
X59577504Y28781000D01*
X59572844Y28825330D01*
X59572500Y28831917D01*
X59572500Y43156868D01*
X59592502Y43224989D01*
X59646158Y43271482D01*
X59716432Y43281586D01*
X59781012Y43252092D01*
X59819396Y43192366D01*
X59823778Y43170338D01*
X59824505Y43163572D01*
X59875555Y43026702D01*
X59875555Y43026701D01*
X59963095Y42909762D01*
X60080034Y42822222D01*
X60216906Y42771172D01*
X60277402Y42764667D01*
X60277415Y42764666D01*
X61812000Y42764666D01*
X61812000Y44324000D01*
X61832002Y44392121D01*
X61885658Y44438614D01*
X61938000Y44450000D01*
X62194000Y44450000D01*
X62262121Y44429998D01*
G37*
G04 #@! TD.AperFunction*
G04 #@! TA.AperFunction,Conductor*
G36*
X37816512Y21883887D02*
G01*
X37834868Y21864172D01*
X37876738Y21808239D01*
X37993792Y21720613D01*
X37993794Y21720612D01*
X37993796Y21720611D01*
X38044897Y21701552D01*
X38130800Y21669510D01*
X38132446Y21669121D01*
X38133589Y21668470D01*
X38138184Y21666756D01*
X38137906Y21666012D01*
X38194139Y21633986D01*
X38227043Y21571075D01*
X38220711Y21500361D01*
X38177154Y21444296D01*
X38138102Y21426463D01*
X38138184Y21426244D01*
X38135132Y21425106D01*
X38132446Y21423879D01*
X38130800Y21423491D01*
X37993797Y21372390D01*
X37993792Y21372388D01*
X37876738Y21284762D01*
X37834868Y21228829D01*
X37778032Y21186282D01*
X37707216Y21181218D01*
X37644904Y21215243D01*
X37610879Y21277555D01*
X37609425Y21291076D01*
X37608001Y21292500D01*
X37494860Y21292500D01*
X37426739Y21312502D01*
X37419351Y21317632D01*
X37346207Y21372388D01*
X37346202Y21372390D01*
X37209202Y21423489D01*
X37207556Y21423878D01*
X37206410Y21424531D01*
X37201816Y21426244D01*
X37202093Y21426989D01*
X37145862Y21459012D01*
X37112956Y21521922D01*
X37119286Y21592636D01*
X37162842Y21648702D01*
X37201897Y21666538D01*
X37201816Y21666756D01*
X37204866Y21667894D01*
X37207556Y21669122D01*
X37209195Y21669511D01*
X37209201Y21669511D01*
X37346204Y21720611D01*
X37419350Y21775368D01*
X37485871Y21800179D01*
X37494860Y21800500D01*
X37608001Y21800500D01*
X37612919Y21805419D01*
X37628002Y21856784D01*
X37681658Y21903277D01*
X37751932Y21913381D01*
X37816512Y21883887D01*
G37*
G04 #@! TD.AperFunction*
G04 #@! TA.AperFunction,Conductor*
G36*
X40156094Y21682987D02*
G01*
X40190120Y21620675D01*
X40193000Y21593890D01*
X40193000Y21499111D01*
X40172998Y21430990D01*
X40119342Y21384497D01*
X40049068Y21374393D01*
X40022967Y21381056D01*
X39909202Y21423489D01*
X39907556Y21423878D01*
X39906410Y21424531D01*
X39901816Y21426244D01*
X39902093Y21426989D01*
X39845862Y21459012D01*
X39812956Y21521922D01*
X39819286Y21592636D01*
X39862842Y21648702D01*
X39901896Y21666538D01*
X39901815Y21666756D01*
X39904871Y21667897D01*
X39907556Y21669122D01*
X39909197Y21669511D01*
X39909201Y21669511D01*
X40022970Y21711946D01*
X40093781Y21717011D01*
X40156094Y21682987D01*
G37*
G04 #@! TD.AperFunction*
G04 #@! TA.AperFunction,Conductor*
G36*
X36053510Y29333498D02*
G01*
X36100003Y29279842D01*
X36110107Y29209568D01*
X36080613Y29144988D01*
X36074484Y29138405D01*
X29032595Y22096517D01*
X28970283Y22062491D01*
X28899468Y22067556D01*
X28842632Y22110103D01*
X28817821Y22176623D01*
X28817500Y22185612D01*
X28817500Y27758235D01*
X28837502Y27826356D01*
X28891158Y27872849D01*
X28961432Y27882953D01*
X28987528Y27876292D01*
X29030022Y27860442D01*
X29084798Y27840011D01*
X29084803Y27840010D01*
X29145350Y27833501D01*
X29145355Y27833501D01*
X29145362Y27833500D01*
X29145368Y27833500D01*
X32392632Y27833500D01*
X32392638Y27833500D01*
X32392645Y27833501D01*
X32392649Y27833501D01*
X32453196Y27840010D01*
X32453199Y27840011D01*
X32453201Y27840011D01*
X32590204Y27891111D01*
X32606037Y27902963D01*
X32707261Y27978739D01*
X32794887Y28095793D01*
X32794887Y28095794D01*
X32794889Y28095796D01*
X32845989Y28232799D01*
X32852500Y28293362D01*
X32852500Y29227501D01*
X32872502Y29295621D01*
X32926158Y29342114D01*
X32978500Y29353500D01*
X35985389Y29353500D01*
X36053510Y29333498D01*
G37*
G04 #@! TD.AperFunction*
G04 #@! TA.AperFunction,Conductor*
G36*
X3753277Y27393998D02*
G01*
X3799770Y27340342D01*
X3809874Y27270068D01*
X3806053Y27252504D01*
X3800000Y27231889D01*
X3800000Y27088112D01*
X3806053Y27067496D01*
X3806052Y26996500D01*
X3767667Y26936774D01*
X3703086Y26907282D01*
X3685156Y26906000D01*
X2374844Y26906000D01*
X2306723Y26926002D01*
X2260230Y26979658D01*
X2250126Y27049932D01*
X2253947Y27067496D01*
X2260000Y27088112D01*
X2260000Y27231889D01*
X2253947Y27252504D01*
X2253948Y27323500D01*
X2292333Y27383226D01*
X2356914Y27412718D01*
X2374844Y27414000D01*
X3685156Y27414000D01*
X3753277Y27393998D01*
G37*
G04 #@! TD.AperFunction*
M02*
