M48
; DRILL file {KiCad 7.0.7} date Sun Oct  1 11:51:21 2023
; FORMAT={-:-/ absolute / inch / decimal}
; #@! TF.CreationDate,2023-10-01T11:51:21+11:00
; #@! TF.GenerationSoftware,Kicad,Pcbnew,7.0.7
; #@! TF.FileFunction,Plated,1,2,PTH
FMAT,2
INCH
; #@! TA.AperFunction,Plated,PTH,ViaDrill
T1C0.0236
; #@! TA.AperFunction,Plated,PTH,ComponentDrill
T2C0.0394
%
G90
G05
T1
X0.0636Y2.1361
X0.2156Y2.1381
X0.2396Y0.5701
X0.4636Y0.7141
X0.4946Y0.8981
X0.5096Y1.5861
X0.5116Y1.4861
X0.5116Y1.2881
X0.5136Y2.3081
X0.5136Y1.9081
X0.5216Y0.6701
X0.6236Y0.5701
X0.6596Y0.5101
X0.7197Y0.6702
X0.7336Y0.3121
X0.7596Y2.4701
X0.8096Y1.7441
X0.8176Y1.0821
X0.8236Y0.5701
X0.8546Y0.8981
X0.8917Y1.6355
X0.8917Y1.5355
X0.8917Y1.4355
X0.8917Y1.3355
X0.8917Y1.2355
X0.8917Y1.1355
X0.9376Y0.2441
X0.9416Y1.0421
X1.0476Y0.7101
X1.0516Y0.6701
X1.0996Y0.6081
X1.1846Y0.7131
X1.1946Y0.9481
X1.2096Y1.7501
X1.2116Y0.2421
X1.2946Y1.0531
X1.2996Y0.9481
X1.2996Y0.8981
X1.2996Y0.8531
X1.2996Y0.8031
X1.3536Y2.4701
X1.3636Y0.7321
X1.4146Y1.0381
X1.4396Y0.6481
X1.4568Y0.6
X1.4796Y0.4381
X1.4836Y0.2421
X1.4917Y1.6355
X1.4917Y1.5355
X1.4917Y1.4355
X1.4917Y1.3355
X1.4917Y1.2355
X1.4917Y1.1355
X1.4928Y2.3555
X1.4928Y2.2555
X1.4928Y2.1555
X1.4928Y2.0555
X1.4928Y1.9555
X1.4928Y1.8555
X1.5196Y0.4078
X1.5546Y0.9831
X1.6116Y0.1141
X1.6546Y0.4933
X1.6586Y0.392
X1.6946Y0.3664
X1.7296Y0.3331
X1.7746Y0.6658
X1.7746Y0.6158
X1.8016Y0.4761
X1.8016Y0.3741
X1.8096Y1.7501
X1.8396Y0.9831
X1.8396Y0.7981
X1.8616Y0.5548
X1.8872Y1.3355
X1.888Y1.8581
X1.888Y1.5381
X1.888Y1.4381
X1.888Y1.2381
X1.888Y1.1331
X1.8976Y0.5881
X1.9241Y2.0103
X1.9496Y2.4661
X1.9903Y1.5381
X2.0108Y2.0969
X2.0136Y0.3801
X2.0396Y0.6031
X2.056Y2.1421
X2.0796Y2.3701
X2.0922Y2.1783
X2.0927Y1.4381
X2.1496Y0.6581
X2.1756Y2.3681
X2.1756Y2.2761
X2.1756Y0.0901
X2.1946Y1.3381
X2.2462Y0.7431
X2.2462Y0.6381
X2.2462Y0.5265
X2.2462Y0.4181
X2.2496Y2.1181
X2.2496Y2.0131
X2.2496Y1.9015
X2.2496Y1.7931
X2.2496Y1.2381
X2.3046Y1.7413
X2.3096Y1.1331
X2.3846Y1.6531
X2.3846Y1.2581
X2.3846Y0.8831
X2.4696Y1.6531
X2.4696Y1.2581
X2.4696Y0.8831
T2
X0.0693Y1.9693
X0.0693Y1.8693
X0.0693Y1.7693
X0.0693Y1.6693
X0.0693Y1.5693
X0.0693Y1.4693
X0.0693Y1.3693
X0.0693Y1.2693
X0.0693Y1.1693
X0.0693Y1.0693
X0.0693Y0.9693
X0.0693Y0.8693
X0.0693Y0.7693
X0.0693Y0.6693
X0.0693Y0.5693
X0.1693Y1.9693
X0.1693Y1.8693
X0.1693Y1.7693
X0.1693Y1.6693
X0.1693Y1.5693
X0.1693Y1.4693
X0.1693Y1.3693
X0.1693Y1.2693
X0.1693Y1.1693
X0.1693Y1.0693
X0.1693Y0.9693
X0.1693Y0.8693
X0.1693Y0.7693
X0.1693Y0.6693
X0.1693Y0.5693
T0
M30
