G04 #@! TF.GenerationSoftware,KiCad,Pcbnew,7.0.7*
G04 #@! TF.CreationDate,2023-10-29T19:55:48+11:00*
G04 #@! TF.ProjectId,AnalogDiscovery_rs232_5_wire_sniffer,416e616c-6f67-4446-9973-636f76657279,rev?*
G04 #@! TF.SameCoordinates,PX69618a0PY7bfa480*
G04 #@! TF.FileFunction,Copper,L2,Bot*
G04 #@! TF.FilePolarity,Positive*
%FSLAX46Y46*%
G04 Gerber Fmt 4.6, Leading zero omitted, Abs format (unit mm)*
G04 Created by KiCad (PCBNEW 7.0.7) date 2023-10-29 19:55:48*
%MOMM*%
%LPD*%
G01*
G04 APERTURE LIST*
G04 #@! TA.AperFunction,ComponentPad*
%ADD10R,1.700000X1.700000*%
G04 #@! TD*
G04 #@! TA.AperFunction,ComponentPad*
%ADD11O,1.700000X1.700000*%
G04 #@! TD*
G04 #@! TA.AperFunction,SMDPad,CuDef*
%ADD12R,3.480000X1.846667*%
G04 #@! TD*
G04 #@! TA.AperFunction,ViaPad*
%ADD13C,0.800000*%
G04 #@! TD*
G04 #@! TA.AperFunction,Conductor*
%ADD14C,0.250000*%
G04 #@! TD*
G04 #@! TA.AperFunction,Conductor*
%ADD15C,0.800000*%
G04 #@! TD*
G04 #@! TA.AperFunction,Conductor*
%ADD16C,0.500000*%
G04 #@! TD*
G04 APERTURE END LIST*
D10*
X4300000Y50020000D03*
D11*
X1760000Y50020000D03*
X4300000Y47480000D03*
X1760000Y47480000D03*
X4300000Y44940000D03*
X1760000Y44940000D03*
X4300000Y42400000D03*
X1760000Y42400000D03*
X4300000Y39860000D03*
X1760000Y39860000D03*
X4300000Y37320000D03*
X1760000Y37320000D03*
X4300000Y34780000D03*
X1760000Y34780000D03*
X4300000Y32240000D03*
X1760000Y32240000D03*
X4300000Y29700000D03*
X1760000Y29700000D03*
X4300000Y27160000D03*
X1760000Y27160000D03*
X4300000Y24620000D03*
X1760000Y24620000D03*
X4300000Y22080000D03*
X1760000Y22080000D03*
X4300000Y19540000D03*
X1760000Y19540000D03*
X4300000Y17000000D03*
X1760000Y17000000D03*
X4300000Y14460000D03*
X1760000Y14460000D03*
D12*
X62066000Y53891000D03*
X62066000Y51121000D03*
X62066000Y48351000D03*
X62066000Y45581000D03*
X61988500Y10656000D03*
X61988500Y13426000D03*
X61988500Y16196000D03*
X61988500Y18966000D03*
D13*
X6086000Y14480800D03*
X33010000Y20399000D03*
X42027000Y12529500D03*
X43932000Y8461000D03*
X43043000Y9306000D03*
X42127500Y9956000D03*
X38598000Y10357000D03*
X37582000Y11128000D03*
X57054500Y13372500D03*
X57140000Y51133000D03*
X53154000Y36528000D03*
X52222017Y54409679D03*
X47955000Y36528000D03*
X54600000Y16716000D03*
X27930000Y15446000D03*
X37002181Y15240871D03*
X15839600Y14480800D03*
X20919600Y14480800D03*
X47284800Y14091000D03*
X55743000Y33988000D03*
X57140000Y48297500D03*
X51074169Y53261831D03*
X57054500Y16208000D03*
X47935000Y33922000D03*
X26710800Y17020800D03*
X36566000Y16462000D03*
X48199200Y14938000D03*
X18280391Y17023191D03*
X51806000Y15319000D03*
X13248800Y17020800D03*
X58664000Y28781000D03*
X47955000Y47196000D03*
X47955000Y28781000D03*
X58537000Y44228000D03*
X53140904Y55328566D03*
X47955000Y39068000D03*
X57054500Y10620000D03*
X57140000Y53800000D03*
X50554000Y39068000D03*
X47955000Y31448000D03*
X57054500Y18875000D03*
X57140000Y45545000D03*
X48873293Y51060955D03*
X57140000Y31448000D03*
X12563000Y22812000D03*
X21707000Y22812000D03*
X33010000Y22812000D03*
X20767200Y27485600D03*
X49520000Y62639200D03*
X30343000Y24082000D03*
X62728000Y31956000D03*
X1615600Y54257200D03*
X45075000Y16910500D03*
X32883000Y26749000D03*
X46726000Y24971000D03*
X46726000Y20272000D03*
X23916800Y26469600D03*
X11775600Y18138400D03*
X30724000Y44452800D03*
X19294000Y62740800D03*
X45760800Y12093200D03*
X13045600Y58626000D03*
X45964000Y44452800D03*
X5476400Y54308000D03*
X12944000Y40287200D03*
X52822000Y60200800D03*
X12994800Y32718000D03*
X51145600Y9654800D03*
X39487000Y24971000D03*
X18633600Y7927600D03*
X26609200Y18036800D03*
X13045600Y48466000D03*
X55260400Y2288800D03*
X62728000Y41989000D03*
X60569000Y41989000D03*
X45760800Y9502400D03*
X30089000Y18113000D03*
X16754000Y12956800D03*
X60569000Y22431000D03*
X20564000Y44300400D03*
X45075000Y15640500D03*
X34381600Y62740800D03*
X55260400Y57813200D03*
X60569000Y31956000D03*
X33010000Y21669000D03*
X23815200Y6200400D03*
X12994800Y37747200D03*
X62728000Y22431000D03*
X34635600Y18595600D03*
X35931000Y26368000D03*
X33010000Y24082000D03*
X55260400Y60150000D03*
X40934800Y2898400D03*
X30774800Y6149600D03*
X37683600Y6149600D03*
X37888000Y28842000D03*
X37888000Y33922000D03*
X37888000Y39002000D03*
X37888000Y31382000D03*
X37888000Y41542000D03*
X37888000Y36462000D03*
X22648000Y41542000D03*
X22648000Y36462000D03*
X22648000Y31382000D03*
X22648000Y39002000D03*
X22648000Y28842000D03*
X22648000Y33922000D03*
X37918000Y54750000D03*
X37918000Y47130000D03*
X37918000Y52210000D03*
X37918000Y57290000D03*
X37918000Y49670000D03*
X37918000Y59830000D03*
D14*
X4300000Y17000000D02*
X6086000Y15214000D01*
X6086000Y15214000D02*
X6086000Y14480800D01*
X10023000Y33099000D02*
X22723000Y20399000D01*
X5832000Y47680412D02*
X5832000Y44783000D01*
X3075000Y48705000D02*
X4807412Y48705000D01*
X22723000Y20399000D02*
X33010000Y20399000D01*
X4807412Y48705000D02*
X5832000Y47680412D01*
X1760000Y50020000D02*
X3075000Y48705000D01*
X5832000Y44783000D02*
X6848000Y43767000D01*
X6848000Y43767000D02*
X6848000Y42116000D01*
X10023000Y38941000D02*
X10023000Y33099000D01*
X6848000Y42116000D02*
X10023000Y38941000D01*
X27811000Y14295000D02*
X9007000Y33099000D01*
X38623212Y14295000D02*
X27811000Y14295000D01*
X9007000Y38941000D02*
X6086000Y41862000D01*
X9007000Y33099000D02*
X9007000Y38941000D01*
X42027000Y12529500D02*
X40388712Y12529500D01*
X6086000Y43154000D02*
X4300000Y44940000D01*
X6086000Y41862000D02*
X6086000Y43154000D01*
X40388712Y12529500D02*
X38623212Y14295000D01*
X42179212Y11755000D02*
X40456106Y11755000D01*
X43818000Y10116212D02*
X42179212Y11755000D01*
X7991000Y37798000D02*
X6340000Y39449000D01*
X42456484Y8531000D02*
X43364016Y8531000D01*
X43818000Y8984984D02*
X43818000Y10116212D01*
X6340000Y40360000D02*
X4300000Y42400000D01*
X42526484Y8461000D02*
X42456484Y8531000D01*
X43364016Y8531000D02*
X43818000Y8984984D01*
X38416106Y13795000D02*
X26914000Y13795000D01*
X26914000Y13795000D02*
X7991000Y32718000D01*
X6340000Y39449000D02*
X6340000Y40360000D01*
X40456106Y11755000D02*
X38416106Y13795000D01*
X7991000Y32718000D02*
X7991000Y37798000D01*
X43932000Y8461000D02*
X42526484Y8461000D01*
X38217000Y13287000D02*
X26279000Y13287000D01*
X7229000Y32337000D02*
X7229000Y36931000D01*
X40249000Y11255000D02*
X38217000Y13287000D01*
X43043000Y10184106D02*
X41972106Y11255000D01*
X41972106Y11255000D02*
X40249000Y11255000D01*
X7229000Y36931000D02*
X4300000Y39860000D01*
X26279000Y13287000D02*
X7229000Y32337000D01*
X43043000Y9306000D02*
X43043000Y10184106D01*
X38136503Y12478497D02*
X38090000Y12478497D01*
X38090000Y12478497D02*
X39373000Y11195497D01*
X25898000Y12652000D02*
X6594000Y31956000D01*
X42127500Y9956000D02*
X42127500Y10392500D01*
X42127500Y10392500D02*
X41900000Y10620000D01*
X39995000Y10620000D02*
X38136503Y12478497D01*
X39373000Y11195497D02*
X39373000Y11140122D01*
X6594000Y31956000D02*
X6594000Y35026000D01*
X41900000Y10620000D02*
X39995000Y10620000D01*
X37861122Y12652000D02*
X25898000Y12652000D01*
X39373000Y11140122D02*
X37861122Y12652000D01*
X6594000Y35026000D02*
X4300000Y37320000D01*
X5832000Y31702000D02*
X5832000Y33248000D01*
X5832000Y33248000D02*
X4300000Y34780000D01*
X37789016Y12017000D02*
X25517000Y12017000D01*
X38598000Y10357000D02*
X38598000Y11208016D01*
X38598000Y11208016D02*
X37789016Y12017000D01*
X25517000Y12017000D02*
X5832000Y31702000D01*
X37442000Y11268000D02*
X25272000Y11268000D01*
X25272000Y11268000D02*
X4300000Y32240000D01*
X37582000Y11128000D02*
X37442000Y11268000D01*
D15*
X62220000Y51067500D02*
X62220000Y51006000D01*
D16*
X52222017Y54409679D02*
X55498696Y51133000D01*
X55498696Y51133000D02*
X57140000Y51133000D01*
D15*
X62220000Y51006000D02*
X62347000Y50879000D01*
X62134500Y13372500D02*
X57140000Y13372500D01*
D16*
X47955000Y36528000D02*
X53154000Y36528000D01*
D15*
X62220000Y51133000D02*
X57225500Y51133000D01*
D14*
X39534318Y14091000D02*
X38814318Y14811000D01*
X37432052Y14811000D02*
X37002181Y15240871D01*
X37002181Y15240871D02*
X36761824Y15240871D01*
X36761824Y15240871D02*
X36556695Y15446000D01*
X36556695Y15446000D02*
X27930000Y15446000D01*
X51975000Y14091000D02*
X47996000Y14091000D01*
X47996000Y14091000D02*
X39534318Y14091000D01*
X15839600Y14480800D02*
X20919600Y14480800D01*
X38814318Y14811000D02*
X37432052Y14811000D01*
X54600000Y16716000D02*
X51975000Y14091000D01*
D16*
X51074169Y53261831D02*
X56038500Y48297500D01*
X47935000Y33922000D02*
X55677000Y33922000D01*
D15*
X62134500Y16208000D02*
X57140000Y16208000D01*
X62220000Y48297500D02*
X57225500Y48297500D01*
D16*
X56038500Y48297500D02*
X57140000Y48297500D01*
X55677000Y33922000D02*
X55743000Y33988000D01*
D14*
X51352500Y14865500D02*
X39686500Y14865500D01*
X38090000Y16462000D02*
X36566000Y16462000D01*
X36007200Y17020800D02*
X26710800Y17020800D01*
X36566000Y16462000D02*
X36007200Y17020800D01*
X18278000Y17020800D02*
X18280391Y17023191D01*
X51806000Y15319000D02*
X51352500Y14865500D01*
X13248800Y17020800D02*
X18278000Y17020800D01*
X39686500Y14865500D02*
X38090000Y16462000D01*
D16*
X58537000Y44275000D02*
X58537000Y44228000D01*
X53711000Y47196000D02*
X56632000Y44275000D01*
X47955000Y28781000D02*
X58664000Y28781000D01*
X47955000Y47196000D02*
X53711000Y47196000D01*
X56632000Y44275000D02*
X58537000Y44275000D01*
D15*
X62220000Y53800000D02*
X57225500Y53800000D01*
D16*
X53198434Y55328566D02*
X54727000Y53800000D01*
D15*
X62134500Y10602500D02*
X57072000Y10602500D01*
D16*
X47955000Y39068000D02*
X50554000Y39068000D01*
X53140904Y55328566D02*
X53198434Y55328566D01*
X54727000Y53800000D02*
X57140000Y53800000D01*
X51624045Y51060955D02*
X57140000Y45545000D01*
D15*
X62220000Y45527500D02*
X57157500Y45527500D01*
D16*
X47955000Y31448000D02*
X57140000Y31448000D01*
D15*
X62134500Y18875000D02*
X57140000Y18875000D01*
X57157500Y45527500D02*
X57140000Y45545000D01*
D16*
X48873293Y51060955D02*
X51624045Y51060955D01*
D14*
X12563000Y22812000D02*
X5032000Y22812000D01*
X33010000Y22812000D02*
X21707000Y22812000D01*
X5032000Y22812000D02*
X4300000Y22080000D01*
D16*
X33010000Y24209000D02*
X33010000Y24082000D01*
X1760000Y17000000D02*
X1760000Y19540000D01*
X1760000Y19540000D02*
X4300000Y19540000D01*
X1760000Y27160000D02*
X4300000Y27160000D01*
X33010000Y21796000D02*
X33010000Y21669000D01*
X37888000Y41542000D02*
X37888000Y28842000D01*
X22648000Y41542000D02*
X22648000Y28842000D01*
X37918000Y59830000D02*
X37918000Y47130000D01*
G04 #@! TA.AperFunction,Conductor*
G36*
X61988057Y63637903D02*
G01*
X62130196Y63570675D01*
X62135638Y63567766D01*
X62422795Y63395649D01*
X62427929Y63392220D01*
X62498014Y63340241D01*
X62696830Y63192788D01*
X62701611Y63188864D01*
X62811843Y63088956D01*
X62949675Y62964033D01*
X62954032Y62959676D01*
X63066451Y62835640D01*
X63178863Y62711612D01*
X63182787Y62706831D01*
X63382212Y62437940D01*
X63385648Y62432796D01*
X63557756Y62145653D01*
X63560662Y62140220D01*
X63561776Y62137868D01*
X63562881Y62135531D01*
X63575000Y62081615D01*
X63575000Y55448834D01*
X63554998Y55380713D01*
X63501342Y55334220D01*
X63449000Y55322834D01*
X60277350Y55322834D01*
X60216803Y55316325D01*
X60216795Y55316323D01*
X60079797Y55265224D01*
X60079792Y55265222D01*
X59962738Y55177596D01*
X59875112Y55060542D01*
X59875110Y55060537D01*
X59824011Y54923539D01*
X59824009Y54923531D01*
X59817500Y54862984D01*
X59817500Y54834500D01*
X59797498Y54766379D01*
X59743842Y54719886D01*
X59691500Y54708500D01*
X57044513Y54708500D01*
X56857711Y54668794D01*
X56683245Y54591117D01*
X56671476Y54582565D01*
X56604609Y54558706D01*
X56597413Y54558500D01*
X55093371Y54558500D01*
X55025250Y54578502D01*
X55004276Y54595405D01*
X54033339Y55566342D01*
X54002601Y55616501D01*
X53975432Y55700119D01*
X53975431Y55700121D01*
X53975431Y55700122D01*
X53879944Y55865510D01*
X53879942Y55865512D01*
X53879938Y55865518D01*
X53752159Y56007431D01*
X53597656Y56119684D01*
X53423192Y56197360D01*
X53236391Y56237066D01*
X53045417Y56237066D01*
X52858615Y56197360D01*
X52684151Y56119684D01*
X52529648Y56007431D01*
X52401869Y55865518D01*
X52401862Y55865508D01*
X52306380Y55700128D01*
X52306377Y55700121D01*
X52247361Y55518494D01*
X52238088Y55430258D01*
X52211075Y55364601D01*
X52152854Y55323971D01*
X52132969Y55319646D01*
X52132989Y55319552D01*
X51939728Y55278473D01*
X51765264Y55200797D01*
X51610761Y55088544D01*
X51482982Y54946631D01*
X51482975Y54946621D01*
X51387493Y54781241D01*
X51387490Y54781234D01*
X51328474Y54599607D01*
X51308513Y54409679D01*
X51319289Y54307147D01*
X51306516Y54237308D01*
X51258014Y54185462D01*
X51189181Y54168068D01*
X51176232Y54169679D01*
X51176229Y54169641D01*
X51169661Y54170331D01*
X51169656Y54170331D01*
X50978682Y54170331D01*
X50791880Y54130625D01*
X50617416Y54052949D01*
X50462913Y53940696D01*
X50335134Y53798783D01*
X50335127Y53798773D01*
X50239645Y53633393D01*
X50239642Y53633386D01*
X50180626Y53451759D01*
X50160665Y53261832D01*
X50180626Y53071904D01*
X50201103Y53008884D01*
X50239642Y52890275D01*
X50239645Y52890270D01*
X50335127Y52724890D01*
X50335134Y52724880D01*
X50462913Y52582967D01*
X50508251Y52550027D01*
X50617417Y52470713D01*
X50791881Y52393037D01*
X50854938Y52379634D01*
X50917412Y52345906D01*
X50917837Y52345482D01*
X51228769Y52034550D01*
X51262795Y51972238D01*
X51257730Y51901423D01*
X51215183Y51844587D01*
X51148663Y51819776D01*
X51139674Y51819455D01*
X49415880Y51819455D01*
X49347759Y51839457D01*
X49341817Y51843520D01*
X49330047Y51852072D01*
X49219202Y51901423D01*
X49155581Y51929749D01*
X48968780Y51969455D01*
X48777806Y51969455D01*
X48591004Y51929749D01*
X48416540Y51852073D01*
X48262037Y51739820D01*
X48134258Y51597907D01*
X48134251Y51597897D01*
X48038769Y51432517D01*
X48038766Y51432510D01*
X47979750Y51250883D01*
X47959789Y51060955D01*
X47979750Y50871028D01*
X47984222Y50857266D01*
X48038766Y50689399D01*
X48067134Y50640264D01*
X48134251Y50524014D01*
X48134258Y50524004D01*
X48262037Y50382091D01*
X48282730Y50367057D01*
X48416541Y50269837D01*
X48591005Y50192161D01*
X48777806Y50152455D01*
X48968780Y50152455D01*
X49155581Y50192161D01*
X49330045Y50269837D01*
X49341817Y50278391D01*
X49408684Y50302249D01*
X49415880Y50302455D01*
X51257674Y50302455D01*
X51325795Y50282453D01*
X51346769Y50265550D01*
X53442724Y48169595D01*
X53476750Y48107283D01*
X53471685Y48036468D01*
X53429138Y47979632D01*
X53362618Y47954821D01*
X53353629Y47954500D01*
X48497587Y47954500D01*
X48429466Y47974502D01*
X48423524Y47978565D01*
X48411754Y47987117D01*
X48300909Y48036468D01*
X48237288Y48064794D01*
X48050487Y48104500D01*
X47859513Y48104500D01*
X47672711Y48064794D01*
X47498247Y47987118D01*
X47343744Y47874865D01*
X47215965Y47732952D01*
X47215958Y47732942D01*
X47120476Y47567562D01*
X47120473Y47567555D01*
X47061457Y47385928D01*
X47041496Y47196001D01*
X47061457Y47006073D01*
X47082903Y46940072D01*
X47120473Y46824444D01*
X47120476Y46824439D01*
X47215958Y46659059D01*
X47215965Y46659049D01*
X47343744Y46517136D01*
X47343747Y46517134D01*
X47498248Y46404882D01*
X47672712Y46327206D01*
X47859513Y46287500D01*
X48050487Y46287500D01*
X48237288Y46327206D01*
X48411752Y46404882D01*
X48423524Y46413436D01*
X48490391Y46437294D01*
X48497587Y46437500D01*
X53344629Y46437500D01*
X53412750Y46417498D01*
X53433724Y46400595D01*
X56050092Y43784227D01*
X56062065Y43770373D01*
X56076531Y43750942D01*
X56100535Y43730800D01*
X56116975Y43717006D01*
X56121021Y43713298D01*
X56126900Y43707419D01*
X56126901Y43707418D01*
X56140004Y43697058D01*
X56152895Y43686865D01*
X56212360Y43636968D01*
X56212366Y43636965D01*
X56218495Y43632933D01*
X56218458Y43632878D01*
X56224811Y43628831D01*
X56224847Y43628887D01*
X56231092Y43625035D01*
X56231095Y43625033D01*
X56301452Y43592225D01*
X56370812Y43557391D01*
X56370813Y43557391D01*
X56370817Y43557389D01*
X56377713Y43554879D01*
X56377689Y43554815D01*
X56384805Y43552341D01*
X56384827Y43552405D01*
X56391791Y43550097D01*
X56467849Y43534393D01*
X56501866Y43526331D01*
X56543344Y43516500D01*
X56543350Y43516500D01*
X56550633Y43515648D01*
X56550625Y43515581D01*
X56558122Y43514815D01*
X56558128Y43514881D01*
X56565435Y43514243D01*
X56565442Y43514241D01*
X56643080Y43516500D01*
X57929724Y43516500D01*
X57997845Y43496498D01*
X58003785Y43492436D01*
X58080248Y43436882D01*
X58254712Y43359206D01*
X58441513Y43319500D01*
X58632487Y43319500D01*
X58819288Y43359206D01*
X58993752Y43436882D01*
X59148253Y43549134D01*
X59216594Y43625034D01*
X59276034Y43691049D01*
X59276035Y43691051D01*
X59276040Y43691056D01*
X59371527Y43856444D01*
X59430542Y44038072D01*
X59450504Y44228000D01*
X59430542Y44417928D01*
X59418801Y44454063D01*
X59416773Y44525031D01*
X59453436Y44585829D01*
X59517148Y44617154D01*
X59538634Y44619000D01*
X59710219Y44619000D01*
X59778340Y44598998D01*
X59824833Y44545342D01*
X59828274Y44537034D01*
X59875111Y44411462D01*
X59875112Y44411459D01*
X59962738Y44294405D01*
X60079792Y44206779D01*
X60079794Y44206778D01*
X60079796Y44206777D01*
X60111374Y44194999D01*
X60216795Y44155678D01*
X60216803Y44155676D01*
X60277350Y44149167D01*
X60277355Y44149167D01*
X60277362Y44149166D01*
X60277368Y44149166D01*
X63449000Y44149166D01*
X63517121Y44129164D01*
X63563614Y44075508D01*
X63575000Y44023166D01*
X63575000Y20523834D01*
X63554998Y20455713D01*
X63501342Y20409220D01*
X63449000Y20397834D01*
X60199850Y20397834D01*
X60139303Y20391325D01*
X60139295Y20391323D01*
X60002297Y20340224D01*
X60002292Y20340222D01*
X59885238Y20252596D01*
X59797612Y20135542D01*
X59797610Y20135537D01*
X59746511Y19998539D01*
X59746509Y19998531D01*
X59740000Y19937984D01*
X59740000Y19909500D01*
X59719998Y19841379D01*
X59666342Y19794886D01*
X59614000Y19783500D01*
X56959013Y19783500D01*
X56772211Y19743794D01*
X56597747Y19666118D01*
X56443244Y19553865D01*
X56315465Y19411952D01*
X56315458Y19411942D01*
X56219976Y19246562D01*
X56219973Y19246555D01*
X56160957Y19064928D01*
X56140996Y18875000D01*
X56160957Y18685073D01*
X56191026Y18592530D01*
X56219973Y18503444D01*
X56219976Y18503439D01*
X56315458Y18338059D01*
X56315465Y18338049D01*
X56443244Y18196136D01*
X56456735Y18186334D01*
X56597748Y18083882D01*
X56772212Y18006206D01*
X56959013Y17966500D01*
X57092390Y17966500D01*
X59646707Y17966500D01*
X59714828Y17946498D01*
X59761321Y17892842D01*
X59764751Y17884561D01*
X59797611Y17796462D01*
X59797612Y17796461D01*
X59797613Y17796458D01*
X59885240Y17679403D01*
X59891611Y17673032D01*
X59889868Y17671290D01*
X59924497Y17625027D01*
X59929558Y17554211D01*
X59895530Y17491900D01*
X59888134Y17485492D01*
X59885240Y17482598D01*
X59797612Y17365542D01*
X59797610Y17365537D01*
X59746511Y17228539D01*
X59744697Y17220860D01*
X59743313Y17221187D01*
X59719397Y17163442D01*
X59661081Y17122949D01*
X59621286Y17116500D01*
X56959013Y17116500D01*
X56772211Y17076794D01*
X56597747Y16999118D01*
X56443244Y16886865D01*
X56315465Y16744952D01*
X56315458Y16744942D01*
X56219976Y16579562D01*
X56219973Y16579556D01*
X56205499Y16535014D01*
X56160957Y16397928D01*
X56140996Y16208000D01*
X56160957Y16018073D01*
X56191026Y15925530D01*
X56219973Y15836444D01*
X56238053Y15805129D01*
X56315458Y15671059D01*
X56315465Y15671049D01*
X56443244Y15529136D01*
X56443247Y15529134D01*
X56597748Y15416882D01*
X56772212Y15339206D01*
X56959013Y15299500D01*
X57092390Y15299500D01*
X59618706Y15299500D01*
X59686827Y15279498D01*
X59733320Y15225842D01*
X59743984Y15186967D01*
X59746509Y15163470D01*
X59746511Y15163462D01*
X59797610Y15026464D01*
X59797612Y15026459D01*
X59885240Y14909403D01*
X59891611Y14903032D01*
X59889868Y14901290D01*
X59924497Y14855027D01*
X59929558Y14784211D01*
X59895530Y14721900D01*
X59888134Y14715492D01*
X59885240Y14712598D01*
X59797612Y14595542D01*
X59797610Y14595537D01*
X59746511Y14458539D01*
X59746509Y14458531D01*
X59739639Y14394617D01*
X59738183Y14394774D01*
X59716514Y14333318D01*
X59660453Y14289756D01*
X59614303Y14281000D01*
X56959013Y14281000D01*
X56772211Y14241294D01*
X56597747Y14163618D01*
X56443244Y14051365D01*
X56315465Y13909452D01*
X56315458Y13909442D01*
X56219976Y13744062D01*
X56219973Y13744055D01*
X56160957Y13562428D01*
X56140996Y13372501D01*
X56160957Y13182573D01*
X56191026Y13090030D01*
X56219973Y13000944D01*
X56219976Y13000939D01*
X56315458Y12835559D01*
X56315465Y12835549D01*
X56443244Y12693636D01*
X56443247Y12693634D01*
X56597748Y12581382D01*
X56772212Y12503706D01*
X56959013Y12464000D01*
X57092390Y12464000D01*
X59632719Y12464000D01*
X59700840Y12443998D01*
X59747333Y12390342D01*
X59750774Y12382034D01*
X59797611Y12256462D01*
X59797612Y12256459D01*
X59885240Y12139403D01*
X59891611Y12133032D01*
X59889866Y12131288D01*
X59924489Y12085047D01*
X59929563Y12014232D01*
X59895545Y11951916D01*
X59888145Y11945503D01*
X59885240Y11942598D01*
X59797612Y11825542D01*
X59797610Y11825537D01*
X59746511Y11688539D01*
X59746509Y11688531D01*
X59739639Y11624617D01*
X59738183Y11624774D01*
X59716514Y11563318D01*
X59660453Y11519756D01*
X59614303Y11511000D01*
X57245563Y11511000D01*
X57219366Y11513753D01*
X57149987Y11528500D01*
X56959013Y11528500D01*
X56772211Y11488794D01*
X56597747Y11411118D01*
X56443244Y11298865D01*
X56315465Y11156952D01*
X56315458Y11156942D01*
X56219976Y10991562D01*
X56219973Y10991555D01*
X56160957Y10809928D01*
X56140996Y10620001D01*
X56160957Y10430073D01*
X56162986Y10423829D01*
X56219973Y10248444D01*
X56219976Y10248439D01*
X56315457Y10083060D01*
X56315458Y10083058D01*
X56315460Y10083056D01*
X56326866Y10070388D01*
X56370068Y10022406D01*
X56374220Y10017279D01*
X56393134Y9991247D01*
X56393135Y9991246D01*
X56393134Y9991246D01*
X56403647Y9981781D01*
X56417052Y9969711D01*
X56421709Y9965054D01*
X56443247Y9941134D01*
X56469287Y9922215D01*
X56474398Y9918076D01*
X56535056Y9863460D01*
X56700444Y9767973D01*
X56882072Y9708958D01*
X57024390Y9694000D01*
X59632719Y9694000D01*
X59700840Y9673998D01*
X59747333Y9620342D01*
X59750774Y9612034D01*
X59797611Y9486462D01*
X59797612Y9486459D01*
X59885238Y9369405D01*
X60002292Y9281779D01*
X60002294Y9281778D01*
X60002296Y9281777D01*
X60031917Y9270729D01*
X60139295Y9230678D01*
X60139303Y9230676D01*
X60199850Y9224167D01*
X60199855Y9224167D01*
X60199862Y9224166D01*
X60199868Y9224166D01*
X63449000Y9224166D01*
X63517121Y9204164D01*
X63563614Y9150508D01*
X63575000Y9098166D01*
X63574999Y1923487D01*
X63562902Y1869616D01*
X63560687Y1864933D01*
X63557771Y1859478D01*
X63385657Y1572319D01*
X63382220Y1567175D01*
X63182796Y1298281D01*
X63178871Y1293499D01*
X62954053Y1045449D01*
X62949679Y1041075D01*
X62701619Y816245D01*
X62696837Y812321D01*
X62427941Y612892D01*
X62422798Y609455D01*
X62270095Y517927D01*
X62205317Y500000D01*
X1781270Y500000D01*
X1716494Y517926D01*
X1716492Y517927D01*
X1572315Y604343D01*
X1567193Y607764D01*
X1298273Y807209D01*
X1293498Y811128D01*
X1212415Y884617D01*
X1045433Y1035960D01*
X1041077Y1040316D01*
X816241Y1288382D01*
X812324Y1293155D01*
X612890Y1562058D01*
X609453Y1567202D01*
X437340Y1854352D01*
X434424Y1859807D01*
X337098Y2065585D01*
X325000Y2119457D01*
X325000Y3440235D01*
X1691788Y3440235D01*
X1721412Y3170986D01*
X1789928Y2908910D01*
X1895869Y2659611D01*
X1895870Y2659610D01*
X2036982Y2428390D01*
X2210255Y2220180D01*
X2210257Y2220178D01*
X2210259Y2220176D01*
X2271574Y2165238D01*
X2411998Y2039418D01*
X2637910Y1889956D01*
X2883176Y1774980D01*
X3142569Y1696940D01*
X3142572Y1696940D01*
X3142574Y1696939D01*
X3410557Y1657500D01*
X3410561Y1657500D01*
X3613633Y1657500D01*
X3648363Y1660043D01*
X3816156Y1672323D01*
X3816160Y1672324D01*
X3816161Y1672324D01*
X3926665Y1696940D01*
X4080553Y1731220D01*
X4333558Y1827986D01*
X4569777Y1960559D01*
X4784177Y2126112D01*
X4972186Y2321119D01*
X5129799Y2541421D01*
X5132883Y2547418D01*
X5253656Y2782325D01*
X5253657Y2782328D01*
X5341116Y3038690D01*
X5341118Y3038695D01*
X5390319Y3305067D01*
X5400212Y3575765D01*
X5385338Y3710942D01*
X5370587Y3845015D01*
X5343602Y3948235D01*
X58714788Y3948235D01*
X58744412Y3678986D01*
X58812928Y3416910D01*
X58918869Y3167611D01*
X58926985Y3154313D01*
X59059982Y2936390D01*
X59233255Y2728180D01*
X59233257Y2728178D01*
X59233259Y2728176D01*
X59338236Y2634117D01*
X59434998Y2547418D01*
X59660910Y2397956D01*
X59906176Y2282980D01*
X60165569Y2204940D01*
X60165572Y2204940D01*
X60165574Y2204939D01*
X60433557Y2165500D01*
X60433561Y2165500D01*
X60636633Y2165500D01*
X60671363Y2168043D01*
X60839156Y2180323D01*
X60839160Y2180324D01*
X60839161Y2180324D01*
X60949665Y2204940D01*
X61103553Y2239220D01*
X61356558Y2335986D01*
X61592777Y2468559D01*
X61807177Y2634112D01*
X61995186Y2829119D01*
X62152799Y3049421D01*
X62276656Y3290325D01*
X62364118Y3546695D01*
X62413319Y3813067D01*
X62423212Y4083765D01*
X62406717Y4233676D01*
X62393587Y4353015D01*
X62325071Y4615091D01*
X62219130Y4864390D01*
X62150665Y4976573D01*
X62078018Y5095610D01*
X61904745Y5303820D01*
X61904741Y5303823D01*
X61904740Y5303825D01*
X61703012Y5484573D01*
X61703002Y5484582D01*
X61477090Y5634044D01*
X61231824Y5749020D01*
X61074392Y5796385D01*
X60972425Y5827062D01*
X60704442Y5866500D01*
X60704439Y5866500D01*
X60501369Y5866500D01*
X60501367Y5866500D01*
X60298839Y5851677D01*
X60298838Y5851677D01*
X60034456Y5792783D01*
X60034441Y5792778D01*
X59781441Y5696014D01*
X59545229Y5563445D01*
X59545225Y5563443D01*
X59330818Y5397884D01*
X59142815Y5202883D01*
X59142810Y5202877D01*
X58985203Y4982583D01*
X58985196Y4982573D01*
X58861343Y4741676D01*
X58861342Y4741673D01*
X58773883Y4485311D01*
X58773880Y4485298D01*
X58724681Y4218942D01*
X58724680Y4218931D01*
X58714788Y3948235D01*
X5343602Y3948235D01*
X5302071Y4107091D01*
X5196130Y4356390D01*
X5196130Y4356391D01*
X5055018Y4587610D01*
X4881745Y4795820D01*
X4881741Y4795823D01*
X4881740Y4795825D01*
X4680012Y4976573D01*
X4680002Y4976582D01*
X4454090Y5126044D01*
X4208824Y5241020D01*
X4051392Y5288385D01*
X3949425Y5319062D01*
X3681442Y5358500D01*
X3681439Y5358500D01*
X3478369Y5358500D01*
X3478367Y5358500D01*
X3275839Y5343677D01*
X3275838Y5343677D01*
X3011456Y5284783D01*
X3011441Y5284778D01*
X2758441Y5188014D01*
X2522229Y5055445D01*
X2522225Y5055443D01*
X2307818Y4889884D01*
X2119815Y4694883D01*
X2119810Y4694877D01*
X1962203Y4474583D01*
X1962196Y4474573D01*
X1838343Y4233676D01*
X1838342Y4233673D01*
X1750883Y3977311D01*
X1750880Y3977298D01*
X1701681Y3710942D01*
X1701680Y3710931D01*
X1691788Y3440235D01*
X325000Y3440235D01*
X325000Y13751051D01*
X345002Y13819172D01*
X398658Y13865665D01*
X468932Y13875769D01*
X533512Y13846275D01*
X558230Y13815484D01*
X558732Y13815811D01*
X684674Y13623042D01*
X837097Y13457466D01*
X1014698Y13319233D01*
X1014699Y13319232D01*
X1212628Y13212118D01*
X1212630Y13212117D01*
X1425483Y13139045D01*
X1425492Y13139043D01*
X1506000Y13125609D01*
X1506000Y13845967D01*
X1526002Y13914088D01*
X1579658Y13960581D01*
X1649926Y13970685D01*
X1724237Y13960000D01*
X1795763Y13960000D01*
X1870069Y13970684D01*
X1940341Y13960581D01*
X1993997Y13914089D01*
X2014000Y13845969D01*
X2014000Y13125610D01*
X2094507Y13139043D01*
X2094516Y13139045D01*
X2307369Y13212117D01*
X2307371Y13212118D01*
X2505300Y13319232D01*
X2505301Y13319233D01*
X2682902Y13457466D01*
X2835325Y13623042D01*
X2958419Y13811452D01*
X3048820Y14017543D01*
X3068473Y14095152D01*
X3104585Y14156278D01*
X3168012Y14188178D01*
X3238616Y14180722D01*
X3293981Y14136278D01*
X3311192Y14100800D01*
X3316750Y14082477D01*
X3324768Y14056045D01*
X3421129Y13875769D01*
X3422315Y13873550D01*
X3553590Y13713590D01*
X3713550Y13582315D01*
X3896046Y13484768D01*
X4094066Y13424700D01*
X4094070Y13424700D01*
X4094072Y13424699D01*
X4299997Y13404417D01*
X4300000Y13404417D01*
X4300003Y13404417D01*
X4505927Y13424699D01*
X4505928Y13424700D01*
X4505934Y13424700D01*
X4703954Y13484768D01*
X4886450Y13582315D01*
X5046410Y13713590D01*
X5177685Y13873550D01*
X5179688Y13877299D01*
X5229434Y13927948D01*
X5298669Y13943664D01*
X5365410Y13919453D01*
X5384449Y13902219D01*
X5474744Y13801936D01*
X5474747Y13801934D01*
X5629248Y13689682D01*
X5803712Y13612006D01*
X5990513Y13572300D01*
X6181487Y13572300D01*
X6368288Y13612006D01*
X6542752Y13689682D01*
X6697253Y13801934D01*
X6705823Y13811452D01*
X6825034Y13943849D01*
X6825035Y13943851D01*
X6825040Y13943856D01*
X6920527Y14109244D01*
X6979542Y14290872D01*
X6999504Y14480800D01*
X6979542Y14670728D01*
X6920527Y14852356D01*
X6825040Y15017744D01*
X6753249Y15097476D01*
X6722533Y15161482D01*
X6720949Y15177813D01*
X6719499Y15223941D01*
X6719500Y15253856D01*
X6718620Y15260816D01*
X6718154Y15266725D01*
X6716673Y15313890D01*
X6711022Y15333337D01*
X6707012Y15352700D01*
X6704474Y15372797D01*
X6687100Y15416677D01*
X6685184Y15422275D01*
X6672018Y15467594D01*
X6661700Y15485039D01*
X6653005Y15502791D01*
X6650575Y15508928D01*
X6645552Y15521617D01*
X6645550Y15521621D01*
X6617818Y15559790D01*
X6614562Y15564747D01*
X6590542Y15605363D01*
X6590540Y15605365D01*
X6590540Y15605366D01*
X6576218Y15619688D01*
X6563377Y15634721D01*
X6551471Y15651108D01*
X6538568Y15661782D01*
X6515108Y15681190D01*
X6510736Y15685169D01*
X5383404Y16812501D01*
X5349378Y16874813D01*
X5347106Y16913943D01*
X5355583Y17000000D01*
X5355583Y17000004D01*
X5335301Y17205928D01*
X5335300Y17205930D01*
X5335300Y17205934D01*
X5275232Y17403954D01*
X5177685Y17586450D01*
X5046410Y17746410D01*
X4886450Y17877685D01*
X4886448Y17877686D01*
X4886447Y17877687D01*
X4703955Y17975232D01*
X4682042Y17981879D01*
X4663104Y17987624D01*
X4603724Y18026538D01*
X4574808Y18091380D01*
X4585539Y18161561D01*
X4632509Y18214800D01*
X4658769Y18227371D01*
X4847369Y18292117D01*
X4847371Y18292118D01*
X5045300Y18399232D01*
X5045301Y18399233D01*
X5222902Y18537466D01*
X5375325Y18703042D01*
X5498419Y18891452D01*
X5588820Y19097544D01*
X5588823Y19097551D01*
X5636544Y19286000D01*
X4914844Y19286000D01*
X4846723Y19306002D01*
X4800230Y19359658D01*
X4790126Y19429932D01*
X4793947Y19447496D01*
X4800000Y19468112D01*
X4800000Y19611889D01*
X4793947Y19632504D01*
X4793948Y19703500D01*
X4832333Y19763226D01*
X4896914Y19792718D01*
X4914844Y19794000D01*
X5636544Y19794000D01*
X5636544Y19794001D01*
X5588823Y19982450D01*
X5588820Y19982457D01*
X5498419Y20188549D01*
X5375325Y20376959D01*
X5222902Y20542535D01*
X5045301Y20680768D01*
X5045300Y20680769D01*
X5011791Y20698903D01*
X4961401Y20748917D01*
X4946050Y20818234D01*
X4970612Y20884847D01*
X5011790Y20920528D01*
X5045576Y20938811D01*
X5223240Y21077094D01*
X5375722Y21242732D01*
X5498860Y21431209D01*
X5589296Y21637384D01*
X5644564Y21855632D01*
X5661739Y22062907D01*
X5687299Y22129142D01*
X5744610Y22171045D01*
X5787309Y22178500D01*
X11854800Y22178500D01*
X11922921Y22158498D01*
X11948437Y22136810D01*
X11951747Y22133134D01*
X12106248Y22020882D01*
X12280712Y21943206D01*
X12467513Y21903500D01*
X12658487Y21903500D01*
X12845288Y21943206D01*
X13019752Y22020882D01*
X13174253Y22133134D01*
X13197091Y22158498D01*
X13244940Y22211639D01*
X13305386Y22248879D01*
X13376369Y22247527D01*
X13427671Y22216424D01*
X17722882Y17921213D01*
X17756908Y17858901D01*
X17751843Y17788086D01*
X17709296Y17731250D01*
X17707848Y17730182D01*
X17669140Y17702060D01*
X17666986Y17699667D01*
X17663673Y17695989D01*
X17603229Y17658750D01*
X17570039Y17654300D01*
X13957000Y17654300D01*
X13888879Y17674302D01*
X13863363Y17695990D01*
X13860052Y17699667D01*
X13705552Y17811918D01*
X13531088Y17889594D01*
X13344287Y17929300D01*
X13153313Y17929300D01*
X12966511Y17889594D01*
X12792047Y17811918D01*
X12637544Y17699665D01*
X12509765Y17557752D01*
X12509758Y17557742D01*
X12414276Y17392362D01*
X12414273Y17392356D01*
X12405561Y17365542D01*
X12355257Y17210728D01*
X12335296Y17020800D01*
X12355257Y16830873D01*
X12383175Y16744952D01*
X12414273Y16649244D01*
X12414276Y16649239D01*
X12509758Y16483859D01*
X12509765Y16483849D01*
X12637544Y16341936D01*
X12637547Y16341934D01*
X12792048Y16229682D01*
X12966512Y16152006D01*
X13153313Y16112300D01*
X13344287Y16112300D01*
X13531088Y16152006D01*
X13705552Y16229682D01*
X13860053Y16341934D01*
X13863362Y16345610D01*
X13923809Y16382850D01*
X13957000Y16387300D01*
X17574344Y16387300D01*
X17642465Y16367298D01*
X17667981Y16345610D01*
X17669138Y16344325D01*
X17823639Y16232073D01*
X17998103Y16154397D01*
X18184904Y16114691D01*
X18375878Y16114691D01*
X18562679Y16154397D01*
X18737143Y16232073D01*
X18891644Y16344325D01*
X18996169Y16460413D01*
X19056613Y16497651D01*
X19127597Y16496300D01*
X19178899Y16465196D01*
X20307225Y15336870D01*
X20341251Y15274558D01*
X20336186Y15203743D01*
X20311769Y15163468D01*
X20305039Y15155993D01*
X20244595Y15118751D01*
X20211400Y15114300D01*
X16547800Y15114300D01*
X16479679Y15134302D01*
X16454163Y15155990D01*
X16450852Y15159667D01*
X16296352Y15271918D01*
X16121888Y15349594D01*
X15935087Y15389300D01*
X15744113Y15389300D01*
X15557311Y15349594D01*
X15382847Y15271918D01*
X15228344Y15159665D01*
X15100565Y15017752D01*
X15100558Y15017742D01*
X15005076Y14852362D01*
X15005073Y14852355D01*
X14946057Y14670728D01*
X14926096Y14480800D01*
X14946057Y14290873D01*
X14962167Y14241294D01*
X15005073Y14109244D01*
X15005076Y14109239D01*
X15100558Y13943859D01*
X15100565Y13943849D01*
X15228344Y13801936D01*
X15228347Y13801934D01*
X15382848Y13689682D01*
X15557312Y13612006D01*
X15744113Y13572300D01*
X15935087Y13572300D01*
X16121888Y13612006D01*
X16296352Y13689682D01*
X16450853Y13801934D01*
X16454162Y13805610D01*
X16514609Y13842850D01*
X16547800Y13847300D01*
X20211400Y13847300D01*
X20279521Y13827298D01*
X20305037Y13805610D01*
X20308347Y13801934D01*
X20462848Y13689682D01*
X20637312Y13612006D01*
X20824113Y13572300D01*
X21015087Y13572300D01*
X21201888Y13612006D01*
X21376352Y13689682D01*
X21530853Y13801934D01*
X21543054Y13815484D01*
X21570778Y13846275D01*
X21589504Y13867074D01*
X21649949Y13904314D01*
X21720933Y13902963D01*
X21772236Y13871859D01*
X24764755Y10879340D01*
X24774720Y10866903D01*
X24774947Y10867090D01*
X24779999Y10860983D01*
X24831078Y10813017D01*
X24852223Y10791871D01*
X24852227Y10791868D01*
X24852230Y10791865D01*
X24857782Y10787558D01*
X24862269Y10783727D01*
X24884959Y10762419D01*
X24896677Y10751415D01*
X24896679Y10751414D01*
X24914428Y10741657D01*
X24930953Y10730802D01*
X24946959Y10718386D01*
X24988686Y10700330D01*
X24990262Y10699648D01*
X24995583Y10697042D01*
X25036940Y10674305D01*
X25036948Y10674303D01*
X25056558Y10669268D01*
X25075267Y10662863D01*
X25093855Y10654819D01*
X25140477Y10647436D01*
X25146262Y10646237D01*
X25191970Y10634500D01*
X25212224Y10634500D01*
X25231934Y10632949D01*
X25234141Y10632600D01*
X25251943Y10629780D01*
X25285870Y10632988D01*
X25298917Y10634220D01*
X25304850Y10634500D01*
X36747744Y10634500D01*
X36815865Y10614498D01*
X36841380Y10592810D01*
X36970744Y10449136D01*
X36970747Y10449134D01*
X37125248Y10336882D01*
X37299712Y10259206D01*
X37486513Y10219500D01*
X37595879Y10219500D01*
X37664000Y10199498D01*
X37710493Y10145842D01*
X37715710Y10132442D01*
X37763473Y9985444D01*
X37772554Y9969716D01*
X37858958Y9820059D01*
X37858965Y9820049D01*
X37986744Y9678136D01*
X38047999Y9633632D01*
X38141248Y9565882D01*
X38315712Y9488206D01*
X38502513Y9448500D01*
X38693487Y9448500D01*
X38880288Y9488206D01*
X39054752Y9565882D01*
X39209253Y9678134D01*
X39288434Y9766073D01*
X39337034Y9820049D01*
X39337035Y9820051D01*
X39337040Y9820056D01*
X39432527Y9985444D01*
X39446346Y10027976D01*
X39486419Y10086581D01*
X39551815Y10114219D01*
X39621772Y10102113D01*
X39626876Y10099457D01*
X39637427Y10093657D01*
X39653957Y10082799D01*
X39669960Y10070386D01*
X39713259Y10051649D01*
X39718585Y10049040D01*
X39759935Y10026307D01*
X39759938Y10026306D01*
X39759940Y10026305D01*
X39779562Y10021267D01*
X39798263Y10014865D01*
X39810814Y10009433D01*
X39816852Y10006820D01*
X39816853Y10006820D01*
X39816855Y10006819D01*
X39863477Y9999436D01*
X39869262Y9998237D01*
X39914970Y9986500D01*
X39935224Y9986500D01*
X39954934Y9984949D01*
X39957141Y9984600D01*
X39974943Y9981780D01*
X40008870Y9984988D01*
X40021917Y9986220D01*
X40027850Y9986500D01*
X41097339Y9986500D01*
X41165460Y9966498D01*
X41211953Y9912842D01*
X41222649Y9873670D01*
X41233957Y9766073D01*
X41257375Y9694001D01*
X41292973Y9584444D01*
X41292976Y9584439D01*
X41388458Y9419059D01*
X41388465Y9419049D01*
X41516244Y9277136D01*
X41577499Y9232632D01*
X41670748Y9164882D01*
X41820595Y9098166D01*
X41845212Y9087206D01*
X41851615Y9085845D01*
X41914089Y9052117D01*
X41948410Y8989968D01*
X41943683Y8919129D01*
X41929634Y8891780D01*
X41923915Y8883364D01*
X41923674Y8883528D01*
X41921354Y8879996D01*
X41921600Y8879840D01*
X41917351Y8873145D01*
X41887511Y8809733D01*
X41855700Y8747299D01*
X41853016Y8739844D01*
X41852740Y8739944D01*
X41851372Y8735947D01*
X41851650Y8735856D01*
X41849201Y8728318D01*
X41836071Y8659489D01*
X41820782Y8591095D01*
X41820036Y8583200D01*
X41819743Y8583228D01*
X41819412Y8579025D01*
X41819707Y8579006D01*
X41819209Y8571094D01*
X41823609Y8501152D01*
X41825810Y8431112D01*
X41827051Y8423282D01*
X41826761Y8423237D01*
X41827487Y8419077D01*
X41827775Y8419131D01*
X41829259Y8411346D01*
X41850921Y8344680D01*
X41870466Y8277406D01*
X41873614Y8270133D01*
X41873344Y8270017D01*
X41875080Y8266172D01*
X41875346Y8266296D01*
X41878719Y8259126D01*
X41916277Y8199944D01*
X41951939Y8139641D01*
X41956800Y8133375D01*
X41956567Y8133195D01*
X41959204Y8129903D01*
X41959431Y8130090D01*
X41964482Y8123984D01*
X41964483Y8123983D01*
X41964484Y8123982D01*
X42015572Y8076008D01*
X42019236Y8072344D01*
X42029201Y8059906D01*
X42029428Y8060093D01*
X42034481Y8053985D01*
X42085565Y8006015D01*
X42106708Y7984870D01*
X42106712Y7984867D01*
X42106714Y7984865D01*
X42112266Y7980558D01*
X42116753Y7976727D01*
X42139443Y7955419D01*
X42151161Y7944415D01*
X42151163Y7944414D01*
X42168912Y7934657D01*
X42185437Y7923802D01*
X42201443Y7911386D01*
X42243170Y7893330D01*
X42244746Y7892648D01*
X42250067Y7890042D01*
X42291424Y7867305D01*
X42291432Y7867303D01*
X42311042Y7862268D01*
X42329751Y7855863D01*
X42348339Y7847819D01*
X42394961Y7840436D01*
X42400746Y7839237D01*
X42446454Y7827500D01*
X42466708Y7827500D01*
X42486418Y7825949D01*
X42488625Y7825600D01*
X42506427Y7822780D01*
X42540354Y7825988D01*
X42553401Y7827220D01*
X42559334Y7827500D01*
X43223800Y7827500D01*
X43291921Y7807498D01*
X43317437Y7785810D01*
X43320747Y7782134D01*
X43475248Y7669882D01*
X43649712Y7592206D01*
X43836513Y7552500D01*
X44027487Y7552500D01*
X44214288Y7592206D01*
X44388752Y7669882D01*
X44543253Y7782134D01*
X44584101Y7827500D01*
X44671034Y7924049D01*
X44671035Y7924051D01*
X44671040Y7924056D01*
X44766527Y8089444D01*
X44825542Y8271072D01*
X44845504Y8461000D01*
X44825542Y8650928D01*
X44766527Y8832556D01*
X44671040Y8997944D01*
X44671038Y8997946D01*
X44671034Y8997952D01*
X44543255Y9139865D01*
X44503439Y9168793D01*
X44460085Y9225016D01*
X44451500Y9270729D01*
X44451500Y10032357D01*
X44453249Y10048198D01*
X44452956Y10048225D01*
X44453701Y10056118D01*
X44453702Y10056121D01*
X44451500Y10126171D01*
X44451500Y10156068D01*
X44450619Y10163034D01*
X44450155Y10168930D01*
X44448673Y10216102D01*
X44443022Y10235549D01*
X44439012Y10254912D01*
X44438470Y10259206D01*
X44436474Y10275009D01*
X44419099Y10318892D01*
X44417179Y10324501D01*
X44404018Y10369805D01*
X44393705Y10387243D01*
X44385010Y10404990D01*
X44377552Y10423829D01*
X44349821Y10461997D01*
X44346562Y10466957D01*
X44322541Y10507577D01*
X44308218Y10521900D01*
X44295377Y10536933D01*
X44283471Y10553320D01*
X44276029Y10559477D01*
X44247108Y10583402D01*
X44242736Y10587381D01*
X42860583Y11969534D01*
X42826558Y12031845D01*
X42831623Y12102660D01*
X42840561Y12121629D01*
X42861524Y12157939D01*
X42861523Y12157939D01*
X42861527Y12157944D01*
X42920542Y12339572D01*
X42940504Y12529500D01*
X42920542Y12719428D01*
X42861527Y12901056D01*
X42766040Y13066444D01*
X42766038Y13066446D01*
X42766034Y13066452D01*
X42638255Y13208365D01*
X42638256Y13208365D01*
X42609077Y13229564D01*
X42565723Y13285787D01*
X42559648Y13356523D01*
X42592780Y13419314D01*
X42654600Y13454226D01*
X42683138Y13457500D01*
X46576600Y13457500D01*
X46644721Y13437498D01*
X46670237Y13415810D01*
X46673547Y13412134D01*
X46828048Y13299882D01*
X47002512Y13222206D01*
X47189313Y13182500D01*
X47380287Y13182500D01*
X47567088Y13222206D01*
X47741552Y13299882D01*
X47896053Y13412134D01*
X47899362Y13415810D01*
X47959809Y13453050D01*
X47993000Y13457500D01*
X51891147Y13457500D01*
X51906988Y13455751D01*
X51907016Y13456044D01*
X51914902Y13455300D01*
X51914909Y13455298D01*
X51984958Y13457500D01*
X52014856Y13457500D01*
X52021818Y13458381D01*
X52027719Y13458846D01*
X52074889Y13460327D01*
X52094347Y13465981D01*
X52113694Y13469987D01*
X52133797Y13472526D01*
X52177679Y13489901D01*
X52183274Y13491817D01*
X52211816Y13500109D01*
X52228591Y13504981D01*
X52228595Y13504983D01*
X52246026Y13515292D01*
X52263780Y13523991D01*
X52282617Y13531448D01*
X52320786Y13559182D01*
X52325744Y13562438D01*
X52366362Y13586458D01*
X52380685Y13600782D01*
X52395724Y13613626D01*
X52412107Y13625528D01*
X52442193Y13661897D01*
X52446161Y13666259D01*
X54550498Y15770595D01*
X54612811Y15804621D01*
X54639594Y15807500D01*
X54695487Y15807500D01*
X54882288Y15847206D01*
X55056752Y15924882D01*
X55211253Y16037134D01*
X55211255Y16037136D01*
X55339034Y16179049D01*
X55339035Y16179051D01*
X55339040Y16179056D01*
X55434527Y16344444D01*
X55493542Y16526072D01*
X55513504Y16716000D01*
X55493542Y16905928D01*
X55434527Y17087556D01*
X55339040Y17252944D01*
X55339038Y17252946D01*
X55339034Y17252952D01*
X55211255Y17394865D01*
X55056752Y17507118D01*
X54882288Y17584794D01*
X54695487Y17624500D01*
X54504513Y17624500D01*
X54317711Y17584794D01*
X54143247Y17507118D01*
X53988744Y17394865D01*
X53860965Y17252952D01*
X53860958Y17252942D01*
X53770221Y17095780D01*
X53765473Y17087556D01*
X53758838Y17067136D01*
X53706457Y16905928D01*
X53689092Y16740708D01*
X53662079Y16675051D01*
X53652877Y16664784D01*
X52770592Y15782499D01*
X52708280Y15748473D01*
X52637465Y15753538D01*
X52580629Y15796085D01*
X52572378Y15808593D01*
X52545040Y15855944D01*
X52545036Y15855949D01*
X52545034Y15855952D01*
X52417255Y15997865D01*
X52262752Y16110118D01*
X52088288Y16187794D01*
X51901487Y16227500D01*
X51710513Y16227500D01*
X51523711Y16187794D01*
X51349247Y16110118D01*
X51194744Y15997865D01*
X51066965Y15855952D01*
X51066958Y15855942D01*
X50989328Y15721482D01*
X50971473Y15690556D01*
X50947529Y15616865D01*
X50937521Y15586063D01*
X50897447Y15527458D01*
X50832050Y15499821D01*
X50817688Y15499000D01*
X48972679Y15499000D01*
X48904558Y15519002D01*
X48879043Y15540690D01*
X48810455Y15616865D01*
X48655952Y15729118D01*
X48481488Y15806794D01*
X48294687Y15846500D01*
X48103713Y15846500D01*
X47916911Y15806794D01*
X47742447Y15729118D01*
X47587944Y15616865D01*
X47519357Y15540690D01*
X47458911Y15503450D01*
X47425721Y15499000D01*
X40001094Y15499000D01*
X39932973Y15519002D01*
X39911999Y15535905D01*
X39260110Y16187794D01*
X38597244Y16850661D01*
X38587279Y16863099D01*
X38587052Y16862910D01*
X38582001Y16869016D01*
X38582000Y16869018D01*
X38530920Y16916985D01*
X38509777Y16938129D01*
X38509772Y16938134D01*
X38504225Y16942437D01*
X38499717Y16946288D01*
X38465325Y16978583D01*
X38465319Y16978587D01*
X38447563Y16988349D01*
X38431047Y16999198D01*
X38415041Y17011614D01*
X38384289Y17024922D01*
X38371740Y17030352D01*
X38366408Y17032964D01*
X38325061Y17055695D01*
X38305436Y17060734D01*
X38286736Y17067136D01*
X38275752Y17071889D01*
X38268145Y17075181D01*
X38268143Y17075182D01*
X38268142Y17075182D01*
X38221542Y17082563D01*
X38215729Y17083767D01*
X38170030Y17095500D01*
X38149776Y17095500D01*
X38130066Y17097051D01*
X38110057Y17100220D01*
X38110056Y17100220D01*
X38063083Y17095780D01*
X38057150Y17095500D01*
X37274200Y17095500D01*
X37206079Y17115502D01*
X37180563Y17137190D01*
X37177252Y17140867D01*
X37022752Y17253118D01*
X36848288Y17330794D01*
X36661487Y17370500D01*
X36605595Y17370500D01*
X36537474Y17390502D01*
X36516500Y17407405D01*
X36514444Y17409461D01*
X36504480Y17421898D01*
X36504253Y17421710D01*
X36499200Y17427818D01*
X36448120Y17475785D01*
X36426977Y17496929D01*
X36426972Y17496934D01*
X36421425Y17501237D01*
X36416917Y17505088D01*
X36382525Y17537383D01*
X36382519Y17537387D01*
X36364763Y17547149D01*
X36348247Y17557998D01*
X36332241Y17570414D01*
X36295188Y17586448D01*
X36288940Y17589152D01*
X36283608Y17591764D01*
X36242261Y17614495D01*
X36222636Y17619534D01*
X36203936Y17625936D01*
X36203432Y17626154D01*
X36185345Y17633981D01*
X36185343Y17633982D01*
X36185342Y17633982D01*
X36138742Y17641363D01*
X36132929Y17642567D01*
X36087230Y17654300D01*
X36066976Y17654300D01*
X36047266Y17655851D01*
X36027257Y17659020D01*
X36027256Y17659020D01*
X35980283Y17654580D01*
X35974350Y17654300D01*
X27419000Y17654300D01*
X27350879Y17674302D01*
X27325363Y17695990D01*
X27322052Y17699667D01*
X27167552Y17811918D01*
X26993088Y17889594D01*
X26806287Y17929300D01*
X26615313Y17929300D01*
X26428511Y17889594D01*
X26254047Y17811918D01*
X26099544Y17699665D01*
X25971765Y17557752D01*
X25971758Y17557742D01*
X25876276Y17392362D01*
X25876269Y17392346D01*
X25874395Y17386580D01*
X25834316Y17327978D01*
X25768916Y17300348D01*
X25698961Y17312461D01*
X25665471Y17336433D01*
X23451499Y19550405D01*
X23417473Y19612717D01*
X23422538Y19683532D01*
X23465085Y19740368D01*
X23531605Y19765179D01*
X23540594Y19765500D01*
X32301800Y19765500D01*
X32369921Y19745498D01*
X32395437Y19723810D01*
X32398747Y19720134D01*
X32553248Y19607882D01*
X32727712Y19530206D01*
X32914513Y19490500D01*
X33105487Y19490500D01*
X33292288Y19530206D01*
X33466752Y19607882D01*
X33621253Y19720134D01*
X33662101Y19765500D01*
X33749034Y19862049D01*
X33749035Y19862051D01*
X33749040Y19862056D01*
X33844527Y20027444D01*
X33903542Y20209072D01*
X33923504Y20399000D01*
X33903542Y20588928D01*
X33844527Y20770556D01*
X33749040Y20935944D01*
X33749038Y20935946D01*
X33749034Y20935952D01*
X33621255Y21077865D01*
X33466752Y21190118D01*
X33292288Y21267794D01*
X33105487Y21307500D01*
X32914513Y21307500D01*
X32727711Y21267794D01*
X32553247Y21190118D01*
X32398747Y21077867D01*
X32395437Y21074190D01*
X32334991Y21036950D01*
X32301800Y21032500D01*
X23037595Y21032500D01*
X22969474Y21052502D01*
X22948500Y21069405D01*
X22171501Y21846404D01*
X22137475Y21908716D01*
X22142540Y21979531D01*
X22185087Y22036367D01*
X22186535Y22037435D01*
X22221591Y22062905D01*
X22318253Y22133134D01*
X22321562Y22136810D01*
X22382009Y22174050D01*
X22415200Y22178500D01*
X32301800Y22178500D01*
X32369921Y22158498D01*
X32395437Y22136810D01*
X32398747Y22133134D01*
X32553248Y22020882D01*
X32727712Y21943206D01*
X32914513Y21903500D01*
X33105487Y21903500D01*
X33292288Y21943206D01*
X33466752Y22020882D01*
X33621253Y22133134D01*
X33749040Y22275056D01*
X33844527Y22440444D01*
X33903542Y22622072D01*
X33923504Y22812000D01*
X33903542Y23001928D01*
X33844527Y23183556D01*
X33749040Y23348944D01*
X33749038Y23348946D01*
X33749034Y23348952D01*
X33621255Y23490865D01*
X33466752Y23603118D01*
X33292288Y23680794D01*
X33105487Y23720500D01*
X32914513Y23720500D01*
X32727711Y23680794D01*
X32553247Y23603118D01*
X32398747Y23490867D01*
X32395437Y23487190D01*
X32334991Y23449950D01*
X32301800Y23445500D01*
X22415200Y23445500D01*
X22347079Y23465502D01*
X22321563Y23487190D01*
X22318252Y23490867D01*
X22163752Y23603118D01*
X21989288Y23680794D01*
X21802487Y23720500D01*
X21611513Y23720500D01*
X21424711Y23680794D01*
X21250247Y23603118D01*
X21095744Y23490865D01*
X20967965Y23348952D01*
X20967958Y23348942D01*
X20940620Y23301591D01*
X20889237Y23252599D01*
X20819523Y23239164D01*
X20753613Y23265551D01*
X20742407Y23275498D01*
X15175906Y28842000D01*
X21734496Y28842000D01*
X21754457Y28652073D01*
X21774278Y28591073D01*
X21813473Y28470444D01*
X21841841Y28421309D01*
X21908958Y28305059D01*
X21908965Y28305049D01*
X22036744Y28163136D01*
X22036747Y28163134D01*
X22191248Y28050882D01*
X22365712Y27973206D01*
X22552513Y27933500D01*
X22743487Y27933500D01*
X22930288Y27973206D01*
X23104752Y28050882D01*
X23259253Y28163134D01*
X23332109Y28244049D01*
X23387034Y28305049D01*
X23387035Y28305051D01*
X23387040Y28305056D01*
X23482527Y28470444D01*
X23541542Y28652072D01*
X23561504Y28842000D01*
X36974496Y28842000D01*
X36994457Y28652073D01*
X37014278Y28591073D01*
X37053473Y28470444D01*
X37081841Y28421309D01*
X37148958Y28305059D01*
X37148965Y28305049D01*
X37276744Y28163136D01*
X37276747Y28163134D01*
X37431248Y28050882D01*
X37605712Y27973206D01*
X37792513Y27933500D01*
X37983487Y27933500D01*
X38170288Y27973206D01*
X38344752Y28050882D01*
X38499253Y28163134D01*
X38572109Y28244049D01*
X38627034Y28305049D01*
X38627035Y28305051D01*
X38627040Y28305056D01*
X38722527Y28470444D01*
X38781542Y28652072D01*
X38795093Y28781000D01*
X47041496Y28781000D01*
X47061457Y28591073D01*
X47071940Y28558812D01*
X47120473Y28409444D01*
X47120476Y28409439D01*
X47215958Y28244059D01*
X47215965Y28244049D01*
X47343744Y28102136D01*
X47343747Y28102134D01*
X47498248Y27989882D01*
X47672712Y27912206D01*
X47859513Y27872500D01*
X48050487Y27872500D01*
X48237288Y27912206D01*
X48411752Y27989882D01*
X48423524Y27998436D01*
X48490391Y28022294D01*
X48497587Y28022500D01*
X58121413Y28022500D01*
X58189534Y28002498D01*
X58195471Y27998438D01*
X58207248Y27989882D01*
X58381712Y27912206D01*
X58568513Y27872500D01*
X58759487Y27872500D01*
X58946288Y27912206D01*
X59120752Y27989882D01*
X59275253Y28102134D01*
X59330178Y28163134D01*
X59403034Y28244049D01*
X59403035Y28244051D01*
X59403040Y28244056D01*
X59498527Y28409444D01*
X59557542Y28591072D01*
X59577504Y28781000D01*
X59557542Y28970928D01*
X59498527Y29152556D01*
X59403040Y29317944D01*
X59403038Y29317946D01*
X59403034Y29317952D01*
X59275255Y29459865D01*
X59120752Y29572118D01*
X58946288Y29649794D01*
X58759487Y29689500D01*
X58568513Y29689500D01*
X58381711Y29649794D01*
X58207245Y29572117D01*
X58195476Y29563565D01*
X58128609Y29539706D01*
X58121413Y29539500D01*
X48497587Y29539500D01*
X48429466Y29559502D01*
X48423524Y29563565D01*
X48411754Y29572117D01*
X48237288Y29649794D01*
X48050487Y29689500D01*
X47859513Y29689500D01*
X47672711Y29649794D01*
X47498247Y29572118D01*
X47343744Y29459865D01*
X47215965Y29317952D01*
X47215958Y29317942D01*
X47120476Y29152562D01*
X47120473Y29152555D01*
X47061457Y28970928D01*
X47041496Y28781000D01*
X38795093Y28781000D01*
X38801504Y28842000D01*
X38781542Y29031928D01*
X38722527Y29213556D01*
X38663381Y29316001D01*
X38646500Y29379001D01*
X38646500Y30845001D01*
X38663380Y30908000D01*
X38722527Y31010444D01*
X38781542Y31192072D01*
X38801504Y31382000D01*
X38794567Y31448001D01*
X47041496Y31448001D01*
X47061457Y31258073D01*
X47082903Y31192072D01*
X47120473Y31076444D01*
X47120476Y31076439D01*
X47215958Y30911059D01*
X47215965Y30911049D01*
X47343744Y30769136D01*
X47343747Y30769134D01*
X47498248Y30656882D01*
X47672712Y30579206D01*
X47859513Y30539500D01*
X48050487Y30539500D01*
X48237288Y30579206D01*
X48411752Y30656882D01*
X48423524Y30665436D01*
X48490391Y30689294D01*
X48497587Y30689500D01*
X56597413Y30689500D01*
X56665534Y30669498D01*
X56671471Y30665438D01*
X56683248Y30656882D01*
X56857712Y30579206D01*
X57044513Y30539500D01*
X57235487Y30539500D01*
X57422288Y30579206D01*
X57596752Y30656882D01*
X57751253Y30769134D01*
X57816132Y30841189D01*
X57879034Y30911049D01*
X57879035Y30911051D01*
X57879040Y30911056D01*
X57974527Y31076444D01*
X58033542Y31258072D01*
X58053504Y31448000D01*
X58033542Y31637928D01*
X57974527Y31819556D01*
X57879040Y31984944D01*
X57879038Y31984946D01*
X57879034Y31984952D01*
X57751255Y32126865D01*
X57596752Y32239118D01*
X57422288Y32316794D01*
X57235487Y32356500D01*
X57044513Y32356500D01*
X56857711Y32316794D01*
X56683245Y32239117D01*
X56671476Y32230565D01*
X56604609Y32206706D01*
X56597413Y32206500D01*
X48497587Y32206500D01*
X48429466Y32226502D01*
X48423524Y32230565D01*
X48411754Y32239117D01*
X48237288Y32316794D01*
X48050487Y32356500D01*
X47859513Y32356500D01*
X47672711Y32316794D01*
X47498247Y32239118D01*
X47343744Y32126865D01*
X47215965Y31984952D01*
X47215958Y31984942D01*
X47120476Y31819562D01*
X47120473Y31819555D01*
X47061457Y31637928D01*
X47041496Y31448001D01*
X38794567Y31448001D01*
X38781542Y31571928D01*
X38722527Y31753556D01*
X38663381Y31856001D01*
X38646500Y31919001D01*
X38646500Y33385001D01*
X38663380Y33448000D01*
X38722527Y33550444D01*
X38781542Y33732072D01*
X38801504Y33922000D01*
X47021496Y33922000D01*
X47041457Y33732073D01*
X47071526Y33639530D01*
X47100473Y33550444D01*
X47100476Y33550439D01*
X47195958Y33385059D01*
X47195965Y33385049D01*
X47323744Y33243136D01*
X47324061Y33242906D01*
X47478248Y33130882D01*
X47652712Y33053206D01*
X47839513Y33013500D01*
X48030487Y33013500D01*
X48217288Y33053206D01*
X48391752Y33130882D01*
X48403524Y33139436D01*
X48470391Y33163294D01*
X48477587Y33163500D01*
X55334443Y33163500D01*
X55385692Y33152607D01*
X55460712Y33119206D01*
X55647513Y33079500D01*
X55838487Y33079500D01*
X56025288Y33119206D01*
X56199752Y33196882D01*
X56354253Y33309134D01*
X56354255Y33309136D01*
X56482034Y33451049D01*
X56482035Y33451051D01*
X56482040Y33451056D01*
X56577527Y33616444D01*
X56636542Y33798072D01*
X56656504Y33988000D01*
X56636542Y34177928D01*
X56577527Y34359556D01*
X56482040Y34524944D01*
X56482038Y34524946D01*
X56482034Y34524952D01*
X56354255Y34666865D01*
X56199752Y34779118D01*
X56025288Y34856794D01*
X55838487Y34896500D01*
X55647513Y34896500D01*
X55460711Y34856794D01*
X55286247Y34779118D01*
X55183634Y34704564D01*
X55116766Y34680706D01*
X55109573Y34680500D01*
X48477587Y34680500D01*
X48409466Y34700502D01*
X48403528Y34704563D01*
X48394110Y34711405D01*
X48391754Y34713117D01*
X48217288Y34790794D01*
X48030487Y34830500D01*
X47839513Y34830500D01*
X47652711Y34790794D01*
X47478247Y34713118D01*
X47323744Y34600865D01*
X47195965Y34458952D01*
X47195958Y34458942D01*
X47125777Y34337384D01*
X47100473Y34293556D01*
X47086800Y34251475D01*
X47041457Y34111928D01*
X47021496Y33922000D01*
X38801504Y33922000D01*
X38781542Y34111928D01*
X38722527Y34293556D01*
X38684419Y34359562D01*
X38663381Y34396001D01*
X38646500Y34459001D01*
X38646500Y35925001D01*
X38663380Y35988000D01*
X38722527Y36090444D01*
X38781542Y36272072D01*
X38801504Y36462000D01*
X38794567Y36528000D01*
X47041496Y36528000D01*
X47061457Y36338073D01*
X47082903Y36272072D01*
X47120473Y36156444D01*
X47120476Y36156439D01*
X47215958Y35991059D01*
X47215965Y35991049D01*
X47343744Y35849136D01*
X47343747Y35849134D01*
X47498248Y35736882D01*
X47672712Y35659206D01*
X47859513Y35619500D01*
X48050487Y35619500D01*
X48237288Y35659206D01*
X48411752Y35736882D01*
X48423524Y35745436D01*
X48490391Y35769294D01*
X48497587Y35769500D01*
X52611413Y35769500D01*
X52679534Y35749498D01*
X52685471Y35745438D01*
X52697248Y35736882D01*
X52871712Y35659206D01*
X53058513Y35619500D01*
X53249487Y35619500D01*
X53436288Y35659206D01*
X53610752Y35736882D01*
X53765253Y35849134D01*
X53830132Y35921189D01*
X53893034Y35991049D01*
X53893035Y35991051D01*
X53893040Y35991056D01*
X53988527Y36156444D01*
X54047542Y36338072D01*
X54067504Y36528000D01*
X54047542Y36717928D01*
X53988527Y36899556D01*
X53893040Y37064944D01*
X53893038Y37064946D01*
X53893034Y37064952D01*
X53765255Y37206865D01*
X53610752Y37319118D01*
X53436288Y37396794D01*
X53249487Y37436500D01*
X53058513Y37436500D01*
X52871711Y37396794D01*
X52697245Y37319117D01*
X52685476Y37310565D01*
X52618609Y37286706D01*
X52611413Y37286500D01*
X48497587Y37286500D01*
X48429466Y37306502D01*
X48423524Y37310565D01*
X48411754Y37319117D01*
X48237288Y37396794D01*
X48050487Y37436500D01*
X47859513Y37436500D01*
X47672711Y37396794D01*
X47498247Y37319118D01*
X47343744Y37206865D01*
X47215965Y37064952D01*
X47215958Y37064942D01*
X47120476Y36899562D01*
X47120473Y36899555D01*
X47061457Y36717928D01*
X47041496Y36528000D01*
X38794567Y36528000D01*
X38781542Y36651928D01*
X38722527Y36833556D01*
X38684419Y36899562D01*
X38663381Y36936001D01*
X38646500Y36999001D01*
X38646500Y38465001D01*
X38663380Y38528000D01*
X38722527Y38630444D01*
X38781542Y38812072D01*
X38801504Y39002000D01*
X38794567Y39068001D01*
X47041496Y39068001D01*
X47061457Y38878073D01*
X47082903Y38812072D01*
X47120473Y38696444D01*
X47120476Y38696439D01*
X47215958Y38531059D01*
X47215965Y38531049D01*
X47343744Y38389136D01*
X47343747Y38389134D01*
X47498248Y38276882D01*
X47672712Y38199206D01*
X47859513Y38159500D01*
X48050487Y38159500D01*
X48237288Y38199206D01*
X48411752Y38276882D01*
X48423524Y38285436D01*
X48490391Y38309294D01*
X48497587Y38309500D01*
X50011413Y38309500D01*
X50079534Y38289498D01*
X50085471Y38285438D01*
X50097248Y38276882D01*
X50271712Y38199206D01*
X50458513Y38159500D01*
X50649487Y38159500D01*
X50836288Y38199206D01*
X51010752Y38276882D01*
X51165253Y38389134D01*
X51230132Y38461189D01*
X51293034Y38531049D01*
X51293035Y38531051D01*
X51293040Y38531056D01*
X51388527Y38696444D01*
X51447542Y38878072D01*
X51467504Y39068000D01*
X51447542Y39257928D01*
X51388527Y39439556D01*
X51293040Y39604944D01*
X51293038Y39604946D01*
X51293034Y39604952D01*
X51165255Y39746865D01*
X51010752Y39859118D01*
X50836288Y39936794D01*
X50649487Y39976500D01*
X50458513Y39976500D01*
X50271711Y39936794D01*
X50097245Y39859117D01*
X50085476Y39850565D01*
X50018609Y39826706D01*
X50011413Y39826500D01*
X48497587Y39826500D01*
X48429466Y39846502D01*
X48423524Y39850565D01*
X48411754Y39859117D01*
X48237288Y39936794D01*
X48050487Y39976500D01*
X47859513Y39976500D01*
X47672711Y39936794D01*
X47498247Y39859118D01*
X47343744Y39746865D01*
X47215965Y39604952D01*
X47215958Y39604942D01*
X47120476Y39439562D01*
X47120473Y39439556D01*
X47110282Y39408192D01*
X47061457Y39257928D01*
X47041496Y39068001D01*
X38794567Y39068001D01*
X38781542Y39191928D01*
X38722527Y39373556D01*
X38684419Y39439562D01*
X38663381Y39476001D01*
X38646500Y39539001D01*
X38646500Y41005001D01*
X38663380Y41068000D01*
X38722527Y41170444D01*
X38781542Y41352072D01*
X38801504Y41542000D01*
X38781542Y41731928D01*
X38722527Y41913556D01*
X38627040Y42078944D01*
X38627038Y42078946D01*
X38627034Y42078952D01*
X38499255Y42220865D01*
X38344752Y42333118D01*
X38170288Y42410794D01*
X37983487Y42450500D01*
X37792513Y42450500D01*
X37605711Y42410794D01*
X37431247Y42333118D01*
X37276744Y42220865D01*
X37148965Y42078952D01*
X37148958Y42078942D01*
X37078777Y41957384D01*
X37053473Y41913556D01*
X37038999Y41869014D01*
X36994457Y41731928D01*
X36974496Y41542000D01*
X36994457Y41352073D01*
X37030608Y41240814D01*
X37053473Y41170444D01*
X37112619Y41068000D01*
X37129500Y41005001D01*
X37129500Y39539001D01*
X37112619Y39476001D01*
X37053476Y39373562D01*
X37053473Y39373556D01*
X37049628Y39361723D01*
X36994457Y39191928D01*
X36974496Y39002001D01*
X36994457Y38812073D01*
X37025836Y38715502D01*
X37053473Y38630444D01*
X37112619Y38528000D01*
X37129500Y38465001D01*
X37129500Y36999001D01*
X37112619Y36936001D01*
X37091581Y36899562D01*
X37053473Y36833556D01*
X37038999Y36789014D01*
X36994457Y36651928D01*
X36974496Y36462000D01*
X36994457Y36272073D01*
X37030608Y36160814D01*
X37053473Y36090444D01*
X37112619Y35988000D01*
X37129500Y35925001D01*
X37129500Y34459001D01*
X37112619Y34396001D01*
X37091581Y34359562D01*
X37053473Y34293556D01*
X37039800Y34251475D01*
X36994457Y34111928D01*
X36974496Y33922001D01*
X36994457Y33732073D01*
X37030608Y33620814D01*
X37053473Y33550444D01*
X37112619Y33448000D01*
X37129500Y33385001D01*
X37129500Y31919001D01*
X37112619Y31856001D01*
X37053473Y31753556D01*
X37038999Y31709014D01*
X36994457Y31571928D01*
X36974496Y31382000D01*
X36994457Y31192073D01*
X37030608Y31080816D01*
X37053473Y31010444D01*
X37112619Y30908000D01*
X37129500Y30845001D01*
X37129500Y29379001D01*
X37112619Y29316001D01*
X37078777Y29257384D01*
X37053473Y29213556D01*
X37038999Y29169014D01*
X36994457Y29031928D01*
X36974496Y28842000D01*
X23561504Y28842000D01*
X23541542Y29031928D01*
X23482527Y29213556D01*
X23423381Y29316001D01*
X23406500Y29379001D01*
X23406500Y30845001D01*
X23423380Y30908000D01*
X23482527Y31010444D01*
X23541542Y31192072D01*
X23561504Y31382000D01*
X23541542Y31571928D01*
X23482527Y31753556D01*
X23423381Y31856001D01*
X23406500Y31919001D01*
X23406500Y33385001D01*
X23423380Y33448000D01*
X23482527Y33550444D01*
X23541542Y33732072D01*
X23561504Y33922000D01*
X23541542Y34111928D01*
X23482527Y34293556D01*
X23444419Y34359562D01*
X23423381Y34396001D01*
X23406500Y34459001D01*
X23406500Y35925001D01*
X23423380Y35988000D01*
X23482527Y36090444D01*
X23541542Y36272072D01*
X23561504Y36462000D01*
X23541542Y36651928D01*
X23482527Y36833556D01*
X23444419Y36899562D01*
X23423381Y36936001D01*
X23406500Y36999001D01*
X23406500Y38465001D01*
X23423380Y38528000D01*
X23482527Y38630444D01*
X23541542Y38812072D01*
X23561504Y39002000D01*
X23541542Y39191928D01*
X23482527Y39373556D01*
X23444419Y39439562D01*
X23423381Y39476001D01*
X23406500Y39539001D01*
X23406500Y41005001D01*
X23423380Y41068000D01*
X23482527Y41170444D01*
X23541542Y41352072D01*
X23561504Y41542000D01*
X23541542Y41731928D01*
X23482527Y41913556D01*
X23387040Y42078944D01*
X23387038Y42078946D01*
X23387034Y42078952D01*
X23259255Y42220865D01*
X23104752Y42333118D01*
X22930288Y42410794D01*
X22743487Y42450500D01*
X22552513Y42450500D01*
X22365711Y42410794D01*
X22191247Y42333118D01*
X22036744Y42220865D01*
X21908965Y42078952D01*
X21908958Y42078942D01*
X21838777Y41957384D01*
X21813473Y41913556D01*
X21798999Y41869014D01*
X21754457Y41731928D01*
X21734496Y41542001D01*
X21754457Y41352073D01*
X21790608Y41240814D01*
X21813473Y41170444D01*
X21872619Y41068000D01*
X21889500Y41005001D01*
X21889500Y39539001D01*
X21872619Y39476001D01*
X21813476Y39373562D01*
X21813473Y39373556D01*
X21809628Y39361723D01*
X21754457Y39191928D01*
X21734496Y39002000D01*
X21754457Y38812073D01*
X21785836Y38715502D01*
X21813473Y38630444D01*
X21872619Y38528000D01*
X21889500Y38465001D01*
X21889500Y36999001D01*
X21872619Y36936001D01*
X21851581Y36899562D01*
X21813473Y36833556D01*
X21798999Y36789014D01*
X21754457Y36651928D01*
X21734496Y36462001D01*
X21754457Y36272073D01*
X21790608Y36160814D01*
X21813473Y36090444D01*
X21872619Y35988000D01*
X21889500Y35925001D01*
X21889500Y34459001D01*
X21872619Y34396001D01*
X21851581Y34359562D01*
X21813473Y34293556D01*
X21799800Y34251475D01*
X21754457Y34111928D01*
X21734496Y33922001D01*
X21754457Y33732073D01*
X21790608Y33620814D01*
X21813473Y33550444D01*
X21872619Y33448000D01*
X21889500Y33385001D01*
X21889500Y31919001D01*
X21872619Y31856001D01*
X21813473Y31753556D01*
X21798999Y31709014D01*
X21754457Y31571928D01*
X21734496Y31382000D01*
X21754457Y31192073D01*
X21790608Y31080816D01*
X21813473Y31010444D01*
X21872619Y30908000D01*
X21889500Y30845001D01*
X21889500Y29379001D01*
X21872619Y29316001D01*
X21838777Y29257384D01*
X21813473Y29213556D01*
X21798999Y29169014D01*
X21754457Y29031928D01*
X21734496Y28842000D01*
X15175906Y28842000D01*
X10693405Y33324501D01*
X10659379Y33386813D01*
X10656500Y33413596D01*
X10656500Y38857145D01*
X10658249Y38872986D01*
X10657956Y38873013D01*
X10658701Y38880906D01*
X10658702Y38880909D01*
X10656500Y38950958D01*
X10656500Y38980856D01*
X10655619Y38987822D01*
X10655155Y38993718D01*
X10653673Y39040889D01*
X10648022Y39060336D01*
X10644012Y39079700D01*
X10641474Y39099797D01*
X10624097Y39143686D01*
X10622183Y39149277D01*
X10609018Y39194593D01*
X10599857Y39210083D01*
X10598706Y39212030D01*
X10590010Y39229779D01*
X10582552Y39248617D01*
X10554812Y39286797D01*
X10551564Y39291742D01*
X10527542Y39332362D01*
X10513214Y39346690D01*
X10500384Y39361711D01*
X10488472Y39378107D01*
X10488469Y39378109D01*
X10488469Y39378110D01*
X10452107Y39408192D01*
X10447726Y39412178D01*
X7518405Y42341500D01*
X7484379Y42403812D01*
X7481500Y42430595D01*
X7481500Y43683147D01*
X7483249Y43698989D01*
X7482956Y43699016D01*
X7483702Y43706909D01*
X7481500Y43776972D01*
X7481500Y43806850D01*
X7481500Y43806856D01*
X7480620Y43813818D01*
X7480156Y43819707D01*
X7478674Y43866889D01*
X7473017Y43886358D01*
X7469012Y43905702D01*
X7466474Y43925797D01*
X7449100Y43969678D01*
X7447181Y43975284D01*
X7434018Y44020593D01*
X7423706Y44038030D01*
X7415010Y44055779D01*
X7407552Y44074617D01*
X7379812Y44112797D01*
X7376564Y44117742D01*
X7352542Y44158362D01*
X7338214Y44172690D01*
X7325384Y44187711D01*
X7313472Y44204107D01*
X7313469Y44204109D01*
X7313469Y44204110D01*
X7277113Y44234187D01*
X7272721Y44238183D01*
X6502404Y45008501D01*
X6468378Y45070813D01*
X6465499Y45097587D01*
X6465499Y47130001D01*
X37004496Y47130001D01*
X37024457Y46940073D01*
X37048006Y46867598D01*
X37083473Y46758444D01*
X37083476Y46758439D01*
X37178958Y46593059D01*
X37178965Y46593049D01*
X37306744Y46451136D01*
X37325796Y46437294D01*
X37461248Y46338882D01*
X37635712Y46261206D01*
X37822513Y46221500D01*
X38013487Y46221500D01*
X38200288Y46261206D01*
X38374752Y46338882D01*
X38529253Y46451134D01*
X38533636Y46456002D01*
X38657034Y46593049D01*
X38657035Y46593051D01*
X38657040Y46593056D01*
X38752527Y46758444D01*
X38811542Y46940072D01*
X38831504Y47130000D01*
X38811542Y47319928D01*
X38752527Y47501556D01*
X38693381Y47604001D01*
X38676500Y47667001D01*
X38676500Y49133001D01*
X38693380Y49196000D01*
X38752527Y49298444D01*
X38811542Y49480072D01*
X38831504Y49670000D01*
X38811542Y49859928D01*
X38752527Y50041556D01*
X38693381Y50144001D01*
X38676500Y50207001D01*
X38676500Y51673001D01*
X38693380Y51736000D01*
X38752527Y51838444D01*
X38811542Y52020072D01*
X38831504Y52210000D01*
X38811542Y52399928D01*
X38752527Y52581556D01*
X38693381Y52684001D01*
X38676500Y52747001D01*
X38676500Y54213001D01*
X38693380Y54276000D01*
X38752527Y54378444D01*
X38811542Y54560072D01*
X38831504Y54750000D01*
X38811542Y54939928D01*
X38752527Y55121556D01*
X38720172Y55177596D01*
X38693381Y55224001D01*
X38676500Y55287001D01*
X38676500Y56753001D01*
X38693380Y56816000D01*
X38752527Y56918444D01*
X38811542Y57100072D01*
X38831504Y57290000D01*
X38811542Y57479928D01*
X38752527Y57661556D01*
X38693381Y57764001D01*
X38676500Y57827001D01*
X38676500Y59293001D01*
X38693380Y59356000D01*
X38752527Y59458444D01*
X38811542Y59640072D01*
X38831504Y59830000D01*
X38811542Y60019928D01*
X38752527Y60201556D01*
X38657040Y60366944D01*
X38657038Y60366946D01*
X38657034Y60366952D01*
X38570340Y60463235D01*
X58714788Y60463235D01*
X58744412Y60193986D01*
X58812928Y59931910D01*
X58918869Y59682611D01*
X58963922Y59608789D01*
X59059982Y59451390D01*
X59233255Y59243180D01*
X59434998Y59062418D01*
X59660910Y58912956D01*
X59906176Y58797980D01*
X60165569Y58719940D01*
X60165572Y58719940D01*
X60165574Y58719939D01*
X60433557Y58680500D01*
X60433561Y58680500D01*
X60636633Y58680500D01*
X60671363Y58683043D01*
X60839156Y58695323D01*
X60839160Y58695324D01*
X60839161Y58695324D01*
X60949665Y58719940D01*
X61103553Y58754220D01*
X61356558Y58850986D01*
X61592777Y58983559D01*
X61807177Y59149112D01*
X61995186Y59344119D01*
X62152799Y59564421D01*
X62191695Y59640073D01*
X62276656Y59805325D01*
X62276657Y59805328D01*
X62364116Y60061690D01*
X62364118Y60061695D01*
X62413319Y60328067D01*
X62423212Y60598765D01*
X62407837Y60738500D01*
X62393587Y60868015D01*
X62325071Y61130091D01*
X62219130Y61379390D01*
X62078018Y61610610D01*
X61904745Y61818820D01*
X61904741Y61818823D01*
X61904740Y61818825D01*
X61703012Y61999573D01*
X61703002Y61999582D01*
X61477090Y62149044D01*
X61231824Y62264020D01*
X61046500Y62319776D01*
X60972425Y62342062D01*
X60704442Y62381500D01*
X60704439Y62381500D01*
X60501369Y62381500D01*
X60501367Y62381500D01*
X60298839Y62366677D01*
X60298838Y62366677D01*
X60034456Y62307783D01*
X60034441Y62307778D01*
X59781441Y62211014D01*
X59545229Y62078445D01*
X59545225Y62078443D01*
X59330818Y61912884D01*
X59142815Y61717883D01*
X59142810Y61717877D01*
X58985203Y61497583D01*
X58985196Y61497573D01*
X58861343Y61256676D01*
X58861342Y61256673D01*
X58773883Y61000311D01*
X58773880Y61000298D01*
X58724681Y60733942D01*
X58724680Y60733931D01*
X58714788Y60463235D01*
X38570340Y60463235D01*
X38529255Y60508865D01*
X38374752Y60621118D01*
X38200288Y60698794D01*
X38013487Y60738500D01*
X37822513Y60738500D01*
X37635711Y60698794D01*
X37461247Y60621118D01*
X37306744Y60508865D01*
X37178965Y60366952D01*
X37178958Y60366942D01*
X37083476Y60201562D01*
X37083473Y60201556D01*
X37081012Y60193982D01*
X37024457Y60019928D01*
X37004496Y59830000D01*
X37024457Y59640073D01*
X37063317Y59520476D01*
X37083473Y59458444D01*
X37142619Y59356000D01*
X37159500Y59293001D01*
X37159500Y57827001D01*
X37142619Y57764001D01*
X37083476Y57661562D01*
X37083473Y57661555D01*
X37024457Y57479928D01*
X37004496Y57290000D01*
X37024457Y57100073D01*
X37063317Y56980476D01*
X37083473Y56918444D01*
X37142619Y56816000D01*
X37159500Y56753001D01*
X37159500Y55287001D01*
X37142619Y55224001D01*
X37083476Y55121562D01*
X37083473Y55121555D01*
X37024457Y54939928D01*
X37004496Y54750000D01*
X37024457Y54560073D01*
X37063317Y54440476D01*
X37083473Y54378444D01*
X37142619Y54276000D01*
X37159500Y54213001D01*
X37159500Y52747001D01*
X37142619Y52684001D01*
X37083476Y52581562D01*
X37083473Y52581555D01*
X37024457Y52399928D01*
X37004496Y52210000D01*
X37024457Y52020073D01*
X37055636Y51924117D01*
X37083473Y51838444D01*
X37142619Y51736000D01*
X37159500Y51673001D01*
X37159500Y50207001D01*
X37142619Y50144001D01*
X37083476Y50041562D01*
X37083473Y50041555D01*
X37024457Y49859928D01*
X37004496Y49670000D01*
X37024457Y49480073D01*
X37059830Y49371209D01*
X37083473Y49298444D01*
X37142619Y49196000D01*
X37159500Y49133001D01*
X37159500Y47667001D01*
X37142619Y47604001D01*
X37083476Y47501562D01*
X37083473Y47501555D01*
X37024457Y47319928D01*
X37004496Y47130001D01*
X6465499Y47130001D01*
X6465499Y47596555D01*
X6467249Y47612400D01*
X6466955Y47612427D01*
X6467700Y47620314D01*
X6467702Y47620321D01*
X6465500Y47690371D01*
X6465500Y47720268D01*
X6464619Y47727234D01*
X6464155Y47733130D01*
X6462673Y47780302D01*
X6457022Y47799749D01*
X6453012Y47819112D01*
X6450474Y47839209D01*
X6433099Y47883092D01*
X6431179Y47888701D01*
X6418018Y47934005D01*
X6407705Y47951443D01*
X6399010Y47969190D01*
X6391552Y47988029D01*
X6363821Y48026197D01*
X6360562Y48031157D01*
X6357421Y48036468D01*
X6343512Y48059989D01*
X6336541Y48071777D01*
X6322218Y48086100D01*
X6309377Y48101133D01*
X6297471Y48117520D01*
X6288143Y48125237D01*
X6261108Y48147602D01*
X6256736Y48151581D01*
X5626485Y48781832D01*
X5592459Y48844144D01*
X5597524Y48914959D01*
X5597893Y48915766D01*
X5600887Y48923794D01*
X5600889Y48923796D01*
X5651989Y49060799D01*
X5653624Y49076002D01*
X5658499Y49121351D01*
X5658500Y49121368D01*
X5658500Y50918633D01*
X5658499Y50918650D01*
X5651990Y50979197D01*
X5651988Y50979205D01*
X5600889Y51116203D01*
X5600887Y51116208D01*
X5513261Y51233262D01*
X5396207Y51320888D01*
X5396202Y51320890D01*
X5259204Y51371989D01*
X5259196Y51371991D01*
X5198649Y51378500D01*
X5198638Y51378500D01*
X3401362Y51378500D01*
X3401350Y51378500D01*
X3340803Y51371991D01*
X3340795Y51371989D01*
X3203797Y51320890D01*
X3203792Y51320888D01*
X3086738Y51233262D01*
X2999112Y51116208D01*
X2999111Y51116205D01*
X2955000Y50997942D01*
X2912453Y50941107D01*
X2845932Y50916297D01*
X2776558Y50931389D01*
X2744246Y50956637D01*
X2683240Y51022906D01*
X2683239Y51022907D01*
X2683237Y51022909D01*
X2563372Y51116204D01*
X2505576Y51161189D01*
X2307574Y51268342D01*
X2307572Y51268343D01*
X2307571Y51268344D01*
X2094639Y51341443D01*
X2094630Y51341445D01*
X2050476Y51348813D01*
X1872569Y51378500D01*
X1647431Y51378500D01*
X1499210Y51353767D01*
X1425369Y51341445D01*
X1425360Y51341443D01*
X1212428Y51268344D01*
X1212426Y51268342D01*
X1180165Y51250883D01*
X1014426Y51161190D01*
X1014424Y51161189D01*
X836762Y51022909D01*
X684279Y50857271D01*
X684275Y50857266D01*
X558290Y50664429D01*
X557054Y50665237D01*
X511786Y50619638D01*
X442467Y50604295D01*
X375857Y50628865D01*
X333105Y50685546D01*
X325000Y50730006D01*
X325000Y60463235D01*
X1691788Y60463235D01*
X1721412Y60193986D01*
X1789928Y59931910D01*
X1895869Y59682611D01*
X1940923Y59608789D01*
X2036982Y59451390D01*
X2210255Y59243180D01*
X2411998Y59062418D01*
X2637910Y58912956D01*
X2883176Y58797980D01*
X3142569Y58719940D01*
X3142572Y58719940D01*
X3142574Y58719939D01*
X3410557Y58680500D01*
X3410561Y58680500D01*
X3613633Y58680500D01*
X3648363Y58683043D01*
X3816156Y58695323D01*
X3816160Y58695324D01*
X3816161Y58695324D01*
X3926665Y58719940D01*
X4080553Y58754220D01*
X4333558Y58850986D01*
X4569777Y58983559D01*
X4784177Y59149112D01*
X4972186Y59344119D01*
X5129799Y59564421D01*
X5168695Y59640073D01*
X5253656Y59805325D01*
X5253657Y59805328D01*
X5341116Y60061690D01*
X5341118Y60061695D01*
X5390319Y60328067D01*
X5400212Y60598765D01*
X5384837Y60738500D01*
X5370587Y60868015D01*
X5302071Y61130091D01*
X5196130Y61379390D01*
X5196129Y61379391D01*
X5055018Y61610610D01*
X4881745Y61818820D01*
X4881741Y61818823D01*
X4881740Y61818825D01*
X4680012Y61999573D01*
X4680002Y61999582D01*
X4454090Y62149044D01*
X4208824Y62264020D01*
X4023500Y62319776D01*
X3949425Y62342062D01*
X3681442Y62381500D01*
X3681439Y62381500D01*
X3478369Y62381500D01*
X3478367Y62381500D01*
X3275839Y62366677D01*
X3275838Y62366677D01*
X3011456Y62307783D01*
X3011441Y62307778D01*
X2758441Y62211014D01*
X2522229Y62078445D01*
X2522225Y62078443D01*
X2307818Y61912884D01*
X2119815Y61717883D01*
X2119810Y61717877D01*
X1962203Y61497583D01*
X1962196Y61497573D01*
X1838343Y61256676D01*
X1838342Y61256673D01*
X1750883Y61000311D01*
X1750880Y61000298D01*
X1701681Y60733942D01*
X1701680Y60733931D01*
X1691788Y60463235D01*
X325000Y60463235D01*
X325000Y61875381D01*
X337097Y61929253D01*
X370361Y61999582D01*
X434442Y62135070D01*
X437358Y62140526D01*
X440431Y62145653D01*
X609476Y62427689D01*
X612891Y62432801D01*
X812344Y62701732D01*
X816243Y62706482D01*
X1041095Y62954569D01*
X1045431Y62958905D01*
X1293518Y63183757D01*
X1298268Y63187656D01*
X1567199Y63387109D01*
X1572311Y63390524D01*
X1859476Y63562644D01*
X1864930Y63565558D01*
X2017890Y63637903D01*
X2071762Y63650000D01*
X61934186Y63650000D01*
X61988057Y63637903D01*
G37*
G04 #@! TD.AperFunction*
G04 #@! TA.AperFunction,Conductor*
G36*
X1724237Y16500000D02*
G01*
X1795763Y16500000D01*
X1870069Y16510684D01*
X1940341Y16500581D01*
X1993997Y16454089D01*
X2014000Y16385969D01*
X2014000Y15074034D01*
X1993998Y15005913D01*
X1940342Y14959420D01*
X1870069Y14949317D01*
X1870068Y14949317D01*
X1795768Y14960000D01*
X1795763Y14960000D01*
X1724237Y14960000D01*
X1724231Y14960000D01*
X1649932Y14949317D01*
X1579658Y14959420D01*
X1526002Y15005913D01*
X1506000Y15074034D01*
X1506000Y16385967D01*
X1526002Y16454088D01*
X1579658Y16500581D01*
X1649926Y16510685D01*
X1724237Y16500000D01*
G37*
G04 #@! TD.AperFunction*
G04 #@! TA.AperFunction,Conductor*
G36*
X1724237Y19040000D02*
G01*
X1795763Y19040000D01*
X1870069Y19050684D01*
X1940341Y19040581D01*
X1993997Y18994089D01*
X2014000Y18925969D01*
X2014000Y17614034D01*
X1993998Y17545913D01*
X1940342Y17499420D01*
X1870069Y17489317D01*
X1870068Y17489317D01*
X1795768Y17500000D01*
X1795763Y17500000D01*
X1724237Y17500000D01*
X1724231Y17500000D01*
X1649932Y17489317D01*
X1579658Y17499420D01*
X1526002Y17545913D01*
X1506000Y17614034D01*
X1506000Y18925967D01*
X1526002Y18994088D01*
X1579658Y19040581D01*
X1649926Y19050685D01*
X1724237Y19040000D01*
G37*
G04 #@! TD.AperFunction*
G04 #@! TA.AperFunction,Conductor*
G36*
X3753277Y19773998D02*
G01*
X3799770Y19720342D01*
X3809874Y19650068D01*
X3806053Y19632504D01*
X3800000Y19611889D01*
X3800000Y19468112D01*
X3806053Y19447496D01*
X3806052Y19376500D01*
X3767667Y19316774D01*
X3703086Y19287282D01*
X3685156Y19286000D01*
X2374844Y19286000D01*
X2306723Y19306002D01*
X2260230Y19359658D01*
X2250126Y19429932D01*
X2253947Y19447496D01*
X2260000Y19468112D01*
X2260000Y19611889D01*
X2253947Y19632504D01*
X2253948Y19703500D01*
X2292333Y19763226D01*
X2356914Y19792718D01*
X2374844Y19794000D01*
X3685156Y19794000D01*
X3753277Y19773998D01*
G37*
G04 #@! TD.AperFunction*
G04 #@! TA.AperFunction,Conductor*
G36*
X5876869Y29767227D02*
G01*
X8926544Y26717551D01*
X11964126Y23679969D01*
X11998152Y23617657D01*
X11993087Y23546842D01*
X11955469Y23496592D01*
X11956650Y23495281D01*
X11951749Y23490869D01*
X11948437Y23487190D01*
X11887991Y23449950D01*
X11854800Y23445500D01*
X5352528Y23445500D01*
X5284407Y23465502D01*
X5237914Y23519158D01*
X5227810Y23589432D01*
X5257304Y23654012D01*
X5259827Y23656838D01*
X5281881Y23680794D01*
X5375722Y23782732D01*
X5498860Y23971209D01*
X5589296Y24177384D01*
X5644564Y24395632D01*
X5663156Y24620000D01*
X5644564Y24844368D01*
X5589296Y25062616D01*
X5498860Y25268791D01*
X5487913Y25285546D01*
X5375724Y25457266D01*
X5375720Y25457271D01*
X5223237Y25622909D01*
X5141382Y25686619D01*
X5045576Y25761189D01*
X5011792Y25779472D01*
X4961402Y25829484D01*
X4946050Y25898801D01*
X4970610Y25965414D01*
X5011793Y26001099D01*
X5045300Y26019233D01*
X5045301Y26019233D01*
X5222902Y26157466D01*
X5375325Y26323042D01*
X5498419Y26511452D01*
X5588820Y26717544D01*
X5588823Y26717551D01*
X5636544Y26906000D01*
X4914844Y26906000D01*
X4846723Y26926002D01*
X4800230Y26979658D01*
X4790126Y27049932D01*
X4793947Y27067496D01*
X4800000Y27088112D01*
X4800000Y27231889D01*
X4793947Y27252504D01*
X4793948Y27323500D01*
X4832333Y27383226D01*
X4896914Y27412718D01*
X4914844Y27414000D01*
X5636544Y27414000D01*
X5636544Y27414001D01*
X5588823Y27602450D01*
X5588820Y27602457D01*
X5498419Y27808549D01*
X5375325Y27996959D01*
X5222902Y28162535D01*
X5045301Y28300768D01*
X5045300Y28300769D01*
X5011791Y28318903D01*
X4961401Y28368917D01*
X4946050Y28438234D01*
X4970612Y28504847D01*
X5011790Y28540528D01*
X5045576Y28558811D01*
X5223240Y28697094D01*
X5375722Y28862732D01*
X5498860Y29051209D01*
X5589296Y29257384D01*
X5644564Y29475632D01*
X5662206Y29688540D01*
X5687764Y29754772D01*
X5745076Y29796676D01*
X5815944Y29800942D01*
X5876869Y29767227D01*
G37*
G04 #@! TD.AperFunction*
G04 #@! TA.AperFunction,Conductor*
G36*
X3753277Y27393998D02*
G01*
X3799770Y27340342D01*
X3809874Y27270068D01*
X3806053Y27252504D01*
X3800000Y27231889D01*
X3800000Y27088112D01*
X3806053Y27067496D01*
X3806052Y26996500D01*
X3767667Y26936774D01*
X3703086Y26907282D01*
X3685156Y26906000D01*
X2374844Y26906000D01*
X2306723Y26926002D01*
X2260230Y26979658D01*
X2250126Y27049932D01*
X2253947Y27067496D01*
X2260000Y27088112D01*
X2260000Y27231889D01*
X2253947Y27252504D01*
X2253948Y27323500D01*
X2292333Y27383226D01*
X2356914Y27412718D01*
X2374844Y27414000D01*
X3685156Y27414000D01*
X3753277Y27393998D01*
G37*
G04 #@! TD.AperFunction*
M02*
