G04 #@! TF.GenerationSoftware,KiCad,Pcbnew,7.0.7*
G04 #@! TF.CreationDate,2023-10-29T19:55:48+11:00*
G04 #@! TF.ProjectId,AnalogDiscovery_rs232_5_wire_sniffer,416e616c-6f67-4446-9973-636f76657279,rev?*
G04 #@! TF.SameCoordinates,PX69618a0PY7bfa480*
G04 #@! TF.FileFunction,Legend,Top*
G04 #@! TF.FilePolarity,Positive*
%FSLAX46Y46*%
G04 Gerber Fmt 4.6, Leading zero omitted, Abs format (unit mm)*
G04 Created by KiCad (PCBNEW 7.0.7) date 2023-10-29 19:55:48*
%MOMM*%
%LPD*%
G01*
G04 APERTURE LIST*
%ADD10C,0.150000*%
%ADD11C,0.300000*%
%ADD12C,0.200000*%
%ADD13C,0.254000*%
%ADD14C,0.120000*%
G04 APERTURE END LIST*
D10*
X1177744Y12435181D02*
X1796791Y12435181D01*
X1796791Y12435181D02*
X1463458Y12054229D01*
X1463458Y12054229D02*
X1606315Y12054229D01*
X1606315Y12054229D02*
X1701553Y12006610D01*
X1701553Y12006610D02*
X1749172Y11958991D01*
X1749172Y11958991D02*
X1796791Y11863753D01*
X1796791Y11863753D02*
X1796791Y11625658D01*
X1796791Y11625658D02*
X1749172Y11530420D01*
X1749172Y11530420D02*
X1701553Y11482800D01*
X1701553Y11482800D02*
X1606315Y11435181D01*
X1606315Y11435181D02*
X1320601Y11435181D01*
X1320601Y11435181D02*
X1225363Y11482800D01*
X1225363Y11482800D02*
X1177744Y11530420D01*
X2415839Y12435181D02*
X2511077Y12435181D01*
X2511077Y12435181D02*
X2606315Y12387562D01*
X2606315Y12387562D02*
X2653934Y12339943D01*
X2653934Y12339943D02*
X2701553Y12244705D01*
X2701553Y12244705D02*
X2749172Y12054229D01*
X2749172Y12054229D02*
X2749172Y11816134D01*
X2749172Y11816134D02*
X2701553Y11625658D01*
X2701553Y11625658D02*
X2653934Y11530420D01*
X2653934Y11530420D02*
X2606315Y11482800D01*
X2606315Y11482800D02*
X2511077Y11435181D01*
X2511077Y11435181D02*
X2415839Y11435181D01*
X2415839Y11435181D02*
X2320601Y11482800D01*
X2320601Y11482800D02*
X2272982Y11530420D01*
X2272982Y11530420D02*
X2225363Y11625658D01*
X2225363Y11625658D02*
X2177744Y11816134D01*
X2177744Y11816134D02*
X2177744Y12054229D01*
X2177744Y12054229D02*
X2225363Y12244705D01*
X2225363Y12244705D02*
X2272982Y12339943D01*
X2272982Y12339943D02*
X2320601Y12387562D01*
X2320601Y12387562D02*
X2415839Y12435181D01*
X3892030Y12339943D02*
X3939649Y12387562D01*
X3939649Y12387562D02*
X4034887Y12435181D01*
X4034887Y12435181D02*
X4272982Y12435181D01*
X4272982Y12435181D02*
X4368220Y12387562D01*
X4368220Y12387562D02*
X4415839Y12339943D01*
X4415839Y12339943D02*
X4463458Y12244705D01*
X4463458Y12244705D02*
X4463458Y12149467D01*
X4463458Y12149467D02*
X4415839Y12006610D01*
X4415839Y12006610D02*
X3844411Y11435181D01*
X3844411Y11435181D02*
X4463458Y11435181D01*
X4939649Y11435181D02*
X5130125Y11435181D01*
X5130125Y11435181D02*
X5225363Y11482800D01*
X5225363Y11482800D02*
X5272982Y11530420D01*
X5272982Y11530420D02*
X5368220Y11673277D01*
X5368220Y11673277D02*
X5415839Y11863753D01*
X5415839Y11863753D02*
X5415839Y12244705D01*
X5415839Y12244705D02*
X5368220Y12339943D01*
X5368220Y12339943D02*
X5320601Y12387562D01*
X5320601Y12387562D02*
X5225363Y12435181D01*
X5225363Y12435181D02*
X5034887Y12435181D01*
X5034887Y12435181D02*
X4939649Y12387562D01*
X4939649Y12387562D02*
X4892030Y12339943D01*
X4892030Y12339943D02*
X4844411Y12244705D01*
X4844411Y12244705D02*
X4844411Y12006610D01*
X4844411Y12006610D02*
X4892030Y11911372D01*
X4892030Y11911372D02*
X4939649Y11863753D01*
X4939649Y11863753D02*
X5034887Y11816134D01*
X5034887Y11816134D02*
X5225363Y11816134D01*
X5225363Y11816134D02*
X5320601Y11863753D01*
X5320601Y11863753D02*
X5368220Y11911372D01*
X5368220Y11911372D02*
X5415839Y12006610D01*
D11*
X8347082Y3735843D02*
X9061368Y3735843D01*
X8204225Y3307272D02*
X8704225Y4807272D01*
X8704225Y4807272D02*
X9204225Y3307272D01*
X9704224Y3307272D02*
X9704224Y4807272D01*
X9704224Y4807272D02*
X10061367Y4807272D01*
X10061367Y4807272D02*
X10275653Y4735843D01*
X10275653Y4735843D02*
X10418510Y4592986D01*
X10418510Y4592986D02*
X10489939Y4450129D01*
X10489939Y4450129D02*
X10561367Y4164415D01*
X10561367Y4164415D02*
X10561367Y3950129D01*
X10561367Y3950129D02*
X10489939Y3664415D01*
X10489939Y3664415D02*
X10418510Y3521558D01*
X10418510Y3521558D02*
X10275653Y3378700D01*
X10275653Y3378700D02*
X10061367Y3307272D01*
X10061367Y3307272D02*
X9704224Y3307272D01*
X13204224Y3307272D02*
X12704224Y4021558D01*
X12347081Y3307272D02*
X12347081Y4807272D01*
X12347081Y4807272D02*
X12918510Y4807272D01*
X12918510Y4807272D02*
X13061367Y4735843D01*
X13061367Y4735843D02*
X13132796Y4664415D01*
X13132796Y4664415D02*
X13204224Y4521558D01*
X13204224Y4521558D02*
X13204224Y4307272D01*
X13204224Y4307272D02*
X13132796Y4164415D01*
X13132796Y4164415D02*
X13061367Y4092986D01*
X13061367Y4092986D02*
X12918510Y4021558D01*
X12918510Y4021558D02*
X12347081Y4021558D01*
X13775653Y3378700D02*
X13989939Y3307272D01*
X13989939Y3307272D02*
X14347081Y3307272D01*
X14347081Y3307272D02*
X14489939Y3378700D01*
X14489939Y3378700D02*
X14561367Y3450129D01*
X14561367Y3450129D02*
X14632796Y3592986D01*
X14632796Y3592986D02*
X14632796Y3735843D01*
X14632796Y3735843D02*
X14561367Y3878700D01*
X14561367Y3878700D02*
X14489939Y3950129D01*
X14489939Y3950129D02*
X14347081Y4021558D01*
X14347081Y4021558D02*
X14061367Y4092986D01*
X14061367Y4092986D02*
X13918510Y4164415D01*
X13918510Y4164415D02*
X13847081Y4235843D01*
X13847081Y4235843D02*
X13775653Y4378700D01*
X13775653Y4378700D02*
X13775653Y4521558D01*
X13775653Y4521558D02*
X13847081Y4664415D01*
X13847081Y4664415D02*
X13918510Y4735843D01*
X13918510Y4735843D02*
X14061367Y4807272D01*
X14061367Y4807272D02*
X14418510Y4807272D01*
X14418510Y4807272D02*
X14632796Y4735843D01*
X15204224Y4664415D02*
X15275652Y4735843D01*
X15275652Y4735843D02*
X15418510Y4807272D01*
X15418510Y4807272D02*
X15775652Y4807272D01*
X15775652Y4807272D02*
X15918510Y4735843D01*
X15918510Y4735843D02*
X15989938Y4664415D01*
X15989938Y4664415D02*
X16061367Y4521558D01*
X16061367Y4521558D02*
X16061367Y4378700D01*
X16061367Y4378700D02*
X15989938Y4164415D01*
X15989938Y4164415D02*
X15132795Y3307272D01*
X15132795Y3307272D02*
X16061367Y3307272D01*
X16561366Y4807272D02*
X17489938Y4807272D01*
X17489938Y4807272D02*
X16989938Y4235843D01*
X16989938Y4235843D02*
X17204223Y4235843D01*
X17204223Y4235843D02*
X17347081Y4164415D01*
X17347081Y4164415D02*
X17418509Y4092986D01*
X17418509Y4092986D02*
X17489938Y3950129D01*
X17489938Y3950129D02*
X17489938Y3592986D01*
X17489938Y3592986D02*
X17418509Y3450129D01*
X17418509Y3450129D02*
X17347081Y3378700D01*
X17347081Y3378700D02*
X17204223Y3307272D01*
X17204223Y3307272D02*
X16775652Y3307272D01*
X16775652Y3307272D02*
X16632795Y3378700D01*
X16632795Y3378700D02*
X16561366Y3450129D01*
X18061366Y4664415D02*
X18132794Y4735843D01*
X18132794Y4735843D02*
X18275652Y4807272D01*
X18275652Y4807272D02*
X18632794Y4807272D01*
X18632794Y4807272D02*
X18775652Y4735843D01*
X18775652Y4735843D02*
X18847080Y4664415D01*
X18847080Y4664415D02*
X18918509Y4521558D01*
X18918509Y4521558D02*
X18918509Y4378700D01*
X18918509Y4378700D02*
X18847080Y4164415D01*
X18847080Y4164415D02*
X17989937Y3307272D01*
X17989937Y3307272D02*
X18918509Y3307272D01*
X21418508Y4807272D02*
X20704222Y4807272D01*
X20704222Y4807272D02*
X20632794Y4092986D01*
X20632794Y4092986D02*
X20704222Y4164415D01*
X20704222Y4164415D02*
X20847080Y4235843D01*
X20847080Y4235843D02*
X21204222Y4235843D01*
X21204222Y4235843D02*
X21347080Y4164415D01*
X21347080Y4164415D02*
X21418508Y4092986D01*
X21418508Y4092986D02*
X21489937Y3950129D01*
X21489937Y3950129D02*
X21489937Y3592986D01*
X21489937Y3592986D02*
X21418508Y3450129D01*
X21418508Y3450129D02*
X21347080Y3378700D01*
X21347080Y3378700D02*
X21204222Y3307272D01*
X21204222Y3307272D02*
X20847080Y3307272D01*
X20847080Y3307272D02*
X20704222Y3378700D01*
X20704222Y3378700D02*
X20632794Y3450129D01*
X23132793Y4807272D02*
X23489936Y3307272D01*
X23489936Y3307272D02*
X23775650Y4378700D01*
X23775650Y4378700D02*
X24061365Y3307272D01*
X24061365Y3307272D02*
X24418508Y4807272D01*
X24989936Y3307272D02*
X24989936Y4807272D01*
X26561365Y3307272D02*
X26061365Y4021558D01*
X25704222Y3307272D02*
X25704222Y4807272D01*
X25704222Y4807272D02*
X26275651Y4807272D01*
X26275651Y4807272D02*
X26418508Y4735843D01*
X26418508Y4735843D02*
X26489937Y4664415D01*
X26489937Y4664415D02*
X26561365Y4521558D01*
X26561365Y4521558D02*
X26561365Y4307272D01*
X26561365Y4307272D02*
X26489937Y4164415D01*
X26489937Y4164415D02*
X26418508Y4092986D01*
X26418508Y4092986D02*
X26275651Y4021558D01*
X26275651Y4021558D02*
X25704222Y4021558D01*
X27204222Y4092986D02*
X27704222Y4092986D01*
X27918508Y3307272D02*
X27204222Y3307272D01*
X27204222Y3307272D02*
X27204222Y4807272D01*
X27204222Y4807272D02*
X27918508Y4807272D01*
X29632794Y3378700D02*
X29847080Y3307272D01*
X29847080Y3307272D02*
X30204222Y3307272D01*
X30204222Y3307272D02*
X30347080Y3378700D01*
X30347080Y3378700D02*
X30418508Y3450129D01*
X30418508Y3450129D02*
X30489937Y3592986D01*
X30489937Y3592986D02*
X30489937Y3735843D01*
X30489937Y3735843D02*
X30418508Y3878700D01*
X30418508Y3878700D02*
X30347080Y3950129D01*
X30347080Y3950129D02*
X30204222Y4021558D01*
X30204222Y4021558D02*
X29918508Y4092986D01*
X29918508Y4092986D02*
X29775651Y4164415D01*
X29775651Y4164415D02*
X29704222Y4235843D01*
X29704222Y4235843D02*
X29632794Y4378700D01*
X29632794Y4378700D02*
X29632794Y4521558D01*
X29632794Y4521558D02*
X29704222Y4664415D01*
X29704222Y4664415D02*
X29775651Y4735843D01*
X29775651Y4735843D02*
X29918508Y4807272D01*
X29918508Y4807272D02*
X30275651Y4807272D01*
X30275651Y4807272D02*
X30489937Y4735843D01*
X31132793Y3307272D02*
X31132793Y4807272D01*
X31132793Y4807272D02*
X31989936Y3307272D01*
X31989936Y3307272D02*
X31989936Y4807272D01*
X32704222Y3307272D02*
X32704222Y4807272D01*
X33918508Y4092986D02*
X33418508Y4092986D01*
X33418508Y3307272D02*
X33418508Y4807272D01*
X33418508Y4807272D02*
X34132794Y4807272D01*
X35204222Y4092986D02*
X34704222Y4092986D01*
X34704222Y3307272D02*
X34704222Y4807272D01*
X34704222Y4807272D02*
X35418508Y4807272D01*
X35989936Y4092986D02*
X36489936Y4092986D01*
X36704222Y3307272D02*
X35989936Y3307272D01*
X35989936Y3307272D02*
X35989936Y4807272D01*
X35989936Y4807272D02*
X36704222Y4807272D01*
X38204222Y3307272D02*
X37704222Y4021558D01*
X37347079Y3307272D02*
X37347079Y4807272D01*
X37347079Y4807272D02*
X37918508Y4807272D01*
X37918508Y4807272D02*
X38061365Y4735843D01*
X38061365Y4735843D02*
X38132794Y4664415D01*
X38132794Y4664415D02*
X38204222Y4521558D01*
X38204222Y4521558D02*
X38204222Y4307272D01*
X38204222Y4307272D02*
X38132794Y4164415D01*
X38132794Y4164415D02*
X38061365Y4092986D01*
X38061365Y4092986D02*
X37918508Y4021558D01*
X37918508Y4021558D02*
X37347079Y4021558D01*
D12*
G36*
X56648457Y13653579D02*
G01*
X55993255Y13871979D01*
X56648457Y14090380D01*
X56648457Y13653579D01*
G37*
G36*
X58061512Y8914835D02*
G01*
X55149687Y8914835D01*
X55149687Y9229121D01*
X55577028Y9229121D01*
X55581922Y9214059D01*
X55581922Y9198219D01*
X55591231Y9185406D01*
X55596126Y9170342D01*
X55608939Y9161033D01*
X55618249Y9148219D01*
X55633312Y9143325D01*
X55646126Y9134015D01*
X55661965Y9134015D01*
X55677028Y9129121D01*
X57177028Y9129121D01*
X57235807Y9148219D01*
X57272134Y9198219D01*
X57272134Y9260023D01*
X57235807Y9310023D01*
X57177028Y9329121D01*
X56491314Y9329121D01*
X56491314Y9729121D01*
X56472216Y9787900D01*
X56422216Y9824227D01*
X56360412Y9824227D01*
X56310412Y9787900D01*
X56291314Y9729121D01*
X56291314Y9329121D01*
X55777028Y9329121D01*
X55777028Y9943407D01*
X55757930Y10002186D01*
X55707930Y10038513D01*
X55646126Y10038513D01*
X55596126Y10002186D01*
X55577028Y9943407D01*
X55577028Y9229121D01*
X55149687Y9229121D01*
X55149687Y10514835D01*
X55577028Y10514835D01*
X55581922Y10499773D01*
X55581922Y10483933D01*
X55591231Y10471120D01*
X55596126Y10456056D01*
X55608939Y10446747D01*
X55618249Y10433933D01*
X55633312Y10429039D01*
X55646126Y10419729D01*
X55661965Y10419729D01*
X55677028Y10414835D01*
X57177028Y10414835D01*
X57192091Y10419729D01*
X57207930Y10419729D01*
X57220743Y10429039D01*
X57235807Y10433933D01*
X57245116Y10446747D01*
X57257930Y10456056D01*
X57262824Y10471120D01*
X57272134Y10483933D01*
X57272134Y10499773D01*
X57277028Y10514835D01*
X57277028Y11229121D01*
X57257930Y11287900D01*
X57207930Y11324227D01*
X57146126Y11324227D01*
X57096126Y11287900D01*
X57077028Y11229121D01*
X57077028Y10614835D01*
X56491314Y10614835D01*
X56491314Y11014835D01*
X56472216Y11073614D01*
X56422216Y11109941D01*
X56360412Y11109941D01*
X56310412Y11073614D01*
X56291314Y11014835D01*
X56291314Y10614835D01*
X55777028Y10614835D01*
X55777028Y11229121D01*
X55757930Y11287900D01*
X55707930Y11324227D01*
X55646126Y11324227D01*
X55596126Y11287900D01*
X55577028Y11229121D01*
X55577028Y10514835D01*
X55149687Y10514835D01*
X55149687Y11859762D01*
X55577777Y11859762D01*
X55581922Y11850880D01*
X55581922Y11841076D01*
X55594712Y11823472D01*
X55603913Y11803756D01*
X55612487Y11799007D01*
X55618249Y11791076D01*
X55638941Y11784353D01*
X55657976Y11773809D01*
X55667706Y11775007D01*
X55677028Y11771978D01*
X57177028Y11771978D01*
X57235807Y11791076D01*
X57272134Y11841076D01*
X57272134Y11902880D01*
X57235807Y11952880D01*
X57177028Y11971978D01*
X56127784Y11971978D01*
X56790746Y12281360D01*
X56804778Y12294453D01*
X56821573Y12303756D01*
X56826836Y12315035D01*
X56835934Y12323523D01*
X56839591Y12342367D01*
X56847709Y12359762D01*
X56845338Y12371979D01*
X56847709Y12384194D01*
X56839591Y12401590D01*
X56835934Y12420433D01*
X56826836Y12428922D01*
X56821573Y12440200D01*
X56804778Y12449504D01*
X56790746Y12462596D01*
X56127784Y12771978D01*
X57177028Y12771978D01*
X57235807Y12791076D01*
X57272134Y12841076D01*
X57272134Y12902880D01*
X57235807Y12952880D01*
X57177028Y12971978D01*
X55677028Y12971978D01*
X55667706Y12968950D01*
X55657976Y12970147D01*
X55638941Y12959604D01*
X55618249Y12952880D01*
X55612487Y12944950D01*
X55603913Y12940200D01*
X55594712Y12920485D01*
X55581922Y12902880D01*
X55581922Y12893077D01*
X55577777Y12884194D01*
X55581922Y12862835D01*
X55581922Y12841076D01*
X55587683Y12833146D01*
X55589551Y12823523D01*
X55605459Y12808680D01*
X55618249Y12791076D01*
X55627572Y12788047D01*
X55634739Y12781360D01*
X56511987Y12371978D01*
X55634739Y11962596D01*
X55627572Y11955910D01*
X55618249Y11952880D01*
X55605459Y11935277D01*
X55589551Y11920433D01*
X55587683Y11910811D01*
X55581922Y11902880D01*
X55581922Y11881122D01*
X55577777Y11859762D01*
X55149687Y11859762D01*
X55149687Y13871220D01*
X55577030Y13871220D01*
X55586566Y13842611D01*
X55595682Y13813816D01*
X55596323Y13813343D01*
X55596575Y13812588D01*
X55621126Y13795034D01*
X55645405Y13777111D01*
X57145405Y13277111D01*
X57207207Y13276641D01*
X57257482Y13312588D01*
X57277026Y13371220D01*
X57258374Y13430142D01*
X57208651Y13466847D01*
X56848457Y13586912D01*
X56848457Y14157047D01*
X57208651Y14277111D01*
X57258374Y14313816D01*
X57277026Y14372738D01*
X57257482Y14431370D01*
X57207207Y14467317D01*
X57145405Y14466847D01*
X55645405Y13966847D01*
X55621126Y13948925D01*
X55596575Y13931370D01*
X55596323Y13930616D01*
X55595682Y13930142D01*
X55586566Y13901348D01*
X55577030Y13872738D01*
X55577270Y13871979D01*
X55577030Y13871220D01*
X55149687Y13871220D01*
X55149687Y14841076D01*
X55581922Y14841076D01*
X55618249Y14791076D01*
X55677028Y14771978D01*
X57177028Y14771978D01*
X57192091Y14776872D01*
X57207930Y14776872D01*
X57220743Y14786182D01*
X57235807Y14791076D01*
X57245116Y14803890D01*
X57257930Y14813199D01*
X57262824Y14828263D01*
X57272134Y14841076D01*
X57272134Y14856916D01*
X57277028Y14871978D01*
X57277028Y15586264D01*
X57257930Y15645043D01*
X57207930Y15681370D01*
X57146126Y15681370D01*
X57096126Y15645043D01*
X57077028Y15586264D01*
X57077028Y14971978D01*
X55677028Y14971978D01*
X55618249Y14952880D01*
X55581922Y14902880D01*
X55581922Y14841076D01*
X55149687Y14841076D01*
X55149687Y16086264D01*
X55577028Y16086264D01*
X55581922Y16071202D01*
X55581922Y16055362D01*
X55591231Y16042549D01*
X55596126Y16027485D01*
X55608939Y16018176D01*
X55618249Y16005362D01*
X55633312Y16000468D01*
X55646126Y15991158D01*
X55661965Y15991158D01*
X55677028Y15986264D01*
X57177028Y15986264D01*
X57192091Y15991158D01*
X57207930Y15991158D01*
X57220743Y16000468D01*
X57235807Y16005362D01*
X57245116Y16018176D01*
X57257930Y16027485D01*
X57262824Y16042549D01*
X57272134Y16055362D01*
X57272134Y16071202D01*
X57277028Y16086264D01*
X57277028Y16800550D01*
X57257930Y16859329D01*
X57207930Y16895656D01*
X57146126Y16895656D01*
X57096126Y16859329D01*
X57077028Y16800550D01*
X57077028Y16186264D01*
X56491314Y16186264D01*
X56491314Y16586264D01*
X56472216Y16645043D01*
X56422216Y16681370D01*
X56360412Y16681370D01*
X56310412Y16645043D01*
X56291314Y16586264D01*
X56291314Y16186264D01*
X55777028Y16186264D01*
X55777028Y16800550D01*
X55757930Y16859329D01*
X55707930Y16895656D01*
X55646126Y16895656D01*
X55596126Y16859329D01*
X55577028Y16800550D01*
X55577028Y16086264D01*
X55149687Y16086264D01*
X55149687Y17856336D01*
X55363973Y17856336D01*
X55392031Y17801268D01*
X55463460Y17729839D01*
X55472448Y17725260D01*
X55478701Y17717345D01*
X55692987Y17574488D01*
X55699163Y17572753D01*
X55703735Y17568250D01*
X55846592Y17496821D01*
X55853815Y17495733D01*
X55859691Y17491396D01*
X56073977Y17419968D01*
X56080392Y17419920D01*
X56085988Y17416778D01*
X56443130Y17345349D01*
X56453148Y17346524D01*
X56462742Y17343407D01*
X56748457Y17343407D01*
X56758050Y17346525D01*
X56768069Y17345349D01*
X57125212Y17416778D01*
X57130807Y17419920D01*
X57137223Y17419968D01*
X57351508Y17491396D01*
X57357383Y17495733D01*
X57364607Y17496821D01*
X57507463Y17568250D01*
X57512034Y17572753D01*
X57518212Y17574488D01*
X57732498Y17717345D01*
X57738750Y17725260D01*
X57747739Y17729839D01*
X57819168Y17801268D01*
X57847226Y17856336D01*
X57837558Y17917378D01*
X57793856Y17961080D01*
X57732814Y17970748D01*
X57677746Y17942690D01*
X57613317Y17878262D01*
X57412455Y17744354D01*
X57281514Y17678883D01*
X57079885Y17611674D01*
X56738555Y17543407D01*
X56472644Y17543407D01*
X56131312Y17611674D01*
X55929681Y17678884D01*
X55798743Y17744354D01*
X55597881Y17878262D01*
X55533453Y17942690D01*
X55478385Y17970748D01*
X55417343Y17961080D01*
X55373641Y17917378D01*
X55363973Y17856336D01*
X55149687Y17856336D01*
X55149687Y18713479D01*
X56221116Y18713479D01*
X56249174Y18658411D01*
X56534889Y18372696D01*
X56549001Y18365506D01*
X56560201Y18354306D01*
X56568170Y18353044D01*
X56574698Y18348301D01*
X56582768Y18348301D01*
X56589957Y18344638D01*
X56605600Y18347116D01*
X56621243Y18344638D01*
X56628432Y18348301D01*
X56636502Y18348301D01*
X56643029Y18353044D01*
X56650999Y18354306D01*
X56662198Y18365506D01*
X56676311Y18372696D01*
X56962025Y18658411D01*
X56990083Y18713479D01*
X56980415Y18774521D01*
X56936713Y18818223D01*
X56875670Y18827891D01*
X56820603Y18799832D01*
X56705600Y18684829D01*
X56705600Y19586264D01*
X56686502Y19645043D01*
X56636502Y19681370D01*
X56574698Y19681370D01*
X56524698Y19645043D01*
X56505600Y19586264D01*
X56505600Y18684829D01*
X56390596Y18799833D01*
X56335528Y18827891D01*
X56274486Y18818223D01*
X56230784Y18774521D01*
X56221116Y18713479D01*
X55149687Y18713479D01*
X55149687Y20173336D01*
X55363973Y20173336D01*
X55373641Y20112294D01*
X55417343Y20068592D01*
X55478385Y20058924D01*
X55533453Y20086982D01*
X55597881Y20151411D01*
X55798745Y20285320D01*
X55929680Y20350787D01*
X56131314Y20417999D01*
X56472644Y20486265D01*
X56738555Y20486265D01*
X57079885Y20417999D01*
X57281518Y20350788D01*
X57412453Y20285320D01*
X57613317Y20151411D01*
X57677746Y20086982D01*
X57732814Y20058924D01*
X57793856Y20068592D01*
X57837558Y20112294D01*
X57847226Y20173336D01*
X57819168Y20228404D01*
X57747739Y20299833D01*
X57738750Y20304413D01*
X57732498Y20312327D01*
X57518212Y20455184D01*
X57512034Y20456920D01*
X57507463Y20461422D01*
X57364606Y20532850D01*
X57357383Y20533938D01*
X57351508Y20538275D01*
X57137223Y20609704D01*
X57130807Y20609753D01*
X57125212Y20612894D01*
X56768069Y20684323D01*
X56758050Y20683148D01*
X56748457Y20686265D01*
X56462742Y20686265D01*
X56453148Y20683149D01*
X56443130Y20684323D01*
X56085988Y20612894D01*
X56080392Y20609753D01*
X56073977Y20609704D01*
X55859691Y20538275D01*
X55853815Y20533938D01*
X55846593Y20532850D01*
X55703736Y20461422D01*
X55699164Y20456920D01*
X55692987Y20455184D01*
X55478701Y20312327D01*
X55472448Y20304413D01*
X55463460Y20299833D01*
X55392031Y20228404D01*
X55363973Y20173336D01*
X55149687Y20173336D01*
X55149687Y20900551D01*
X58061512Y20900551D01*
X58061512Y8914835D01*
G37*
D10*
G36*
X48780783Y47336402D02*
G01*
X48853739Y47278037D01*
X48889477Y47220856D01*
X48930807Y47088603D01*
X48930807Y46997208D01*
X48889477Y46864955D01*
X48853739Y46807775D01*
X48780783Y46749409D01*
X48662644Y46717905D01*
X48509379Y46717905D01*
X48509379Y47367905D01*
X48662644Y47367905D01*
X48780783Y47336402D01*
G37*
G36*
X50634302Y47339301D02*
G01*
X50663263Y47316132D01*
X50692712Y47269015D01*
X50692712Y47197749D01*
X50663263Y47150632D01*
X50634302Y47127463D01*
X50562792Y47098858D01*
X50271284Y47098858D01*
X50271284Y47367905D01*
X50562792Y47367905D01*
X50634302Y47339301D01*
G37*
G36*
X48872397Y49915301D02*
G01*
X48901358Y49892132D01*
X48930807Y49845015D01*
X48930807Y49773749D01*
X48901358Y49726632D01*
X48872397Y49703463D01*
X48800887Y49674858D01*
X48509379Y49674858D01*
X48509379Y49943905D01*
X48800887Y49943905D01*
X48872397Y49915301D01*
G37*
G36*
X48872397Y55067301D02*
G01*
X48901358Y55044132D01*
X48930807Y54997015D01*
X48930807Y54925749D01*
X48901358Y54878632D01*
X48872397Y54855463D01*
X48800887Y54826858D01*
X48509379Y54826858D01*
X48509379Y55095905D01*
X48800887Y55095905D01*
X48872397Y55067301D01*
G37*
G36*
X48780783Y57640402D02*
G01*
X48853739Y57582037D01*
X48889477Y57524856D01*
X48930807Y57392603D01*
X48930807Y57301208D01*
X48889477Y57168955D01*
X48853739Y57111775D01*
X48780783Y57053409D01*
X48662644Y57021905D01*
X48509379Y57021905D01*
X48509379Y57671905D01*
X48662644Y57671905D01*
X48780783Y57640402D01*
G37*
G36*
X50824778Y57643301D02*
G01*
X50853739Y57620132D01*
X50883188Y57573015D01*
X50883188Y57501749D01*
X50853739Y57454632D01*
X50824778Y57431463D01*
X50753268Y57402858D01*
X50461760Y57402858D01*
X50461760Y57671905D01*
X50753268Y57671905D01*
X50824778Y57643301D01*
G37*
G36*
X48780783Y60216402D02*
G01*
X48853739Y60158037D01*
X48889477Y60100856D01*
X48930807Y59968603D01*
X48930807Y59877208D01*
X48889477Y59744955D01*
X48853739Y59687775D01*
X48780783Y59629409D01*
X48662644Y59597905D01*
X48509379Y59597905D01*
X48509379Y60247905D01*
X48662644Y60247905D01*
X48780783Y60216402D01*
G37*
G36*
X50780783Y60216402D02*
G01*
X50853739Y60158037D01*
X50889477Y60100856D01*
X50930807Y59968603D01*
X50930807Y59877208D01*
X50889477Y59744955D01*
X50853739Y59687775D01*
X50780783Y59629409D01*
X50662644Y59597905D01*
X50509379Y59597905D01*
X50509379Y60247905D01*
X50662644Y60247905D01*
X50780783Y60216402D01*
G37*
G36*
X51195093Y46453619D02*
G01*
X48197474Y46453619D01*
X48197474Y46642905D01*
X48359379Y46642905D01*
X48366042Y46624597D01*
X48369427Y46605405D01*
X48374611Y46601055D01*
X48376926Y46594696D01*
X48393799Y46584954D01*
X48408727Y46572428D01*
X48418469Y46570711D01*
X48421355Y46569044D01*
X48424637Y46569623D01*
X48434379Y46567905D01*
X48672474Y46567905D01*
X48675587Y46569039D01*
X48691799Y46570437D01*
X48834656Y46608532D01*
X48836760Y46610003D01*
X48839327Y46609942D01*
X48862183Y46622435D01*
X48957422Y46698626D01*
X48957832Y46699301D01*
X48974169Y46717441D01*
X49021788Y46793631D01*
X49022489Y46796928D01*
X49029774Y46811010D01*
X49077393Y46963391D01*
X49077282Y46965775D01*
X49080807Y46985762D01*
X49080807Y47100048D01*
X49079990Y47102291D01*
X49077393Y47122419D01*
X49029774Y47274800D01*
X49027728Y47277480D01*
X49021788Y47292179D01*
X48974169Y47368370D01*
X48973545Y47368857D01*
X48957421Y47387185D01*
X48871491Y47455929D01*
X49217661Y47455929D01*
X49226570Y47405405D01*
X49265870Y47372428D01*
X49291522Y47367905D01*
X49502236Y47367905D01*
X49502236Y46642905D01*
X49519783Y46594696D01*
X49564212Y46569044D01*
X49614736Y46577953D01*
X49647713Y46617253D01*
X49652236Y46642905D01*
X50121284Y46642905D01*
X50138831Y46594696D01*
X50183260Y46569044D01*
X50233784Y46577953D01*
X50266761Y46617253D01*
X50271284Y46642905D01*
X50271284Y46948858D01*
X50400346Y46948858D01*
X50711269Y46593517D01*
X50756220Y46568791D01*
X50806548Y46578742D01*
X50838705Y46618717D01*
X50837644Y46670009D01*
X50824156Y46692293D01*
X50596532Y46952435D01*
X50605090Y46954222D01*
X50700328Y46992317D01*
X50702303Y46994084D01*
X50719326Y47003388D01*
X50766945Y47041483D01*
X50767355Y47042158D01*
X50783693Y47060298D01*
X50831312Y47136489D01*
X50832993Y47144395D01*
X50838189Y47150587D01*
X50842712Y47176239D01*
X50842712Y47290524D01*
X50839947Y47298119D01*
X50841072Y47306124D01*
X50831312Y47330274D01*
X50783693Y47406465D01*
X50783069Y47406952D01*
X50766945Y47425280D01*
X50719326Y47463375D01*
X50716816Y47464223D01*
X50700328Y47474446D01*
X50605090Y47512541D01*
X50603843Y47512581D01*
X50602888Y47513382D01*
X50577236Y47517905D01*
X50196284Y47517905D01*
X50177975Y47511242D01*
X50158784Y47507857D01*
X50154433Y47502673D01*
X50148075Y47500358D01*
X50138332Y47483485D01*
X50125807Y47468557D01*
X50124089Y47458815D01*
X50122423Y47455929D01*
X50123001Y47452647D01*
X50121284Y47442905D01*
X50121284Y46642905D01*
X49652236Y46642905D01*
X49652236Y47367905D01*
X49862950Y47367905D01*
X49911159Y47385452D01*
X49936811Y47429881D01*
X49927902Y47480405D01*
X49888602Y47513382D01*
X49862950Y47517905D01*
X49291522Y47517905D01*
X49243313Y47500358D01*
X49217661Y47455929D01*
X48871491Y47455929D01*
X48862183Y47463375D01*
X48859751Y47464197D01*
X48858276Y47466298D01*
X48834656Y47477278D01*
X48691799Y47515373D01*
X48688495Y47515081D01*
X48672474Y47517905D01*
X48434379Y47517905D01*
X48416070Y47511242D01*
X48396879Y47507857D01*
X48392528Y47502673D01*
X48386170Y47500358D01*
X48376427Y47483485D01*
X48363902Y47468557D01*
X48362184Y47458815D01*
X48360518Y47455929D01*
X48361096Y47452647D01*
X48359379Y47442905D01*
X48359379Y46642905D01*
X48197474Y46642905D01*
X48197474Y49218905D01*
X48359379Y49218905D01*
X48376926Y49170696D01*
X48421355Y49145044D01*
X48471879Y49153953D01*
X48504856Y49193253D01*
X48509379Y49218905D01*
X48509379Y49524858D01*
X48638441Y49524858D01*
X48949364Y49169517D01*
X48994315Y49144791D01*
X49044643Y49154742D01*
X49076800Y49194717D01*
X49076300Y49218905D01*
X49359379Y49218905D01*
X49376926Y49170696D01*
X49421355Y49145044D01*
X49471879Y49153953D01*
X49504856Y49193253D01*
X49509379Y49218905D01*
X49509379Y50018905D01*
X49491832Y50067114D01*
X49447403Y50092766D01*
X49396879Y50083857D01*
X49363902Y50044557D01*
X49359379Y50018905D01*
X49359379Y49218905D01*
X49076300Y49218905D01*
X49075739Y49246009D01*
X49062251Y49268293D01*
X48834627Y49528435D01*
X48843185Y49530222D01*
X48938423Y49568317D01*
X48940398Y49570084D01*
X48957421Y49579388D01*
X49005040Y49617483D01*
X49005450Y49618158D01*
X49021788Y49636298D01*
X49069407Y49712489D01*
X49071088Y49720395D01*
X49076284Y49726587D01*
X49080807Y49752239D01*
X49080807Y49866524D01*
X49078042Y49874119D01*
X49079167Y49882124D01*
X49069407Y49906274D01*
X49021788Y49982465D01*
X49021164Y49982952D01*
X49005040Y50001280D01*
X48957421Y50039375D01*
X48954911Y50040223D01*
X48938423Y50050446D01*
X48843185Y50088541D01*
X48841938Y50088581D01*
X48840983Y50089382D01*
X48815331Y50093905D01*
X48434379Y50093905D01*
X48416070Y50087242D01*
X48396879Y50083857D01*
X48392528Y50078673D01*
X48386170Y50076358D01*
X48376427Y50059485D01*
X48363902Y50044557D01*
X48362184Y50034815D01*
X48360518Y50031929D01*
X48361096Y50028647D01*
X48359379Y50018905D01*
X48359379Y49218905D01*
X48197474Y49218905D01*
X48197474Y52137762D01*
X48311760Y52137762D01*
X48312576Y52135520D01*
X48315174Y52115391D01*
X48362793Y51963011D01*
X48364837Y51960333D01*
X48370779Y51945631D01*
X48418398Y51869441D01*
X48419020Y51868955D01*
X48435146Y51850626D01*
X48530384Y51774435D01*
X48532815Y51773614D01*
X48534291Y51771512D01*
X48557911Y51760532D01*
X48700768Y51722437D01*
X48704071Y51722730D01*
X48720093Y51719905D01*
X48815331Y51719905D01*
X48818444Y51721039D01*
X48834656Y51722437D01*
X48977513Y51760532D01*
X48979617Y51762003D01*
X48982185Y51761942D01*
X49005041Y51774435D01*
X49052660Y51812532D01*
X49079343Y51856350D01*
X49071619Y51907068D01*
X49033100Y51940954D01*
X48981811Y51942154D01*
X48958955Y51929661D01*
X48923639Y51901409D01*
X48805501Y51869905D01*
X48729923Y51869905D01*
X48611784Y51901409D01*
X48538827Y51959775D01*
X48503089Y52016955D01*
X48461760Y52149209D01*
X48461760Y52240602D01*
X48503089Y52372856D01*
X48538827Y52430037D01*
X48611783Y52488402D01*
X48729923Y52519905D01*
X48805501Y52519905D01*
X48923640Y52488402D01*
X48958955Y52460150D01*
X49007562Y52443736D01*
X49055347Y52462404D01*
X49079952Y52507423D01*
X49069864Y52557724D01*
X49052659Y52577280D01*
X49014348Y52607929D01*
X49217661Y52607929D01*
X49226570Y52557405D01*
X49265870Y52524428D01*
X49291522Y52519905D01*
X49502236Y52519905D01*
X49502236Y51794905D01*
X49519783Y51746696D01*
X49564212Y51721044D01*
X49614736Y51729953D01*
X49647713Y51769253D01*
X49652236Y51794905D01*
X49652236Y52366334D01*
X50073665Y52366334D01*
X50076429Y52358740D01*
X50075305Y52350734D01*
X50085065Y52326584D01*
X50132684Y52250393D01*
X50133307Y52249907D01*
X50149432Y52231578D01*
X50197051Y52193483D01*
X50199561Y52192636D01*
X50216049Y52182412D01*
X50311286Y52144317D01*
X50314688Y52144211D01*
X50324432Y52140409D01*
X50508155Y52103665D01*
X50586683Y52072253D01*
X50615644Y52049084D01*
X50645093Y52001967D01*
X50645093Y51968797D01*
X50615644Y51921680D01*
X50586681Y51898509D01*
X50515173Y51869905D01*
X50301352Y51869905D01*
X50167990Y51905468D01*
X50116887Y51900935D01*
X50080654Y51864615D01*
X50076244Y51813502D01*
X50105720Y51771512D01*
X50129340Y51760532D01*
X50272197Y51722437D01*
X50275500Y51722730D01*
X50291522Y51719905D01*
X50529617Y51719905D01*
X50530789Y51720332D01*
X50531974Y51719942D01*
X50557471Y51725269D01*
X50652709Y51763364D01*
X50654683Y51765130D01*
X50671708Y51774435D01*
X50719327Y51812532D01*
X50719736Y51813204D01*
X50736074Y51831346D01*
X50783693Y51907536D01*
X50785374Y51915442D01*
X50790570Y51921634D01*
X50795093Y51947286D01*
X50795093Y52023477D01*
X50792328Y52031072D01*
X50793453Y52039077D01*
X50783693Y52063227D01*
X50736074Y52139417D01*
X50735450Y52139904D01*
X50719326Y52158232D01*
X50671707Y52196327D01*
X50669195Y52197176D01*
X50652710Y52207397D01*
X50557472Y52245494D01*
X50554069Y52245601D01*
X50544326Y52249402D01*
X50360599Y52286148D01*
X50282075Y52317557D01*
X50253113Y52340727D01*
X50223665Y52387844D01*
X50223665Y52421015D01*
X50253113Y52468132D01*
X50282075Y52491302D01*
X50353585Y52519905D01*
X50567406Y52519905D01*
X50700768Y52484342D01*
X50751871Y52488875D01*
X50788104Y52525195D01*
X50792514Y52576308D01*
X50763038Y52618298D01*
X50739418Y52629278D01*
X50596561Y52667373D01*
X50593257Y52667081D01*
X50577236Y52669905D01*
X50339141Y52669905D01*
X50337968Y52669479D01*
X50336784Y52669868D01*
X50311286Y52664541D01*
X50216049Y52626446D01*
X50214073Y52624680D01*
X50197051Y52615375D01*
X50149432Y52577280D01*
X50149023Y52576609D01*
X50132684Y52558465D01*
X50085065Y52482274D01*
X50083383Y52474369D01*
X50078188Y52468176D01*
X50073665Y52442524D01*
X50073665Y52366334D01*
X49652236Y52366334D01*
X49652236Y52519905D01*
X49862950Y52519905D01*
X49911159Y52537452D01*
X49936811Y52581881D01*
X49927902Y52632405D01*
X49888602Y52665382D01*
X49862950Y52669905D01*
X49291522Y52669905D01*
X49243313Y52652358D01*
X49217661Y52607929D01*
X49014348Y52607929D01*
X49005040Y52615375D01*
X49002608Y52616197D01*
X49001133Y52618298D01*
X48977513Y52629278D01*
X48834656Y52667373D01*
X48831352Y52667081D01*
X48815331Y52669905D01*
X48720093Y52669905D01*
X48716979Y52668772D01*
X48700768Y52667373D01*
X48557911Y52629278D01*
X48555806Y52627808D01*
X48553240Y52627868D01*
X48530384Y52615375D01*
X48435146Y52539185D01*
X48434737Y52538514D01*
X48418398Y52520370D01*
X48370779Y52444179D01*
X48370077Y52440882D01*
X48362793Y52426799D01*
X48315174Y52274419D01*
X48315284Y52272036D01*
X48311760Y52252048D01*
X48311760Y52137762D01*
X48197474Y52137762D01*
X48197474Y54370905D01*
X48359379Y54370905D01*
X48376926Y54322696D01*
X48421355Y54297044D01*
X48471879Y54305953D01*
X48504856Y54345253D01*
X48509379Y54370905D01*
X48509379Y54676858D01*
X48638441Y54676858D01*
X48949364Y54321517D01*
X48994315Y54296791D01*
X49044643Y54306742D01*
X49076800Y54346717D01*
X49075739Y54398009D01*
X49062251Y54420293D01*
X48834627Y54680435D01*
X48843185Y54682222D01*
X48938423Y54720317D01*
X48940398Y54722084D01*
X48957421Y54731388D01*
X49005040Y54769483D01*
X49005450Y54770158D01*
X49021788Y54788298D01*
X49069407Y54864489D01*
X49071088Y54872395D01*
X49076284Y54878587D01*
X49080807Y54904239D01*
X49080807Y55018524D01*
X49078042Y55026119D01*
X49079167Y55034124D01*
X49069407Y55058274D01*
X49021788Y55134465D01*
X49021164Y55134952D01*
X49005040Y55153280D01*
X48966729Y55183929D01*
X49217661Y55183929D01*
X49226570Y55133405D01*
X49265870Y55100428D01*
X49291522Y55095905D01*
X49502236Y55095905D01*
X49502236Y54370905D01*
X49519783Y54322696D01*
X49564212Y54297044D01*
X49614736Y54305953D01*
X49647713Y54345253D01*
X49652236Y54370905D01*
X49652236Y54942334D01*
X50073665Y54942334D01*
X50076429Y54934740D01*
X50075305Y54926734D01*
X50085065Y54902584D01*
X50132684Y54826393D01*
X50133307Y54825907D01*
X50149432Y54807578D01*
X50197051Y54769483D01*
X50199561Y54768636D01*
X50216049Y54758412D01*
X50311286Y54720317D01*
X50314688Y54720211D01*
X50324432Y54716409D01*
X50508155Y54679665D01*
X50586683Y54648253D01*
X50615644Y54625084D01*
X50645093Y54577967D01*
X50645093Y54544797D01*
X50615644Y54497680D01*
X50586681Y54474509D01*
X50515173Y54445905D01*
X50301352Y54445905D01*
X50167990Y54481468D01*
X50116887Y54476935D01*
X50080654Y54440615D01*
X50076244Y54389502D01*
X50105720Y54347512D01*
X50129340Y54336532D01*
X50272197Y54298437D01*
X50275500Y54298730D01*
X50291522Y54295905D01*
X50529617Y54295905D01*
X50530789Y54296332D01*
X50531974Y54295942D01*
X50557471Y54301269D01*
X50652709Y54339364D01*
X50654683Y54341130D01*
X50671708Y54350435D01*
X50719327Y54388532D01*
X50719736Y54389204D01*
X50736074Y54407346D01*
X50783693Y54483536D01*
X50785374Y54491442D01*
X50790570Y54497634D01*
X50795093Y54523286D01*
X50795093Y54599477D01*
X50792328Y54607072D01*
X50793453Y54615077D01*
X50783693Y54639227D01*
X50736074Y54715417D01*
X50735450Y54715904D01*
X50719326Y54734232D01*
X50671707Y54772327D01*
X50669195Y54773176D01*
X50652710Y54783397D01*
X50557472Y54821494D01*
X50554069Y54821601D01*
X50544326Y54825402D01*
X50360599Y54862148D01*
X50282075Y54893557D01*
X50253113Y54916727D01*
X50223665Y54963844D01*
X50223665Y54997015D01*
X50253113Y55044132D01*
X50282075Y55067302D01*
X50353585Y55095905D01*
X50567406Y55095905D01*
X50700768Y55060342D01*
X50751871Y55064875D01*
X50788104Y55101195D01*
X50792514Y55152308D01*
X50763038Y55194298D01*
X50739418Y55205278D01*
X50596561Y55243373D01*
X50593257Y55243081D01*
X50577236Y55245905D01*
X50339141Y55245905D01*
X50337968Y55245479D01*
X50336784Y55245868D01*
X50311286Y55240541D01*
X50216049Y55202446D01*
X50214073Y55200680D01*
X50197051Y55191375D01*
X50149432Y55153280D01*
X50149023Y55152609D01*
X50132684Y55134465D01*
X50085065Y55058274D01*
X50083383Y55050369D01*
X50078188Y55044176D01*
X50073665Y55018524D01*
X50073665Y54942334D01*
X49652236Y54942334D01*
X49652236Y55095905D01*
X49862950Y55095905D01*
X49911159Y55113452D01*
X49936811Y55157881D01*
X49927902Y55208405D01*
X49888602Y55241382D01*
X49862950Y55245905D01*
X49291522Y55245905D01*
X49243313Y55228358D01*
X49217661Y55183929D01*
X48966729Y55183929D01*
X48957421Y55191375D01*
X48954911Y55192223D01*
X48938423Y55202446D01*
X48843185Y55240541D01*
X48841938Y55240581D01*
X48840983Y55241382D01*
X48815331Y55245905D01*
X48434379Y55245905D01*
X48416070Y55239242D01*
X48396879Y55235857D01*
X48392528Y55230673D01*
X48386170Y55228358D01*
X48376427Y55211485D01*
X48363902Y55196557D01*
X48362184Y55186815D01*
X48360518Y55183929D01*
X48361096Y55180647D01*
X48359379Y55170905D01*
X48359379Y54370905D01*
X48197474Y54370905D01*
X48197474Y56946905D01*
X48359379Y56946905D01*
X48366042Y56928597D01*
X48369427Y56909405D01*
X48374611Y56905055D01*
X48376926Y56898696D01*
X48393799Y56888954D01*
X48408727Y56876428D01*
X48418469Y56874711D01*
X48421355Y56873044D01*
X48424637Y56873623D01*
X48434379Y56871905D01*
X48672474Y56871905D01*
X48675587Y56873039D01*
X48691799Y56874437D01*
X48834656Y56912532D01*
X48836760Y56914003D01*
X48839327Y56913942D01*
X48862183Y56926435D01*
X48957422Y57002626D01*
X48957832Y57003301D01*
X48974169Y57021441D01*
X49021788Y57097631D01*
X49022489Y57100928D01*
X49029774Y57115010D01*
X49077393Y57267391D01*
X49077282Y57269775D01*
X49080807Y57289762D01*
X49080807Y57404048D01*
X49079990Y57406291D01*
X49077393Y57426419D01*
X49048670Y57518334D01*
X49311760Y57518334D01*
X49314524Y57510740D01*
X49313400Y57502734D01*
X49323160Y57478584D01*
X49370779Y57402393D01*
X49371402Y57401907D01*
X49387527Y57383578D01*
X49435146Y57345483D01*
X49437656Y57344636D01*
X49454144Y57334412D01*
X49549381Y57296317D01*
X49552783Y57296211D01*
X49562527Y57292409D01*
X49746250Y57255665D01*
X49824778Y57224253D01*
X49853739Y57201084D01*
X49883188Y57153967D01*
X49883188Y57120797D01*
X49853739Y57073680D01*
X49824776Y57050509D01*
X49753268Y57021905D01*
X49539447Y57021905D01*
X49406085Y57057468D01*
X49354982Y57052935D01*
X49318749Y57016615D01*
X49314339Y56965502D01*
X49343815Y56923512D01*
X49367435Y56912532D01*
X49510292Y56874437D01*
X49513595Y56874730D01*
X49529617Y56871905D01*
X49767712Y56871905D01*
X49768884Y56872332D01*
X49770069Y56871942D01*
X49795566Y56877269D01*
X49890804Y56915364D01*
X49892778Y56917130D01*
X49909803Y56926435D01*
X49935389Y56946905D01*
X50311760Y56946905D01*
X50329307Y56898696D01*
X50373736Y56873044D01*
X50424260Y56881953D01*
X50457237Y56921253D01*
X50461760Y56946905D01*
X50461760Y57252858D01*
X50590822Y57252858D01*
X50901745Y56897517D01*
X50946696Y56872791D01*
X50997024Y56882742D01*
X51029181Y56922717D01*
X51028120Y56974009D01*
X51014632Y56996293D01*
X50787008Y57256435D01*
X50795566Y57258222D01*
X50890804Y57296317D01*
X50892779Y57298084D01*
X50909802Y57307388D01*
X50957421Y57345483D01*
X50957831Y57346158D01*
X50974169Y57364298D01*
X51021788Y57440489D01*
X51023469Y57448395D01*
X51028665Y57454587D01*
X51033188Y57480239D01*
X51033188Y57594524D01*
X51030423Y57602119D01*
X51031548Y57610124D01*
X51021788Y57634274D01*
X50974169Y57710465D01*
X50973545Y57710952D01*
X50957421Y57729280D01*
X50909802Y57767375D01*
X50907292Y57768223D01*
X50890804Y57778446D01*
X50795566Y57816541D01*
X50794319Y57816581D01*
X50793364Y57817382D01*
X50767712Y57821905D01*
X50386760Y57821905D01*
X50368451Y57815242D01*
X50349260Y57811857D01*
X50344909Y57806673D01*
X50338551Y57804358D01*
X50328808Y57787485D01*
X50316283Y57772557D01*
X50314565Y57762815D01*
X50312899Y57759929D01*
X50313477Y57756647D01*
X50311760Y57746905D01*
X50311760Y56946905D01*
X49935389Y56946905D01*
X49957422Y56964532D01*
X49957831Y56965204D01*
X49974169Y56983346D01*
X50021788Y57059536D01*
X50023469Y57067442D01*
X50028665Y57073634D01*
X50033188Y57099286D01*
X50033188Y57175477D01*
X50030423Y57183072D01*
X50031548Y57191077D01*
X50021788Y57215227D01*
X49974169Y57291417D01*
X49973545Y57291904D01*
X49957421Y57310232D01*
X49909802Y57348327D01*
X49907290Y57349176D01*
X49890805Y57359397D01*
X49795567Y57397494D01*
X49792164Y57397601D01*
X49782421Y57401402D01*
X49598694Y57438148D01*
X49520170Y57469557D01*
X49491208Y57492727D01*
X49461759Y57539844D01*
X49461759Y57573015D01*
X49491208Y57620132D01*
X49520170Y57643302D01*
X49591680Y57671905D01*
X49805501Y57671905D01*
X49938863Y57636342D01*
X49989966Y57640875D01*
X50026199Y57677195D01*
X50030609Y57728308D01*
X50001133Y57770298D01*
X49977513Y57781278D01*
X49834656Y57819373D01*
X49831352Y57819081D01*
X49815331Y57821905D01*
X49577236Y57821905D01*
X49576063Y57821479D01*
X49574879Y57821868D01*
X49549381Y57816541D01*
X49454144Y57778446D01*
X49452168Y57776680D01*
X49435146Y57767375D01*
X49387527Y57729280D01*
X49387118Y57728609D01*
X49370779Y57710465D01*
X49323160Y57634274D01*
X49321478Y57626369D01*
X49316283Y57620176D01*
X49311760Y57594524D01*
X49311760Y57518334D01*
X49048670Y57518334D01*
X49029774Y57578800D01*
X49027728Y57581480D01*
X49021788Y57596179D01*
X48974169Y57672370D01*
X48973545Y57672857D01*
X48957421Y57691185D01*
X48862183Y57767375D01*
X48859751Y57768197D01*
X48858276Y57770298D01*
X48834656Y57781278D01*
X48691799Y57819373D01*
X48688495Y57819081D01*
X48672474Y57821905D01*
X48434379Y57821905D01*
X48416070Y57815242D01*
X48396879Y57811857D01*
X48392528Y57806673D01*
X48386170Y57804358D01*
X48376427Y57787485D01*
X48363902Y57772557D01*
X48362184Y57762815D01*
X48360518Y57759929D01*
X48361096Y57756647D01*
X48359379Y57746905D01*
X48359379Y56946905D01*
X48197474Y56946905D01*
X48197474Y59522905D01*
X48359379Y59522905D01*
X48366042Y59504597D01*
X48369427Y59485405D01*
X48374611Y59481055D01*
X48376926Y59474696D01*
X48393799Y59464954D01*
X48408727Y59452428D01*
X48418469Y59450711D01*
X48421355Y59449044D01*
X48424637Y59449623D01*
X48434379Y59447905D01*
X48672474Y59447905D01*
X48675587Y59449039D01*
X48691799Y59450437D01*
X48834656Y59488532D01*
X48836760Y59490003D01*
X48839327Y59489942D01*
X48862183Y59502435D01*
X48957422Y59578626D01*
X48957832Y59579301D01*
X48974169Y59597441D01*
X49021788Y59673631D01*
X49022489Y59676928D01*
X49029774Y59691010D01*
X49077393Y59843391D01*
X49077282Y59845775D01*
X49080807Y59865762D01*
X49311760Y59865762D01*
X49312576Y59863520D01*
X49315174Y59843391D01*
X49362793Y59691011D01*
X49364837Y59688333D01*
X49370779Y59673631D01*
X49418398Y59597441D01*
X49419020Y59596955D01*
X49435146Y59578626D01*
X49530384Y59502435D01*
X49532815Y59501614D01*
X49534291Y59499512D01*
X49557911Y59488532D01*
X49700768Y59450437D01*
X49704071Y59450730D01*
X49720093Y59447905D01*
X49815331Y59447905D01*
X49818444Y59449039D01*
X49834656Y59450437D01*
X49977513Y59488532D01*
X49979617Y59490003D01*
X49982185Y59489942D01*
X50005041Y59502435D01*
X50030627Y59522905D01*
X50359379Y59522905D01*
X50366042Y59504597D01*
X50369427Y59485405D01*
X50374611Y59481055D01*
X50376926Y59474696D01*
X50393799Y59464954D01*
X50408727Y59452428D01*
X50418469Y59450711D01*
X50421355Y59449044D01*
X50424637Y59449623D01*
X50434379Y59447905D01*
X50672474Y59447905D01*
X50675587Y59449039D01*
X50691799Y59450437D01*
X50834656Y59488532D01*
X50836760Y59490003D01*
X50839327Y59489942D01*
X50862183Y59502435D01*
X50957422Y59578626D01*
X50957832Y59579301D01*
X50974169Y59597441D01*
X51021788Y59673631D01*
X51022489Y59676928D01*
X51029774Y59691010D01*
X51077393Y59843391D01*
X51077282Y59845775D01*
X51080807Y59865762D01*
X51080807Y59980048D01*
X51079990Y59982291D01*
X51077393Y60002419D01*
X51029774Y60154800D01*
X51027728Y60157480D01*
X51021788Y60172179D01*
X50974169Y60248370D01*
X50973545Y60248857D01*
X50957421Y60267185D01*
X50862183Y60343375D01*
X50859751Y60344197D01*
X50858276Y60346298D01*
X50834656Y60357278D01*
X50691799Y60395373D01*
X50688495Y60395081D01*
X50672474Y60397905D01*
X50434379Y60397905D01*
X50416070Y60391242D01*
X50396879Y60387857D01*
X50392528Y60382673D01*
X50386170Y60380358D01*
X50376427Y60363485D01*
X50363902Y60348557D01*
X50362184Y60338815D01*
X50360518Y60335929D01*
X50361096Y60332647D01*
X50359379Y60322905D01*
X50359379Y59522905D01*
X50030627Y59522905D01*
X50052660Y59540532D01*
X50079343Y59584350D01*
X50071619Y59635068D01*
X50033100Y59668954D01*
X49981811Y59670154D01*
X49958955Y59657661D01*
X49923639Y59629409D01*
X49805501Y59597905D01*
X49729923Y59597905D01*
X49611784Y59629409D01*
X49538827Y59687775D01*
X49503089Y59744955D01*
X49461760Y59877209D01*
X49461760Y59968602D01*
X49503089Y60100856D01*
X49538827Y60158037D01*
X49611783Y60216402D01*
X49729923Y60247905D01*
X49805501Y60247905D01*
X49923640Y60216402D01*
X49958955Y60188150D01*
X50007562Y60171736D01*
X50055347Y60190404D01*
X50079952Y60235423D01*
X50069864Y60285724D01*
X50052659Y60305280D01*
X50005040Y60343375D01*
X50002608Y60344197D01*
X50001133Y60346298D01*
X49977513Y60357278D01*
X49834656Y60395373D01*
X49831352Y60395081D01*
X49815331Y60397905D01*
X49720093Y60397905D01*
X49716979Y60396772D01*
X49700768Y60395373D01*
X49557911Y60357278D01*
X49555806Y60355808D01*
X49553240Y60355868D01*
X49530384Y60343375D01*
X49435146Y60267185D01*
X49434737Y60266514D01*
X49418398Y60248370D01*
X49370779Y60172179D01*
X49370077Y60168882D01*
X49362793Y60154799D01*
X49315174Y60002419D01*
X49315284Y60000036D01*
X49311760Y59980048D01*
X49311760Y59865762D01*
X49080807Y59865762D01*
X49080807Y59980048D01*
X49079990Y59982291D01*
X49077393Y60002419D01*
X49029774Y60154800D01*
X49027728Y60157480D01*
X49021788Y60172179D01*
X48974169Y60248370D01*
X48973545Y60248857D01*
X48957421Y60267185D01*
X48862183Y60343375D01*
X48859751Y60344197D01*
X48858276Y60346298D01*
X48834656Y60357278D01*
X48691799Y60395373D01*
X48688495Y60395081D01*
X48672474Y60397905D01*
X48434379Y60397905D01*
X48416070Y60391242D01*
X48396879Y60387857D01*
X48392528Y60382673D01*
X48386170Y60380358D01*
X48376427Y60363485D01*
X48363902Y60348557D01*
X48362184Y60338815D01*
X48360518Y60335929D01*
X48361096Y60332647D01*
X48359379Y60322905D01*
X48359379Y59522905D01*
X48197474Y59522905D01*
X48197474Y60512191D01*
X51195093Y60512191D01*
X51195093Y46453619D01*
G37*
X18055979Y42754181D02*
X18055979Y43754181D01*
X18532169Y42754181D02*
X18532169Y43754181D01*
X18532169Y43754181D02*
X19103597Y42754181D01*
X19103597Y42754181D02*
X19103597Y43754181D01*
X20055978Y43754181D02*
X19579788Y43754181D01*
X19579788Y43754181D02*
X19532169Y43277991D01*
X19532169Y43277991D02*
X19579788Y43325610D01*
X19579788Y43325610D02*
X19675026Y43373229D01*
X19675026Y43373229D02*
X19913121Y43373229D01*
X19913121Y43373229D02*
X20008359Y43325610D01*
X20008359Y43325610D02*
X20055978Y43277991D01*
X20055978Y43277991D02*
X20103597Y43182753D01*
X20103597Y43182753D02*
X20103597Y42944658D01*
X20103597Y42944658D02*
X20055978Y42849420D01*
X20055978Y42849420D02*
X20008359Y42801800D01*
X20008359Y42801800D02*
X19913121Y42754181D01*
X19913121Y42754181D02*
X19675026Y42754181D01*
X19675026Y42754181D02*
X19579788Y42801800D01*
X19579788Y42801800D02*
X19532169Y42849420D01*
G36*
X33540783Y29048402D02*
G01*
X33613739Y28990037D01*
X33649477Y28932856D01*
X33690807Y28800603D01*
X33690807Y28709208D01*
X33649477Y28576955D01*
X33613739Y28519775D01*
X33540783Y28461409D01*
X33422644Y28429905D01*
X33269379Y28429905D01*
X33269379Y29079905D01*
X33422644Y29079905D01*
X33540783Y29048402D01*
G37*
G36*
X35394302Y29051301D02*
G01*
X35423263Y29028132D01*
X35452712Y28981015D01*
X35452712Y28909749D01*
X35423263Y28862632D01*
X35394302Y28839463D01*
X35322792Y28810858D01*
X35031284Y28810858D01*
X35031284Y29079905D01*
X35322792Y29079905D01*
X35394302Y29051301D01*
G37*
G36*
X33632397Y31627301D02*
G01*
X33661358Y31604132D01*
X33690807Y31557015D01*
X33690807Y31485749D01*
X33661358Y31438632D01*
X33632397Y31415463D01*
X33560887Y31386858D01*
X33269379Y31386858D01*
X33269379Y31655905D01*
X33560887Y31655905D01*
X33632397Y31627301D01*
G37*
G36*
X33632397Y36779301D02*
G01*
X33661358Y36756132D01*
X33690807Y36709015D01*
X33690807Y36637749D01*
X33661358Y36590632D01*
X33632397Y36567463D01*
X33560887Y36538858D01*
X33269379Y36538858D01*
X33269379Y36807905D01*
X33560887Y36807905D01*
X33632397Y36779301D01*
G37*
G36*
X33540783Y39352402D02*
G01*
X33613739Y39294037D01*
X33649477Y39236856D01*
X33690807Y39104603D01*
X33690807Y39013208D01*
X33649477Y38880955D01*
X33613739Y38823775D01*
X33540783Y38765409D01*
X33422644Y38733905D01*
X33269379Y38733905D01*
X33269379Y39383905D01*
X33422644Y39383905D01*
X33540783Y39352402D01*
G37*
G36*
X35584778Y39355301D02*
G01*
X35613739Y39332132D01*
X35643188Y39285015D01*
X35643188Y39213749D01*
X35613739Y39166632D01*
X35584778Y39143463D01*
X35513268Y39114858D01*
X35221760Y39114858D01*
X35221760Y39383905D01*
X35513268Y39383905D01*
X35584778Y39355301D01*
G37*
G36*
X33540783Y41928402D02*
G01*
X33613739Y41870037D01*
X33649477Y41812856D01*
X33690807Y41680603D01*
X33690807Y41589208D01*
X33649477Y41456955D01*
X33613739Y41399775D01*
X33540783Y41341409D01*
X33422644Y41309905D01*
X33269379Y41309905D01*
X33269379Y41959905D01*
X33422644Y41959905D01*
X33540783Y41928402D01*
G37*
G36*
X35540783Y41928402D02*
G01*
X35613739Y41870037D01*
X35649477Y41812856D01*
X35690807Y41680603D01*
X35690807Y41589208D01*
X35649477Y41456955D01*
X35613739Y41399775D01*
X35540783Y41341409D01*
X35422644Y41309905D01*
X35269379Y41309905D01*
X35269379Y41959905D01*
X35422644Y41959905D01*
X35540783Y41928402D01*
G37*
G36*
X35955093Y28165619D02*
G01*
X32957474Y28165619D01*
X32957474Y28354905D01*
X33119379Y28354905D01*
X33126042Y28336597D01*
X33129427Y28317405D01*
X33134611Y28313055D01*
X33136926Y28306696D01*
X33153799Y28296954D01*
X33168727Y28284428D01*
X33178469Y28282711D01*
X33181355Y28281044D01*
X33184637Y28281623D01*
X33194379Y28279905D01*
X33432474Y28279905D01*
X33435587Y28281039D01*
X33451799Y28282437D01*
X33594656Y28320532D01*
X33596760Y28322003D01*
X33599327Y28321942D01*
X33622183Y28334435D01*
X33717422Y28410626D01*
X33717832Y28411301D01*
X33734169Y28429441D01*
X33781788Y28505631D01*
X33782489Y28508928D01*
X33789774Y28523010D01*
X33837393Y28675391D01*
X33837282Y28677775D01*
X33840807Y28697762D01*
X33840807Y28812048D01*
X33839990Y28814291D01*
X33837393Y28834419D01*
X33789774Y28986800D01*
X33787728Y28989480D01*
X33781788Y29004179D01*
X33734169Y29080370D01*
X33733545Y29080857D01*
X33717421Y29099185D01*
X33631491Y29167929D01*
X33977661Y29167929D01*
X33986570Y29117405D01*
X34025870Y29084428D01*
X34051522Y29079905D01*
X34262236Y29079905D01*
X34262236Y28354905D01*
X34279783Y28306696D01*
X34324212Y28281044D01*
X34374736Y28289953D01*
X34407713Y28329253D01*
X34412236Y28354905D01*
X34881284Y28354905D01*
X34898831Y28306696D01*
X34943260Y28281044D01*
X34993784Y28289953D01*
X35026761Y28329253D01*
X35031284Y28354905D01*
X35031284Y28660858D01*
X35160346Y28660858D01*
X35471269Y28305517D01*
X35516220Y28280791D01*
X35566548Y28290742D01*
X35598705Y28330717D01*
X35597644Y28382009D01*
X35584156Y28404293D01*
X35356532Y28664435D01*
X35365090Y28666222D01*
X35460328Y28704317D01*
X35462303Y28706084D01*
X35479326Y28715388D01*
X35526945Y28753483D01*
X35527355Y28754158D01*
X35543693Y28772298D01*
X35591312Y28848489D01*
X35592993Y28856395D01*
X35598189Y28862587D01*
X35602712Y28888239D01*
X35602712Y29002524D01*
X35599947Y29010119D01*
X35601072Y29018124D01*
X35591312Y29042274D01*
X35543693Y29118465D01*
X35543069Y29118952D01*
X35526945Y29137280D01*
X35479326Y29175375D01*
X35476816Y29176223D01*
X35460328Y29186446D01*
X35365090Y29224541D01*
X35363843Y29224581D01*
X35362888Y29225382D01*
X35337236Y29229905D01*
X34956284Y29229905D01*
X34937975Y29223242D01*
X34918784Y29219857D01*
X34914433Y29214673D01*
X34908075Y29212358D01*
X34898332Y29195485D01*
X34885807Y29180557D01*
X34884089Y29170815D01*
X34882423Y29167929D01*
X34883001Y29164647D01*
X34881284Y29154905D01*
X34881284Y28354905D01*
X34412236Y28354905D01*
X34412236Y29079905D01*
X34622950Y29079905D01*
X34671159Y29097452D01*
X34696811Y29141881D01*
X34687902Y29192405D01*
X34648602Y29225382D01*
X34622950Y29229905D01*
X34051522Y29229905D01*
X34003313Y29212358D01*
X33977661Y29167929D01*
X33631491Y29167929D01*
X33622183Y29175375D01*
X33619751Y29176197D01*
X33618276Y29178298D01*
X33594656Y29189278D01*
X33451799Y29227373D01*
X33448495Y29227081D01*
X33432474Y29229905D01*
X33194379Y29229905D01*
X33176070Y29223242D01*
X33156879Y29219857D01*
X33152528Y29214673D01*
X33146170Y29212358D01*
X33136427Y29195485D01*
X33123902Y29180557D01*
X33122184Y29170815D01*
X33120518Y29167929D01*
X33121096Y29164647D01*
X33119379Y29154905D01*
X33119379Y28354905D01*
X32957474Y28354905D01*
X32957474Y30930905D01*
X33119379Y30930905D01*
X33136926Y30882696D01*
X33181355Y30857044D01*
X33231879Y30865953D01*
X33264856Y30905253D01*
X33269379Y30930905D01*
X33269379Y31236858D01*
X33398441Y31236858D01*
X33709364Y30881517D01*
X33754315Y30856791D01*
X33804643Y30866742D01*
X33836800Y30906717D01*
X33836300Y30930905D01*
X34119379Y30930905D01*
X34136926Y30882696D01*
X34181355Y30857044D01*
X34231879Y30865953D01*
X34264856Y30905253D01*
X34269379Y30930905D01*
X34269379Y31730905D01*
X34251832Y31779114D01*
X34207403Y31804766D01*
X34156879Y31795857D01*
X34123902Y31756557D01*
X34119379Y31730905D01*
X34119379Y30930905D01*
X33836300Y30930905D01*
X33835739Y30958009D01*
X33822251Y30980293D01*
X33594627Y31240435D01*
X33603185Y31242222D01*
X33698423Y31280317D01*
X33700398Y31282084D01*
X33717421Y31291388D01*
X33765040Y31329483D01*
X33765450Y31330158D01*
X33781788Y31348298D01*
X33829407Y31424489D01*
X33831088Y31432395D01*
X33836284Y31438587D01*
X33840807Y31464239D01*
X33840807Y31578524D01*
X33838042Y31586119D01*
X33839167Y31594124D01*
X33829407Y31618274D01*
X33781788Y31694465D01*
X33781164Y31694952D01*
X33765040Y31713280D01*
X33717421Y31751375D01*
X33714911Y31752223D01*
X33698423Y31762446D01*
X33603185Y31800541D01*
X33601938Y31800581D01*
X33600983Y31801382D01*
X33575331Y31805905D01*
X33194379Y31805905D01*
X33176070Y31799242D01*
X33156879Y31795857D01*
X33152528Y31790673D01*
X33146170Y31788358D01*
X33136427Y31771485D01*
X33123902Y31756557D01*
X33122184Y31746815D01*
X33120518Y31743929D01*
X33121096Y31740647D01*
X33119379Y31730905D01*
X33119379Y30930905D01*
X32957474Y30930905D01*
X32957474Y33849762D01*
X33071760Y33849762D01*
X33072576Y33847520D01*
X33075174Y33827391D01*
X33122793Y33675011D01*
X33124837Y33672333D01*
X33130779Y33657631D01*
X33178398Y33581441D01*
X33179020Y33580955D01*
X33195146Y33562626D01*
X33290384Y33486435D01*
X33292815Y33485614D01*
X33294291Y33483512D01*
X33317911Y33472532D01*
X33460768Y33434437D01*
X33464071Y33434730D01*
X33480093Y33431905D01*
X33575331Y33431905D01*
X33578444Y33433039D01*
X33594656Y33434437D01*
X33737513Y33472532D01*
X33739617Y33474003D01*
X33742185Y33473942D01*
X33765041Y33486435D01*
X33812660Y33524532D01*
X33839343Y33568350D01*
X33831619Y33619068D01*
X33793100Y33652954D01*
X33741811Y33654154D01*
X33718955Y33641661D01*
X33683639Y33613409D01*
X33565501Y33581905D01*
X33489923Y33581905D01*
X33371784Y33613409D01*
X33298827Y33671775D01*
X33263089Y33728955D01*
X33221760Y33861209D01*
X33221760Y33952602D01*
X33263089Y34084856D01*
X33298827Y34142037D01*
X33371783Y34200402D01*
X33489923Y34231905D01*
X33565501Y34231905D01*
X33683640Y34200402D01*
X33718955Y34172150D01*
X33767562Y34155736D01*
X33815347Y34174404D01*
X33839952Y34219423D01*
X33829864Y34269724D01*
X33812659Y34289280D01*
X33774348Y34319929D01*
X33977661Y34319929D01*
X33986570Y34269405D01*
X34025870Y34236428D01*
X34051522Y34231905D01*
X34262236Y34231905D01*
X34262236Y33506905D01*
X34279783Y33458696D01*
X34324212Y33433044D01*
X34374736Y33441953D01*
X34407713Y33481253D01*
X34412236Y33506905D01*
X34412236Y34078334D01*
X34833665Y34078334D01*
X34836429Y34070740D01*
X34835305Y34062734D01*
X34845065Y34038584D01*
X34892684Y33962393D01*
X34893307Y33961907D01*
X34909432Y33943578D01*
X34957051Y33905483D01*
X34959561Y33904636D01*
X34976049Y33894412D01*
X35071286Y33856317D01*
X35074688Y33856211D01*
X35084432Y33852409D01*
X35268155Y33815665D01*
X35346683Y33784253D01*
X35375644Y33761084D01*
X35405093Y33713967D01*
X35405093Y33680797D01*
X35375644Y33633680D01*
X35346681Y33610509D01*
X35275173Y33581905D01*
X35061352Y33581905D01*
X34927990Y33617468D01*
X34876887Y33612935D01*
X34840654Y33576615D01*
X34836244Y33525502D01*
X34865720Y33483512D01*
X34889340Y33472532D01*
X35032197Y33434437D01*
X35035500Y33434730D01*
X35051522Y33431905D01*
X35289617Y33431905D01*
X35290789Y33432332D01*
X35291974Y33431942D01*
X35317471Y33437269D01*
X35412709Y33475364D01*
X35414683Y33477130D01*
X35431708Y33486435D01*
X35479327Y33524532D01*
X35479736Y33525204D01*
X35496074Y33543346D01*
X35543693Y33619536D01*
X35545374Y33627442D01*
X35550570Y33633634D01*
X35555093Y33659286D01*
X35555093Y33735477D01*
X35552328Y33743072D01*
X35553453Y33751077D01*
X35543693Y33775227D01*
X35496074Y33851417D01*
X35495450Y33851904D01*
X35479326Y33870232D01*
X35431707Y33908327D01*
X35429195Y33909176D01*
X35412710Y33919397D01*
X35317472Y33957494D01*
X35314069Y33957601D01*
X35304326Y33961402D01*
X35120599Y33998148D01*
X35042075Y34029557D01*
X35013113Y34052727D01*
X34983665Y34099844D01*
X34983665Y34133015D01*
X35013113Y34180132D01*
X35042075Y34203302D01*
X35113585Y34231905D01*
X35327406Y34231905D01*
X35460768Y34196342D01*
X35511871Y34200875D01*
X35548104Y34237195D01*
X35552514Y34288308D01*
X35523038Y34330298D01*
X35499418Y34341278D01*
X35356561Y34379373D01*
X35353257Y34379081D01*
X35337236Y34381905D01*
X35099141Y34381905D01*
X35097968Y34381479D01*
X35096784Y34381868D01*
X35071286Y34376541D01*
X34976049Y34338446D01*
X34974073Y34336680D01*
X34957051Y34327375D01*
X34909432Y34289280D01*
X34909023Y34288609D01*
X34892684Y34270465D01*
X34845065Y34194274D01*
X34843383Y34186369D01*
X34838188Y34180176D01*
X34833665Y34154524D01*
X34833665Y34078334D01*
X34412236Y34078334D01*
X34412236Y34231905D01*
X34622950Y34231905D01*
X34671159Y34249452D01*
X34696811Y34293881D01*
X34687902Y34344405D01*
X34648602Y34377382D01*
X34622950Y34381905D01*
X34051522Y34381905D01*
X34003313Y34364358D01*
X33977661Y34319929D01*
X33774348Y34319929D01*
X33765040Y34327375D01*
X33762608Y34328197D01*
X33761133Y34330298D01*
X33737513Y34341278D01*
X33594656Y34379373D01*
X33591352Y34379081D01*
X33575331Y34381905D01*
X33480093Y34381905D01*
X33476979Y34380772D01*
X33460768Y34379373D01*
X33317911Y34341278D01*
X33315806Y34339808D01*
X33313240Y34339868D01*
X33290384Y34327375D01*
X33195146Y34251185D01*
X33194737Y34250514D01*
X33178398Y34232370D01*
X33130779Y34156179D01*
X33130077Y34152882D01*
X33122793Y34138799D01*
X33075174Y33986419D01*
X33075284Y33984036D01*
X33071760Y33964048D01*
X33071760Y33849762D01*
X32957474Y33849762D01*
X32957474Y36082905D01*
X33119379Y36082905D01*
X33136926Y36034696D01*
X33181355Y36009044D01*
X33231879Y36017953D01*
X33264856Y36057253D01*
X33269379Y36082905D01*
X33269379Y36388858D01*
X33398441Y36388858D01*
X33709364Y36033517D01*
X33754315Y36008791D01*
X33804643Y36018742D01*
X33836800Y36058717D01*
X33835739Y36110009D01*
X33822251Y36132293D01*
X33594627Y36392435D01*
X33603185Y36394222D01*
X33698423Y36432317D01*
X33700398Y36434084D01*
X33717421Y36443388D01*
X33765040Y36481483D01*
X33765450Y36482158D01*
X33781788Y36500298D01*
X33829407Y36576489D01*
X33831088Y36584395D01*
X33836284Y36590587D01*
X33840807Y36616239D01*
X33840807Y36730524D01*
X33838042Y36738119D01*
X33839167Y36746124D01*
X33829407Y36770274D01*
X33781788Y36846465D01*
X33781164Y36846952D01*
X33765040Y36865280D01*
X33726729Y36895929D01*
X33977661Y36895929D01*
X33986570Y36845405D01*
X34025870Y36812428D01*
X34051522Y36807905D01*
X34262236Y36807905D01*
X34262236Y36082905D01*
X34279783Y36034696D01*
X34324212Y36009044D01*
X34374736Y36017953D01*
X34407713Y36057253D01*
X34412236Y36082905D01*
X34412236Y36654334D01*
X34833665Y36654334D01*
X34836429Y36646740D01*
X34835305Y36638734D01*
X34845065Y36614584D01*
X34892684Y36538393D01*
X34893307Y36537907D01*
X34909432Y36519578D01*
X34957051Y36481483D01*
X34959561Y36480636D01*
X34976049Y36470412D01*
X35071286Y36432317D01*
X35074688Y36432211D01*
X35084432Y36428409D01*
X35268155Y36391665D01*
X35346683Y36360253D01*
X35375644Y36337084D01*
X35405093Y36289967D01*
X35405093Y36256797D01*
X35375644Y36209680D01*
X35346681Y36186509D01*
X35275173Y36157905D01*
X35061352Y36157905D01*
X34927990Y36193468D01*
X34876887Y36188935D01*
X34840654Y36152615D01*
X34836244Y36101502D01*
X34865720Y36059512D01*
X34889340Y36048532D01*
X35032197Y36010437D01*
X35035500Y36010730D01*
X35051522Y36007905D01*
X35289617Y36007905D01*
X35290789Y36008332D01*
X35291974Y36007942D01*
X35317471Y36013269D01*
X35412709Y36051364D01*
X35414683Y36053130D01*
X35431708Y36062435D01*
X35479327Y36100532D01*
X35479736Y36101204D01*
X35496074Y36119346D01*
X35543693Y36195536D01*
X35545374Y36203442D01*
X35550570Y36209634D01*
X35555093Y36235286D01*
X35555093Y36311477D01*
X35552328Y36319072D01*
X35553453Y36327077D01*
X35543693Y36351227D01*
X35496074Y36427417D01*
X35495450Y36427904D01*
X35479326Y36446232D01*
X35431707Y36484327D01*
X35429195Y36485176D01*
X35412710Y36495397D01*
X35317472Y36533494D01*
X35314069Y36533601D01*
X35304326Y36537402D01*
X35120599Y36574148D01*
X35042075Y36605557D01*
X35013113Y36628727D01*
X34983665Y36675844D01*
X34983665Y36709015D01*
X35013113Y36756132D01*
X35042075Y36779302D01*
X35113585Y36807905D01*
X35327406Y36807905D01*
X35460768Y36772342D01*
X35511871Y36776875D01*
X35548104Y36813195D01*
X35552514Y36864308D01*
X35523038Y36906298D01*
X35499418Y36917278D01*
X35356561Y36955373D01*
X35353257Y36955081D01*
X35337236Y36957905D01*
X35099141Y36957905D01*
X35097968Y36957479D01*
X35096784Y36957868D01*
X35071286Y36952541D01*
X34976049Y36914446D01*
X34974073Y36912680D01*
X34957051Y36903375D01*
X34909432Y36865280D01*
X34909023Y36864609D01*
X34892684Y36846465D01*
X34845065Y36770274D01*
X34843383Y36762369D01*
X34838188Y36756176D01*
X34833665Y36730524D01*
X34833665Y36654334D01*
X34412236Y36654334D01*
X34412236Y36807905D01*
X34622950Y36807905D01*
X34671159Y36825452D01*
X34696811Y36869881D01*
X34687902Y36920405D01*
X34648602Y36953382D01*
X34622950Y36957905D01*
X34051522Y36957905D01*
X34003313Y36940358D01*
X33977661Y36895929D01*
X33726729Y36895929D01*
X33717421Y36903375D01*
X33714911Y36904223D01*
X33698423Y36914446D01*
X33603185Y36952541D01*
X33601938Y36952581D01*
X33600983Y36953382D01*
X33575331Y36957905D01*
X33194379Y36957905D01*
X33176070Y36951242D01*
X33156879Y36947857D01*
X33152528Y36942673D01*
X33146170Y36940358D01*
X33136427Y36923485D01*
X33123902Y36908557D01*
X33122184Y36898815D01*
X33120518Y36895929D01*
X33121096Y36892647D01*
X33119379Y36882905D01*
X33119379Y36082905D01*
X32957474Y36082905D01*
X32957474Y38658905D01*
X33119379Y38658905D01*
X33126042Y38640597D01*
X33129427Y38621405D01*
X33134611Y38617055D01*
X33136926Y38610696D01*
X33153799Y38600954D01*
X33168727Y38588428D01*
X33178469Y38586711D01*
X33181355Y38585044D01*
X33184637Y38585623D01*
X33194379Y38583905D01*
X33432474Y38583905D01*
X33435587Y38585039D01*
X33451799Y38586437D01*
X33594656Y38624532D01*
X33596760Y38626003D01*
X33599327Y38625942D01*
X33622183Y38638435D01*
X33717422Y38714626D01*
X33717832Y38715301D01*
X33734169Y38733441D01*
X33781788Y38809631D01*
X33782489Y38812928D01*
X33789774Y38827010D01*
X33837393Y38979391D01*
X33837282Y38981775D01*
X33840807Y39001762D01*
X33840807Y39116048D01*
X33839990Y39118291D01*
X33837393Y39138419D01*
X33808670Y39230334D01*
X34071760Y39230334D01*
X34074524Y39222740D01*
X34073400Y39214734D01*
X34083160Y39190584D01*
X34130779Y39114393D01*
X34131402Y39113907D01*
X34147527Y39095578D01*
X34195146Y39057483D01*
X34197656Y39056636D01*
X34214144Y39046412D01*
X34309381Y39008317D01*
X34312783Y39008211D01*
X34322527Y39004409D01*
X34506250Y38967665D01*
X34584778Y38936253D01*
X34613739Y38913084D01*
X34643188Y38865967D01*
X34643188Y38832797D01*
X34613739Y38785680D01*
X34584776Y38762509D01*
X34513268Y38733905D01*
X34299447Y38733905D01*
X34166085Y38769468D01*
X34114982Y38764935D01*
X34078749Y38728615D01*
X34074339Y38677502D01*
X34103815Y38635512D01*
X34127435Y38624532D01*
X34270292Y38586437D01*
X34273595Y38586730D01*
X34289617Y38583905D01*
X34527712Y38583905D01*
X34528884Y38584332D01*
X34530069Y38583942D01*
X34555566Y38589269D01*
X34650804Y38627364D01*
X34652778Y38629130D01*
X34669803Y38638435D01*
X34695389Y38658905D01*
X35071760Y38658905D01*
X35089307Y38610696D01*
X35133736Y38585044D01*
X35184260Y38593953D01*
X35217237Y38633253D01*
X35221760Y38658905D01*
X35221760Y38964858D01*
X35350822Y38964858D01*
X35661745Y38609517D01*
X35706696Y38584791D01*
X35757024Y38594742D01*
X35789181Y38634717D01*
X35788120Y38686009D01*
X35774632Y38708293D01*
X35547008Y38968435D01*
X35555566Y38970222D01*
X35650804Y39008317D01*
X35652779Y39010084D01*
X35669802Y39019388D01*
X35717421Y39057483D01*
X35717831Y39058158D01*
X35734169Y39076298D01*
X35781788Y39152489D01*
X35783469Y39160395D01*
X35788665Y39166587D01*
X35793188Y39192239D01*
X35793188Y39306524D01*
X35790423Y39314119D01*
X35791548Y39322124D01*
X35781788Y39346274D01*
X35734169Y39422465D01*
X35733545Y39422952D01*
X35717421Y39441280D01*
X35669802Y39479375D01*
X35667292Y39480223D01*
X35650804Y39490446D01*
X35555566Y39528541D01*
X35554319Y39528581D01*
X35553364Y39529382D01*
X35527712Y39533905D01*
X35146760Y39533905D01*
X35128451Y39527242D01*
X35109260Y39523857D01*
X35104909Y39518673D01*
X35098551Y39516358D01*
X35088808Y39499485D01*
X35076283Y39484557D01*
X35074565Y39474815D01*
X35072899Y39471929D01*
X35073477Y39468647D01*
X35071760Y39458905D01*
X35071760Y38658905D01*
X34695389Y38658905D01*
X34717422Y38676532D01*
X34717831Y38677204D01*
X34734169Y38695346D01*
X34781788Y38771536D01*
X34783469Y38779442D01*
X34788665Y38785634D01*
X34793188Y38811286D01*
X34793188Y38887477D01*
X34790423Y38895072D01*
X34791548Y38903077D01*
X34781788Y38927227D01*
X34734169Y39003417D01*
X34733545Y39003904D01*
X34717421Y39022232D01*
X34669802Y39060327D01*
X34667290Y39061176D01*
X34650805Y39071397D01*
X34555567Y39109494D01*
X34552164Y39109601D01*
X34542421Y39113402D01*
X34358694Y39150148D01*
X34280170Y39181557D01*
X34251208Y39204727D01*
X34221760Y39251844D01*
X34221760Y39285015D01*
X34251208Y39332132D01*
X34280170Y39355302D01*
X34351680Y39383905D01*
X34565501Y39383905D01*
X34698863Y39348342D01*
X34749966Y39352875D01*
X34786199Y39389195D01*
X34790609Y39440308D01*
X34761133Y39482298D01*
X34737513Y39493278D01*
X34594656Y39531373D01*
X34591352Y39531081D01*
X34575331Y39533905D01*
X34337236Y39533905D01*
X34336063Y39533479D01*
X34334879Y39533868D01*
X34309381Y39528541D01*
X34214144Y39490446D01*
X34212168Y39488680D01*
X34195146Y39479375D01*
X34147527Y39441280D01*
X34147118Y39440609D01*
X34130779Y39422465D01*
X34083160Y39346274D01*
X34081478Y39338369D01*
X34076283Y39332176D01*
X34071760Y39306524D01*
X34071760Y39230334D01*
X33808670Y39230334D01*
X33789774Y39290800D01*
X33787728Y39293480D01*
X33781788Y39308179D01*
X33734169Y39384370D01*
X33733545Y39384857D01*
X33717421Y39403185D01*
X33622183Y39479375D01*
X33619751Y39480197D01*
X33618276Y39482298D01*
X33594656Y39493278D01*
X33451799Y39531373D01*
X33448495Y39531081D01*
X33432474Y39533905D01*
X33194379Y39533905D01*
X33176070Y39527242D01*
X33156879Y39523857D01*
X33152528Y39518673D01*
X33146170Y39516358D01*
X33136427Y39499485D01*
X33123902Y39484557D01*
X33122184Y39474815D01*
X33120518Y39471929D01*
X33121096Y39468647D01*
X33119379Y39458905D01*
X33119379Y38658905D01*
X32957474Y38658905D01*
X32957474Y41234905D01*
X33119379Y41234905D01*
X33126042Y41216597D01*
X33129427Y41197405D01*
X33134611Y41193055D01*
X33136926Y41186696D01*
X33153799Y41176954D01*
X33168727Y41164428D01*
X33178469Y41162711D01*
X33181355Y41161044D01*
X33184637Y41161623D01*
X33194379Y41159905D01*
X33432474Y41159905D01*
X33435587Y41161039D01*
X33451799Y41162437D01*
X33594656Y41200532D01*
X33596760Y41202003D01*
X33599327Y41201942D01*
X33622183Y41214435D01*
X33717422Y41290626D01*
X33717832Y41291301D01*
X33734169Y41309441D01*
X33781788Y41385631D01*
X33782489Y41388928D01*
X33789774Y41403010D01*
X33837393Y41555391D01*
X33837282Y41557775D01*
X33840807Y41577762D01*
X34071760Y41577762D01*
X34072576Y41575520D01*
X34075174Y41555391D01*
X34122793Y41403011D01*
X34124837Y41400333D01*
X34130779Y41385631D01*
X34178398Y41309441D01*
X34179020Y41308955D01*
X34195146Y41290626D01*
X34290384Y41214435D01*
X34292815Y41213614D01*
X34294291Y41211512D01*
X34317911Y41200532D01*
X34460768Y41162437D01*
X34464071Y41162730D01*
X34480093Y41159905D01*
X34575331Y41159905D01*
X34578444Y41161039D01*
X34594656Y41162437D01*
X34737513Y41200532D01*
X34739617Y41202003D01*
X34742185Y41201942D01*
X34765041Y41214435D01*
X34790627Y41234905D01*
X35119379Y41234905D01*
X35126042Y41216597D01*
X35129427Y41197405D01*
X35134611Y41193055D01*
X35136926Y41186696D01*
X35153799Y41176954D01*
X35168727Y41164428D01*
X35178469Y41162711D01*
X35181355Y41161044D01*
X35184637Y41161623D01*
X35194379Y41159905D01*
X35432474Y41159905D01*
X35435587Y41161039D01*
X35451799Y41162437D01*
X35594656Y41200532D01*
X35596760Y41202003D01*
X35599327Y41201942D01*
X35622183Y41214435D01*
X35717422Y41290626D01*
X35717832Y41291301D01*
X35734169Y41309441D01*
X35781788Y41385631D01*
X35782489Y41388928D01*
X35789774Y41403010D01*
X35837393Y41555391D01*
X35837282Y41557775D01*
X35840807Y41577762D01*
X35840807Y41692048D01*
X35839990Y41694291D01*
X35837393Y41714419D01*
X35789774Y41866800D01*
X35787728Y41869480D01*
X35781788Y41884179D01*
X35734169Y41960370D01*
X35733545Y41960857D01*
X35717421Y41979185D01*
X35622183Y42055375D01*
X35619751Y42056197D01*
X35618276Y42058298D01*
X35594656Y42069278D01*
X35451799Y42107373D01*
X35448495Y42107081D01*
X35432474Y42109905D01*
X35194379Y42109905D01*
X35176070Y42103242D01*
X35156879Y42099857D01*
X35152528Y42094673D01*
X35146170Y42092358D01*
X35136427Y42075485D01*
X35123902Y42060557D01*
X35122184Y42050815D01*
X35120518Y42047929D01*
X35121096Y42044647D01*
X35119379Y42034905D01*
X35119379Y41234905D01*
X34790627Y41234905D01*
X34812660Y41252532D01*
X34839343Y41296350D01*
X34831619Y41347068D01*
X34793100Y41380954D01*
X34741811Y41382154D01*
X34718955Y41369661D01*
X34683639Y41341409D01*
X34565501Y41309905D01*
X34489923Y41309905D01*
X34371784Y41341409D01*
X34298827Y41399775D01*
X34263089Y41456955D01*
X34221760Y41589209D01*
X34221760Y41680602D01*
X34263089Y41812856D01*
X34298827Y41870037D01*
X34371783Y41928402D01*
X34489923Y41959905D01*
X34565501Y41959905D01*
X34683640Y41928402D01*
X34718955Y41900150D01*
X34767562Y41883736D01*
X34815347Y41902404D01*
X34839952Y41947423D01*
X34829864Y41997724D01*
X34812659Y42017280D01*
X34765040Y42055375D01*
X34762608Y42056197D01*
X34761133Y42058298D01*
X34737513Y42069278D01*
X34594656Y42107373D01*
X34591352Y42107081D01*
X34575331Y42109905D01*
X34480093Y42109905D01*
X34476979Y42108772D01*
X34460768Y42107373D01*
X34317911Y42069278D01*
X34315806Y42067808D01*
X34313240Y42067868D01*
X34290384Y42055375D01*
X34195146Y41979185D01*
X34194737Y41978514D01*
X34178398Y41960370D01*
X34130779Y41884179D01*
X34130077Y41880882D01*
X34122793Y41866799D01*
X34075174Y41714419D01*
X34075284Y41712036D01*
X34071760Y41692048D01*
X34071760Y41577762D01*
X33840807Y41577762D01*
X33840807Y41692048D01*
X33839990Y41694291D01*
X33837393Y41714419D01*
X33789774Y41866800D01*
X33787728Y41869480D01*
X33781788Y41884179D01*
X33734169Y41960370D01*
X33733545Y41960857D01*
X33717421Y41979185D01*
X33622183Y42055375D01*
X33619751Y42056197D01*
X33618276Y42058298D01*
X33594656Y42069278D01*
X33451799Y42107373D01*
X33448495Y42107081D01*
X33432474Y42109905D01*
X33194379Y42109905D01*
X33176070Y42103242D01*
X33156879Y42099857D01*
X33152528Y42094673D01*
X33146170Y42092358D01*
X33136427Y42075485D01*
X33123902Y42060557D01*
X33122184Y42050815D01*
X33120518Y42047929D01*
X33121096Y42044647D01*
X33119379Y42034905D01*
X33119379Y41234905D01*
X32957474Y41234905D01*
X32957474Y42224191D01*
X35955093Y42224191D01*
X35955093Y28165619D01*
G37*
X8486493Y2630781D02*
X8486493Y1916496D01*
X8486493Y1916496D02*
X8438874Y1773639D01*
X8438874Y1773639D02*
X8343636Y1678400D01*
X8343636Y1678400D02*
X8200779Y1630781D01*
X8200779Y1630781D02*
X8105541Y1630781D01*
X8962684Y2630781D02*
X8962684Y1821258D01*
X8962684Y1821258D02*
X9010303Y1726020D01*
X9010303Y1726020D02*
X9057922Y1678400D01*
X9057922Y1678400D02*
X9153160Y1630781D01*
X9153160Y1630781D02*
X9343636Y1630781D01*
X9343636Y1630781D02*
X9438874Y1678400D01*
X9438874Y1678400D02*
X9486493Y1726020D01*
X9486493Y1726020D02*
X9534112Y1821258D01*
X9534112Y1821258D02*
X9534112Y2630781D01*
X10343636Y2154591D02*
X10486493Y2106972D01*
X10486493Y2106972D02*
X10534112Y2059353D01*
X10534112Y2059353D02*
X10581731Y1964115D01*
X10581731Y1964115D02*
X10581731Y1821258D01*
X10581731Y1821258D02*
X10534112Y1726020D01*
X10534112Y1726020D02*
X10486493Y1678400D01*
X10486493Y1678400D02*
X10391255Y1630781D01*
X10391255Y1630781D02*
X10010303Y1630781D01*
X10010303Y1630781D02*
X10010303Y2630781D01*
X10010303Y2630781D02*
X10343636Y2630781D01*
X10343636Y2630781D02*
X10438874Y2583162D01*
X10438874Y2583162D02*
X10486493Y2535543D01*
X10486493Y2535543D02*
X10534112Y2440305D01*
X10534112Y2440305D02*
X10534112Y2345067D01*
X10534112Y2345067D02*
X10486493Y2249829D01*
X10486493Y2249829D02*
X10438874Y2202210D01*
X10438874Y2202210D02*
X10343636Y2154591D01*
X10343636Y2154591D02*
X10010303Y2154591D01*
X11010303Y2154591D02*
X11343636Y2154591D01*
X11486493Y1630781D02*
X11010303Y1630781D01*
X11010303Y1630781D02*
X11010303Y2630781D01*
X11010303Y2630781D02*
X11486493Y2630781D01*
X12105541Y2630781D02*
X12296017Y2630781D01*
X12296017Y2630781D02*
X12391255Y2583162D01*
X12391255Y2583162D02*
X12486493Y2487924D01*
X12486493Y2487924D02*
X12534112Y2297448D01*
X12534112Y2297448D02*
X12534112Y1964115D01*
X12534112Y1964115D02*
X12486493Y1773639D01*
X12486493Y1773639D02*
X12391255Y1678400D01*
X12391255Y1678400D02*
X12296017Y1630781D01*
X12296017Y1630781D02*
X12105541Y1630781D01*
X12105541Y1630781D02*
X12010303Y1678400D01*
X12010303Y1678400D02*
X11915065Y1773639D01*
X11915065Y1773639D02*
X11867446Y1964115D01*
X11867446Y1964115D02*
X11867446Y2297448D01*
X11867446Y2297448D02*
X11915065Y2487924D01*
X11915065Y2487924D02*
X12010303Y2583162D01*
X12010303Y2583162D02*
X12105541Y2630781D01*
X13534112Y1630781D02*
X13200779Y2106972D01*
X12962684Y1630781D02*
X12962684Y2630781D01*
X12962684Y2630781D02*
X13343636Y2630781D01*
X13343636Y2630781D02*
X13438874Y2583162D01*
X13438874Y2583162D02*
X13486493Y2535543D01*
X13486493Y2535543D02*
X13534112Y2440305D01*
X13534112Y2440305D02*
X13534112Y2297448D01*
X13534112Y2297448D02*
X13486493Y2202210D01*
X13486493Y2202210D02*
X13438874Y2154591D01*
X13438874Y2154591D02*
X13343636Y2106972D01*
X13343636Y2106972D02*
X12962684Y2106972D01*
X13962684Y1630781D02*
X13962684Y2630781D01*
X13962684Y2630781D02*
X14296017Y1916496D01*
X14296017Y1916496D02*
X14629350Y2630781D01*
X14629350Y2630781D02*
X14629350Y1630781D01*
X15105541Y1630781D02*
X15105541Y2630781D01*
X15676969Y1630781D02*
X15248398Y2202210D01*
X15676969Y2630781D02*
X15105541Y2059353D01*
X16629350Y1630781D02*
X16057922Y1630781D01*
X16343636Y1630781D02*
X16343636Y2630781D01*
X16343636Y2630781D02*
X16248398Y2487924D01*
X16248398Y2487924D02*
X16153160Y2392686D01*
X16153160Y2392686D02*
X16057922Y2345067D01*
X17676970Y2630781D02*
X18010303Y1630781D01*
X18010303Y1630781D02*
X18343636Y2630781D01*
X18867446Y2630781D02*
X18962684Y2630781D01*
X18962684Y2630781D02*
X19057922Y2583162D01*
X19057922Y2583162D02*
X19105541Y2535543D01*
X19105541Y2535543D02*
X19153160Y2440305D01*
X19153160Y2440305D02*
X19200779Y2249829D01*
X19200779Y2249829D02*
X19200779Y2011734D01*
X19200779Y2011734D02*
X19153160Y1821258D01*
X19153160Y1821258D02*
X19105541Y1726020D01*
X19105541Y1726020D02*
X19057922Y1678400D01*
X19057922Y1678400D02*
X18962684Y1630781D01*
X18962684Y1630781D02*
X18867446Y1630781D01*
X18867446Y1630781D02*
X18772208Y1678400D01*
X18772208Y1678400D02*
X18724589Y1726020D01*
X18724589Y1726020D02*
X18676970Y1821258D01*
X18676970Y1821258D02*
X18629351Y2011734D01*
X18629351Y2011734D02*
X18629351Y2249829D01*
X18629351Y2249829D02*
X18676970Y2440305D01*
X18676970Y2440305D02*
X18724589Y2535543D01*
X18724589Y2535543D02*
X18772208Y2583162D01*
X18772208Y2583162D02*
X18867446Y2630781D01*
X19629351Y1726020D02*
X19676970Y1678400D01*
X19676970Y1678400D02*
X19629351Y1630781D01*
X19629351Y1630781D02*
X19581732Y1678400D01*
X19581732Y1678400D02*
X19629351Y1726020D01*
X19629351Y1726020D02*
X19629351Y1630781D01*
X20057922Y2535543D02*
X20105541Y2583162D01*
X20105541Y2583162D02*
X20200779Y2630781D01*
X20200779Y2630781D02*
X20438874Y2630781D01*
X20438874Y2630781D02*
X20534112Y2583162D01*
X20534112Y2583162D02*
X20581731Y2535543D01*
X20581731Y2535543D02*
X20629350Y2440305D01*
X20629350Y2440305D02*
X20629350Y2345067D01*
X20629350Y2345067D02*
X20581731Y2202210D01*
X20581731Y2202210D02*
X20010303Y1630781D01*
X20010303Y1630781D02*
X20629350Y1630781D01*
X21057922Y1726020D02*
X21105541Y1678400D01*
X21105541Y1678400D02*
X21057922Y1630781D01*
X21057922Y1630781D02*
X21010303Y1678400D01*
X21010303Y1678400D02*
X21057922Y1726020D01*
X21057922Y1726020D02*
X21057922Y1630781D01*
X22057921Y1630781D02*
X21486493Y1630781D01*
X21772207Y1630781D02*
X21772207Y2630781D01*
X21772207Y2630781D02*
X21676969Y2487924D01*
X21676969Y2487924D02*
X21581731Y2392686D01*
X21581731Y2392686D02*
X21486493Y2345067D01*
X33295979Y42754181D02*
X33295979Y43754181D01*
X33772169Y42754181D02*
X33772169Y43754181D01*
X33772169Y43754181D02*
X34343597Y42754181D01*
X34343597Y42754181D02*
X34343597Y43754181D01*
X35248359Y43420848D02*
X35248359Y42754181D01*
X35010264Y43801800D02*
X34772169Y43087515D01*
X34772169Y43087515D02*
X35391216Y43087515D01*
X48320055Y62092981D02*
X48510531Y62092981D01*
X48510531Y62092981D02*
X48605769Y62045362D01*
X48605769Y62045362D02*
X48701007Y61950124D01*
X48701007Y61950124D02*
X48748626Y61759648D01*
X48748626Y61759648D02*
X48748626Y61426315D01*
X48748626Y61426315D02*
X48701007Y61235839D01*
X48701007Y61235839D02*
X48605769Y61140600D01*
X48605769Y61140600D02*
X48510531Y61092981D01*
X48510531Y61092981D02*
X48320055Y61092981D01*
X48320055Y61092981D02*
X48224817Y61140600D01*
X48224817Y61140600D02*
X48129579Y61235839D01*
X48129579Y61235839D02*
X48081960Y61426315D01*
X48081960Y61426315D02*
X48081960Y61759648D01*
X48081960Y61759648D02*
X48129579Y61950124D01*
X48129579Y61950124D02*
X48224817Y62045362D01*
X48224817Y62045362D02*
X48320055Y62092981D01*
X49177198Y62092981D02*
X49177198Y61283458D01*
X49177198Y61283458D02*
X49224817Y61188220D01*
X49224817Y61188220D02*
X49272436Y61140600D01*
X49272436Y61140600D02*
X49367674Y61092981D01*
X49367674Y61092981D02*
X49558150Y61092981D01*
X49558150Y61092981D02*
X49653388Y61140600D01*
X49653388Y61140600D02*
X49701007Y61188220D01*
X49701007Y61188220D02*
X49748626Y61283458D01*
X49748626Y61283458D02*
X49748626Y62092981D01*
X50081960Y62092981D02*
X50653388Y62092981D01*
X50367674Y61092981D02*
X50367674Y62092981D01*
X50891484Y62092981D02*
X51510531Y62092981D01*
X51510531Y62092981D02*
X51177198Y61712029D01*
X51177198Y61712029D02*
X51320055Y61712029D01*
X51320055Y61712029D02*
X51415293Y61664410D01*
X51415293Y61664410D02*
X51462912Y61616791D01*
X51462912Y61616791D02*
X51510531Y61521553D01*
X51510531Y61521553D02*
X51510531Y61283458D01*
X51510531Y61283458D02*
X51462912Y61188220D01*
X51462912Y61188220D02*
X51415293Y61140600D01*
X51415293Y61140600D02*
X51320055Y61092981D01*
X51320055Y61092981D02*
X51034341Y61092981D01*
X51034341Y61092981D02*
X50939103Y61140600D01*
X50939103Y61140600D02*
X50891484Y61188220D01*
G36*
X18300783Y29048402D02*
G01*
X18373739Y28990037D01*
X18409477Y28932856D01*
X18450807Y28800603D01*
X18450807Y28709208D01*
X18409477Y28576955D01*
X18373739Y28519775D01*
X18300783Y28461409D01*
X18182644Y28429905D01*
X18029379Y28429905D01*
X18029379Y29079905D01*
X18182644Y29079905D01*
X18300783Y29048402D01*
G37*
G36*
X20154302Y29051301D02*
G01*
X20183263Y29028132D01*
X20212711Y28981015D01*
X20212711Y28909749D01*
X20183263Y28862632D01*
X20154302Y28839463D01*
X20082792Y28810858D01*
X19791284Y28810858D01*
X19791284Y29079905D01*
X20082792Y29079905D01*
X20154302Y29051301D01*
G37*
G36*
X18392397Y31627301D02*
G01*
X18421358Y31604132D01*
X18450807Y31557015D01*
X18450807Y31485749D01*
X18421358Y31438632D01*
X18392397Y31415463D01*
X18320887Y31386858D01*
X18029379Y31386858D01*
X18029379Y31655905D01*
X18320887Y31655905D01*
X18392397Y31627301D01*
G37*
G36*
X18392397Y36779301D02*
G01*
X18421358Y36756132D01*
X18450807Y36709015D01*
X18450807Y36637749D01*
X18421358Y36590632D01*
X18392397Y36567463D01*
X18320887Y36538858D01*
X18029379Y36538858D01*
X18029379Y36807905D01*
X18320887Y36807905D01*
X18392397Y36779301D01*
G37*
G36*
X18300783Y39352402D02*
G01*
X18373739Y39294037D01*
X18409477Y39236856D01*
X18450807Y39104603D01*
X18450807Y39013208D01*
X18409477Y38880955D01*
X18373739Y38823775D01*
X18300783Y38765409D01*
X18182644Y38733905D01*
X18029379Y38733905D01*
X18029379Y39383905D01*
X18182644Y39383905D01*
X18300783Y39352402D01*
G37*
G36*
X20344778Y39355301D02*
G01*
X20373739Y39332132D01*
X20403188Y39285015D01*
X20403188Y39213749D01*
X20373739Y39166632D01*
X20344778Y39143463D01*
X20273268Y39114858D01*
X19981760Y39114858D01*
X19981760Y39383905D01*
X20273268Y39383905D01*
X20344778Y39355301D01*
G37*
G36*
X18300783Y41928402D02*
G01*
X18373739Y41870037D01*
X18409477Y41812856D01*
X18450807Y41680603D01*
X18450807Y41589208D01*
X18409477Y41456955D01*
X18373739Y41399775D01*
X18300783Y41341409D01*
X18182644Y41309905D01*
X18029379Y41309905D01*
X18029379Y41959905D01*
X18182644Y41959905D01*
X18300783Y41928402D01*
G37*
G36*
X20300783Y41928402D02*
G01*
X20373739Y41870037D01*
X20409477Y41812856D01*
X20450807Y41680603D01*
X20450807Y41589208D01*
X20409477Y41456955D01*
X20373739Y41399775D01*
X20300783Y41341409D01*
X20182644Y41309905D01*
X20029379Y41309905D01*
X20029379Y41959905D01*
X20182644Y41959905D01*
X20300783Y41928402D01*
G37*
G36*
X20715093Y28165619D02*
G01*
X17717474Y28165619D01*
X17717474Y28354905D01*
X17879379Y28354905D01*
X17886042Y28336597D01*
X17889427Y28317405D01*
X17894611Y28313055D01*
X17896926Y28306696D01*
X17913799Y28296954D01*
X17928727Y28284428D01*
X17938469Y28282711D01*
X17941355Y28281044D01*
X17944637Y28281623D01*
X17954379Y28279905D01*
X18192474Y28279905D01*
X18195587Y28281039D01*
X18211799Y28282437D01*
X18354656Y28320532D01*
X18356760Y28322003D01*
X18359327Y28321942D01*
X18382183Y28334435D01*
X18477422Y28410626D01*
X18477832Y28411301D01*
X18494169Y28429441D01*
X18541788Y28505631D01*
X18542489Y28508928D01*
X18549774Y28523010D01*
X18597393Y28675391D01*
X18597282Y28677775D01*
X18600807Y28697762D01*
X18600807Y28812048D01*
X18599990Y28814291D01*
X18597393Y28834419D01*
X18549774Y28986800D01*
X18547728Y28989480D01*
X18541788Y29004179D01*
X18494169Y29080370D01*
X18493545Y29080857D01*
X18477421Y29099185D01*
X18391491Y29167929D01*
X18737661Y29167929D01*
X18746570Y29117405D01*
X18785870Y29084428D01*
X18811522Y29079905D01*
X19022236Y29079905D01*
X19022236Y28354905D01*
X19039783Y28306696D01*
X19084212Y28281044D01*
X19134736Y28289953D01*
X19167713Y28329253D01*
X19172236Y28354905D01*
X19641284Y28354905D01*
X19658831Y28306696D01*
X19703260Y28281044D01*
X19753784Y28289953D01*
X19786761Y28329253D01*
X19791284Y28354905D01*
X19791284Y28660858D01*
X19920346Y28660858D01*
X20231269Y28305517D01*
X20276220Y28280791D01*
X20326548Y28290742D01*
X20358705Y28330717D01*
X20357644Y28382009D01*
X20344156Y28404293D01*
X20116532Y28664435D01*
X20125090Y28666222D01*
X20220328Y28704317D01*
X20222303Y28706084D01*
X20239326Y28715388D01*
X20286945Y28753483D01*
X20287355Y28754158D01*
X20303693Y28772298D01*
X20351312Y28848489D01*
X20352993Y28856395D01*
X20358189Y28862587D01*
X20362712Y28888239D01*
X20362712Y29002524D01*
X20359947Y29010119D01*
X20361072Y29018124D01*
X20351312Y29042274D01*
X20303693Y29118465D01*
X20303069Y29118952D01*
X20286945Y29137280D01*
X20239326Y29175375D01*
X20236816Y29176223D01*
X20220328Y29186446D01*
X20125090Y29224541D01*
X20123843Y29224581D01*
X20122888Y29225382D01*
X20097236Y29229905D01*
X19716284Y29229905D01*
X19697975Y29223242D01*
X19678784Y29219857D01*
X19674433Y29214673D01*
X19668075Y29212358D01*
X19658332Y29195485D01*
X19645807Y29180557D01*
X19644089Y29170815D01*
X19642423Y29167929D01*
X19643001Y29164647D01*
X19641284Y29154905D01*
X19641284Y28354905D01*
X19172236Y28354905D01*
X19172236Y29079905D01*
X19382950Y29079905D01*
X19431159Y29097452D01*
X19456811Y29141881D01*
X19447902Y29192405D01*
X19408602Y29225382D01*
X19382950Y29229905D01*
X18811522Y29229905D01*
X18763313Y29212358D01*
X18737661Y29167929D01*
X18391491Y29167929D01*
X18382183Y29175375D01*
X18379751Y29176197D01*
X18378276Y29178298D01*
X18354656Y29189278D01*
X18211799Y29227373D01*
X18208495Y29227081D01*
X18192474Y29229905D01*
X17954379Y29229905D01*
X17936070Y29223242D01*
X17916879Y29219857D01*
X17912528Y29214673D01*
X17906170Y29212358D01*
X17896427Y29195485D01*
X17883902Y29180557D01*
X17882184Y29170815D01*
X17880518Y29167929D01*
X17881096Y29164647D01*
X17879379Y29154905D01*
X17879379Y28354905D01*
X17717474Y28354905D01*
X17717474Y30930905D01*
X17879379Y30930905D01*
X17896926Y30882696D01*
X17941355Y30857044D01*
X17991879Y30865953D01*
X18024856Y30905253D01*
X18029379Y30930905D01*
X18029379Y31236858D01*
X18158441Y31236858D01*
X18469364Y30881517D01*
X18514315Y30856791D01*
X18564643Y30866742D01*
X18596800Y30906717D01*
X18596300Y30930905D01*
X18879379Y30930905D01*
X18896926Y30882696D01*
X18941355Y30857044D01*
X18991879Y30865953D01*
X19024856Y30905253D01*
X19029379Y30930905D01*
X19029379Y31730905D01*
X19011832Y31779114D01*
X18967403Y31804766D01*
X18916879Y31795857D01*
X18883902Y31756557D01*
X18879379Y31730905D01*
X18879379Y30930905D01*
X18596300Y30930905D01*
X18595739Y30958009D01*
X18582251Y30980293D01*
X18354627Y31240435D01*
X18363185Y31242222D01*
X18458423Y31280317D01*
X18460398Y31282084D01*
X18477421Y31291388D01*
X18525040Y31329483D01*
X18525450Y31330158D01*
X18541788Y31348298D01*
X18589407Y31424489D01*
X18591088Y31432395D01*
X18596284Y31438587D01*
X18600807Y31464239D01*
X18600807Y31578524D01*
X18598042Y31586119D01*
X18599167Y31594124D01*
X18589407Y31618274D01*
X18541788Y31694465D01*
X18541164Y31694952D01*
X18525040Y31713280D01*
X18477421Y31751375D01*
X18474911Y31752223D01*
X18458423Y31762446D01*
X18363185Y31800541D01*
X18361938Y31800581D01*
X18360983Y31801382D01*
X18335331Y31805905D01*
X17954379Y31805905D01*
X17936070Y31799242D01*
X17916879Y31795857D01*
X17912528Y31790673D01*
X17906170Y31788358D01*
X17896427Y31771485D01*
X17883902Y31756557D01*
X17882184Y31746815D01*
X17880518Y31743929D01*
X17881096Y31740647D01*
X17879379Y31730905D01*
X17879379Y30930905D01*
X17717474Y30930905D01*
X17717474Y33849762D01*
X17831760Y33849762D01*
X17832576Y33847520D01*
X17835174Y33827391D01*
X17882793Y33675011D01*
X17884837Y33672333D01*
X17890779Y33657631D01*
X17938398Y33581441D01*
X17939020Y33580955D01*
X17955146Y33562626D01*
X18050384Y33486435D01*
X18052815Y33485614D01*
X18054291Y33483512D01*
X18077911Y33472532D01*
X18220768Y33434437D01*
X18224071Y33434730D01*
X18240093Y33431905D01*
X18335331Y33431905D01*
X18338444Y33433039D01*
X18354656Y33434437D01*
X18497513Y33472532D01*
X18499617Y33474003D01*
X18502185Y33473942D01*
X18525041Y33486435D01*
X18572660Y33524532D01*
X18599343Y33568350D01*
X18591619Y33619068D01*
X18553100Y33652954D01*
X18501811Y33654154D01*
X18478955Y33641661D01*
X18443639Y33613409D01*
X18325501Y33581905D01*
X18249923Y33581905D01*
X18131784Y33613409D01*
X18058827Y33671775D01*
X18023089Y33728955D01*
X17981760Y33861209D01*
X17981760Y33952602D01*
X18023089Y34084856D01*
X18058827Y34142037D01*
X18131783Y34200402D01*
X18249923Y34231905D01*
X18325501Y34231905D01*
X18443640Y34200402D01*
X18478955Y34172150D01*
X18527562Y34155736D01*
X18575347Y34174404D01*
X18599952Y34219423D01*
X18589864Y34269724D01*
X18572659Y34289280D01*
X18534348Y34319929D01*
X18737661Y34319929D01*
X18746570Y34269405D01*
X18785870Y34236428D01*
X18811522Y34231905D01*
X19022236Y34231905D01*
X19022236Y33506905D01*
X19039783Y33458696D01*
X19084212Y33433044D01*
X19134736Y33441953D01*
X19167713Y33481253D01*
X19172236Y33506905D01*
X19172236Y34078334D01*
X19593665Y34078334D01*
X19596429Y34070740D01*
X19595305Y34062734D01*
X19605065Y34038584D01*
X19652684Y33962393D01*
X19653307Y33961907D01*
X19669432Y33943578D01*
X19717051Y33905483D01*
X19719561Y33904636D01*
X19736049Y33894412D01*
X19831286Y33856317D01*
X19834688Y33856211D01*
X19844432Y33852409D01*
X20028155Y33815665D01*
X20106683Y33784253D01*
X20135644Y33761084D01*
X20165093Y33713967D01*
X20165093Y33680797D01*
X20135644Y33633680D01*
X20106681Y33610509D01*
X20035173Y33581905D01*
X19821352Y33581905D01*
X19687990Y33617468D01*
X19636887Y33612935D01*
X19600654Y33576615D01*
X19596244Y33525502D01*
X19625720Y33483512D01*
X19649340Y33472532D01*
X19792197Y33434437D01*
X19795500Y33434730D01*
X19811522Y33431905D01*
X20049617Y33431905D01*
X20050789Y33432332D01*
X20051974Y33431942D01*
X20077471Y33437269D01*
X20172709Y33475364D01*
X20174683Y33477130D01*
X20191708Y33486435D01*
X20239327Y33524532D01*
X20239736Y33525204D01*
X20256074Y33543346D01*
X20303693Y33619536D01*
X20305374Y33627442D01*
X20310570Y33633634D01*
X20315093Y33659286D01*
X20315093Y33735477D01*
X20312328Y33743072D01*
X20313453Y33751077D01*
X20303693Y33775227D01*
X20256074Y33851417D01*
X20255450Y33851904D01*
X20239326Y33870232D01*
X20191707Y33908327D01*
X20189195Y33909176D01*
X20172710Y33919397D01*
X20077472Y33957494D01*
X20074069Y33957601D01*
X20064326Y33961402D01*
X19880599Y33998148D01*
X19802075Y34029557D01*
X19773113Y34052727D01*
X19743665Y34099844D01*
X19743665Y34133015D01*
X19773113Y34180132D01*
X19802075Y34203302D01*
X19873585Y34231905D01*
X20087406Y34231905D01*
X20220768Y34196342D01*
X20271871Y34200875D01*
X20308104Y34237195D01*
X20312514Y34288308D01*
X20283038Y34330298D01*
X20259418Y34341278D01*
X20116561Y34379373D01*
X20113257Y34379081D01*
X20097236Y34381905D01*
X19859141Y34381905D01*
X19857968Y34381479D01*
X19856784Y34381868D01*
X19831286Y34376541D01*
X19736049Y34338446D01*
X19734073Y34336680D01*
X19717051Y34327375D01*
X19669432Y34289280D01*
X19669023Y34288609D01*
X19652684Y34270465D01*
X19605065Y34194274D01*
X19603383Y34186369D01*
X19598188Y34180176D01*
X19593665Y34154524D01*
X19593665Y34078334D01*
X19172236Y34078334D01*
X19172236Y34231905D01*
X19382950Y34231905D01*
X19431159Y34249452D01*
X19456811Y34293881D01*
X19447902Y34344405D01*
X19408602Y34377382D01*
X19382950Y34381905D01*
X18811522Y34381905D01*
X18763313Y34364358D01*
X18737661Y34319929D01*
X18534348Y34319929D01*
X18525040Y34327375D01*
X18522608Y34328197D01*
X18521133Y34330298D01*
X18497513Y34341278D01*
X18354656Y34379373D01*
X18351352Y34379081D01*
X18335331Y34381905D01*
X18240093Y34381905D01*
X18236979Y34380772D01*
X18220768Y34379373D01*
X18077911Y34341278D01*
X18075806Y34339808D01*
X18073240Y34339868D01*
X18050384Y34327375D01*
X17955146Y34251185D01*
X17954737Y34250514D01*
X17938398Y34232370D01*
X17890779Y34156179D01*
X17890077Y34152882D01*
X17882793Y34138799D01*
X17835174Y33986419D01*
X17835284Y33984036D01*
X17831760Y33964048D01*
X17831760Y33849762D01*
X17717474Y33849762D01*
X17717474Y36082905D01*
X17879379Y36082905D01*
X17896926Y36034696D01*
X17941355Y36009044D01*
X17991879Y36017953D01*
X18024856Y36057253D01*
X18029379Y36082905D01*
X18029379Y36388858D01*
X18158441Y36388858D01*
X18469364Y36033517D01*
X18514315Y36008791D01*
X18564643Y36018742D01*
X18596800Y36058717D01*
X18595739Y36110009D01*
X18582251Y36132293D01*
X18354627Y36392435D01*
X18363185Y36394222D01*
X18458423Y36432317D01*
X18460398Y36434084D01*
X18477421Y36443388D01*
X18525040Y36481483D01*
X18525450Y36482158D01*
X18541788Y36500298D01*
X18589407Y36576489D01*
X18591088Y36584395D01*
X18596284Y36590587D01*
X18600807Y36616239D01*
X18600807Y36730524D01*
X18598042Y36738119D01*
X18599167Y36746124D01*
X18589407Y36770274D01*
X18541788Y36846465D01*
X18541164Y36846952D01*
X18525040Y36865280D01*
X18486729Y36895929D01*
X18737661Y36895929D01*
X18746570Y36845405D01*
X18785870Y36812428D01*
X18811522Y36807905D01*
X19022236Y36807905D01*
X19022236Y36082905D01*
X19039783Y36034696D01*
X19084212Y36009044D01*
X19134736Y36017953D01*
X19167713Y36057253D01*
X19172236Y36082905D01*
X19172236Y36654334D01*
X19593665Y36654334D01*
X19596429Y36646740D01*
X19595305Y36638734D01*
X19605065Y36614584D01*
X19652684Y36538393D01*
X19653307Y36537907D01*
X19669432Y36519578D01*
X19717051Y36481483D01*
X19719561Y36480636D01*
X19736049Y36470412D01*
X19831286Y36432317D01*
X19834688Y36432211D01*
X19844432Y36428409D01*
X20028155Y36391665D01*
X20106683Y36360253D01*
X20135644Y36337084D01*
X20165093Y36289967D01*
X20165093Y36256797D01*
X20135644Y36209680D01*
X20106681Y36186509D01*
X20035173Y36157905D01*
X19821352Y36157905D01*
X19687990Y36193468D01*
X19636887Y36188935D01*
X19600654Y36152615D01*
X19596244Y36101502D01*
X19625720Y36059512D01*
X19649340Y36048532D01*
X19792197Y36010437D01*
X19795500Y36010730D01*
X19811522Y36007905D01*
X20049617Y36007905D01*
X20050789Y36008332D01*
X20051974Y36007942D01*
X20077471Y36013269D01*
X20172709Y36051364D01*
X20174683Y36053130D01*
X20191708Y36062435D01*
X20239327Y36100532D01*
X20239736Y36101204D01*
X20256074Y36119346D01*
X20303693Y36195536D01*
X20305374Y36203442D01*
X20310570Y36209634D01*
X20315093Y36235286D01*
X20315093Y36311477D01*
X20312328Y36319072D01*
X20313453Y36327077D01*
X20303693Y36351227D01*
X20256074Y36427417D01*
X20255450Y36427904D01*
X20239326Y36446232D01*
X20191707Y36484327D01*
X20189195Y36485176D01*
X20172710Y36495397D01*
X20077472Y36533494D01*
X20074069Y36533601D01*
X20064326Y36537402D01*
X19880599Y36574148D01*
X19802075Y36605557D01*
X19773113Y36628727D01*
X19743665Y36675844D01*
X19743665Y36709015D01*
X19773113Y36756132D01*
X19802075Y36779302D01*
X19873585Y36807905D01*
X20087406Y36807905D01*
X20220768Y36772342D01*
X20271871Y36776875D01*
X20308104Y36813195D01*
X20312514Y36864308D01*
X20283038Y36906298D01*
X20259418Y36917278D01*
X20116561Y36955373D01*
X20113257Y36955081D01*
X20097236Y36957905D01*
X19859141Y36957905D01*
X19857968Y36957479D01*
X19856784Y36957868D01*
X19831286Y36952541D01*
X19736049Y36914446D01*
X19734073Y36912680D01*
X19717051Y36903375D01*
X19669432Y36865280D01*
X19669023Y36864609D01*
X19652684Y36846465D01*
X19605065Y36770274D01*
X19603383Y36762369D01*
X19598188Y36756176D01*
X19593665Y36730524D01*
X19593665Y36654334D01*
X19172236Y36654334D01*
X19172236Y36807905D01*
X19382950Y36807905D01*
X19431159Y36825452D01*
X19456811Y36869881D01*
X19447902Y36920405D01*
X19408602Y36953382D01*
X19382950Y36957905D01*
X18811522Y36957905D01*
X18763313Y36940358D01*
X18737661Y36895929D01*
X18486729Y36895929D01*
X18477421Y36903375D01*
X18474911Y36904223D01*
X18458423Y36914446D01*
X18363185Y36952541D01*
X18361938Y36952581D01*
X18360983Y36953382D01*
X18335331Y36957905D01*
X17954379Y36957905D01*
X17936070Y36951242D01*
X17916879Y36947857D01*
X17912528Y36942673D01*
X17906170Y36940358D01*
X17896427Y36923485D01*
X17883902Y36908557D01*
X17882184Y36898815D01*
X17880518Y36895929D01*
X17881096Y36892647D01*
X17879379Y36882905D01*
X17879379Y36082905D01*
X17717474Y36082905D01*
X17717474Y38658905D01*
X17879379Y38658905D01*
X17886042Y38640597D01*
X17889427Y38621405D01*
X17894611Y38617055D01*
X17896926Y38610696D01*
X17913799Y38600954D01*
X17928727Y38588428D01*
X17938469Y38586711D01*
X17941355Y38585044D01*
X17944637Y38585623D01*
X17954379Y38583905D01*
X18192474Y38583905D01*
X18195587Y38585039D01*
X18211799Y38586437D01*
X18354656Y38624532D01*
X18356760Y38626003D01*
X18359327Y38625942D01*
X18382183Y38638435D01*
X18477422Y38714626D01*
X18477832Y38715301D01*
X18494169Y38733441D01*
X18541788Y38809631D01*
X18542489Y38812928D01*
X18549774Y38827010D01*
X18597393Y38979391D01*
X18597282Y38981775D01*
X18600807Y39001762D01*
X18600807Y39116048D01*
X18599990Y39118291D01*
X18597393Y39138419D01*
X18568670Y39230334D01*
X18831760Y39230334D01*
X18834524Y39222740D01*
X18833400Y39214734D01*
X18843160Y39190584D01*
X18890779Y39114393D01*
X18891402Y39113907D01*
X18907527Y39095578D01*
X18955146Y39057483D01*
X18957656Y39056636D01*
X18974144Y39046412D01*
X19069381Y39008317D01*
X19072783Y39008211D01*
X19082527Y39004409D01*
X19266250Y38967665D01*
X19344778Y38936253D01*
X19373739Y38913084D01*
X19403188Y38865967D01*
X19403188Y38832797D01*
X19373739Y38785680D01*
X19344776Y38762509D01*
X19273268Y38733905D01*
X19059447Y38733905D01*
X18926085Y38769468D01*
X18874982Y38764935D01*
X18838749Y38728615D01*
X18834339Y38677502D01*
X18863815Y38635512D01*
X18887435Y38624532D01*
X19030292Y38586437D01*
X19033595Y38586730D01*
X19049617Y38583905D01*
X19287712Y38583905D01*
X19288884Y38584332D01*
X19290069Y38583942D01*
X19315566Y38589269D01*
X19410804Y38627364D01*
X19412778Y38629130D01*
X19429803Y38638435D01*
X19455389Y38658905D01*
X19831760Y38658905D01*
X19849307Y38610696D01*
X19893736Y38585044D01*
X19944260Y38593953D01*
X19977237Y38633253D01*
X19981760Y38658905D01*
X19981760Y38964858D01*
X20110822Y38964858D01*
X20421745Y38609517D01*
X20466696Y38584791D01*
X20517024Y38594742D01*
X20549181Y38634717D01*
X20548120Y38686009D01*
X20534632Y38708293D01*
X20307008Y38968435D01*
X20315566Y38970222D01*
X20410804Y39008317D01*
X20412779Y39010084D01*
X20429802Y39019388D01*
X20477421Y39057483D01*
X20477831Y39058158D01*
X20494169Y39076298D01*
X20541788Y39152489D01*
X20543469Y39160395D01*
X20548665Y39166587D01*
X20553188Y39192239D01*
X20553188Y39306524D01*
X20550423Y39314119D01*
X20551548Y39322124D01*
X20541788Y39346274D01*
X20494169Y39422465D01*
X20493545Y39422952D01*
X20477421Y39441280D01*
X20429802Y39479375D01*
X20427292Y39480223D01*
X20410804Y39490446D01*
X20315566Y39528541D01*
X20314319Y39528581D01*
X20313364Y39529382D01*
X20287712Y39533905D01*
X19906760Y39533905D01*
X19888451Y39527242D01*
X19869260Y39523857D01*
X19864909Y39518673D01*
X19858551Y39516358D01*
X19848808Y39499485D01*
X19836283Y39484557D01*
X19834565Y39474815D01*
X19832899Y39471929D01*
X19833477Y39468647D01*
X19831760Y39458905D01*
X19831760Y38658905D01*
X19455389Y38658905D01*
X19477422Y38676532D01*
X19477831Y38677204D01*
X19494169Y38695346D01*
X19541788Y38771536D01*
X19543469Y38779442D01*
X19548665Y38785634D01*
X19553188Y38811286D01*
X19553188Y38887477D01*
X19550423Y38895072D01*
X19551548Y38903077D01*
X19541788Y38927227D01*
X19494169Y39003417D01*
X19493545Y39003904D01*
X19477421Y39022232D01*
X19429802Y39060327D01*
X19427290Y39061176D01*
X19410805Y39071397D01*
X19315567Y39109494D01*
X19312164Y39109601D01*
X19302421Y39113402D01*
X19118694Y39150148D01*
X19040170Y39181557D01*
X19011208Y39204727D01*
X18981760Y39251844D01*
X18981760Y39285015D01*
X19011208Y39332132D01*
X19040170Y39355302D01*
X19111680Y39383905D01*
X19325501Y39383905D01*
X19458863Y39348342D01*
X19509966Y39352875D01*
X19546199Y39389195D01*
X19550609Y39440308D01*
X19521133Y39482298D01*
X19497513Y39493278D01*
X19354656Y39531373D01*
X19351352Y39531081D01*
X19335331Y39533905D01*
X19097236Y39533905D01*
X19096063Y39533479D01*
X19094879Y39533868D01*
X19069381Y39528541D01*
X18974144Y39490446D01*
X18972168Y39488680D01*
X18955146Y39479375D01*
X18907527Y39441280D01*
X18907118Y39440609D01*
X18890779Y39422465D01*
X18843160Y39346274D01*
X18841478Y39338369D01*
X18836283Y39332176D01*
X18831760Y39306524D01*
X18831760Y39230334D01*
X18568670Y39230334D01*
X18549774Y39290800D01*
X18547728Y39293480D01*
X18541788Y39308179D01*
X18494169Y39384370D01*
X18493545Y39384857D01*
X18477421Y39403185D01*
X18382183Y39479375D01*
X18379751Y39480197D01*
X18378276Y39482298D01*
X18354656Y39493278D01*
X18211799Y39531373D01*
X18208495Y39531081D01*
X18192474Y39533905D01*
X17954379Y39533905D01*
X17936070Y39527242D01*
X17916879Y39523857D01*
X17912528Y39518673D01*
X17906170Y39516358D01*
X17896427Y39499485D01*
X17883902Y39484557D01*
X17882184Y39474815D01*
X17880518Y39471929D01*
X17881096Y39468647D01*
X17879379Y39458905D01*
X17879379Y38658905D01*
X17717474Y38658905D01*
X17717474Y41234905D01*
X17879379Y41234905D01*
X17886042Y41216597D01*
X17889427Y41197405D01*
X17894611Y41193055D01*
X17896926Y41186696D01*
X17913799Y41176954D01*
X17928727Y41164428D01*
X17938469Y41162711D01*
X17941355Y41161044D01*
X17944637Y41161623D01*
X17954379Y41159905D01*
X18192474Y41159905D01*
X18195587Y41161039D01*
X18211799Y41162437D01*
X18354656Y41200532D01*
X18356760Y41202003D01*
X18359327Y41201942D01*
X18382183Y41214435D01*
X18477422Y41290626D01*
X18477832Y41291301D01*
X18494169Y41309441D01*
X18541788Y41385631D01*
X18542489Y41388928D01*
X18549774Y41403010D01*
X18597393Y41555391D01*
X18597282Y41557775D01*
X18600807Y41577762D01*
X18831760Y41577762D01*
X18832576Y41575520D01*
X18835174Y41555391D01*
X18882793Y41403011D01*
X18884837Y41400333D01*
X18890779Y41385631D01*
X18938398Y41309441D01*
X18939020Y41308955D01*
X18955146Y41290626D01*
X19050384Y41214435D01*
X19052815Y41213614D01*
X19054291Y41211512D01*
X19077911Y41200532D01*
X19220768Y41162437D01*
X19224071Y41162730D01*
X19240093Y41159905D01*
X19335331Y41159905D01*
X19338444Y41161039D01*
X19354656Y41162437D01*
X19497513Y41200532D01*
X19499617Y41202003D01*
X19502185Y41201942D01*
X19525041Y41214435D01*
X19550627Y41234905D01*
X19879379Y41234905D01*
X19886042Y41216597D01*
X19889427Y41197405D01*
X19894611Y41193055D01*
X19896926Y41186696D01*
X19913799Y41176954D01*
X19928727Y41164428D01*
X19938469Y41162711D01*
X19941355Y41161044D01*
X19944637Y41161623D01*
X19954379Y41159905D01*
X20192474Y41159905D01*
X20195587Y41161039D01*
X20211799Y41162437D01*
X20354656Y41200532D01*
X20356760Y41202003D01*
X20359327Y41201942D01*
X20382183Y41214435D01*
X20477422Y41290626D01*
X20477832Y41291301D01*
X20494169Y41309441D01*
X20541788Y41385631D01*
X20542489Y41388928D01*
X20549774Y41403010D01*
X20597393Y41555391D01*
X20597282Y41557775D01*
X20600807Y41577762D01*
X20600807Y41692048D01*
X20599990Y41694291D01*
X20597393Y41714419D01*
X20549774Y41866800D01*
X20547728Y41869480D01*
X20541788Y41884179D01*
X20494169Y41960370D01*
X20493545Y41960857D01*
X20477421Y41979185D01*
X20382183Y42055375D01*
X20379751Y42056197D01*
X20378276Y42058298D01*
X20354656Y42069278D01*
X20211799Y42107373D01*
X20208495Y42107081D01*
X20192474Y42109905D01*
X19954379Y42109905D01*
X19936070Y42103242D01*
X19916879Y42099857D01*
X19912528Y42094673D01*
X19906170Y42092358D01*
X19896427Y42075485D01*
X19883902Y42060557D01*
X19882184Y42050815D01*
X19880518Y42047929D01*
X19881096Y42044647D01*
X19879379Y42034905D01*
X19879379Y41234905D01*
X19550627Y41234905D01*
X19572660Y41252532D01*
X19599343Y41296350D01*
X19591619Y41347068D01*
X19553100Y41380954D01*
X19501811Y41382154D01*
X19478955Y41369661D01*
X19443639Y41341409D01*
X19325501Y41309905D01*
X19249923Y41309905D01*
X19131784Y41341409D01*
X19058827Y41399775D01*
X19023089Y41456955D01*
X18981759Y41589209D01*
X18981759Y41680602D01*
X19023089Y41812856D01*
X19058827Y41870037D01*
X19131783Y41928402D01*
X19249923Y41959905D01*
X19325501Y41959905D01*
X19443640Y41928402D01*
X19478955Y41900150D01*
X19527562Y41883736D01*
X19575347Y41902404D01*
X19599952Y41947423D01*
X19589864Y41997724D01*
X19572659Y42017280D01*
X19525040Y42055375D01*
X19522608Y42056197D01*
X19521133Y42058298D01*
X19497513Y42069278D01*
X19354656Y42107373D01*
X19351352Y42107081D01*
X19335331Y42109905D01*
X19240093Y42109905D01*
X19236979Y42108772D01*
X19220768Y42107373D01*
X19077911Y42069278D01*
X19075806Y42067808D01*
X19073240Y42067868D01*
X19050384Y42055375D01*
X18955146Y41979185D01*
X18954737Y41978514D01*
X18938398Y41960370D01*
X18890779Y41884179D01*
X18890077Y41880882D01*
X18882793Y41866799D01*
X18835174Y41714419D01*
X18835284Y41712036D01*
X18831760Y41692048D01*
X18831760Y41577762D01*
X18600807Y41577762D01*
X18600807Y41692048D01*
X18599990Y41694291D01*
X18597393Y41714419D01*
X18549774Y41866800D01*
X18547728Y41869480D01*
X18541788Y41884179D01*
X18494169Y41960370D01*
X18493545Y41960857D01*
X18477421Y41979185D01*
X18382183Y42055375D01*
X18379751Y42056197D01*
X18378276Y42058298D01*
X18354656Y42069278D01*
X18211799Y42107373D01*
X18208495Y42107081D01*
X18192474Y42109905D01*
X17954379Y42109905D01*
X17936070Y42103242D01*
X17916879Y42099857D01*
X17912528Y42094673D01*
X17906170Y42092358D01*
X17896427Y42075485D01*
X17883902Y42060557D01*
X17882184Y42050815D01*
X17880518Y42047929D01*
X17881096Y42044647D01*
X17879379Y42034905D01*
X17879379Y41234905D01*
X17717474Y41234905D01*
X17717474Y42224191D01*
X20715093Y42224191D01*
X20715093Y28165619D01*
G37*
X1733220Y52979943D02*
X1780839Y53027562D01*
X1780839Y53027562D02*
X1876077Y53075181D01*
X1876077Y53075181D02*
X2114172Y53075181D01*
X2114172Y53075181D02*
X2209410Y53027562D01*
X2209410Y53027562D02*
X2257029Y52979943D01*
X2257029Y52979943D02*
X2304648Y52884705D01*
X2304648Y52884705D02*
X2304648Y52789467D01*
X2304648Y52789467D02*
X2257029Y52646610D01*
X2257029Y52646610D02*
X1685601Y52075181D01*
X1685601Y52075181D02*
X2304648Y52075181D01*
X4780839Y52075181D02*
X4209411Y52075181D01*
X4495125Y52075181D02*
X4495125Y53075181D01*
X4495125Y53075181D02*
X4399887Y52932324D01*
X4399887Y52932324D02*
X4304649Y52837086D01*
X4304649Y52837086D02*
X4209411Y52789467D01*
G36*
X48729983Y29048402D02*
G01*
X48802939Y28990037D01*
X48838677Y28932856D01*
X48880007Y28800603D01*
X48880007Y28709208D01*
X48838677Y28576955D01*
X48802939Y28519775D01*
X48729983Y28461409D01*
X48611844Y28429905D01*
X48458579Y28429905D01*
X48458579Y29079905D01*
X48611844Y29079905D01*
X48729983Y29048402D01*
G37*
G36*
X50583502Y29051301D02*
G01*
X50612463Y29028132D01*
X50641912Y28981015D01*
X50641912Y28909749D01*
X50612463Y28862632D01*
X50583502Y28839463D01*
X50511992Y28810858D01*
X50220484Y28810858D01*
X50220484Y29079905D01*
X50511992Y29079905D01*
X50583502Y29051301D01*
G37*
G36*
X48821597Y31627301D02*
G01*
X48850558Y31604132D01*
X48880007Y31557015D01*
X48880007Y31485749D01*
X48850558Y31438632D01*
X48821597Y31415463D01*
X48750087Y31386858D01*
X48458579Y31386858D01*
X48458579Y31655905D01*
X48750087Y31655905D01*
X48821597Y31627301D01*
G37*
G36*
X48821597Y36779301D02*
G01*
X48850558Y36756132D01*
X48880007Y36709015D01*
X48880007Y36637749D01*
X48850558Y36590632D01*
X48821597Y36567463D01*
X48750087Y36538858D01*
X48458579Y36538858D01*
X48458579Y36807905D01*
X48750087Y36807905D01*
X48821597Y36779301D01*
G37*
G36*
X48729983Y39352402D02*
G01*
X48802939Y39294037D01*
X48838677Y39236856D01*
X48880007Y39104603D01*
X48880007Y39013208D01*
X48838677Y38880955D01*
X48802939Y38823775D01*
X48729983Y38765409D01*
X48611844Y38733905D01*
X48458579Y38733905D01*
X48458579Y39383905D01*
X48611844Y39383905D01*
X48729983Y39352402D01*
G37*
G36*
X50773978Y39355301D02*
G01*
X50802939Y39332132D01*
X50832388Y39285015D01*
X50832388Y39213749D01*
X50802939Y39166632D01*
X50773978Y39143463D01*
X50702468Y39114858D01*
X50410960Y39114858D01*
X50410960Y39383905D01*
X50702468Y39383905D01*
X50773978Y39355301D01*
G37*
G36*
X48729983Y41928402D02*
G01*
X48802939Y41870037D01*
X48838677Y41812856D01*
X48880007Y41680603D01*
X48880007Y41589208D01*
X48838677Y41456955D01*
X48802939Y41399775D01*
X48729983Y41341409D01*
X48611844Y41309905D01*
X48458579Y41309905D01*
X48458579Y41959905D01*
X48611844Y41959905D01*
X48729983Y41928402D01*
G37*
G36*
X50729983Y41928402D02*
G01*
X50802939Y41870037D01*
X50838677Y41812856D01*
X50880007Y41680603D01*
X50880007Y41589208D01*
X50838677Y41456955D01*
X50802939Y41399775D01*
X50729983Y41341409D01*
X50611844Y41309905D01*
X50458579Y41309905D01*
X50458579Y41959905D01*
X50611844Y41959905D01*
X50729983Y41928402D01*
G37*
G36*
X51144293Y28165619D02*
G01*
X48146674Y28165619D01*
X48146674Y28354905D01*
X48308579Y28354905D01*
X48315242Y28336597D01*
X48318627Y28317405D01*
X48323811Y28313055D01*
X48326126Y28306696D01*
X48342999Y28296954D01*
X48357927Y28284428D01*
X48367669Y28282711D01*
X48370555Y28281044D01*
X48373837Y28281623D01*
X48383579Y28279905D01*
X48621674Y28279905D01*
X48624787Y28281039D01*
X48640999Y28282437D01*
X48783856Y28320532D01*
X48785960Y28322003D01*
X48788527Y28321942D01*
X48811383Y28334435D01*
X48906622Y28410626D01*
X48907032Y28411301D01*
X48923369Y28429441D01*
X48970988Y28505631D01*
X48971689Y28508928D01*
X48978974Y28523010D01*
X49026593Y28675391D01*
X49026482Y28677775D01*
X49030007Y28697762D01*
X49030007Y28812048D01*
X49029190Y28814291D01*
X49026593Y28834419D01*
X48978974Y28986800D01*
X48976928Y28989480D01*
X48970988Y29004179D01*
X48923369Y29080370D01*
X48922745Y29080857D01*
X48906621Y29099185D01*
X48820691Y29167929D01*
X49166861Y29167929D01*
X49175770Y29117405D01*
X49215070Y29084428D01*
X49240722Y29079905D01*
X49451436Y29079905D01*
X49451436Y28354905D01*
X49468983Y28306696D01*
X49513412Y28281044D01*
X49563936Y28289953D01*
X49596913Y28329253D01*
X49601436Y28354905D01*
X50070484Y28354905D01*
X50088031Y28306696D01*
X50132460Y28281044D01*
X50182984Y28289953D01*
X50215961Y28329253D01*
X50220484Y28354905D01*
X50220484Y28660858D01*
X50349546Y28660858D01*
X50660469Y28305517D01*
X50705420Y28280791D01*
X50755748Y28290742D01*
X50787905Y28330717D01*
X50786844Y28382009D01*
X50773356Y28404293D01*
X50545732Y28664435D01*
X50554290Y28666222D01*
X50649528Y28704317D01*
X50651503Y28706084D01*
X50668526Y28715388D01*
X50716145Y28753483D01*
X50716555Y28754158D01*
X50732893Y28772298D01*
X50780512Y28848489D01*
X50782193Y28856395D01*
X50787389Y28862587D01*
X50791912Y28888239D01*
X50791912Y29002524D01*
X50789147Y29010119D01*
X50790272Y29018124D01*
X50780512Y29042274D01*
X50732893Y29118465D01*
X50732269Y29118952D01*
X50716145Y29137280D01*
X50668526Y29175375D01*
X50666016Y29176223D01*
X50649528Y29186446D01*
X50554290Y29224541D01*
X50553043Y29224581D01*
X50552088Y29225382D01*
X50526436Y29229905D01*
X50145484Y29229905D01*
X50127175Y29223242D01*
X50107984Y29219857D01*
X50103633Y29214673D01*
X50097275Y29212358D01*
X50087532Y29195485D01*
X50075007Y29180557D01*
X50073289Y29170815D01*
X50071623Y29167929D01*
X50072201Y29164647D01*
X50070484Y29154905D01*
X50070484Y28354905D01*
X49601436Y28354905D01*
X49601436Y29079905D01*
X49812150Y29079905D01*
X49860359Y29097452D01*
X49886011Y29141881D01*
X49877102Y29192405D01*
X49837802Y29225382D01*
X49812150Y29229905D01*
X49240722Y29229905D01*
X49192513Y29212358D01*
X49166861Y29167929D01*
X48820691Y29167929D01*
X48811383Y29175375D01*
X48808951Y29176197D01*
X48807476Y29178298D01*
X48783856Y29189278D01*
X48640999Y29227373D01*
X48637695Y29227081D01*
X48621674Y29229905D01*
X48383579Y29229905D01*
X48365270Y29223242D01*
X48346079Y29219857D01*
X48341728Y29214673D01*
X48335370Y29212358D01*
X48325627Y29195485D01*
X48313102Y29180557D01*
X48311384Y29170815D01*
X48309718Y29167929D01*
X48310296Y29164647D01*
X48308579Y29154905D01*
X48308579Y28354905D01*
X48146674Y28354905D01*
X48146674Y30930905D01*
X48308579Y30930905D01*
X48326126Y30882696D01*
X48370555Y30857044D01*
X48421079Y30865953D01*
X48454056Y30905253D01*
X48458579Y30930905D01*
X48458579Y31236858D01*
X48587641Y31236858D01*
X48898564Y30881517D01*
X48943515Y30856791D01*
X48993843Y30866742D01*
X49026000Y30906717D01*
X49025500Y30930905D01*
X49308579Y30930905D01*
X49326126Y30882696D01*
X49370555Y30857044D01*
X49421079Y30865953D01*
X49454056Y30905253D01*
X49458579Y30930905D01*
X49458579Y31730905D01*
X49441032Y31779114D01*
X49396603Y31804766D01*
X49346079Y31795857D01*
X49313102Y31756557D01*
X49308579Y31730905D01*
X49308579Y30930905D01*
X49025500Y30930905D01*
X49024939Y30958009D01*
X49011451Y30980293D01*
X48783827Y31240435D01*
X48792385Y31242222D01*
X48887623Y31280317D01*
X48889598Y31282084D01*
X48906621Y31291388D01*
X48954240Y31329483D01*
X48954650Y31330158D01*
X48970988Y31348298D01*
X49018607Y31424489D01*
X49020288Y31432395D01*
X49025484Y31438587D01*
X49030007Y31464239D01*
X49030007Y31578524D01*
X49027242Y31586119D01*
X49028367Y31594124D01*
X49018607Y31618274D01*
X48970988Y31694465D01*
X48970364Y31694952D01*
X48954240Y31713280D01*
X48906621Y31751375D01*
X48904111Y31752223D01*
X48887623Y31762446D01*
X48792385Y31800541D01*
X48791138Y31800581D01*
X48790183Y31801382D01*
X48764531Y31805905D01*
X48383579Y31805905D01*
X48365270Y31799242D01*
X48346079Y31795857D01*
X48341728Y31790673D01*
X48335370Y31788358D01*
X48325627Y31771485D01*
X48313102Y31756557D01*
X48311384Y31746815D01*
X48309718Y31743929D01*
X48310296Y31740647D01*
X48308579Y31730905D01*
X48308579Y30930905D01*
X48146674Y30930905D01*
X48146674Y33849762D01*
X48260960Y33849762D01*
X48261776Y33847520D01*
X48264374Y33827391D01*
X48311993Y33675011D01*
X48314037Y33672333D01*
X48319979Y33657631D01*
X48367598Y33581441D01*
X48368220Y33580955D01*
X48384346Y33562626D01*
X48479584Y33486435D01*
X48482015Y33485614D01*
X48483491Y33483512D01*
X48507111Y33472532D01*
X48649968Y33434437D01*
X48653271Y33434730D01*
X48669293Y33431905D01*
X48764531Y33431905D01*
X48767644Y33433039D01*
X48783856Y33434437D01*
X48926713Y33472532D01*
X48928817Y33474003D01*
X48931385Y33473942D01*
X48954241Y33486435D01*
X49001860Y33524532D01*
X49028543Y33568350D01*
X49020819Y33619068D01*
X48982300Y33652954D01*
X48931011Y33654154D01*
X48908155Y33641661D01*
X48872839Y33613409D01*
X48754701Y33581905D01*
X48679123Y33581905D01*
X48560984Y33613409D01*
X48488027Y33671775D01*
X48452289Y33728955D01*
X48410960Y33861209D01*
X48410960Y33952602D01*
X48452289Y34084856D01*
X48488027Y34142037D01*
X48560983Y34200402D01*
X48679123Y34231905D01*
X48754701Y34231905D01*
X48872840Y34200402D01*
X48908155Y34172150D01*
X48956762Y34155736D01*
X49004547Y34174404D01*
X49029152Y34219423D01*
X49019064Y34269724D01*
X49001859Y34289280D01*
X48963548Y34319929D01*
X49166861Y34319929D01*
X49175770Y34269405D01*
X49215070Y34236428D01*
X49240722Y34231905D01*
X49451436Y34231905D01*
X49451436Y33506905D01*
X49468983Y33458696D01*
X49513412Y33433044D01*
X49563936Y33441953D01*
X49596913Y33481253D01*
X49601436Y33506905D01*
X49601436Y34078334D01*
X50022865Y34078334D01*
X50025629Y34070740D01*
X50024505Y34062734D01*
X50034265Y34038584D01*
X50081884Y33962393D01*
X50082507Y33961907D01*
X50098632Y33943578D01*
X50146251Y33905483D01*
X50148761Y33904636D01*
X50165249Y33894412D01*
X50260486Y33856317D01*
X50263888Y33856211D01*
X50273632Y33852409D01*
X50457355Y33815665D01*
X50535883Y33784253D01*
X50564844Y33761084D01*
X50594293Y33713967D01*
X50594293Y33680797D01*
X50564844Y33633680D01*
X50535881Y33610509D01*
X50464373Y33581905D01*
X50250552Y33581905D01*
X50117190Y33617468D01*
X50066087Y33612935D01*
X50029854Y33576615D01*
X50025444Y33525502D01*
X50054920Y33483512D01*
X50078540Y33472532D01*
X50221397Y33434437D01*
X50224700Y33434730D01*
X50240722Y33431905D01*
X50478817Y33431905D01*
X50479989Y33432332D01*
X50481174Y33431942D01*
X50506671Y33437269D01*
X50601909Y33475364D01*
X50603883Y33477130D01*
X50620908Y33486435D01*
X50668527Y33524532D01*
X50668936Y33525204D01*
X50685274Y33543346D01*
X50732893Y33619536D01*
X50734574Y33627442D01*
X50739770Y33633634D01*
X50744293Y33659286D01*
X50744293Y33735477D01*
X50741528Y33743072D01*
X50742653Y33751077D01*
X50732893Y33775227D01*
X50685274Y33851417D01*
X50684650Y33851904D01*
X50668526Y33870232D01*
X50620907Y33908327D01*
X50618395Y33909176D01*
X50601910Y33919397D01*
X50506672Y33957494D01*
X50503269Y33957601D01*
X50493526Y33961402D01*
X50309799Y33998148D01*
X50231275Y34029557D01*
X50202313Y34052727D01*
X50172865Y34099844D01*
X50172865Y34133015D01*
X50202313Y34180132D01*
X50231275Y34203302D01*
X50302785Y34231905D01*
X50516606Y34231905D01*
X50649968Y34196342D01*
X50701071Y34200875D01*
X50737304Y34237195D01*
X50741714Y34288308D01*
X50712238Y34330298D01*
X50688618Y34341278D01*
X50545761Y34379373D01*
X50542457Y34379081D01*
X50526436Y34381905D01*
X50288341Y34381905D01*
X50287168Y34381479D01*
X50285984Y34381868D01*
X50260486Y34376541D01*
X50165249Y34338446D01*
X50163273Y34336680D01*
X50146251Y34327375D01*
X50098632Y34289280D01*
X50098223Y34288609D01*
X50081884Y34270465D01*
X50034265Y34194274D01*
X50032583Y34186369D01*
X50027388Y34180176D01*
X50022865Y34154524D01*
X50022865Y34078334D01*
X49601436Y34078334D01*
X49601436Y34231905D01*
X49812150Y34231905D01*
X49860359Y34249452D01*
X49886011Y34293881D01*
X49877102Y34344405D01*
X49837802Y34377382D01*
X49812150Y34381905D01*
X49240722Y34381905D01*
X49192513Y34364358D01*
X49166861Y34319929D01*
X48963548Y34319929D01*
X48954240Y34327375D01*
X48951808Y34328197D01*
X48950333Y34330298D01*
X48926713Y34341278D01*
X48783856Y34379373D01*
X48780552Y34379081D01*
X48764531Y34381905D01*
X48669293Y34381905D01*
X48666179Y34380772D01*
X48649968Y34379373D01*
X48507111Y34341278D01*
X48505006Y34339808D01*
X48502440Y34339868D01*
X48479584Y34327375D01*
X48384346Y34251185D01*
X48383937Y34250514D01*
X48367598Y34232370D01*
X48319979Y34156179D01*
X48319277Y34152882D01*
X48311993Y34138799D01*
X48264374Y33986419D01*
X48264484Y33984036D01*
X48260960Y33964048D01*
X48260960Y33849762D01*
X48146674Y33849762D01*
X48146674Y36082905D01*
X48308579Y36082905D01*
X48326126Y36034696D01*
X48370555Y36009044D01*
X48421079Y36017953D01*
X48454056Y36057253D01*
X48458579Y36082905D01*
X48458579Y36388858D01*
X48587641Y36388858D01*
X48898564Y36033517D01*
X48943515Y36008791D01*
X48993843Y36018742D01*
X49026000Y36058717D01*
X49024939Y36110009D01*
X49011451Y36132293D01*
X48783827Y36392435D01*
X48792385Y36394222D01*
X48887623Y36432317D01*
X48889598Y36434084D01*
X48906621Y36443388D01*
X48954240Y36481483D01*
X48954650Y36482158D01*
X48970988Y36500298D01*
X49018607Y36576489D01*
X49020288Y36584395D01*
X49025484Y36590587D01*
X49030007Y36616239D01*
X49030007Y36730524D01*
X49027242Y36738119D01*
X49028367Y36746124D01*
X49018607Y36770274D01*
X48970988Y36846465D01*
X48970364Y36846952D01*
X48954240Y36865280D01*
X48915929Y36895929D01*
X49166861Y36895929D01*
X49175770Y36845405D01*
X49215070Y36812428D01*
X49240722Y36807905D01*
X49451436Y36807905D01*
X49451436Y36082905D01*
X49468983Y36034696D01*
X49513412Y36009044D01*
X49563936Y36017953D01*
X49596913Y36057253D01*
X49601436Y36082905D01*
X49601436Y36654334D01*
X50022865Y36654334D01*
X50025629Y36646740D01*
X50024505Y36638734D01*
X50034265Y36614584D01*
X50081884Y36538393D01*
X50082507Y36537907D01*
X50098632Y36519578D01*
X50146251Y36481483D01*
X50148761Y36480636D01*
X50165249Y36470412D01*
X50260486Y36432317D01*
X50263888Y36432211D01*
X50273632Y36428409D01*
X50457355Y36391665D01*
X50535883Y36360253D01*
X50564844Y36337084D01*
X50594293Y36289967D01*
X50594293Y36256797D01*
X50564844Y36209680D01*
X50535881Y36186509D01*
X50464373Y36157905D01*
X50250552Y36157905D01*
X50117190Y36193468D01*
X50066087Y36188935D01*
X50029854Y36152615D01*
X50025444Y36101502D01*
X50054920Y36059512D01*
X50078540Y36048532D01*
X50221397Y36010437D01*
X50224700Y36010730D01*
X50240722Y36007905D01*
X50478817Y36007905D01*
X50479989Y36008332D01*
X50481174Y36007942D01*
X50506671Y36013269D01*
X50601909Y36051364D01*
X50603883Y36053130D01*
X50620908Y36062435D01*
X50668527Y36100532D01*
X50668936Y36101204D01*
X50685274Y36119346D01*
X50732893Y36195536D01*
X50734574Y36203442D01*
X50739770Y36209634D01*
X50744293Y36235286D01*
X50744293Y36311477D01*
X50741528Y36319072D01*
X50742653Y36327077D01*
X50732893Y36351227D01*
X50685274Y36427417D01*
X50684650Y36427904D01*
X50668526Y36446232D01*
X50620907Y36484327D01*
X50618395Y36485176D01*
X50601910Y36495397D01*
X50506672Y36533494D01*
X50503269Y36533601D01*
X50493526Y36537402D01*
X50309799Y36574148D01*
X50231275Y36605557D01*
X50202313Y36628727D01*
X50172865Y36675844D01*
X50172865Y36709015D01*
X50202313Y36756132D01*
X50231275Y36779302D01*
X50302785Y36807905D01*
X50516606Y36807905D01*
X50649968Y36772342D01*
X50701071Y36776875D01*
X50737304Y36813195D01*
X50741714Y36864308D01*
X50712238Y36906298D01*
X50688618Y36917278D01*
X50545761Y36955373D01*
X50542457Y36955081D01*
X50526436Y36957905D01*
X50288341Y36957905D01*
X50287168Y36957479D01*
X50285984Y36957868D01*
X50260486Y36952541D01*
X50165249Y36914446D01*
X50163273Y36912680D01*
X50146251Y36903375D01*
X50098632Y36865280D01*
X50098223Y36864609D01*
X50081884Y36846465D01*
X50034265Y36770274D01*
X50032583Y36762369D01*
X50027388Y36756176D01*
X50022865Y36730524D01*
X50022865Y36654334D01*
X49601436Y36654334D01*
X49601436Y36807905D01*
X49812150Y36807905D01*
X49860359Y36825452D01*
X49886011Y36869881D01*
X49877102Y36920405D01*
X49837802Y36953382D01*
X49812150Y36957905D01*
X49240722Y36957905D01*
X49192513Y36940358D01*
X49166861Y36895929D01*
X48915929Y36895929D01*
X48906621Y36903375D01*
X48904111Y36904223D01*
X48887623Y36914446D01*
X48792385Y36952541D01*
X48791138Y36952581D01*
X48790183Y36953382D01*
X48764531Y36957905D01*
X48383579Y36957905D01*
X48365270Y36951242D01*
X48346079Y36947857D01*
X48341728Y36942673D01*
X48335370Y36940358D01*
X48325627Y36923485D01*
X48313102Y36908557D01*
X48311384Y36898815D01*
X48309718Y36895929D01*
X48310296Y36892647D01*
X48308579Y36882905D01*
X48308579Y36082905D01*
X48146674Y36082905D01*
X48146674Y38658905D01*
X48308579Y38658905D01*
X48315242Y38640597D01*
X48318627Y38621405D01*
X48323811Y38617055D01*
X48326126Y38610696D01*
X48342999Y38600954D01*
X48357927Y38588428D01*
X48367669Y38586711D01*
X48370555Y38585044D01*
X48373837Y38585623D01*
X48383579Y38583905D01*
X48621674Y38583905D01*
X48624787Y38585039D01*
X48640999Y38586437D01*
X48783856Y38624532D01*
X48785960Y38626003D01*
X48788527Y38625942D01*
X48811383Y38638435D01*
X48906622Y38714626D01*
X48907032Y38715301D01*
X48923369Y38733441D01*
X48970988Y38809631D01*
X48971689Y38812928D01*
X48978974Y38827010D01*
X49026593Y38979391D01*
X49026482Y38981775D01*
X49030007Y39001762D01*
X49030007Y39116048D01*
X49029190Y39118291D01*
X49026593Y39138419D01*
X48997870Y39230334D01*
X49260960Y39230334D01*
X49263724Y39222740D01*
X49262600Y39214734D01*
X49272360Y39190584D01*
X49319979Y39114393D01*
X49320602Y39113907D01*
X49336727Y39095578D01*
X49384346Y39057483D01*
X49386856Y39056636D01*
X49403344Y39046412D01*
X49498581Y39008317D01*
X49501983Y39008211D01*
X49511727Y39004409D01*
X49695450Y38967665D01*
X49773978Y38936253D01*
X49802939Y38913084D01*
X49832388Y38865967D01*
X49832388Y38832797D01*
X49802939Y38785680D01*
X49773976Y38762509D01*
X49702468Y38733905D01*
X49488647Y38733905D01*
X49355285Y38769468D01*
X49304182Y38764935D01*
X49267949Y38728615D01*
X49263539Y38677502D01*
X49293015Y38635512D01*
X49316635Y38624532D01*
X49459492Y38586437D01*
X49462795Y38586730D01*
X49478817Y38583905D01*
X49716912Y38583905D01*
X49718084Y38584332D01*
X49719269Y38583942D01*
X49744766Y38589269D01*
X49840004Y38627364D01*
X49841978Y38629130D01*
X49859003Y38638435D01*
X49884589Y38658905D01*
X50260960Y38658905D01*
X50278507Y38610696D01*
X50322936Y38585044D01*
X50373460Y38593953D01*
X50406437Y38633253D01*
X50410960Y38658905D01*
X50410960Y38964858D01*
X50540022Y38964858D01*
X50850945Y38609517D01*
X50895896Y38584791D01*
X50946224Y38594742D01*
X50978381Y38634717D01*
X50977320Y38686009D01*
X50963832Y38708293D01*
X50736208Y38968435D01*
X50744766Y38970222D01*
X50840004Y39008317D01*
X50841979Y39010084D01*
X50859002Y39019388D01*
X50906621Y39057483D01*
X50907031Y39058158D01*
X50923369Y39076298D01*
X50970988Y39152489D01*
X50972669Y39160395D01*
X50977865Y39166587D01*
X50982388Y39192239D01*
X50982388Y39306524D01*
X50979623Y39314119D01*
X50980748Y39322124D01*
X50970988Y39346274D01*
X50923369Y39422465D01*
X50922745Y39422952D01*
X50906621Y39441280D01*
X50859002Y39479375D01*
X50856492Y39480223D01*
X50840004Y39490446D01*
X50744766Y39528541D01*
X50743519Y39528581D01*
X50742564Y39529382D01*
X50716912Y39533905D01*
X50335960Y39533905D01*
X50317651Y39527242D01*
X50298460Y39523857D01*
X50294109Y39518673D01*
X50287751Y39516358D01*
X50278008Y39499485D01*
X50265483Y39484557D01*
X50263765Y39474815D01*
X50262099Y39471929D01*
X50262677Y39468647D01*
X50260960Y39458905D01*
X50260960Y38658905D01*
X49884589Y38658905D01*
X49906622Y38676532D01*
X49907031Y38677204D01*
X49923369Y38695346D01*
X49970988Y38771536D01*
X49972669Y38779442D01*
X49977865Y38785634D01*
X49982388Y38811286D01*
X49982388Y38887477D01*
X49979623Y38895072D01*
X49980748Y38903077D01*
X49970988Y38927227D01*
X49923369Y39003417D01*
X49922745Y39003904D01*
X49906621Y39022232D01*
X49859002Y39060327D01*
X49856490Y39061176D01*
X49840005Y39071397D01*
X49744767Y39109494D01*
X49741364Y39109601D01*
X49731621Y39113402D01*
X49547894Y39150148D01*
X49469370Y39181557D01*
X49440408Y39204727D01*
X49410960Y39251844D01*
X49410960Y39285015D01*
X49440408Y39332132D01*
X49469370Y39355302D01*
X49540880Y39383905D01*
X49754701Y39383905D01*
X49888063Y39348342D01*
X49939166Y39352875D01*
X49975399Y39389195D01*
X49979809Y39440308D01*
X49950333Y39482298D01*
X49926713Y39493278D01*
X49783856Y39531373D01*
X49780552Y39531081D01*
X49764531Y39533905D01*
X49526436Y39533905D01*
X49525263Y39533479D01*
X49524079Y39533868D01*
X49498581Y39528541D01*
X49403344Y39490446D01*
X49401368Y39488680D01*
X49384346Y39479375D01*
X49336727Y39441280D01*
X49336318Y39440609D01*
X49319979Y39422465D01*
X49272360Y39346274D01*
X49270678Y39338369D01*
X49265483Y39332176D01*
X49260960Y39306524D01*
X49260960Y39230334D01*
X48997870Y39230334D01*
X48978974Y39290800D01*
X48976928Y39293480D01*
X48970988Y39308179D01*
X48923369Y39384370D01*
X48922745Y39384857D01*
X48906621Y39403185D01*
X48811383Y39479375D01*
X48808951Y39480197D01*
X48807476Y39482298D01*
X48783856Y39493278D01*
X48640999Y39531373D01*
X48637695Y39531081D01*
X48621674Y39533905D01*
X48383579Y39533905D01*
X48365270Y39527242D01*
X48346079Y39523857D01*
X48341728Y39518673D01*
X48335370Y39516358D01*
X48325627Y39499485D01*
X48313102Y39484557D01*
X48311384Y39474815D01*
X48309718Y39471929D01*
X48310296Y39468647D01*
X48308579Y39458905D01*
X48308579Y38658905D01*
X48146674Y38658905D01*
X48146674Y41234905D01*
X48308579Y41234905D01*
X48315242Y41216597D01*
X48318627Y41197405D01*
X48323811Y41193055D01*
X48326126Y41186696D01*
X48342999Y41176954D01*
X48357927Y41164428D01*
X48367669Y41162711D01*
X48370555Y41161044D01*
X48373837Y41161623D01*
X48383579Y41159905D01*
X48621674Y41159905D01*
X48624787Y41161039D01*
X48640999Y41162437D01*
X48783856Y41200532D01*
X48785960Y41202003D01*
X48788527Y41201942D01*
X48811383Y41214435D01*
X48906622Y41290626D01*
X48907032Y41291301D01*
X48923369Y41309441D01*
X48970988Y41385631D01*
X48971689Y41388928D01*
X48978974Y41403010D01*
X49026593Y41555391D01*
X49026482Y41557775D01*
X49030007Y41577762D01*
X49260960Y41577762D01*
X49261776Y41575520D01*
X49264374Y41555391D01*
X49311993Y41403011D01*
X49314037Y41400333D01*
X49319979Y41385631D01*
X49367598Y41309441D01*
X49368220Y41308955D01*
X49384346Y41290626D01*
X49479584Y41214435D01*
X49482015Y41213614D01*
X49483491Y41211512D01*
X49507111Y41200532D01*
X49649968Y41162437D01*
X49653271Y41162730D01*
X49669293Y41159905D01*
X49764531Y41159905D01*
X49767644Y41161039D01*
X49783856Y41162437D01*
X49926713Y41200532D01*
X49928817Y41202003D01*
X49931385Y41201942D01*
X49954241Y41214435D01*
X49979827Y41234905D01*
X50308579Y41234905D01*
X50315242Y41216597D01*
X50318627Y41197405D01*
X50323811Y41193055D01*
X50326126Y41186696D01*
X50342999Y41176954D01*
X50357927Y41164428D01*
X50367669Y41162711D01*
X50370555Y41161044D01*
X50373837Y41161623D01*
X50383579Y41159905D01*
X50621674Y41159905D01*
X50624787Y41161039D01*
X50640999Y41162437D01*
X50783856Y41200532D01*
X50785960Y41202003D01*
X50788527Y41201942D01*
X50811383Y41214435D01*
X50906622Y41290626D01*
X50907032Y41291301D01*
X50923369Y41309441D01*
X50970988Y41385631D01*
X50971689Y41388928D01*
X50978974Y41403010D01*
X51026593Y41555391D01*
X51026482Y41557775D01*
X51030007Y41577762D01*
X51030007Y41692048D01*
X51029190Y41694291D01*
X51026593Y41714419D01*
X50978974Y41866800D01*
X50976928Y41869480D01*
X50970988Y41884179D01*
X50923369Y41960370D01*
X50922745Y41960857D01*
X50906621Y41979185D01*
X50811383Y42055375D01*
X50808951Y42056197D01*
X50807476Y42058298D01*
X50783856Y42069278D01*
X50640999Y42107373D01*
X50637695Y42107081D01*
X50621674Y42109905D01*
X50383579Y42109905D01*
X50365270Y42103242D01*
X50346079Y42099857D01*
X50341728Y42094673D01*
X50335370Y42092358D01*
X50325627Y42075485D01*
X50313102Y42060557D01*
X50311384Y42050815D01*
X50309718Y42047929D01*
X50310296Y42044647D01*
X50308579Y42034905D01*
X50308579Y41234905D01*
X49979827Y41234905D01*
X50001860Y41252532D01*
X50028543Y41296350D01*
X50020819Y41347068D01*
X49982300Y41380954D01*
X49931011Y41382154D01*
X49908155Y41369661D01*
X49872839Y41341409D01*
X49754701Y41309905D01*
X49679123Y41309905D01*
X49560984Y41341409D01*
X49488027Y41399775D01*
X49452289Y41456955D01*
X49410960Y41589209D01*
X49410960Y41680602D01*
X49452289Y41812856D01*
X49488027Y41870037D01*
X49560983Y41928402D01*
X49679123Y41959905D01*
X49754701Y41959905D01*
X49872840Y41928402D01*
X49908155Y41900150D01*
X49956762Y41883736D01*
X50004547Y41902404D01*
X50029152Y41947423D01*
X50019064Y41997724D01*
X50001859Y42017280D01*
X49954240Y42055375D01*
X49951808Y42056197D01*
X49950333Y42058298D01*
X49926713Y42069278D01*
X49783856Y42107373D01*
X49780552Y42107081D01*
X49764531Y42109905D01*
X49669293Y42109905D01*
X49666179Y42108772D01*
X49649968Y42107373D01*
X49507111Y42069278D01*
X49505006Y42067808D01*
X49502440Y42067868D01*
X49479584Y42055375D01*
X49384346Y41979185D01*
X49383937Y41978514D01*
X49367598Y41960370D01*
X49319979Y41884179D01*
X49319277Y41880882D01*
X49311993Y41866799D01*
X49264374Y41714419D01*
X49264484Y41712036D01*
X49260960Y41692048D01*
X49260960Y41577762D01*
X49030007Y41577762D01*
X49030007Y41692048D01*
X49029190Y41694291D01*
X49026593Y41714419D01*
X48978974Y41866800D01*
X48976928Y41869480D01*
X48970988Y41884179D01*
X48923369Y41960370D01*
X48922745Y41960857D01*
X48906621Y41979185D01*
X48811383Y42055375D01*
X48808951Y42056197D01*
X48807476Y42058298D01*
X48783856Y42069278D01*
X48640999Y42107373D01*
X48637695Y42107081D01*
X48621674Y42109905D01*
X48383579Y42109905D01*
X48365270Y42103242D01*
X48346079Y42099857D01*
X48341728Y42094673D01*
X48335370Y42092358D01*
X48325627Y42075485D01*
X48313102Y42060557D01*
X48311384Y42050815D01*
X48309718Y42047929D01*
X48310296Y42044647D01*
X48308579Y42034905D01*
X48308579Y41234905D01*
X48146674Y41234905D01*
X48146674Y42224191D01*
X51144293Y42224191D01*
X51144293Y28165619D01*
G37*
X48434379Y42754181D02*
X48434379Y43754181D01*
X48910569Y42754181D02*
X48910569Y43754181D01*
X48910569Y43754181D02*
X49481997Y42754181D01*
X49481997Y42754181D02*
X49481997Y43754181D01*
X49862950Y43754181D02*
X50481997Y43754181D01*
X50481997Y43754181D02*
X50148664Y43373229D01*
X50148664Y43373229D02*
X50291521Y43373229D01*
X50291521Y43373229D02*
X50386759Y43325610D01*
X50386759Y43325610D02*
X50434378Y43277991D01*
X50434378Y43277991D02*
X50481997Y43182753D01*
X50481997Y43182753D02*
X50481997Y42944658D01*
X50481997Y42944658D02*
X50434378Y42849420D01*
X50434378Y42849420D02*
X50386759Y42801800D01*
X50386759Y42801800D02*
X50291521Y42754181D01*
X50291521Y42754181D02*
X50005807Y42754181D01*
X50005807Y42754181D02*
X49910569Y42801800D01*
X49910569Y42801800D02*
X49862950Y42849420D01*
G36*
X56092612Y4097202D02*
G01*
X56165568Y4038837D01*
X56201306Y3981656D01*
X56242636Y3849403D01*
X56242636Y3758008D01*
X56201306Y3625755D01*
X56165568Y3568575D01*
X56092612Y3510209D01*
X55974473Y3478705D01*
X55821208Y3478705D01*
X55821208Y4128705D01*
X55974473Y4128705D01*
X56092612Y4097202D01*
G37*
G36*
X56330707Y6673202D02*
G01*
X56403663Y6614837D01*
X56439401Y6557656D01*
X56480731Y6425403D01*
X56480731Y6334008D01*
X56439401Y6201755D01*
X56403663Y6144575D01*
X56330707Y6086209D01*
X56212568Y6054705D01*
X56059303Y6054705D01*
X56059303Y6704705D01*
X56212568Y6704705D01*
X56330707Y6673202D01*
G37*
G36*
X54612797Y6676101D02*
G01*
X54641758Y6652932D01*
X54671207Y6605815D01*
X54671207Y6534549D01*
X54641758Y6487432D01*
X54612797Y6464263D01*
X54541287Y6435658D01*
X54249779Y6435658D01*
X54249779Y6704705D01*
X54541287Y6704705D01*
X54612797Y6676101D01*
G37*
G36*
X56745017Y3214419D02*
G01*
X53843775Y3214419D01*
X53843775Y4216729D01*
X53958061Y4216729D01*
X53966970Y4166205D01*
X54006270Y4133228D01*
X54031922Y4128705D01*
X54242636Y4128705D01*
X54242636Y3403705D01*
X54260183Y3355496D01*
X54304612Y3329844D01*
X54355136Y3338753D01*
X54388113Y3378053D01*
X54392636Y3403705D01*
X54392636Y3409568D01*
X54766676Y3409568D01*
X54780399Y3360135D01*
X54822688Y3331089D01*
X54873753Y3336020D01*
X54894955Y3351152D01*
X55103350Y3563338D01*
X55311746Y3351152D01*
X55358045Y3329053D01*
X55407718Y3341883D01*
X55437521Y3383642D01*
X55435948Y3403705D01*
X55671208Y3403705D01*
X55677871Y3385397D01*
X55681256Y3366205D01*
X55686440Y3361855D01*
X55688755Y3355496D01*
X55705628Y3345754D01*
X55720556Y3333228D01*
X55730298Y3331511D01*
X55733184Y3329844D01*
X55736466Y3330423D01*
X55746208Y3328705D01*
X55984303Y3328705D01*
X55987416Y3329839D01*
X56003628Y3331237D01*
X56146485Y3369332D01*
X56148589Y3370803D01*
X56151156Y3370742D01*
X56174012Y3383235D01*
X56269251Y3459426D01*
X56269661Y3460101D01*
X56285998Y3478241D01*
X56333617Y3554431D01*
X56334318Y3557728D01*
X56341603Y3571810D01*
X56389222Y3724191D01*
X56389111Y3726575D01*
X56392636Y3746562D01*
X56392636Y3860848D01*
X56391819Y3863091D01*
X56389222Y3883219D01*
X56341603Y4035600D01*
X56339557Y4038280D01*
X56333617Y4052979D01*
X56285998Y4129170D01*
X56285374Y4129657D01*
X56269250Y4147985D01*
X56174012Y4224175D01*
X56171580Y4224997D01*
X56170105Y4227098D01*
X56146485Y4238078D01*
X56003628Y4276173D01*
X56000324Y4275881D01*
X55984303Y4278705D01*
X55746208Y4278705D01*
X55727899Y4272042D01*
X55708708Y4268657D01*
X55704357Y4263473D01*
X55697999Y4261158D01*
X55688256Y4244285D01*
X55675731Y4229357D01*
X55674013Y4219615D01*
X55672347Y4216729D01*
X55672925Y4213447D01*
X55671208Y4203705D01*
X55671208Y3403705D01*
X55435948Y3403705D01*
X55433511Y3434788D01*
X55418763Y3456258D01*
X55208473Y3670372D01*
X55418763Y3884486D01*
X55440025Y3931176D01*
X55426302Y3980609D01*
X55384013Y4009655D01*
X55332948Y4004724D01*
X55311746Y3989592D01*
X55103350Y3777407D01*
X54894955Y3989592D01*
X54848655Y4011691D01*
X54798983Y3998861D01*
X54769179Y3957102D01*
X54773190Y3905957D01*
X54787937Y3884486D01*
X54998227Y3670372D01*
X54787937Y3456258D01*
X54766676Y3409568D01*
X54392636Y3409568D01*
X54392636Y4128705D01*
X54603350Y4128705D01*
X54651559Y4146252D01*
X54677211Y4190681D01*
X54668302Y4241205D01*
X54629002Y4274182D01*
X54603350Y4278705D01*
X54031922Y4278705D01*
X53983713Y4261158D01*
X53958061Y4216729D01*
X53843775Y4216729D01*
X53843775Y5979705D01*
X54099779Y5979705D01*
X54117326Y5931496D01*
X54161755Y5905844D01*
X54212279Y5914753D01*
X54245256Y5954053D01*
X54249779Y5979705D01*
X54249779Y6285658D01*
X54378841Y6285658D01*
X54689764Y5930317D01*
X54734715Y5905591D01*
X54785043Y5915542D01*
X54817200Y5955517D01*
X54816578Y5985568D01*
X55004771Y5985568D01*
X55018494Y5936135D01*
X55060783Y5907089D01*
X55111848Y5912020D01*
X55133050Y5927152D01*
X55341445Y6139338D01*
X55549841Y5927152D01*
X55596140Y5905053D01*
X55645813Y5917883D01*
X55675616Y5959642D01*
X55674043Y5979705D01*
X55909303Y5979705D01*
X55915966Y5961397D01*
X55919351Y5942205D01*
X55924535Y5937855D01*
X55926850Y5931496D01*
X55943723Y5921754D01*
X55958651Y5909228D01*
X55968393Y5907511D01*
X55971279Y5905844D01*
X55974561Y5906423D01*
X55984303Y5904705D01*
X56222398Y5904705D01*
X56225511Y5905839D01*
X56241723Y5907237D01*
X56384580Y5945332D01*
X56386684Y5946803D01*
X56389251Y5946742D01*
X56412107Y5959235D01*
X56507346Y6035426D01*
X56507756Y6036101D01*
X56524093Y6054241D01*
X56571712Y6130431D01*
X56572413Y6133728D01*
X56579698Y6147810D01*
X56627317Y6300191D01*
X56627206Y6302575D01*
X56630731Y6322562D01*
X56630731Y6436848D01*
X56629914Y6439091D01*
X56627317Y6459219D01*
X56579698Y6611600D01*
X56577652Y6614280D01*
X56571712Y6628979D01*
X56524093Y6705170D01*
X56523469Y6705657D01*
X56507345Y6723985D01*
X56412107Y6800175D01*
X56409675Y6800997D01*
X56408200Y6803098D01*
X56384580Y6814078D01*
X56241723Y6852173D01*
X56238419Y6851881D01*
X56222398Y6854705D01*
X55984303Y6854705D01*
X55965994Y6848042D01*
X55946803Y6844657D01*
X55942452Y6839473D01*
X55936094Y6837158D01*
X55926351Y6820285D01*
X55913826Y6805357D01*
X55912108Y6795615D01*
X55910442Y6792729D01*
X55911020Y6789447D01*
X55909303Y6779705D01*
X55909303Y5979705D01*
X55674043Y5979705D01*
X55671606Y6010788D01*
X55656858Y6032258D01*
X55446568Y6246373D01*
X55656858Y6460486D01*
X55678120Y6507176D01*
X55664397Y6556609D01*
X55622108Y6585655D01*
X55571043Y6580724D01*
X55549841Y6565592D01*
X55341445Y6353407D01*
X55133050Y6565592D01*
X55086750Y6587691D01*
X55037078Y6574861D01*
X55007274Y6533102D01*
X55011285Y6481957D01*
X55026032Y6460486D01*
X55236322Y6246373D01*
X55026032Y6032258D01*
X55004771Y5985568D01*
X54816578Y5985568D01*
X54816139Y6006809D01*
X54802651Y6029093D01*
X54575027Y6289235D01*
X54583585Y6291022D01*
X54678823Y6329117D01*
X54680798Y6330884D01*
X54697821Y6340188D01*
X54745440Y6378283D01*
X54745850Y6378958D01*
X54762188Y6397098D01*
X54809807Y6473289D01*
X54811488Y6481195D01*
X54816684Y6487387D01*
X54821207Y6513039D01*
X54821207Y6627324D01*
X54818442Y6634919D01*
X54819567Y6642924D01*
X54809807Y6667074D01*
X54762188Y6743265D01*
X54761564Y6743752D01*
X54745440Y6762080D01*
X54697821Y6800175D01*
X54695311Y6801023D01*
X54678823Y6811246D01*
X54583585Y6849341D01*
X54582338Y6849381D01*
X54581383Y6850182D01*
X54555731Y6854705D01*
X54174779Y6854705D01*
X54156470Y6848042D01*
X54137279Y6844657D01*
X54132928Y6839473D01*
X54126570Y6837158D01*
X54116827Y6820285D01*
X54104302Y6805357D01*
X54102584Y6795615D01*
X54100918Y6792729D01*
X54101496Y6789447D01*
X54099779Y6779705D01*
X54099779Y5979705D01*
X53843775Y5979705D01*
X53843775Y6968991D01*
X56745017Y6968991D01*
X56745017Y3214419D01*
G37*
X54365255Y8346581D02*
X54555731Y8346581D01*
X54555731Y8346581D02*
X54650969Y8298962D01*
X54650969Y8298962D02*
X54746207Y8203724D01*
X54746207Y8203724D02*
X54793826Y8013248D01*
X54793826Y8013248D02*
X54793826Y7679915D01*
X54793826Y7679915D02*
X54746207Y7489439D01*
X54746207Y7489439D02*
X54650969Y7394200D01*
X54650969Y7394200D02*
X54555731Y7346581D01*
X54555731Y7346581D02*
X54365255Y7346581D01*
X54365255Y7346581D02*
X54270017Y7394200D01*
X54270017Y7394200D02*
X54174779Y7489439D01*
X54174779Y7489439D02*
X54127160Y7679915D01*
X54127160Y7679915D02*
X54127160Y8013248D01*
X54127160Y8013248D02*
X54174779Y8203724D01*
X54174779Y8203724D02*
X54270017Y8298962D01*
X54270017Y8298962D02*
X54365255Y8346581D01*
X55222398Y8346581D02*
X55222398Y7537058D01*
X55222398Y7537058D02*
X55270017Y7441820D01*
X55270017Y7441820D02*
X55317636Y7394200D01*
X55317636Y7394200D02*
X55412874Y7346581D01*
X55412874Y7346581D02*
X55603350Y7346581D01*
X55603350Y7346581D02*
X55698588Y7394200D01*
X55698588Y7394200D02*
X55746207Y7441820D01*
X55746207Y7441820D02*
X55793826Y7537058D01*
X55793826Y7537058D02*
X55793826Y8346581D01*
X56127160Y8346581D02*
X56698588Y8346581D01*
X56412874Y7346581D02*
X56412874Y8346581D01*
D12*
G36*
X56597657Y46672322D02*
G01*
X55942455Y46890722D01*
X56597657Y47109123D01*
X56597657Y46672322D01*
G37*
G36*
X58010712Y44576435D02*
G01*
X55098887Y44576435D01*
X55098887Y44878505D01*
X55526977Y44878505D01*
X55531122Y44869623D01*
X55531122Y44859819D01*
X55543912Y44842215D01*
X55553113Y44822499D01*
X55561687Y44817750D01*
X55567449Y44809819D01*
X55588141Y44803096D01*
X55607176Y44792552D01*
X55616906Y44793750D01*
X55626228Y44790721D01*
X57126228Y44790721D01*
X57185007Y44809819D01*
X57221334Y44859819D01*
X57221334Y44921623D01*
X57185007Y44971623D01*
X57126228Y44990721D01*
X56076984Y44990721D01*
X56739946Y45300103D01*
X56753978Y45313196D01*
X56770773Y45322499D01*
X56776036Y45333778D01*
X56785134Y45342266D01*
X56788791Y45361110D01*
X56796909Y45378505D01*
X56794538Y45390721D01*
X56796909Y45402937D01*
X56788791Y45420333D01*
X56785134Y45439176D01*
X56776036Y45447665D01*
X56770773Y45458943D01*
X56753978Y45468247D01*
X56739946Y45481339D01*
X56076984Y45790721D01*
X57126228Y45790721D01*
X57185007Y45809819D01*
X57221334Y45859819D01*
X57221334Y45921623D01*
X57185007Y45971623D01*
X57126228Y45990721D01*
X55626228Y45990721D01*
X55616906Y45987693D01*
X55607176Y45988890D01*
X55588141Y45978347D01*
X55567449Y45971623D01*
X55561687Y45963693D01*
X55553113Y45958943D01*
X55543912Y45939228D01*
X55531122Y45921623D01*
X55531122Y45911820D01*
X55526977Y45902937D01*
X55531122Y45881578D01*
X55531122Y45859819D01*
X55536883Y45851889D01*
X55538751Y45842266D01*
X55554659Y45827423D01*
X55567449Y45809819D01*
X55576772Y45806790D01*
X55583939Y45800103D01*
X56461187Y45390722D01*
X55583939Y44981339D01*
X55576772Y44974653D01*
X55567449Y44971623D01*
X55554659Y44954020D01*
X55538751Y44939176D01*
X55536883Y44929554D01*
X55531122Y44921623D01*
X55531122Y44899865D01*
X55526977Y44878505D01*
X55098887Y44878505D01*
X55098887Y46889963D01*
X55526230Y46889963D01*
X55535766Y46861354D01*
X55544882Y46832559D01*
X55545523Y46832086D01*
X55545775Y46831331D01*
X55570326Y46813777D01*
X55594605Y46795854D01*
X57094605Y46295854D01*
X57156407Y46295384D01*
X57206682Y46331331D01*
X57226226Y46389963D01*
X57207574Y46448885D01*
X57157851Y46485590D01*
X56797657Y46605655D01*
X56797657Y47175790D01*
X57157851Y47295854D01*
X57207574Y47332559D01*
X57226226Y47391481D01*
X57206682Y47450113D01*
X57156407Y47486060D01*
X57094605Y47485590D01*
X55594605Y46985590D01*
X55570326Y46967668D01*
X55545775Y46950113D01*
X55545523Y46949359D01*
X55544882Y46948885D01*
X55535766Y46920091D01*
X55526230Y46891481D01*
X55526470Y46890723D01*
X55526230Y46889963D01*
X55098887Y46889963D01*
X55098887Y47859819D01*
X55531122Y47859819D01*
X55567449Y47809819D01*
X55626228Y47790721D01*
X57126228Y47790721D01*
X57141291Y47795615D01*
X57157130Y47795615D01*
X57169943Y47804925D01*
X57185007Y47809819D01*
X57194316Y47822633D01*
X57207130Y47831942D01*
X57212024Y47847006D01*
X57221334Y47859819D01*
X57221334Y47875659D01*
X57226228Y47890721D01*
X57226228Y48605007D01*
X57207130Y48663786D01*
X57157130Y48700113D01*
X57095326Y48700113D01*
X57045326Y48663786D01*
X57026228Y48605007D01*
X57026228Y47990721D01*
X55626228Y47990721D01*
X55567449Y47971623D01*
X55531122Y47921623D01*
X55531122Y47859819D01*
X55098887Y47859819D01*
X55098887Y49105007D01*
X55526228Y49105007D01*
X55531122Y49089945D01*
X55531122Y49074105D01*
X55540431Y49061292D01*
X55545326Y49046228D01*
X55558139Y49036919D01*
X55567449Y49024105D01*
X55582512Y49019211D01*
X55595326Y49009901D01*
X55611165Y49009901D01*
X55626228Y49005007D01*
X57126228Y49005007D01*
X57141291Y49009901D01*
X57157130Y49009901D01*
X57169943Y49019211D01*
X57185007Y49024105D01*
X57194316Y49036919D01*
X57207130Y49046228D01*
X57212024Y49061292D01*
X57221334Y49074105D01*
X57221334Y49089945D01*
X57226228Y49105007D01*
X57226228Y49819293D01*
X57207130Y49878072D01*
X57157130Y49914399D01*
X57095326Y49914399D01*
X57045326Y49878072D01*
X57026228Y49819293D01*
X57026228Y49205007D01*
X56440514Y49205007D01*
X56440514Y49605007D01*
X56421416Y49663786D01*
X56371416Y49700113D01*
X56309612Y49700113D01*
X56259612Y49663786D01*
X56240514Y49605007D01*
X56240514Y49205007D01*
X55726228Y49205007D01*
X55726228Y49819293D01*
X55707130Y49878072D01*
X55657130Y49914399D01*
X55595326Y49914399D01*
X55545326Y49878072D01*
X55526228Y49819293D01*
X55526228Y49105007D01*
X55098887Y49105007D01*
X55098887Y50875079D01*
X55313173Y50875079D01*
X55341231Y50820011D01*
X55412660Y50748582D01*
X55421648Y50744003D01*
X55427901Y50736088D01*
X55642187Y50593231D01*
X55648363Y50591496D01*
X55652935Y50586993D01*
X55795792Y50515564D01*
X55803015Y50514476D01*
X55808891Y50510139D01*
X56023177Y50438711D01*
X56029592Y50438663D01*
X56035188Y50435521D01*
X56392330Y50364092D01*
X56402348Y50365267D01*
X56411942Y50362150D01*
X56697657Y50362150D01*
X56707250Y50365268D01*
X56717269Y50364092D01*
X57074412Y50435521D01*
X57080007Y50438663D01*
X57086423Y50438711D01*
X57300708Y50510139D01*
X57306583Y50514476D01*
X57313807Y50515564D01*
X57456663Y50586993D01*
X57461234Y50591496D01*
X57467412Y50593231D01*
X57681698Y50736088D01*
X57687950Y50744003D01*
X57696939Y50748582D01*
X57768368Y50820011D01*
X57796426Y50875079D01*
X57786758Y50936121D01*
X57743056Y50979823D01*
X57682014Y50989491D01*
X57626946Y50961433D01*
X57562517Y50897005D01*
X57361655Y50763097D01*
X57230714Y50697626D01*
X57029085Y50630417D01*
X56687755Y50562150D01*
X56421844Y50562150D01*
X56080512Y50630417D01*
X55878881Y50697627D01*
X55747943Y50763097D01*
X55547081Y50897005D01*
X55482653Y50961433D01*
X55427585Y50989491D01*
X55366543Y50979823D01*
X55322841Y50936121D01*
X55313173Y50875079D01*
X55098887Y50875079D01*
X55098887Y52334936D01*
X56170316Y52334936D01*
X56179984Y52273894D01*
X56223686Y52230192D01*
X56284728Y52220524D01*
X56339796Y52248582D01*
X56454800Y52363587D01*
X56454800Y51462150D01*
X56473898Y51403371D01*
X56523898Y51367044D01*
X56585702Y51367044D01*
X56635702Y51403371D01*
X56654800Y51462150D01*
X56654800Y52363586D01*
X56769804Y52248582D01*
X56824871Y52220523D01*
X56885913Y52230192D01*
X56929615Y52273894D01*
X56939284Y52334936D01*
X56911225Y52390003D01*
X56625511Y52675718D01*
X56611398Y52682909D01*
X56600199Y52694108D01*
X56592229Y52695371D01*
X56585702Y52700113D01*
X56577632Y52700113D01*
X56570443Y52703776D01*
X56554799Y52701299D01*
X56539157Y52703776D01*
X56531968Y52700113D01*
X56523898Y52700113D01*
X56517370Y52695371D01*
X56509401Y52694108D01*
X56498201Y52682909D01*
X56484089Y52675718D01*
X56198374Y52390004D01*
X56170316Y52334936D01*
X55098887Y52334936D01*
X55098887Y53192079D01*
X55313173Y53192079D01*
X55322841Y53131037D01*
X55366543Y53087335D01*
X55427585Y53077667D01*
X55482653Y53105725D01*
X55547081Y53170154D01*
X55747945Y53304063D01*
X55878880Y53369530D01*
X56080514Y53436742D01*
X56421844Y53505008D01*
X56687755Y53505008D01*
X57029085Y53436742D01*
X57230718Y53369531D01*
X57361653Y53304063D01*
X57562517Y53170154D01*
X57626946Y53105725D01*
X57682014Y53077667D01*
X57743056Y53087335D01*
X57786758Y53131037D01*
X57796426Y53192079D01*
X57768368Y53247147D01*
X57696939Y53318576D01*
X57687950Y53323156D01*
X57681698Y53331070D01*
X57467412Y53473927D01*
X57461234Y53475663D01*
X57456663Y53480165D01*
X57313806Y53551593D01*
X57306583Y53552681D01*
X57300708Y53557018D01*
X57086423Y53628447D01*
X57080007Y53628496D01*
X57074412Y53631637D01*
X56717269Y53703066D01*
X56707250Y53701891D01*
X56697657Y53705008D01*
X56411942Y53705008D01*
X56402348Y53701892D01*
X56392330Y53703066D01*
X56035188Y53631637D01*
X56029592Y53628496D01*
X56023177Y53628447D01*
X55808891Y53557018D01*
X55803015Y53552681D01*
X55795793Y53551593D01*
X55652936Y53480165D01*
X55648364Y53475663D01*
X55642187Y53473927D01*
X55427901Y53331070D01*
X55421648Y53323156D01*
X55412660Y53318576D01*
X55341231Y53247147D01*
X55313173Y53192079D01*
X55098887Y53192079D01*
X55098887Y53919294D01*
X58010712Y53919294D01*
X58010712Y44576435D01*
G37*
D10*
X43689580Y21475834D02*
X43737200Y21428215D01*
X43737200Y21428215D02*
X43784819Y21285358D01*
X43784819Y21285358D02*
X43784819Y21190120D01*
X43784819Y21190120D02*
X43737200Y21047263D01*
X43737200Y21047263D02*
X43641961Y20952025D01*
X43641961Y20952025D02*
X43546723Y20904406D01*
X43546723Y20904406D02*
X43356247Y20856787D01*
X43356247Y20856787D02*
X43213390Y20856787D01*
X43213390Y20856787D02*
X43022914Y20904406D01*
X43022914Y20904406D02*
X42927676Y20952025D01*
X42927676Y20952025D02*
X42832438Y21047263D01*
X42832438Y21047263D02*
X42784819Y21190120D01*
X42784819Y21190120D02*
X42784819Y21285358D01*
X42784819Y21285358D02*
X42832438Y21428215D01*
X42832438Y21428215D02*
X42880057Y21475834D01*
X42880057Y21856787D02*
X42832438Y21904406D01*
X42832438Y21904406D02*
X42784819Y21999644D01*
X42784819Y21999644D02*
X42784819Y22237739D01*
X42784819Y22237739D02*
X42832438Y22332977D01*
X42832438Y22332977D02*
X42880057Y22380596D01*
X42880057Y22380596D02*
X42975295Y22428215D01*
X42975295Y22428215D02*
X43070533Y22428215D01*
X43070533Y22428215D02*
X43213390Y22380596D01*
X43213390Y22380596D02*
X43784819Y21809168D01*
X43784819Y21809168D02*
X43784819Y22428215D01*
X2831666Y54980181D02*
X2831666Y54265896D01*
X2831666Y54265896D02*
X2784047Y54123039D01*
X2784047Y54123039D02*
X2688809Y54027800D01*
X2688809Y54027800D02*
X2545952Y53980181D01*
X2545952Y53980181D02*
X2450714Y53980181D01*
X3831666Y53980181D02*
X3260238Y53980181D01*
X3545952Y53980181D02*
X3545952Y54980181D01*
X3545952Y54980181D02*
X3450714Y54837324D01*
X3450714Y54837324D02*
X3355476Y54742086D01*
X3355476Y54742086D02*
X3260238Y54694467D01*
X33606580Y22137334D02*
X33654200Y22089715D01*
X33654200Y22089715D02*
X33701819Y21946858D01*
X33701819Y21946858D02*
X33701819Y21851620D01*
X33701819Y21851620D02*
X33654200Y21708763D01*
X33654200Y21708763D02*
X33558961Y21613525D01*
X33558961Y21613525D02*
X33463723Y21565906D01*
X33463723Y21565906D02*
X33273247Y21518287D01*
X33273247Y21518287D02*
X33130390Y21518287D01*
X33130390Y21518287D02*
X32939914Y21565906D01*
X32939914Y21565906D02*
X32844676Y21613525D01*
X32844676Y21613525D02*
X32749438Y21708763D01*
X32749438Y21708763D02*
X32701819Y21851620D01*
X32701819Y21851620D02*
X32701819Y21946858D01*
X32701819Y21946858D02*
X32749438Y22089715D01*
X32749438Y22089715D02*
X32797057Y22137334D01*
X33701819Y23089715D02*
X33701819Y22518287D01*
X33701819Y22804001D02*
X32701819Y22804001D01*
X32701819Y22804001D02*
X32844676Y22708763D01*
X32844676Y22708763D02*
X32939914Y22613525D01*
X32939914Y22613525D02*
X32987533Y22518287D01*
X43157666Y62705181D02*
X43157666Y61990896D01*
X43157666Y61990896D02*
X43110047Y61848039D01*
X43110047Y61848039D02*
X43014809Y61752800D01*
X43014809Y61752800D02*
X42871952Y61705181D01*
X42871952Y61705181D02*
X42776714Y61705181D01*
X44110047Y62705181D02*
X43633857Y62705181D01*
X43633857Y62705181D02*
X43586238Y62228991D01*
X43586238Y62228991D02*
X43633857Y62276610D01*
X43633857Y62276610D02*
X43729095Y62324229D01*
X43729095Y62324229D02*
X43967190Y62324229D01*
X43967190Y62324229D02*
X44062428Y62276610D01*
X44062428Y62276610D02*
X44110047Y62228991D01*
X44110047Y62228991D02*
X44157666Y62133753D01*
X44157666Y62133753D02*
X44157666Y61895658D01*
X44157666Y61895658D02*
X44110047Y61800420D01*
X44110047Y61800420D02*
X44062428Y61752800D01*
X44062428Y61752800D02*
X43967190Y61705181D01*
X43967190Y61705181D02*
X43729095Y61705181D01*
X43729095Y61705181D02*
X43633857Y61752800D01*
X43633857Y61752800D02*
X43586238Y61800420D01*
X10129466Y15025981D02*
X10129466Y14311696D01*
X10129466Y14311696D02*
X10081847Y14168839D01*
X10081847Y14168839D02*
X9986609Y14073600D01*
X9986609Y14073600D02*
X9843752Y14025981D01*
X9843752Y14025981D02*
X9748514Y14025981D01*
X10605657Y14025981D02*
X10605657Y15025981D01*
X10605657Y15025981D02*
X10986609Y15025981D01*
X10986609Y15025981D02*
X11081847Y14978362D01*
X11081847Y14978362D02*
X11129466Y14930743D01*
X11129466Y14930743D02*
X11177085Y14835505D01*
X11177085Y14835505D02*
X11177085Y14692648D01*
X11177085Y14692648D02*
X11129466Y14597410D01*
X11129466Y14597410D02*
X11081847Y14549791D01*
X11081847Y14549791D02*
X10986609Y14502172D01*
X10986609Y14502172D02*
X10605657Y14502172D01*
X11558038Y14930743D02*
X11605657Y14978362D01*
X11605657Y14978362D02*
X11700895Y15025981D01*
X11700895Y15025981D02*
X11938990Y15025981D01*
X11938990Y15025981D02*
X12034228Y14978362D01*
X12034228Y14978362D02*
X12081847Y14930743D01*
X12081847Y14930743D02*
X12129466Y14835505D01*
X12129466Y14835505D02*
X12129466Y14740267D01*
X12129466Y14740267D02*
X12081847Y14597410D01*
X12081847Y14597410D02*
X11510419Y14025981D01*
X11510419Y14025981D02*
X12129466Y14025981D01*
X29414333Y16550920D02*
X29366714Y16503300D01*
X29366714Y16503300D02*
X29223857Y16455681D01*
X29223857Y16455681D02*
X29128619Y16455681D01*
X29128619Y16455681D02*
X28985762Y16503300D01*
X28985762Y16503300D02*
X28890524Y16598539D01*
X28890524Y16598539D02*
X28842905Y16693777D01*
X28842905Y16693777D02*
X28795286Y16884253D01*
X28795286Y16884253D02*
X28795286Y17027110D01*
X28795286Y17027110D02*
X28842905Y17217586D01*
X28842905Y17217586D02*
X28890524Y17312824D01*
X28890524Y17312824D02*
X28985762Y17408062D01*
X28985762Y17408062D02*
X29128619Y17455681D01*
X29128619Y17455681D02*
X29223857Y17455681D01*
X29223857Y17455681D02*
X29366714Y17408062D01*
X29366714Y17408062D02*
X29414333Y17360443D01*
X29747667Y17455681D02*
X30414333Y17455681D01*
X30414333Y17455681D02*
X29985762Y16455681D01*
X27910666Y44417181D02*
X27910666Y43702896D01*
X27910666Y43702896D02*
X27863047Y43560039D01*
X27863047Y43560039D02*
X27767809Y43464800D01*
X27767809Y43464800D02*
X27624952Y43417181D01*
X27624952Y43417181D02*
X27529714Y43417181D01*
X28291619Y44417181D02*
X28958285Y44417181D01*
X28958285Y44417181D02*
X28529714Y43417181D01*
X46432333Y17820920D02*
X46384714Y17773300D01*
X46384714Y17773300D02*
X46241857Y17725681D01*
X46241857Y17725681D02*
X46146619Y17725681D01*
X46146619Y17725681D02*
X46003762Y17773300D01*
X46003762Y17773300D02*
X45908524Y17868539D01*
X45908524Y17868539D02*
X45860905Y17963777D01*
X45860905Y17963777D02*
X45813286Y18154253D01*
X45813286Y18154253D02*
X45813286Y18297110D01*
X45813286Y18297110D02*
X45860905Y18487586D01*
X45860905Y18487586D02*
X45908524Y18582824D01*
X45908524Y18582824D02*
X46003762Y18678062D01*
X46003762Y18678062D02*
X46146619Y18725681D01*
X46146619Y18725681D02*
X46241857Y18725681D01*
X46241857Y18725681D02*
X46384714Y18678062D01*
X46384714Y18678062D02*
X46432333Y18630443D01*
X47337095Y18725681D02*
X46860905Y18725681D01*
X46860905Y18725681D02*
X46813286Y18249491D01*
X46813286Y18249491D02*
X46860905Y18297110D01*
X46860905Y18297110D02*
X46956143Y18344729D01*
X46956143Y18344729D02*
X47194238Y18344729D01*
X47194238Y18344729D02*
X47289476Y18297110D01*
X47289476Y18297110D02*
X47337095Y18249491D01*
X47337095Y18249491D02*
X47384714Y18154253D01*
X47384714Y18154253D02*
X47384714Y17916158D01*
X47384714Y17916158D02*
X47337095Y17820920D01*
X47337095Y17820920D02*
X47289476Y17773300D01*
X47289476Y17773300D02*
X47194238Y17725681D01*
X47194238Y17725681D02*
X46956143Y17725681D01*
X46956143Y17725681D02*
X46860905Y17773300D01*
X46860905Y17773300D02*
X46813286Y17820920D01*
X46432333Y16550920D02*
X46384714Y16503300D01*
X46384714Y16503300D02*
X46241857Y16455681D01*
X46241857Y16455681D02*
X46146619Y16455681D01*
X46146619Y16455681D02*
X46003762Y16503300D01*
X46003762Y16503300D02*
X45908524Y16598539D01*
X45908524Y16598539D02*
X45860905Y16693777D01*
X45860905Y16693777D02*
X45813286Y16884253D01*
X45813286Y16884253D02*
X45813286Y17027110D01*
X45813286Y17027110D02*
X45860905Y17217586D01*
X45860905Y17217586D02*
X45908524Y17312824D01*
X45908524Y17312824D02*
X46003762Y17408062D01*
X46003762Y17408062D02*
X46146619Y17455681D01*
X46146619Y17455681D02*
X46241857Y17455681D01*
X46241857Y17455681D02*
X46384714Y17408062D01*
X46384714Y17408062D02*
X46432333Y17360443D01*
X47289476Y17122348D02*
X47289476Y16455681D01*
X47051381Y17503300D02*
X46813286Y16789015D01*
X46813286Y16789015D02*
X47432333Y16789015D01*
X12647666Y44417181D02*
X12647666Y43702896D01*
X12647666Y43702896D02*
X12600047Y43560039D01*
X12600047Y43560039D02*
X12504809Y43464800D01*
X12504809Y43464800D02*
X12361952Y43417181D01*
X12361952Y43417181D02*
X12266714Y43417181D01*
X13266714Y43988610D02*
X13171476Y44036229D01*
X13171476Y44036229D02*
X13123857Y44083848D01*
X13123857Y44083848D02*
X13076238Y44179086D01*
X13076238Y44179086D02*
X13076238Y44226705D01*
X13076238Y44226705D02*
X13123857Y44321943D01*
X13123857Y44321943D02*
X13171476Y44369562D01*
X13171476Y44369562D02*
X13266714Y44417181D01*
X13266714Y44417181D02*
X13457190Y44417181D01*
X13457190Y44417181D02*
X13552428Y44369562D01*
X13552428Y44369562D02*
X13600047Y44321943D01*
X13600047Y44321943D02*
X13647666Y44226705D01*
X13647666Y44226705D02*
X13647666Y44179086D01*
X13647666Y44179086D02*
X13600047Y44083848D01*
X13600047Y44083848D02*
X13552428Y44036229D01*
X13552428Y44036229D02*
X13457190Y43988610D01*
X13457190Y43988610D02*
X13266714Y43988610D01*
X13266714Y43988610D02*
X13171476Y43940991D01*
X13171476Y43940991D02*
X13123857Y43893372D01*
X13123857Y43893372D02*
X13076238Y43798134D01*
X13076238Y43798134D02*
X13076238Y43607658D01*
X13076238Y43607658D02*
X13123857Y43512420D01*
X13123857Y43512420D02*
X13171476Y43464800D01*
X13171476Y43464800D02*
X13266714Y43417181D01*
X13266714Y43417181D02*
X13457190Y43417181D01*
X13457190Y43417181D02*
X13552428Y43464800D01*
X13552428Y43464800D02*
X13600047Y43512420D01*
X13600047Y43512420D02*
X13647666Y43607658D01*
X13647666Y43607658D02*
X13647666Y43798134D01*
X13647666Y43798134D02*
X13600047Y43893372D01*
X13600047Y43893372D02*
X13552428Y43940991D01*
X13552428Y43940991D02*
X13457190Y43988610D01*
D13*
X36469237Y18114182D02*
X36469237Y19384182D01*
X37799714Y18235135D02*
X37739238Y18174658D01*
X37739238Y18174658D02*
X37557809Y18114182D01*
X37557809Y18114182D02*
X37436857Y18114182D01*
X37436857Y18114182D02*
X37255428Y18174658D01*
X37255428Y18174658D02*
X37134476Y18295611D01*
X37134476Y18295611D02*
X37073999Y18416563D01*
X37073999Y18416563D02*
X37013523Y18658468D01*
X37013523Y18658468D02*
X37013523Y18839897D01*
X37013523Y18839897D02*
X37073999Y19081801D01*
X37073999Y19081801D02*
X37134476Y19202754D01*
X37134476Y19202754D02*
X37255428Y19323706D01*
X37255428Y19323706D02*
X37436857Y19384182D01*
X37436857Y19384182D02*
X37557809Y19384182D01*
X37557809Y19384182D02*
X37739238Y19323706D01*
X37739238Y19323706D02*
X37799714Y19263230D01*
X38283523Y19263230D02*
X38343999Y19323706D01*
X38343999Y19323706D02*
X38464952Y19384182D01*
X38464952Y19384182D02*
X38767333Y19384182D01*
X38767333Y19384182D02*
X38888285Y19323706D01*
X38888285Y19323706D02*
X38948761Y19263230D01*
X38948761Y19263230D02*
X39009238Y19142278D01*
X39009238Y19142278D02*
X39009238Y19021325D01*
X39009238Y19021325D02*
X38948761Y18839897D01*
X38948761Y18839897D02*
X38223047Y18114182D01*
X38223047Y18114182D02*
X39009238Y18114182D01*
D10*
X61520819Y39939334D02*
X62235104Y39939334D01*
X62235104Y39939334D02*
X62377961Y39891715D01*
X62377961Y39891715D02*
X62473200Y39796477D01*
X62473200Y39796477D02*
X62520819Y39653620D01*
X62520819Y39653620D02*
X62520819Y39558382D01*
X61616057Y40367906D02*
X61568438Y40415525D01*
X61568438Y40415525D02*
X61520819Y40510763D01*
X61520819Y40510763D02*
X61520819Y40748858D01*
X61520819Y40748858D02*
X61568438Y40844096D01*
X61568438Y40844096D02*
X61616057Y40891715D01*
X61616057Y40891715D02*
X61711295Y40939334D01*
X61711295Y40939334D02*
X61806533Y40939334D01*
X61806533Y40939334D02*
X61949390Y40891715D01*
X61949390Y40891715D02*
X62520819Y40320287D01*
X62520819Y40320287D02*
X62520819Y40939334D01*
X46432333Y15280920D02*
X46384714Y15233300D01*
X46384714Y15233300D02*
X46241857Y15185681D01*
X46241857Y15185681D02*
X46146619Y15185681D01*
X46146619Y15185681D02*
X46003762Y15233300D01*
X46003762Y15233300D02*
X45908524Y15328539D01*
X45908524Y15328539D02*
X45860905Y15423777D01*
X45860905Y15423777D02*
X45813286Y15614253D01*
X45813286Y15614253D02*
X45813286Y15757110D01*
X45813286Y15757110D02*
X45860905Y15947586D01*
X45860905Y15947586D02*
X45908524Y16042824D01*
X45908524Y16042824D02*
X46003762Y16138062D01*
X46003762Y16138062D02*
X46146619Y16185681D01*
X46146619Y16185681D02*
X46241857Y16185681D01*
X46241857Y16185681D02*
X46384714Y16138062D01*
X46384714Y16138062D02*
X46432333Y16090443D01*
X46765667Y16185681D02*
X47384714Y16185681D01*
X47384714Y16185681D02*
X47051381Y15804729D01*
X47051381Y15804729D02*
X47194238Y15804729D01*
X47194238Y15804729D02*
X47289476Y15757110D01*
X47289476Y15757110D02*
X47337095Y15709491D01*
X47337095Y15709491D02*
X47384714Y15614253D01*
X47384714Y15614253D02*
X47384714Y15376158D01*
X47384714Y15376158D02*
X47337095Y15280920D01*
X47337095Y15280920D02*
X47289476Y15233300D01*
X47289476Y15233300D02*
X47194238Y15185681D01*
X47194238Y15185681D02*
X46908524Y15185681D01*
X46908524Y15185681D02*
X46813286Y15233300D01*
X46813286Y15233300D02*
X46765667Y15280920D01*
X49074666Y9304181D02*
X49074666Y8589896D01*
X49074666Y8589896D02*
X49027047Y8447039D01*
X49027047Y8447039D02*
X48931809Y8351800D01*
X48931809Y8351800D02*
X48788952Y8304181D01*
X48788952Y8304181D02*
X48693714Y8304181D01*
X49979428Y8970848D02*
X49979428Y8304181D01*
X49741333Y9351800D02*
X49503238Y8637515D01*
X49503238Y8637515D02*
X50122285Y8637515D01*
X10129466Y17464381D02*
X10129466Y16750096D01*
X10129466Y16750096D02*
X10081847Y16607239D01*
X10081847Y16607239D02*
X9986609Y16512000D01*
X9986609Y16512000D02*
X9843752Y16464381D01*
X9843752Y16464381D02*
X9748514Y16464381D01*
X10605657Y16464381D02*
X10605657Y17464381D01*
X10605657Y17464381D02*
X10986609Y17464381D01*
X10986609Y17464381D02*
X11081847Y17416762D01*
X11081847Y17416762D02*
X11129466Y17369143D01*
X11129466Y17369143D02*
X11177085Y17273905D01*
X11177085Y17273905D02*
X11177085Y17131048D01*
X11177085Y17131048D02*
X11129466Y17035810D01*
X11129466Y17035810D02*
X11081847Y16988191D01*
X11081847Y16988191D02*
X10986609Y16940572D01*
X10986609Y16940572D02*
X10605657Y16940572D01*
X12129466Y16464381D02*
X11558038Y16464381D01*
X11843752Y16464381D02*
X11843752Y17464381D01*
X11843752Y17464381D02*
X11748514Y17321524D01*
X11748514Y17321524D02*
X11653276Y17226286D01*
X11653276Y17226286D02*
X11558038Y17178667D01*
X43127666Y44417181D02*
X43127666Y43702896D01*
X43127666Y43702896D02*
X43080047Y43560039D01*
X43080047Y43560039D02*
X42984809Y43464800D01*
X42984809Y43464800D02*
X42841952Y43417181D01*
X42841952Y43417181D02*
X42746714Y43417181D01*
X44032428Y44417181D02*
X43841952Y44417181D01*
X43841952Y44417181D02*
X43746714Y44369562D01*
X43746714Y44369562D02*
X43699095Y44321943D01*
X43699095Y44321943D02*
X43603857Y44179086D01*
X43603857Y44179086D02*
X43556238Y43988610D01*
X43556238Y43988610D02*
X43556238Y43607658D01*
X43556238Y43607658D02*
X43603857Y43512420D01*
X43603857Y43512420D02*
X43651476Y43464800D01*
X43651476Y43464800D02*
X43746714Y43417181D01*
X43746714Y43417181D02*
X43937190Y43417181D01*
X43937190Y43417181D02*
X44032428Y43464800D01*
X44032428Y43464800D02*
X44080047Y43512420D01*
X44080047Y43512420D02*
X44127666Y43607658D01*
X44127666Y43607658D02*
X44127666Y43845753D01*
X44127666Y43845753D02*
X44080047Y43940991D01*
X44080047Y43940991D02*
X44032428Y43988610D01*
X44032428Y43988610D02*
X43937190Y44036229D01*
X43937190Y44036229D02*
X43746714Y44036229D01*
X43746714Y44036229D02*
X43651476Y43988610D01*
X43651476Y43988610D02*
X43603857Y43940991D01*
X43603857Y43940991D02*
X43556238Y43845753D01*
X36693810Y23991681D02*
X36693810Y24991681D01*
X37741428Y24086920D02*
X37693809Y24039300D01*
X37693809Y24039300D02*
X37550952Y23991681D01*
X37550952Y23991681D02*
X37455714Y23991681D01*
X37455714Y23991681D02*
X37312857Y24039300D01*
X37312857Y24039300D02*
X37217619Y24134539D01*
X37217619Y24134539D02*
X37170000Y24229777D01*
X37170000Y24229777D02*
X37122381Y24420253D01*
X37122381Y24420253D02*
X37122381Y24563110D01*
X37122381Y24563110D02*
X37170000Y24753586D01*
X37170000Y24753586D02*
X37217619Y24848824D01*
X37217619Y24848824D02*
X37312857Y24944062D01*
X37312857Y24944062D02*
X37455714Y24991681D01*
X37455714Y24991681D02*
X37550952Y24991681D01*
X37550952Y24991681D02*
X37693809Y24944062D01*
X37693809Y24944062D02*
X37741428Y24896443D01*
X38693809Y23991681D02*
X38122381Y23991681D01*
X38408095Y23991681D02*
X38408095Y24991681D01*
X38408095Y24991681D02*
X38312857Y24848824D01*
X38312857Y24848824D02*
X38217619Y24753586D01*
X38217619Y24753586D02*
X38122381Y24705967D01*
X61166819Y23748667D02*
X61881104Y23748667D01*
X61881104Y23748667D02*
X62023961Y23701048D01*
X62023961Y23701048D02*
X62119200Y23605810D01*
X62119200Y23605810D02*
X62166819Y23462953D01*
X62166819Y23462953D02*
X62166819Y23367715D01*
X61166819Y24129620D02*
X61166819Y24748667D01*
X61166819Y24748667D02*
X61547771Y24415334D01*
X61547771Y24415334D02*
X61547771Y24558191D01*
X61547771Y24558191D02*
X61595390Y24653429D01*
X61595390Y24653429D02*
X61643009Y24701048D01*
X61643009Y24701048D02*
X61738247Y24748667D01*
X61738247Y24748667D02*
X61976342Y24748667D01*
X61976342Y24748667D02*
X62071580Y24701048D01*
X62071580Y24701048D02*
X62119200Y24653429D01*
X62119200Y24653429D02*
X62166819Y24558191D01*
X62166819Y24558191D02*
X62166819Y24272477D01*
X62166819Y24272477D02*
X62119200Y24177239D01*
X62119200Y24177239D02*
X62071580Y24129620D01*
X29473833Y15280920D02*
X29426214Y15233300D01*
X29426214Y15233300D02*
X29283357Y15185681D01*
X29283357Y15185681D02*
X29188119Y15185681D01*
X29188119Y15185681D02*
X29045262Y15233300D01*
X29045262Y15233300D02*
X28950024Y15328539D01*
X28950024Y15328539D02*
X28902405Y15423777D01*
X28902405Y15423777D02*
X28854786Y15614253D01*
X28854786Y15614253D02*
X28854786Y15757110D01*
X28854786Y15757110D02*
X28902405Y15947586D01*
X28902405Y15947586D02*
X28950024Y16042824D01*
X28950024Y16042824D02*
X29045262Y16138062D01*
X29045262Y16138062D02*
X29188119Y16185681D01*
X29188119Y16185681D02*
X29283357Y16185681D01*
X29283357Y16185681D02*
X29426214Y16138062D01*
X29426214Y16138062D02*
X29473833Y16090443D01*
X30330976Y16185681D02*
X30140500Y16185681D01*
X30140500Y16185681D02*
X30045262Y16138062D01*
X30045262Y16138062D02*
X29997643Y16090443D01*
X29997643Y16090443D02*
X29902405Y15947586D01*
X29902405Y15947586D02*
X29854786Y15757110D01*
X29854786Y15757110D02*
X29854786Y15376158D01*
X29854786Y15376158D02*
X29902405Y15280920D01*
X29902405Y15280920D02*
X29950024Y15233300D01*
X29950024Y15233300D02*
X30045262Y15185681D01*
X30045262Y15185681D02*
X30235738Y15185681D01*
X30235738Y15185681D02*
X30330976Y15233300D01*
X30330976Y15233300D02*
X30378595Y15280920D01*
X30378595Y15280920D02*
X30426214Y15376158D01*
X30426214Y15376158D02*
X30426214Y15614253D01*
X30426214Y15614253D02*
X30378595Y15709491D01*
X30378595Y15709491D02*
X30330976Y15757110D01*
X30330976Y15757110D02*
X30235738Y15804729D01*
X30235738Y15804729D02*
X30045262Y15804729D01*
X30045262Y15804729D02*
X29950024Y15757110D01*
X29950024Y15757110D02*
X29902405Y15709491D01*
X29902405Y15709491D02*
X29854786Y15614253D01*
D14*
X41390000Y21788767D02*
X41390000Y21496233D01*
X42410000Y21788767D02*
X42410000Y21496233D01*
X-8330000Y51350000D02*
X-8330000Y13130000D01*
X-8330000Y51350000D02*
X300000Y51350000D01*
X-8330000Y51230000D02*
X300000Y51230000D01*
X-8330000Y51111905D02*
X300000Y51111905D01*
X-8330000Y50993810D02*
X300000Y50993810D01*
X-8330000Y50875715D02*
X300000Y50875715D01*
X-8330000Y50757620D02*
X300000Y50757620D01*
X-8330000Y50639525D02*
X300000Y50639525D01*
X-8330000Y50521430D02*
X300000Y50521430D01*
X-8330000Y50403335D02*
X300000Y50403335D01*
X-8330000Y50285240D02*
X300000Y50285240D01*
X-8330000Y50167145D02*
X300000Y50167145D01*
X-8330000Y50049050D02*
X300000Y50049050D01*
X-8330000Y49930955D02*
X300000Y49930955D01*
X-8330000Y49812860D02*
X300000Y49812860D01*
X-8330000Y49694765D02*
X300000Y49694765D01*
X-8330000Y49576670D02*
X300000Y49576670D01*
X-8330000Y49458575D02*
X300000Y49458575D01*
X-8330000Y49340480D02*
X300000Y49340480D01*
X-8330000Y49222385D02*
X300000Y49222385D01*
X-8330000Y49104290D02*
X300000Y49104290D01*
X-8330000Y48986195D02*
X300000Y48986195D01*
X-8330000Y48868100D02*
X300000Y48868100D01*
X-8330000Y48750000D02*
X300000Y48750000D01*
X-8330000Y46210000D02*
X300000Y46210000D01*
X-8330000Y43670000D02*
X300000Y43670000D01*
X-8330000Y41130000D02*
X300000Y41130000D01*
X-8330000Y38590000D02*
X300000Y38590000D01*
X-8330000Y36050000D02*
X300000Y36050000D01*
X-8330000Y33510000D02*
X300000Y33510000D01*
X-8330000Y30970000D02*
X300000Y30970000D01*
X-8330000Y28430000D02*
X300000Y28430000D01*
X-8330000Y25890000D02*
X300000Y25890000D01*
X-8330000Y23350000D02*
X300000Y23350000D01*
X-8330000Y20810000D02*
X300000Y20810000D01*
X-8330000Y18270000D02*
X300000Y18270000D01*
X-8330000Y15730000D02*
X300000Y15730000D01*
X-8330000Y13130000D02*
X300000Y13130000D01*
X300000Y51350000D02*
X300000Y13130000D01*
X300000Y50380000D02*
X710000Y50380000D01*
X300000Y49660000D02*
X710000Y49660000D01*
X300000Y47840000D02*
X710000Y47840000D01*
X300000Y47120000D02*
X710000Y47120000D01*
X300000Y45300000D02*
X710000Y45300000D01*
X300000Y44580000D02*
X710000Y44580000D01*
X300000Y42760000D02*
X710000Y42760000D01*
X300000Y42040000D02*
X710000Y42040000D01*
X300000Y40220000D02*
X710000Y40220000D01*
X300000Y39500000D02*
X710000Y39500000D01*
X300000Y37680000D02*
X710000Y37680000D01*
X300000Y36960000D02*
X710000Y36960000D01*
X300000Y35140000D02*
X710000Y35140000D01*
X300000Y34420000D02*
X710000Y34420000D01*
X300000Y32600000D02*
X710000Y32600000D01*
X300000Y31880000D02*
X710000Y31880000D01*
X300000Y30060000D02*
X710000Y30060000D01*
X300000Y29340000D02*
X710000Y29340000D01*
X300000Y27520000D02*
X710000Y27520000D01*
X300000Y26800000D02*
X710000Y26800000D01*
X300000Y24980000D02*
X710000Y24980000D01*
X300000Y24260000D02*
X710000Y24260000D01*
X300000Y22440000D02*
X710000Y22440000D01*
X300000Y21720000D02*
X710000Y21720000D01*
X300000Y19900000D02*
X710000Y19900000D01*
X300000Y19180000D02*
X710000Y19180000D01*
X300000Y17360000D02*
X710000Y17360000D01*
X300000Y16640000D02*
X710000Y16640000D01*
X300000Y14820000D02*
X710000Y14820000D01*
X300000Y14100000D02*
X710000Y14100000D01*
X2810000Y50380000D02*
X3190000Y50380000D01*
X2810000Y49660000D02*
X3190000Y49660000D01*
X2810000Y47840000D02*
X3250000Y47840000D01*
X2810000Y47120000D02*
X3250000Y47120000D01*
X2810000Y45300000D02*
X3250000Y45300000D01*
X2810000Y44580000D02*
X3250000Y44580000D01*
X2810000Y42760000D02*
X3250000Y42760000D01*
X2810000Y42040000D02*
X3250000Y42040000D01*
X2810000Y40220000D02*
X3250000Y40220000D01*
X2810000Y39500000D02*
X3250000Y39500000D01*
X2810000Y37680000D02*
X3250000Y37680000D01*
X2810000Y36960000D02*
X3250000Y36960000D01*
X2810000Y35140000D02*
X3250000Y35140000D01*
X2810000Y34420000D02*
X3250000Y34420000D01*
X2810000Y32600000D02*
X3250000Y32600000D01*
X2810000Y31880000D02*
X3250000Y31880000D01*
X2810000Y30060000D02*
X3250000Y30060000D01*
X2810000Y29340000D02*
X3250000Y29340000D01*
X2810000Y27520000D02*
X3250000Y27520000D01*
X2810000Y26800000D02*
X3250000Y26800000D01*
X2810000Y24980000D02*
X3250000Y24980000D01*
X2810000Y24260000D02*
X3250000Y24260000D01*
X2810000Y22440000D02*
X3250000Y22440000D01*
X2810000Y21720000D02*
X3250000Y21720000D01*
X2810000Y19900000D02*
X3250000Y19900000D01*
X2810000Y19180000D02*
X3250000Y19180000D01*
X2810000Y17360000D02*
X3250000Y17360000D01*
X2810000Y16640000D02*
X3250000Y16640000D01*
X2810000Y14820000D02*
X3250000Y14820000D01*
X2810000Y14100000D02*
X3250000Y14100000D01*
X4300000Y51350000D02*
X5410000Y51350000D01*
X5410000Y51350000D02*
X5410000Y50020000D01*
X34047000Y22188165D02*
X34047000Y22419835D01*
X34767000Y22188165D02*
X34767000Y22419835D01*
X39451000Y60590000D02*
X40891000Y60590000D01*
X40891000Y61160000D02*
X40891000Y60590000D01*
X40891000Y61160000D02*
X46091000Y61160000D01*
X40891000Y59070000D02*
X40891000Y58050000D01*
X40891000Y56530000D02*
X40891000Y55510000D01*
X40891000Y53990000D02*
X40891000Y52970000D01*
X40891000Y51450000D02*
X40891000Y50430000D01*
X40891000Y48910000D02*
X40891000Y47890000D01*
X40891000Y46370000D02*
X40891000Y45800000D01*
X40891000Y45800000D02*
X46091000Y45800000D01*
X46091000Y61160000D02*
X46091000Y60590000D01*
X46091000Y59070000D02*
X46091000Y58050000D01*
X46091000Y56530000D02*
X46091000Y55510000D01*
X46091000Y53990000D02*
X46091000Y52970000D01*
X46091000Y51450000D02*
X46091000Y50430000D01*
X46091000Y48910000D02*
X46091000Y47890000D01*
X46091000Y46370000D02*
X46091000Y45800000D01*
X6555200Y14180800D02*
X6555200Y14780800D01*
X7255200Y15480800D02*
X8655200Y15480800D01*
X8655200Y13480800D02*
X7255200Y13480800D01*
X9355200Y14780800D02*
X9355200Y14180800D01*
X7255200Y15480800D02*
G75*
G03*
X6555200Y14780800I-1J-699999D01*
G01*
X6555200Y14180800D02*
G75*
G03*
X7255200Y13480800I699999J-1D01*
G01*
X9355200Y14780800D02*
G75*
G03*
X8655200Y15480800I-700000J0D01*
G01*
X8655200Y13480800D02*
G75*
G03*
X9355200Y14180800I0J700000D01*
G01*
X31810665Y17270500D02*
X32042335Y17270500D01*
X31810665Y16550500D02*
X32042335Y16550500D01*
X24204000Y42302000D02*
X25644000Y42302000D01*
X25644000Y42872000D02*
X25644000Y42302000D01*
X25644000Y42872000D02*
X30844000Y42872000D01*
X25644000Y40782000D02*
X25644000Y39762000D01*
X25644000Y38242000D02*
X25644000Y37222000D01*
X25644000Y35702000D02*
X25644000Y34682000D01*
X25644000Y33162000D02*
X25644000Y32142000D01*
X25644000Y30622000D02*
X25644000Y29602000D01*
X25644000Y28082000D02*
X25644000Y27512000D01*
X25644000Y27512000D02*
X30844000Y27512000D01*
X30844000Y42872000D02*
X30844000Y42302000D01*
X30844000Y40782000D02*
X30844000Y39762000D01*
X30844000Y38242000D02*
X30844000Y37222000D01*
X30844000Y35702000D02*
X30844000Y34682000D01*
X30844000Y33162000D02*
X30844000Y32142000D01*
X30844000Y30622000D02*
X30844000Y29602000D01*
X30844000Y28082000D02*
X30844000Y27512000D01*
X43607335Y17820500D02*
X43375665Y17820500D01*
X43607335Y18540500D02*
X43375665Y18540500D01*
X43607335Y16550500D02*
X43375665Y16550500D01*
X43607335Y17270500D02*
X43375665Y17270500D01*
X8941000Y42302000D02*
X10381000Y42302000D01*
X10381000Y42872000D02*
X10381000Y42302000D01*
X10381000Y42872000D02*
X15581000Y42872000D01*
X10381000Y40782000D02*
X10381000Y39762000D01*
X10381000Y38242000D02*
X10381000Y37222000D01*
X10381000Y35702000D02*
X10381000Y34682000D01*
X10381000Y33162000D02*
X10381000Y32142000D01*
X10381000Y30622000D02*
X10381000Y29602000D01*
X10381000Y28082000D02*
X10381000Y27512000D01*
X10381000Y27512000D02*
X15581000Y27512000D01*
X15581000Y42872000D02*
X15581000Y42302000D01*
X15581000Y40782000D02*
X15581000Y39762000D01*
X15581000Y38242000D02*
X15581000Y37222000D01*
X15581000Y35702000D02*
X15581000Y34682000D01*
X15581000Y33162000D02*
X15581000Y32142000D01*
X15581000Y30622000D02*
X15581000Y29602000D01*
X15581000Y28082000D02*
X15581000Y27512000D01*
D12*
X33898000Y17556500D02*
X35373000Y17556500D01*
X35723000Y17606500D02*
X39423000Y17606500D01*
X35723000Y7906500D02*
X35723000Y17606500D01*
X39423000Y17606500D02*
X39423000Y7906500D01*
X39423000Y7906500D02*
X35723000Y7906500D01*
D14*
X60066000Y43012667D02*
X63806000Y43012667D01*
X60066000Y56459333D02*
X60066000Y43012667D01*
X63806000Y56459333D02*
X60066000Y56459333D01*
X59826000Y56699333D02*
X59826000Y52506000D01*
X62066000Y56699333D02*
X59826000Y56699333D01*
X43607335Y15280500D02*
X43375665Y15280500D01*
X43607335Y16000500D02*
X43375665Y16000500D01*
X45368000Y7189000D02*
X46808000Y7189000D01*
X46808000Y7759000D02*
X46808000Y7189000D01*
X46808000Y7759000D02*
X52008000Y7759000D01*
X46808000Y5669000D02*
X46808000Y4649000D01*
X46808000Y3129000D02*
X46808000Y2559000D01*
X46808000Y2559000D02*
X52008000Y2559000D01*
X52008000Y7759000D02*
X52008000Y7189000D01*
X52008000Y5669000D02*
X52008000Y4649000D01*
X52008000Y3129000D02*
X52008000Y2559000D01*
X6555200Y16720800D02*
X6555200Y17320800D01*
X7255200Y18020800D02*
X8655200Y18020800D01*
X8655200Y16020800D02*
X7255200Y16020800D01*
X9355200Y17320800D02*
X9355200Y16720800D01*
X7255200Y18020800D02*
G75*
G03*
X6555200Y17320800I-1J-699999D01*
G01*
X6555200Y16720800D02*
G75*
G03*
X7255200Y16020800I699999J-1D01*
G01*
X9355200Y17320800D02*
G75*
G03*
X8655200Y18020800I-700000J0D01*
G01*
X8655200Y16020800D02*
G75*
G03*
X9355200Y16720800I0J700000D01*
G01*
X39421000Y42302000D02*
X40861000Y42302000D01*
X40861000Y42872000D02*
X40861000Y42302000D01*
X40861000Y42872000D02*
X46061000Y42872000D01*
X40861000Y40782000D02*
X40861000Y39762000D01*
X40861000Y38242000D02*
X40861000Y37222000D01*
X40861000Y35702000D02*
X40861000Y34682000D01*
X40861000Y33162000D02*
X40861000Y32142000D01*
X40861000Y30622000D02*
X40861000Y29602000D01*
X40861000Y28082000D02*
X40861000Y27512000D01*
X40861000Y27512000D02*
X46061000Y27512000D01*
X46061000Y42872000D02*
X46061000Y42302000D01*
X46061000Y40782000D02*
X46061000Y39762000D01*
X46061000Y38242000D02*
X46061000Y37222000D01*
X46061000Y35702000D02*
X46061000Y34682000D01*
X46061000Y33162000D02*
X46061000Y32142000D01*
X46061000Y30622000D02*
X46061000Y29602000D01*
X46061000Y28082000D02*
X46061000Y27512000D01*
X36770000Y19936500D02*
X38570000Y19936500D01*
X38570000Y23156500D02*
X36120000Y23156500D01*
X59748500Y7847667D02*
X59748500Y12041000D01*
X61988500Y7847667D02*
X59748500Y7847667D01*
X59988500Y8087667D02*
X63728500Y8087667D01*
X59988500Y21534333D02*
X59988500Y8087667D01*
X63728500Y21534333D02*
X59988500Y21534333D01*
X31751165Y16000500D02*
X31982835Y16000500D01*
X31751165Y15280500D02*
X31982835Y15280500D01*
M02*
