G04 #@! TF.GenerationSoftware,KiCad,Pcbnew,7.0.7*
G04 #@! TF.CreationDate,2023-10-01T11:51:18+11:00*
G04 #@! TF.ProjectId,AnalogDiscovery_rs232_5_wire_sniffer,416e616c-6f67-4446-9973-636f76657279,rev?*
G04 #@! TF.SameCoordinates,PX69618a0PY7bfa480*
G04 #@! TF.FileFunction,Soldermask,Bot*
G04 #@! TF.FilePolarity,Negative*
%FSLAX46Y46*%
G04 Gerber Fmt 4.6, Leading zero omitted, Abs format (unit mm)*
G04 Created by KiCad (PCBNEW 7.0.7) date 2023-10-01 11:51:18*
%MOMM*%
%LPD*%
G01*
G04 APERTURE LIST*
G04 Aperture macros list*
%AMRoundRect*
0 Rectangle with rounded corners*
0 $1 Rounding radius*
0 $2 $3 $4 $5 $6 $7 $8 $9 X,Y pos of 4 corners*
0 Add a 4 corners polygon primitive as box body*
4,1,4,$2,$3,$4,$5,$6,$7,$8,$9,$2,$3,0*
0 Add four circle primitives for the rounded corners*
1,1,$1+$1,$2,$3*
1,1,$1+$1,$4,$5*
1,1,$1+$1,$6,$7*
1,1,$1+$1,$8,$9*
0 Add four rect primitives between the rounded corners*
20,1,$1+$1,$2,$3,$4,$5,0*
20,1,$1+$1,$4,$5,$6,$7,0*
20,1,$1+$1,$6,$7,$8,$9,0*
20,1,$1+$1,$8,$9,$2,$3,0*%
G04 Aperture macros list end*
%ADD10RoundRect,0.030000X-0.850000X-0.850000X0.850000X-0.850000X0.850000X0.850000X-0.850000X0.850000X0*%
%ADD11O,1.760000X1.760000*%
%ADD12C,3.260000*%
%ADD13RoundRect,0.030000X1.740000X-0.923333X1.740000X0.923333X-1.740000X0.923333X-1.740000X-0.923333X0*%
G04 APERTURE END LIST*
D10*
X4300000Y50020000D03*
D11*
X1760000Y50020000D03*
X4300000Y47480000D03*
X1760000Y47480000D03*
X4300000Y44940000D03*
X1760000Y44940000D03*
X4300000Y42400000D03*
X1760000Y42400000D03*
X4300000Y39860000D03*
X1760000Y39860000D03*
X4300000Y37320000D03*
X1760000Y37320000D03*
X4300000Y34780000D03*
X1760000Y34780000D03*
X4300000Y32240000D03*
X1760000Y32240000D03*
X4300000Y29700000D03*
X1760000Y29700000D03*
X4300000Y27160000D03*
X1760000Y27160000D03*
X4300000Y24620000D03*
X1760000Y24620000D03*
X4300000Y22080000D03*
X1760000Y22080000D03*
X4300000Y19540000D03*
X1760000Y19540000D03*
X4300000Y17000000D03*
X1760000Y17000000D03*
X4300000Y14460000D03*
X1760000Y14460000D03*
D12*
X3546000Y60531000D03*
X60569000Y4016000D03*
X60569000Y60531000D03*
D13*
X62066000Y53891000D03*
X62066000Y51121000D03*
X62066000Y48351000D03*
X62066000Y45581000D03*
D12*
X3546000Y3508000D03*
D13*
X61988500Y10656000D03*
X61988500Y13426000D03*
X61988500Y16196000D03*
X61988500Y18966000D03*
M02*
